%
M48
M72
T01C0.01378
T02C0.01575
T03C0.02559
T04C0.02756
T05C0.03200
T06C0.03543
T07C0.04000
%
T01
X228800Y145300
X233700Y144200
X205440Y162740
X213489Y175311
X231100Y186100
X221300Y191100
X230700Y195900
X242000Y196000
X241400Y201400
X261800Y199200
X275100Y188000
X270100Y180400
X247700Y176100
X213900Y196900
X201400Y213800
X194000Y214311
X183500Y226000
X153400Y221000
X154800Y198600
X166808Y200408
X166300Y188800
X166800Y183400
X161700Y178500
X150600Y178700
X144800Y176100
X137000Y184100
X154600Y188700
X168700Y168200
X177700Y167300
X184400Y167400
X188700Y167600
X165900Y153743
X126900Y163500
X291200Y198600
X300700Y211700
X306700Y212400
X325800Y209800
T02
X146000Y203500
X140547Y193047
X128500Y206000
X128500Y213500
T03
X133500Y188500
X146000Y166000
X133500Y143500
X181000Y181000
X186000Y181000
X191000Y181000
X196000Y181000
X201000Y181000
X198500Y186000
X193500Y186000
X188500Y186000
X183500Y186000
X181000Y191000
X186000Y191000
X191000Y191000
X196000Y191000
X201000Y191000
X198500Y196000
X193500Y196000
X188500Y196000
X183500Y196000
X181000Y201000
X186000Y201000
X191000Y201000
X196000Y201000
X201000Y201000
X233500Y223500
X246000Y223500
X261000Y183500
X253500Y166000
X253500Y148500
X263500Y146000
X283500Y146000
X316000Y151000
X336000Y146000
X318500Y213500
T04
X321906Y221807
X314031Y221807
X306157Y221807
X298283Y221807
X290409Y221807
X282535Y221807
X274661Y221807
X266787Y221807
X329780Y221807
X337654Y221807
X336000Y167437
X336000Y159563
X337654Y135193
X329780Y135193
X321906Y135193
X314031Y135193
X306157Y135193
X298283Y135193
X290409Y135193
X282535Y135193
X274661Y135193
X266787Y135193
T05
X298500Y161000
X293500Y168500
X303500Y168500
X356000Y193500
X356000Y203500
X113500Y203500
X113500Y193500
T06
X266000Y191295
X266000Y165705
X336000Y190094
X336000Y201906
T07
X128500Y136000
X138500Y136000
X151000Y136000
X161000Y136000
X171000Y136000
X181000Y136000
X191000Y136000
X201000Y136000
X211000Y136000
X221000Y136000
X231000Y136000
X241000Y136000
X233500Y153500
X223500Y153500
X223500Y163500
X233500Y163500
X233500Y173500
X223500Y173500
X221000Y208500
X231000Y208500
X241000Y208500
X251000Y208500
X261000Y208500
X271000Y208500
X220900Y221500
X210900Y221500
X200900Y221500
X190900Y221500
X146000Y221000
X136000Y221000
X138500Y153500
X128500Y153500
X148500Y153500
X158500Y153500
X326000Y158500
X326000Y168500
M30
