G75*
%MOIN*%
%OFA0B0*%
%FSLAX25Y25*%
%IPPOS*%
%LPD*%
%AMOC8*
5,1,8,0,0,1.08239X$1,22.5*
%
%ADD10R,0.01063X0.01575*%
%ADD11R,0.04331X0.03937*%
%ADD12R,0.03268X0.02480*%
%ADD13C,0.07000*%
%ADD14C,0.07400*%
%ADD15R,0.03937X0.04331*%
%ADD16R,0.07400X0.07400*%
%ADD17C,0.00800*%
%ADD18R,0.02500X0.05000*%
%ADD19C,0.05600*%
%ADD20R,0.05600X0.05600*%
%ADD21R,0.07480X0.04331*%
%ADD22R,0.06299X0.05512*%
%ADD23C,0.05700*%
%ADD24R,0.08800X0.04800*%
%ADD25R,0.08661X0.14173*%
%ADD26OC8,0.07400*%
%ADD27C,0.02978*%
%ADD28C,0.04159*%
%ADD29C,0.00600*%
%ADD30C,0.03175*%
D10*
X0143141Y0185212D03*
X0145700Y0185212D03*
X0148259Y0185212D03*
X0148259Y0189149D03*
X0145700Y0189149D03*
X0143141Y0189149D03*
D11*
X0155154Y0193500D03*
X0161846Y0193500D03*
X0161846Y0183500D03*
X0155154Y0183500D03*
X0155154Y0203500D03*
X0161846Y0203500D03*
X0218754Y0195600D03*
X0225446Y0195600D03*
X0225446Y0185800D03*
X0218754Y0185800D03*
X0247654Y0183500D03*
X0254346Y0183500D03*
X0254346Y0193500D03*
X0247654Y0193500D03*
X0282654Y0211000D03*
X0289346Y0211000D03*
D12*
X0278500Y0175528D03*
X0278500Y0166472D03*
D13*
X0266000Y0165705D03*
X0266000Y0191295D03*
D14*
X0261000Y0208500D03*
X0271000Y0208500D03*
X0251000Y0208500D03*
X0241000Y0208500D03*
X0231000Y0208500D03*
X0221000Y0208500D03*
X0220900Y0221500D03*
X0210900Y0221500D03*
X0200900Y0221500D03*
X0146000Y0221000D03*
X0136000Y0221000D03*
X0113500Y0203500D03*
X0113500Y0193500D03*
X0138500Y0153500D03*
X0148500Y0153500D03*
X0158500Y0153500D03*
X0161000Y0136000D03*
X0171000Y0136000D03*
X0181000Y0136000D03*
X0191000Y0136000D03*
X0201000Y0136000D03*
X0211000Y0136000D03*
X0221000Y0136000D03*
X0231000Y0136000D03*
X0241000Y0136000D03*
X0293500Y0168500D03*
X0298500Y0161000D03*
X0303500Y0168500D03*
X0326000Y0168500D03*
X0326000Y0158500D03*
X0356000Y0193500D03*
X0356000Y0203500D03*
X0138500Y0136000D03*
X0128500Y0136000D03*
D15*
X0171000Y0155154D03*
X0171000Y0161846D03*
X0181000Y0161846D03*
X0181000Y0155154D03*
X0188500Y0155154D03*
X0188500Y0161846D03*
X0196000Y0161846D03*
X0196000Y0155154D03*
X0211000Y0152654D03*
X0211000Y0159346D03*
D16*
X0223500Y0173500D03*
X0190900Y0221500D03*
X0128500Y0153500D03*
X0151000Y0136000D03*
D17*
X0127988Y0128300D02*
X0126000Y0130288D01*
X0126000Y0131948D01*
X0127565Y0131300D01*
X0129435Y0131300D01*
X0131162Y0132016D01*
X0132484Y0133338D01*
X0133200Y0135065D01*
X0133200Y0135367D01*
X0133800Y0135967D01*
X0133800Y0135065D01*
X0134516Y0133338D01*
X0135838Y0132016D01*
X0137565Y0131300D01*
X0139435Y0131300D01*
X0141162Y0132016D01*
X0142484Y0133338D01*
X0143200Y0135065D01*
X0143200Y0136935D01*
X0142677Y0138197D01*
X0145580Y0141100D01*
X0175244Y0141100D01*
X0176064Y0141920D01*
X0178744Y0144600D01*
X0179250Y0144600D01*
X0179250Y0143086D01*
X0179836Y0142500D01*
X0183164Y0142500D01*
X0183217Y0142553D01*
X0183390Y0142380D01*
X0183710Y0142195D01*
X0184066Y0142100D01*
X0185275Y0142100D01*
X0185275Y0144600D01*
X0185580Y0144600D01*
X0185725Y0144745D01*
X0185725Y0142100D01*
X0186934Y0142100D01*
X0187290Y0142195D01*
X0187610Y0142380D01*
X0187870Y0142640D01*
X0188055Y0142960D01*
X0188150Y0143316D01*
X0188150Y0145775D01*
X0186400Y0145775D01*
X0186400Y0146225D01*
X0188150Y0146225D01*
X0188150Y0146534D01*
X0190084Y0144600D01*
X0226396Y0144600D01*
X0226690Y0143890D01*
X0227390Y0143190D01*
X0228305Y0142811D01*
X0229295Y0142811D01*
X0230210Y0143190D01*
X0230910Y0143890D01*
X0231289Y0144805D01*
X0231289Y0145795D01*
X0230910Y0146710D01*
X0230220Y0147400D01*
X0244680Y0147400D01*
X0245500Y0148220D01*
X0250780Y0153500D01*
X0318311Y0153500D01*
X0319132Y0154320D01*
X0320730Y0155918D01*
X0321550Y0156738D01*
X0321550Y0156963D01*
X0322016Y0155838D01*
X0323338Y0154516D01*
X0325065Y0153800D01*
X0326935Y0153800D01*
X0328662Y0154516D01*
X0329984Y0155838D01*
X0330700Y0157565D01*
X0330700Y0159435D01*
X0329984Y0161162D01*
X0328662Y0162484D01*
X0326935Y0163200D01*
X0325065Y0163200D01*
X0323338Y0162484D01*
X0322016Y0161162D01*
X0321550Y0160037D01*
X0321550Y0164238D01*
X0320964Y0164824D01*
X0320144Y0165644D01*
X0308664Y0165644D01*
X0307844Y0164824D01*
X0306308Y0163288D01*
X0302639Y0163288D01*
X0302484Y0163662D01*
X0302192Y0163954D01*
X0302565Y0163800D01*
X0304435Y0163800D01*
X0306162Y0164516D01*
X0307484Y0165838D01*
X0308200Y0167565D01*
X0308200Y0169435D01*
X0307484Y0171162D01*
X0306162Y0172484D01*
X0304435Y0173200D01*
X0302565Y0173200D01*
X0300838Y0172484D01*
X0299516Y0171162D01*
X0299501Y0171126D01*
X0293699Y0176928D01*
X0281134Y0176928D01*
X0281134Y0177182D01*
X0280548Y0177768D01*
X0276452Y0177768D01*
X0275866Y0177182D01*
X0275866Y0174874D01*
X0269531Y0168538D01*
X0268549Y0169520D01*
X0266895Y0170205D01*
X0266116Y0170205D01*
X0267400Y0171489D01*
X0267400Y0187004D01*
X0268549Y0187480D01*
X0269815Y0188746D01*
X0270500Y0190400D01*
X0270500Y0192190D01*
X0269815Y0193844D01*
X0269020Y0194640D01*
X0270880Y0196500D01*
X0278586Y0196500D01*
X0278400Y0196314D01*
X0278400Y0191889D01*
X0273489Y0191889D01*
X0272669Y0191069D01*
X0272031Y0190431D01*
X0271211Y0189611D01*
X0271211Y0183491D01*
X0270605Y0182885D01*
X0270595Y0182889D01*
X0269605Y0182889D01*
X0268690Y0182510D01*
X0267990Y0181810D01*
X0267611Y0180895D01*
X0267611Y0179905D01*
X0267990Y0178990D01*
X0268690Y0178290D01*
X0269605Y0177911D01*
X0270595Y0177911D01*
X0271510Y0178290D01*
X0272210Y0178990D01*
X0272589Y0179905D01*
X0272589Y0180895D01*
X0272585Y0180905D01*
X0274011Y0182331D01*
X0274011Y0185757D01*
X0274605Y0185511D01*
X0275595Y0185511D01*
X0276510Y0185890D01*
X0277210Y0186590D01*
X0277214Y0186600D01*
X0278400Y0186600D01*
X0278400Y0181586D01*
X0278986Y0181000D01*
X0288614Y0181000D01*
X0289200Y0181586D01*
X0289200Y0187214D01*
X0288614Y0187800D01*
X0282380Y0187800D01*
X0281091Y0189089D01*
X0281369Y0189089D01*
X0282189Y0189909D01*
X0282380Y0190100D01*
X0288614Y0190100D01*
X0289200Y0190686D01*
X0289200Y0194620D01*
X0290695Y0196115D01*
X0290705Y0196111D01*
X0291695Y0196111D01*
X0292610Y0196490D01*
X0293310Y0197190D01*
X0293689Y0198105D01*
X0293689Y0199095D01*
X0293310Y0200010D01*
X0292610Y0200710D01*
X0291695Y0201089D01*
X0290705Y0201089D01*
X0289790Y0200710D01*
X0289200Y0200120D01*
X0289200Y0201200D01*
X0303069Y0201200D01*
X0302870Y0201001D01*
X0302870Y0185999D01*
X0303456Y0185413D01*
X0312946Y0185413D01*
X0313531Y0185999D01*
X0313531Y0201001D01*
X0313332Y0201200D01*
X0319180Y0201200D01*
X0325295Y0207315D01*
X0325305Y0207311D01*
X0326295Y0207311D01*
X0327210Y0207690D01*
X0327910Y0208390D01*
X0328289Y0209305D01*
X0328289Y0210295D01*
X0327910Y0211210D01*
X0327210Y0211910D01*
X0326295Y0212289D01*
X0325305Y0212289D01*
X0324390Y0211910D01*
X0323690Y0211210D01*
X0323311Y0210295D01*
X0323311Y0209305D01*
X0323315Y0209295D01*
X0318020Y0204000D01*
X0289200Y0204000D01*
X0289200Y0205414D01*
X0288614Y0206000D01*
X0285200Y0206000D01*
X0285200Y0208031D01*
X0285233Y0208031D01*
X0285819Y0208617D01*
X0285819Y0208706D01*
X0285877Y0208491D01*
X0286061Y0208172D01*
X0286321Y0207911D01*
X0286641Y0207727D01*
X0286997Y0207631D01*
X0288946Y0207631D01*
X0288946Y0210600D01*
X0289746Y0210600D01*
X0289746Y0207631D01*
X0291696Y0207631D01*
X0292052Y0207727D01*
X0292371Y0207911D01*
X0292632Y0208172D01*
X0292816Y0208491D01*
X0292912Y0208847D01*
X0292912Y0210600D01*
X0289746Y0210600D01*
X0289746Y0211400D01*
X0288946Y0211400D01*
X0288946Y0214368D01*
X0286997Y0214368D01*
X0286641Y0214273D01*
X0286321Y0214089D01*
X0286061Y0213828D01*
X0285877Y0213509D01*
X0285819Y0213294D01*
X0285819Y0213383D01*
X0285233Y0213968D01*
X0280074Y0213968D01*
X0279488Y0213383D01*
X0279488Y0208617D01*
X0280074Y0208031D01*
X0282400Y0208031D01*
X0282400Y0206000D01*
X0278986Y0206000D01*
X0278400Y0205414D01*
X0278400Y0199786D01*
X0278703Y0199483D01*
X0278520Y0199300D01*
X0269720Y0199300D01*
X0266215Y0195795D01*
X0265105Y0195795D01*
X0263451Y0195110D01*
X0262185Y0193844D01*
X0261500Y0192190D01*
X0261500Y0190400D01*
X0262185Y0188746D01*
X0263451Y0187480D01*
X0264600Y0187004D01*
X0264600Y0172649D01*
X0260920Y0168969D01*
X0260100Y0168149D01*
X0260100Y0163261D01*
X0263556Y0159805D01*
X0268444Y0159805D01*
X0273712Y0165072D01*
X0275866Y0165072D01*
X0275866Y0164818D01*
X0276452Y0164232D01*
X0278760Y0164232D01*
X0286693Y0156300D01*
X0249620Y0156300D01*
X0248800Y0155480D01*
X0243520Y0150200D01*
X0237412Y0150200D01*
X0238600Y0151388D01*
X0238600Y0153100D01*
X0233900Y0153100D01*
X0233900Y0153900D01*
X0233100Y0153900D01*
X0233100Y0158600D01*
X0231388Y0158600D01*
X0228400Y0155612D01*
X0228400Y0153900D01*
X0233100Y0153900D01*
X0233100Y0153100D01*
X0228400Y0153100D01*
X0228400Y0151388D01*
X0229588Y0150200D01*
X0226847Y0150200D01*
X0228200Y0151553D01*
X0228200Y0155447D01*
X0225447Y0158200D01*
X0221553Y0158200D01*
X0218800Y0155447D01*
X0218800Y0154054D01*
X0213968Y0154054D01*
X0213968Y0155233D01*
X0213383Y0155819D01*
X0208841Y0155819D01*
X0205809Y0158851D01*
X0208031Y0158851D01*
X0208031Y0156767D01*
X0208617Y0156181D01*
X0213383Y0156181D01*
X0213968Y0156767D01*
X0213968Y0161926D01*
X0213383Y0162512D01*
X0208617Y0162512D01*
X0208031Y0161926D01*
X0208031Y0161651D01*
X0207683Y0161651D01*
X0207929Y0162245D01*
X0207929Y0163235D01*
X0207925Y0163245D01*
X0214069Y0169389D01*
X0214889Y0170209D01*
X0214889Y0173197D01*
X0214899Y0173201D01*
X0215599Y0173901D01*
X0215603Y0173911D01*
X0217077Y0173911D01*
X0218800Y0175634D01*
X0218800Y0169386D01*
X0219386Y0168800D01*
X0227614Y0168800D01*
X0228200Y0169386D01*
X0228200Y0176800D01*
X0228220Y0176800D01*
X0229187Y0175833D01*
X0228800Y0175447D01*
X0228800Y0171553D01*
X0231553Y0168800D01*
X0235447Y0168800D01*
X0238200Y0171553D01*
X0238200Y0174746D01*
X0245567Y0174746D01*
X0245590Y0174690D01*
X0246290Y0173990D01*
X0247205Y0173611D01*
X0248195Y0173611D01*
X0249110Y0173990D01*
X0249810Y0174690D01*
X0250189Y0175605D01*
X0250189Y0176595D01*
X0249810Y0177510D01*
X0249110Y0178210D01*
X0249054Y0178233D01*
X0249054Y0180531D01*
X0250233Y0180531D01*
X0250819Y0181117D01*
X0250819Y0185883D01*
X0250233Y0186468D01*
X0245074Y0186468D01*
X0244488Y0185883D01*
X0244488Y0181117D01*
X0245074Y0180531D01*
X0246254Y0180531D01*
X0246254Y0178173D01*
X0245627Y0177546D01*
X0236100Y0177546D01*
X0235447Y0178200D01*
X0231553Y0178200D01*
X0231167Y0177813D01*
X0229380Y0179600D01*
X0218806Y0179600D01*
X0217986Y0178780D01*
X0215917Y0176711D01*
X0215603Y0176711D01*
X0215599Y0176721D01*
X0214899Y0177421D01*
X0213984Y0177800D01*
X0212994Y0177800D01*
X0212400Y0177554D01*
X0212400Y0194880D01*
X0212490Y0194790D01*
X0213405Y0194411D01*
X0214395Y0194411D01*
X0215310Y0194790D01*
X0215588Y0195068D01*
X0215588Y0193217D01*
X0216174Y0192631D01*
X0219312Y0192631D01*
X0219190Y0192510D01*
X0218811Y0191595D01*
X0218811Y0190605D01*
X0219190Y0189690D01*
X0219890Y0188990D01*
X0219900Y0188986D01*
X0219900Y0188926D01*
X0219742Y0188768D01*
X0216174Y0188768D01*
X0215588Y0188183D01*
X0215588Y0183417D01*
X0216174Y0182831D01*
X0221333Y0182831D01*
X0221919Y0183417D01*
X0221919Y0186985D01*
X0222281Y0187348D01*
X0222281Y0183417D01*
X0222867Y0182831D01*
X0228026Y0182831D01*
X0228612Y0183417D01*
X0228612Y0184700D01*
X0228986Y0184700D01*
X0228990Y0184690D01*
X0229690Y0183990D01*
X0230605Y0183611D01*
X0231595Y0183611D01*
X0232510Y0183990D01*
X0233210Y0184690D01*
X0233589Y0185605D01*
X0233589Y0186595D01*
X0233210Y0187510D01*
X0232510Y0188210D01*
X0231595Y0188589D01*
X0230605Y0188589D01*
X0229690Y0188210D01*
X0228990Y0187510D01*
X0228986Y0187500D01*
X0228612Y0187500D01*
X0228612Y0188183D01*
X0228026Y0188768D01*
X0222867Y0188768D01*
X0222700Y0188602D01*
X0222700Y0188986D01*
X0222710Y0188990D01*
X0223410Y0189690D01*
X0223789Y0190605D01*
X0223789Y0191595D01*
X0223410Y0192510D01*
X0223288Y0192631D01*
X0228026Y0192631D01*
X0228612Y0193217D01*
X0228612Y0194200D01*
X0228880Y0194200D01*
X0229290Y0193790D01*
X0230205Y0193411D01*
X0231195Y0193411D01*
X0232110Y0193790D01*
X0232810Y0194490D01*
X0233189Y0195405D01*
X0233189Y0196395D01*
X0232810Y0197310D01*
X0232110Y0198010D01*
X0231195Y0198389D01*
X0230205Y0198389D01*
X0229290Y0198010D01*
X0228612Y0197332D01*
X0228612Y0197983D01*
X0228026Y0198568D01*
X0222867Y0198568D01*
X0222281Y0197983D01*
X0222281Y0193388D01*
X0221919Y0193538D01*
X0221919Y0197983D01*
X0221333Y0198568D01*
X0216174Y0198568D01*
X0215963Y0198357D01*
X0215310Y0199010D01*
X0214395Y0199389D01*
X0213869Y0199389D01*
X0218803Y0204323D01*
X0220065Y0203800D01*
X0221935Y0203800D01*
X0223662Y0204516D01*
X0224984Y0205838D01*
X0225700Y0207565D01*
X0225700Y0209435D01*
X0224984Y0211162D01*
X0223747Y0212400D01*
X0228253Y0212400D01*
X0227016Y0211162D01*
X0226300Y0209435D01*
X0226300Y0207565D01*
X0227016Y0205838D01*
X0228338Y0204516D01*
X0230065Y0203800D01*
X0231935Y0203800D01*
X0233662Y0204516D01*
X0234984Y0205838D01*
X0235700Y0207565D01*
X0235700Y0209435D01*
X0234984Y0211162D01*
X0233747Y0212400D01*
X0238253Y0212400D01*
X0237016Y0211162D01*
X0236300Y0209435D01*
X0236300Y0207565D01*
X0237016Y0205838D01*
X0238338Y0204516D01*
X0240065Y0203800D01*
X0240690Y0203800D01*
X0239990Y0203510D01*
X0239290Y0202810D01*
X0238911Y0201895D01*
X0238911Y0200905D01*
X0239290Y0199990D01*
X0239990Y0199290D01*
X0240905Y0198911D01*
X0241895Y0198911D01*
X0242810Y0199290D01*
X0243510Y0199990D01*
X0243514Y0200000D01*
X0244480Y0200000D01*
X0245300Y0200820D01*
X0245300Y0200820D01*
X0248803Y0204323D01*
X0250065Y0203800D01*
X0251935Y0203800D01*
X0253662Y0204516D01*
X0254984Y0205838D01*
X0255700Y0207565D01*
X0255700Y0209435D01*
X0255177Y0210697D01*
X0258980Y0214500D01*
X0295920Y0214500D01*
X0298215Y0212205D01*
X0298211Y0212195D01*
X0298211Y0211205D01*
X0298590Y0210290D01*
X0299290Y0209590D01*
X0300205Y0209211D01*
X0301195Y0209211D01*
X0302110Y0209590D01*
X0302810Y0210290D01*
X0303189Y0211205D01*
X0303189Y0212195D01*
X0302810Y0213110D01*
X0302110Y0213810D01*
X0301195Y0214189D01*
X0300205Y0214189D01*
X0300195Y0214185D01*
X0297080Y0217300D01*
X0257820Y0217300D01*
X0257000Y0216480D01*
X0253197Y0212677D01*
X0251935Y0213200D01*
X0250065Y0213200D01*
X0248803Y0212677D01*
X0246280Y0215200D01*
X0203514Y0215200D01*
X0203510Y0215210D01*
X0202810Y0215910D01*
X0201895Y0216289D01*
X0200905Y0216289D01*
X0200895Y0216285D01*
X0200380Y0216800D01*
X0201835Y0216800D01*
X0203562Y0217516D01*
X0204884Y0218838D01*
X0205600Y0220565D01*
X0205600Y0222435D01*
X0204884Y0224162D01*
X0203562Y0225484D01*
X0201835Y0226200D01*
X0199965Y0226200D01*
X0198238Y0225484D01*
X0196916Y0224162D01*
X0196200Y0222435D01*
X0196200Y0220565D01*
X0196916Y0218838D01*
X0197553Y0218200D01*
X0195600Y0218200D01*
X0195600Y0225614D01*
X0195014Y0226200D01*
X0186786Y0226200D01*
X0186200Y0225614D01*
X0186200Y0219366D01*
X0183986Y0221580D01*
X0183166Y0222400D01*
X0179976Y0222400D01*
X0180524Y0222948D01*
X0180524Y0226127D01*
X0181011Y0225640D01*
X0181011Y0225505D01*
X0181390Y0224590D01*
X0182090Y0223890D01*
X0183005Y0223511D01*
X0183995Y0223511D01*
X0184910Y0223890D01*
X0185610Y0224590D01*
X0185989Y0225505D01*
X0185989Y0226495D01*
X0185610Y0227410D01*
X0184910Y0228110D01*
X0183995Y0228489D01*
X0183005Y0228489D01*
X0182380Y0228230D01*
X0181911Y0228700D01*
X0341512Y0228700D01*
X0343500Y0226712D01*
X0343500Y0130288D01*
X0341512Y0128300D01*
X0127988Y0128300D01*
X0127526Y0128762D02*
X0341974Y0128762D01*
X0342772Y0129560D02*
X0126728Y0129560D01*
X0126000Y0130359D02*
X0224661Y0130359D01*
X0224300Y0130720D02*
X0225120Y0129900D01*
X0314080Y0129900D01*
X0314180Y0130000D01*
X0318551Y0130000D01*
X0319313Y0130762D01*
X0320297Y0131746D01*
X0321150Y0131393D01*
X0322661Y0131393D01*
X0324058Y0131971D01*
X0325127Y0133040D01*
X0325705Y0134437D01*
X0325705Y0135949D01*
X0325127Y0137345D01*
X0324058Y0138414D01*
X0322661Y0138993D01*
X0321150Y0138993D01*
X0319753Y0138414D01*
X0318684Y0137345D01*
X0318106Y0135949D01*
X0318106Y0134437D01*
X0318459Y0133585D01*
X0317474Y0132600D01*
X0316813Y0132600D01*
X0317253Y0133040D01*
X0317831Y0134437D01*
X0317831Y0135949D01*
X0317253Y0137345D01*
X0316184Y0138414D01*
X0314787Y0138993D01*
X0313276Y0138993D01*
X0311879Y0138414D01*
X0310810Y0137345D01*
X0310231Y0135949D01*
X0310231Y0134437D01*
X0310810Y0133040D01*
X0311150Y0132700D01*
X0309039Y0132700D01*
X0309379Y0133040D01*
X0309957Y0134437D01*
X0309957Y0135949D01*
X0309379Y0137345D01*
X0308310Y0138414D01*
X0306913Y0138993D01*
X0305402Y0138993D01*
X0304005Y0138414D01*
X0302936Y0137345D01*
X0302357Y0135949D01*
X0302357Y0134437D01*
X0302936Y0133040D01*
X0303276Y0132700D01*
X0301165Y0132700D01*
X0301505Y0133040D01*
X0302083Y0134437D01*
X0302083Y0135949D01*
X0301505Y0137345D01*
X0300436Y0138414D01*
X0299039Y0138993D01*
X0297528Y0138993D01*
X0296131Y0138414D01*
X0295062Y0137345D01*
X0294483Y0135949D01*
X0294483Y0134437D01*
X0295062Y0133040D01*
X0295402Y0132700D01*
X0293291Y0132700D01*
X0293631Y0133040D01*
X0294209Y0134437D01*
X0294209Y0135949D01*
X0293631Y0137345D01*
X0292562Y0138414D01*
X0291165Y0138993D01*
X0289654Y0138993D01*
X0288257Y0138414D01*
X0287188Y0137345D01*
X0286609Y0135949D01*
X0286609Y0134437D01*
X0287188Y0133040D01*
X0287528Y0132700D01*
X0285416Y0132700D01*
X0285757Y0133040D01*
X0286335Y0134437D01*
X0286335Y0135949D01*
X0285757Y0137345D01*
X0284688Y0138414D01*
X0283291Y0138993D01*
X0281780Y0138993D01*
X0280383Y0138414D01*
X0279314Y0137345D01*
X0278735Y0135949D01*
X0278735Y0134437D01*
X0279314Y0133040D01*
X0279654Y0132700D01*
X0277542Y0132700D01*
X0277883Y0133040D01*
X0278461Y0134437D01*
X0278461Y0135949D01*
X0277883Y0137345D01*
X0276814Y0138414D01*
X0275417Y0138993D01*
X0273906Y0138993D01*
X0272509Y0138414D01*
X0271440Y0137345D01*
X0270904Y0136051D01*
X0270884Y0136176D01*
X0270680Y0136805D01*
X0270380Y0137394D01*
X0269991Y0137929D01*
X0269524Y0138396D01*
X0268989Y0138785D01*
X0268400Y0139085D01*
X0267771Y0139289D01*
X0267118Y0139393D01*
X0267076Y0139393D01*
X0267076Y0135482D01*
X0266498Y0135482D01*
X0266498Y0134904D01*
X0262587Y0134904D01*
X0262587Y0134862D01*
X0262691Y0134209D01*
X0262895Y0133581D01*
X0263195Y0132992D01*
X0263407Y0132700D01*
X0244347Y0132700D01*
X0244984Y0133338D01*
X0245700Y0135065D01*
X0245700Y0136935D01*
X0244984Y0138662D01*
X0243662Y0139984D01*
X0241935Y0140700D01*
X0240065Y0140700D01*
X0238338Y0139984D01*
X0237016Y0138662D01*
X0236300Y0136935D01*
X0236300Y0135065D01*
X0237016Y0133338D01*
X0237653Y0132700D01*
X0234347Y0132700D01*
X0234984Y0133338D01*
X0235700Y0135065D01*
X0235700Y0136935D01*
X0234984Y0138662D01*
X0233662Y0139984D01*
X0231935Y0140700D01*
X0230065Y0140700D01*
X0228338Y0139984D01*
X0227016Y0138662D01*
X0226300Y0136935D01*
X0226300Y0135065D01*
X0227016Y0133338D01*
X0227653Y0132700D01*
X0226280Y0132700D01*
X0225177Y0133803D01*
X0225700Y0135065D01*
X0225700Y0136935D01*
X0224984Y0138662D01*
X0223662Y0139984D01*
X0221935Y0140700D01*
X0220065Y0140700D01*
X0218338Y0139984D01*
X0217016Y0138662D01*
X0216300Y0136935D01*
X0216300Y0135065D01*
X0217016Y0133338D01*
X0218338Y0132016D01*
X0220065Y0131300D01*
X0221935Y0131300D01*
X0223197Y0131823D01*
X0224300Y0130720D01*
X0223863Y0131157D02*
X0182600Y0131157D01*
X0182958Y0131274D02*
X0183673Y0131638D01*
X0184322Y0132110D01*
X0184890Y0132678D01*
X0185362Y0133327D01*
X0185726Y0134042D01*
X0185974Y0134806D01*
X0186100Y0135599D01*
X0186100Y0135600D01*
X0181400Y0135600D01*
X0181400Y0136400D01*
X0180600Y0136400D01*
X0180600Y0141100D01*
X0180599Y0141100D01*
X0179806Y0140974D01*
X0179042Y0140726D01*
X0178327Y0140362D01*
X0177678Y0139890D01*
X0177110Y0139322D01*
X0176638Y0138673D01*
X0176274Y0137958D01*
X0176026Y0137194D01*
X0176000Y0137033D01*
X0175974Y0137194D01*
X0175726Y0137958D01*
X0175362Y0138673D01*
X0174890Y0139322D01*
X0174322Y0139890D01*
X0173673Y0140362D01*
X0172958Y0140726D01*
X0172194Y0140974D01*
X0171401Y0141100D01*
X0171400Y0141100D01*
X0171400Y0136400D01*
X0170600Y0136400D01*
X0170600Y0141100D01*
X0170599Y0141100D01*
X0169806Y0140974D01*
X0169042Y0140726D01*
X0168327Y0140362D01*
X0167678Y0139890D01*
X0167110Y0139322D01*
X0166638Y0138673D01*
X0166274Y0137958D01*
X0166026Y0137194D01*
X0165900Y0136401D01*
X0165900Y0136400D01*
X0170600Y0136400D01*
X0170600Y0135600D01*
X0165900Y0135600D01*
X0165900Y0135599D01*
X0166026Y0134806D01*
X0166274Y0134042D01*
X0166638Y0133327D01*
X0167110Y0132678D01*
X0167678Y0132110D01*
X0168327Y0131638D01*
X0169042Y0131274D01*
X0169806Y0131026D01*
X0170599Y0130900D01*
X0170600Y0130900D01*
X0170600Y0135600D01*
X0171400Y0135600D01*
X0171400Y0136400D01*
X0180600Y0136400D01*
X0180600Y0135600D01*
X0181400Y0135600D01*
X0181400Y0130900D01*
X0181401Y0130900D01*
X0182194Y0131026D01*
X0182958Y0131274D01*
X0184110Y0131956D02*
X0188482Y0131956D01*
X0188338Y0132016D02*
X0190065Y0131300D01*
X0191935Y0131300D01*
X0193662Y0132016D01*
X0194984Y0133338D01*
X0195700Y0135065D01*
X0195700Y0136935D01*
X0194984Y0138662D01*
X0193662Y0139984D01*
X0191935Y0140700D01*
X0190065Y0140700D01*
X0188338Y0139984D01*
X0187016Y0138662D01*
X0186300Y0136935D01*
X0186300Y0135065D01*
X0187016Y0133338D01*
X0188338Y0132016D01*
X0187599Y0132754D02*
X0184946Y0132754D01*
X0185477Y0133553D02*
X0186926Y0133553D01*
X0186596Y0134351D02*
X0185827Y0134351D01*
X0186029Y0135150D02*
X0186300Y0135150D01*
X0186300Y0135948D02*
X0181400Y0135948D01*
X0181000Y0136000D02*
X0180800Y0136000D01*
X0185500Y0140700D01*
X0185500Y0146000D01*
X0185000Y0146000D02*
X0182000Y0146000D01*
X0181500Y0146000D02*
X0178500Y0146000D01*
X0180600Y0146000D01*
X0180600Y0146580D01*
X0183520Y0149500D01*
X0187164Y0149500D01*
X0190664Y0146000D01*
X0228100Y0146000D01*
X0228800Y0145300D01*
X0231068Y0146329D02*
X0343500Y0146329D01*
X0343500Y0145531D02*
X0231289Y0145531D01*
X0231259Y0144732D02*
X0343500Y0144732D01*
X0343500Y0143934D02*
X0230928Y0143934D01*
X0230077Y0143135D02*
X0343500Y0143135D01*
X0343500Y0142337D02*
X0187535Y0142337D01*
X0188102Y0143135D02*
X0227523Y0143135D01*
X0226672Y0143934D02*
X0188150Y0143934D01*
X0188150Y0144732D02*
X0189952Y0144732D01*
X0189154Y0145531D02*
X0188150Y0145531D01*
X0188150Y0146329D02*
X0188355Y0146329D01*
X0190718Y0147926D02*
X0193748Y0147926D01*
X0193454Y0148220D02*
X0194274Y0147400D01*
X0227380Y0147400D01*
X0227380Y0147400D01*
X0191244Y0147400D01*
X0188564Y0150080D01*
X0187744Y0150900D01*
X0182940Y0150900D01*
X0181540Y0149500D01*
X0179836Y0149500D01*
X0179250Y0148914D01*
X0179250Y0147400D01*
X0177584Y0147400D01*
X0175650Y0145466D01*
X0175650Y0145775D01*
X0173900Y0145775D01*
X0173900Y0146225D01*
X0175650Y0146225D01*
X0175650Y0148684D01*
X0175555Y0149040D01*
X0175370Y0149360D01*
X0175110Y0149620D01*
X0174790Y0149805D01*
X0174434Y0149900D01*
X0173225Y0149900D01*
X0173225Y0147255D01*
X0173080Y0147400D01*
X0172775Y0147400D01*
X0172775Y0149900D01*
X0171566Y0149900D01*
X0171210Y0149805D01*
X0170890Y0149620D01*
X0170717Y0149447D01*
X0170664Y0149500D01*
X0167336Y0149500D01*
X0166750Y0148914D01*
X0166750Y0147500D01*
X0141373Y0147500D01*
X0132499Y0138626D01*
X0132484Y0138662D01*
X0131162Y0139984D01*
X0129435Y0140700D01*
X0127565Y0140700D01*
X0126303Y0140177D01*
X0126000Y0140480D01*
X0126000Y0148800D01*
X0132614Y0148800D01*
X0133200Y0149386D01*
X0133200Y0156220D01*
X0148880Y0171900D01*
X0160600Y0171900D01*
X0161420Y0172720D01*
X0166412Y0177712D01*
X0166412Y0180911D01*
X0167295Y0180911D01*
X0168210Y0181290D01*
X0168910Y0181990D01*
X0169289Y0182905D01*
X0169289Y0183831D01*
X0171600Y0181520D01*
X0171600Y0171920D01*
X0174831Y0168689D01*
X0175581Y0168689D01*
X0175211Y0167795D01*
X0175211Y0166805D01*
X0175590Y0165890D01*
X0176290Y0165190D01*
X0177205Y0164811D01*
X0178195Y0164811D01*
X0178205Y0164815D01*
X0178313Y0164707D01*
X0178031Y0164426D01*
X0178031Y0159267D01*
X0178617Y0158681D01*
X0178706Y0158681D01*
X0178491Y0158623D01*
X0178172Y0158439D01*
X0177911Y0158179D01*
X0177727Y0157859D01*
X0177631Y0157503D01*
X0177631Y0155554D01*
X0180600Y0155554D01*
X0180600Y0154754D01*
X0177631Y0154754D01*
X0177631Y0152804D01*
X0177727Y0152448D01*
X0177911Y0152129D01*
X0178172Y0151868D01*
X0178491Y0151684D01*
X0178847Y0151588D01*
X0180600Y0151588D01*
X0180600Y0154753D01*
X0181400Y0154753D01*
X0181400Y0151588D01*
X0183153Y0151588D01*
X0183509Y0151684D01*
X0183828Y0151868D01*
X0184089Y0152129D01*
X0184273Y0152448D01*
X0184368Y0152804D01*
X0184368Y0154754D01*
X0181400Y0154754D01*
X0181400Y0155554D01*
X0184368Y0155554D01*
X0184368Y0157503D01*
X0184273Y0157859D01*
X0184089Y0158179D01*
X0183828Y0158439D01*
X0183509Y0158623D01*
X0183294Y0158681D01*
X0183383Y0158681D01*
X0183968Y0159267D01*
X0183968Y0164426D01*
X0183383Y0165012D01*
X0181968Y0165012D01*
X0180185Y0166795D01*
X0180189Y0166805D01*
X0180189Y0167795D01*
X0179819Y0168689D01*
X0182240Y0168689D01*
X0181911Y0167895D01*
X0181911Y0166905D01*
X0182290Y0165990D01*
X0182990Y0165290D01*
X0183905Y0164911D01*
X0184895Y0164911D01*
X0184905Y0164915D01*
X0185531Y0164289D01*
X0185531Y0159267D01*
X0186117Y0158681D01*
X0190883Y0158681D01*
X0191468Y0159267D01*
X0191468Y0162852D01*
X0193031Y0161289D01*
X0193031Y0159267D01*
X0193617Y0158681D01*
X0193706Y0158681D01*
X0193491Y0158623D01*
X0193172Y0158439D01*
X0192911Y0158179D01*
X0192727Y0157859D01*
X0192631Y0157503D01*
X0192631Y0155554D01*
X0195600Y0155554D01*
X0195600Y0154754D01*
X0192631Y0154754D01*
X0192631Y0153002D01*
X0191468Y0154165D01*
X0191468Y0157733D01*
X0190883Y0158319D01*
X0194048Y0155154D01*
X0196000Y0155154D01*
X0196400Y0155113D02*
X0205588Y0155113D01*
X0206386Y0154314D02*
X0199368Y0154314D01*
X0199368Y0154754D02*
X0199368Y0152804D01*
X0199273Y0152448D01*
X0199089Y0152129D01*
X0198828Y0151868D01*
X0198509Y0151684D01*
X0198153Y0151588D01*
X0196400Y0151588D01*
X0196400Y0154753D01*
X0195600Y0154753D01*
X0195600Y0151588D01*
X0194045Y0151588D01*
X0195433Y0150200D01*
X0208031Y0150200D01*
X0208031Y0152669D01*
X0200151Y0160549D01*
X0200151Y0161264D01*
X0198968Y0162446D01*
X0198968Y0159267D01*
X0198383Y0158681D01*
X0198294Y0158681D01*
X0198509Y0158623D01*
X0198828Y0158439D01*
X0199089Y0158179D01*
X0199273Y0157859D01*
X0199368Y0157503D01*
X0199368Y0155554D01*
X0196400Y0155554D01*
X0196400Y0154754D01*
X0199368Y0154754D01*
X0199368Y0155911D02*
X0204789Y0155911D01*
X0203991Y0156710D02*
X0199368Y0156710D01*
X0199367Y0157508D02*
X0203192Y0157508D01*
X0202394Y0158307D02*
X0198961Y0158307D01*
X0198807Y0159105D02*
X0201595Y0159105D01*
X0200797Y0159904D02*
X0198968Y0159904D01*
X0198968Y0160702D02*
X0200151Y0160702D01*
X0199914Y0161501D02*
X0198968Y0161501D01*
X0198968Y0162299D02*
X0199115Y0162299D01*
X0201551Y0161844D02*
X0193306Y0170089D01*
X0175411Y0170089D01*
X0173000Y0172500D01*
X0173000Y0182100D01*
X0166300Y0188800D01*
X0166300Y0189046D01*
X0161846Y0193500D01*
X0162835Y0190531D02*
X0163887Y0189479D01*
X0163811Y0189295D01*
X0163811Y0188305D01*
X0164190Y0187390D01*
X0164890Y0186690D01*
X0165805Y0186311D01*
X0166795Y0186311D01*
X0166805Y0186315D01*
X0167231Y0185889D01*
X0166305Y0185889D01*
X0165390Y0185510D01*
X0165012Y0185132D01*
X0165012Y0185883D01*
X0164426Y0186468D01*
X0159267Y0186468D01*
X0158681Y0185883D01*
X0158681Y0181117D01*
X0159267Y0180531D01*
X0160212Y0180531D01*
X0159590Y0179910D01*
X0159211Y0178995D01*
X0159211Y0178005D01*
X0159590Y0177090D01*
X0160290Y0176390D01*
X0160884Y0176144D01*
X0159440Y0174700D01*
X0147720Y0174700D01*
X0146900Y0173880D01*
X0131220Y0158200D01*
X0128880Y0158200D01*
X0144295Y0173615D01*
X0144305Y0173611D01*
X0145295Y0173611D01*
X0146210Y0173990D01*
X0146910Y0174690D01*
X0147289Y0175605D01*
X0147289Y0176595D01*
X0146910Y0177510D01*
X0146210Y0178210D01*
X0145295Y0178589D01*
X0144305Y0178589D01*
X0143390Y0178210D01*
X0142690Y0177510D01*
X0142311Y0176595D01*
X0142311Y0175605D01*
X0142315Y0175595D01*
X0127277Y0160557D01*
X0126000Y0160557D01*
X0126000Y0205274D01*
X0126307Y0204534D01*
X0127034Y0203807D01*
X0127985Y0203413D01*
X0129015Y0203413D01*
X0129080Y0203440D01*
X0138252Y0194268D01*
X0137960Y0193562D01*
X0137960Y0192533D01*
X0138354Y0191582D01*
X0139082Y0190854D01*
X0140033Y0190460D01*
X0141062Y0190460D01*
X0142013Y0190854D01*
X0142741Y0191582D01*
X0143135Y0192533D01*
X0143135Y0193562D01*
X0142741Y0194513D01*
X0142013Y0195241D01*
X0141062Y0195635D01*
X0140845Y0195635D01*
X0131060Y0205420D01*
X0131087Y0205485D01*
X0131087Y0206515D01*
X0130693Y0207466D01*
X0129966Y0208193D01*
X0129015Y0208587D01*
X0127985Y0208587D01*
X0127034Y0208193D01*
X0126307Y0207466D01*
X0126000Y0206726D01*
X0126000Y0212774D01*
X0126307Y0212034D01*
X0127034Y0211307D01*
X0127985Y0210913D01*
X0129015Y0210913D01*
X0129080Y0210940D01*
X0137100Y0202920D01*
X0137920Y0202100D01*
X0143779Y0202100D01*
X0143807Y0202034D01*
X0144534Y0201307D01*
X0145485Y0200913D01*
X0146515Y0200913D01*
X0147466Y0201307D01*
X0148193Y0202034D01*
X0148587Y0202985D01*
X0148587Y0204015D01*
X0148193Y0204966D01*
X0147466Y0205693D01*
X0146515Y0206087D01*
X0145485Y0206087D01*
X0144534Y0205693D01*
X0143807Y0204966D01*
X0143779Y0204900D01*
X0139080Y0204900D01*
X0131060Y0212920D01*
X0131087Y0212985D01*
X0131087Y0214015D01*
X0130693Y0214966D01*
X0129966Y0215693D01*
X0129015Y0216087D01*
X0127985Y0216087D01*
X0127034Y0215693D01*
X0126307Y0214966D01*
X0126000Y0214226D01*
X0126000Y0224660D01*
X0130377Y0228700D01*
X0169656Y0228700D01*
X0167884Y0226928D01*
X0165957Y0226928D01*
X0165957Y0228107D01*
X0165371Y0228693D01*
X0157062Y0228693D01*
X0156476Y0228107D01*
X0156476Y0222948D01*
X0157024Y0222400D01*
X0155514Y0222400D01*
X0155510Y0222410D01*
X0154810Y0223110D01*
X0153895Y0223489D01*
X0152905Y0223489D01*
X0151990Y0223110D01*
X0151290Y0222410D01*
X0150911Y0221495D01*
X0150911Y0220505D01*
X0151290Y0219590D01*
X0151990Y0218890D01*
X0152000Y0218886D01*
X0152000Y0210222D01*
X0155753Y0206468D01*
X0152574Y0206468D01*
X0151988Y0205883D01*
X0151988Y0201288D01*
X0144300Y0193600D01*
X0144300Y0190723D01*
X0144087Y0190936D01*
X0142195Y0190936D01*
X0141609Y0190350D01*
X0141609Y0189597D01*
X0138277Y0186265D01*
X0137495Y0186589D01*
X0136505Y0186589D01*
X0135590Y0186210D01*
X0134890Y0185510D01*
X0134511Y0184595D01*
X0134511Y0183605D01*
X0134890Y0182690D01*
X0135590Y0181990D01*
X0136505Y0181611D01*
X0137495Y0181611D01*
X0138410Y0181990D01*
X0139110Y0182690D01*
X0139427Y0183455D01*
X0139492Y0183520D01*
X0141609Y0185637D01*
X0141609Y0184010D01*
X0142195Y0183424D01*
X0144087Y0183424D01*
X0144138Y0183475D01*
X0144309Y0183304D01*
X0144628Y0183120D01*
X0144984Y0183024D01*
X0145700Y0183024D01*
X0145700Y0185212D01*
X0145700Y0180080D01*
X0147191Y0178589D01*
X0141989Y0178589D01*
X0126900Y0163500D01*
X0126000Y0163896D02*
X0130616Y0163896D01*
X0129818Y0163098D02*
X0126000Y0163098D01*
X0126000Y0162299D02*
X0129019Y0162299D01*
X0128221Y0161501D02*
X0126000Y0161501D01*
X0126000Y0160702D02*
X0127422Y0160702D01*
X0127857Y0159157D02*
X0144800Y0176100D01*
X0147070Y0175075D02*
X0159816Y0175075D01*
X0160614Y0175874D02*
X0147289Y0175874D01*
X0147257Y0176672D02*
X0149108Y0176672D01*
X0149190Y0176590D02*
X0150105Y0176211D01*
X0151095Y0176211D01*
X0152010Y0176590D01*
X0152710Y0177290D01*
X0153089Y0178205D01*
X0153089Y0179195D01*
X0153085Y0179205D01*
X0154411Y0180531D01*
X0157733Y0180531D01*
X0158319Y0181117D01*
X0158319Y0185883D01*
X0157733Y0186468D01*
X0155717Y0186468D01*
X0156010Y0186590D01*
X0156710Y0187290D01*
X0157089Y0188205D01*
X0157089Y0189195D01*
X0156710Y0190110D01*
X0156288Y0190531D01*
X0157733Y0190531D01*
X0158319Y0191117D01*
X0158319Y0195883D01*
X0157951Y0196251D01*
X0159719Y0198019D01*
X0159719Y0200131D01*
X0161446Y0200131D01*
X0161446Y0203100D01*
X0162246Y0203100D01*
X0162246Y0200131D01*
X0164196Y0200131D01*
X0164552Y0200227D01*
X0164871Y0200411D01*
X0165132Y0200672D01*
X0165316Y0200991D01*
X0165412Y0201347D01*
X0165412Y0203100D01*
X0162246Y0203100D01*
X0162246Y0203900D01*
X0161446Y0203900D01*
X0161446Y0206868D01*
X0159497Y0206868D01*
X0159352Y0206830D01*
X0158899Y0207283D01*
X0154800Y0211382D01*
X0154800Y0218886D01*
X0154810Y0218890D01*
X0155510Y0219590D01*
X0155514Y0219600D01*
X0157024Y0219600D01*
X0156476Y0219052D01*
X0156476Y0213893D01*
X0157062Y0213307D01*
X0165371Y0213307D01*
X0165957Y0213893D01*
X0165957Y0219052D01*
X0165409Y0219600D01*
X0171591Y0219600D01*
X0171043Y0219052D01*
X0171043Y0213893D01*
X0171629Y0213307D01*
X0176969Y0213307D01*
X0177365Y0212911D01*
X0191886Y0212911D01*
X0191890Y0212901D01*
X0192590Y0212201D01*
X0193505Y0211822D01*
X0194495Y0211822D01*
X0195410Y0212201D01*
X0196110Y0212901D01*
X0196489Y0213816D01*
X0196489Y0214806D01*
X0196243Y0215400D01*
X0197820Y0215400D01*
X0198915Y0214305D01*
X0198911Y0214295D01*
X0198911Y0213305D01*
X0199290Y0212390D01*
X0199990Y0211690D01*
X0200905Y0211311D01*
X0201895Y0211311D01*
X0202810Y0211690D01*
X0203510Y0212390D01*
X0203514Y0212400D01*
X0218253Y0212400D01*
X0217016Y0211162D01*
X0216300Y0209435D01*
X0216300Y0207565D01*
X0216823Y0206303D01*
X0210420Y0199900D01*
X0209600Y0199080D01*
X0209600Y0172400D01*
X0202371Y0165171D01*
X0201551Y0164351D01*
X0201551Y0163823D01*
X0193885Y0171489D01*
X0175991Y0171489D01*
X0174400Y0173080D01*
X0174400Y0182680D01*
X0173580Y0183500D01*
X0168785Y0188295D01*
X0168789Y0188305D01*
X0168789Y0189295D01*
X0168410Y0190210D01*
X0167710Y0190910D01*
X0166795Y0191289D01*
X0166037Y0191289D01*
X0165012Y0192315D01*
X0165012Y0195883D01*
X0164426Y0196468D01*
X0159267Y0196468D01*
X0158681Y0195883D01*
X0158681Y0191117D01*
X0159267Y0190531D01*
X0162835Y0190531D01*
X0163119Y0190247D02*
X0156573Y0190247D01*
X0156984Y0189449D02*
X0163875Y0189449D01*
X0163811Y0188650D02*
X0157089Y0188650D01*
X0156943Y0187852D02*
X0163999Y0187852D01*
X0164527Y0187053D02*
X0156473Y0187053D01*
X0157947Y0186255D02*
X0159053Y0186255D01*
X0158681Y0185456D02*
X0158319Y0185456D01*
X0158319Y0184658D02*
X0158681Y0184658D01*
X0158681Y0183859D02*
X0158319Y0183859D01*
X0158319Y0183061D02*
X0158681Y0183061D01*
X0158681Y0182262D02*
X0158319Y0182262D01*
X0158319Y0181464D02*
X0158681Y0181464D01*
X0158319Y0181117D02*
X0153413Y0176211D01*
X0149569Y0176211D01*
X0147191Y0178589D01*
X0146728Y0179052D01*
X0146066Y0178270D02*
X0148111Y0178270D01*
X0148111Y0178205D02*
X0148490Y0177290D01*
X0149190Y0176590D01*
X0148415Y0177471D02*
X0146926Y0177471D01*
X0148111Y0178205D02*
X0148111Y0179195D01*
X0148490Y0180110D01*
X0149190Y0180810D01*
X0150105Y0181189D01*
X0151095Y0181189D01*
X0151105Y0181185D01*
X0151988Y0182068D01*
X0151988Y0185883D01*
X0152574Y0186468D01*
X0153483Y0186468D01*
X0153190Y0186590D01*
X0152490Y0187290D01*
X0152486Y0187300D01*
X0152327Y0187300D01*
X0149791Y0184763D01*
X0149791Y0184010D01*
X0149205Y0183424D01*
X0147313Y0183424D01*
X0147262Y0183475D01*
X0147091Y0183304D01*
X0146772Y0183120D01*
X0146416Y0183024D01*
X0145700Y0183024D01*
X0145700Y0185212D01*
X0145700Y0185212D01*
X0145700Y0184658D02*
X0145700Y0184658D01*
X0145700Y0183859D02*
X0145700Y0183859D01*
X0145700Y0183061D02*
X0145700Y0183061D01*
X0146551Y0183061D02*
X0151988Y0183061D01*
X0151988Y0183859D02*
X0149639Y0183859D01*
X0149791Y0184658D02*
X0151988Y0184658D01*
X0151988Y0185456D02*
X0150483Y0185456D01*
X0151282Y0186255D02*
X0152360Y0186255D01*
X0152080Y0187053D02*
X0152727Y0187053D01*
X0151747Y0188700D02*
X0154600Y0188700D01*
X0151747Y0188700D02*
X0148259Y0185212D01*
X0148259Y0189149D02*
X0148500Y0189390D01*
X0148500Y0193500D01*
X0153600Y0198600D01*
X0154800Y0198600D01*
X0155154Y0195434D02*
X0158319Y0198599D01*
X0158319Y0205883D01*
X0153400Y0210802D01*
X0153400Y0221000D01*
X0182586Y0221000D01*
X0186786Y0216800D01*
X0198400Y0216800D01*
X0201400Y0213800D01*
X0245700Y0213800D01*
X0251000Y0208500D01*
X0258400Y0215900D01*
X0296500Y0215900D01*
X0300700Y0211700D01*
X0299721Y0209411D02*
X0292912Y0209411D01*
X0292912Y0210210D02*
X0298670Y0210210D01*
X0298292Y0211008D02*
X0289746Y0211008D01*
X0289746Y0211400D02*
X0292912Y0211400D01*
X0292912Y0213153D01*
X0292816Y0213509D01*
X0292632Y0213828D01*
X0292371Y0214089D01*
X0292052Y0214273D01*
X0291696Y0214368D01*
X0289746Y0214368D01*
X0289746Y0211400D01*
X0289746Y0211807D02*
X0288946Y0211807D01*
X0288500Y0211846D02*
X0288500Y0213500D01*
X0288031Y0213969D01*
X0283500Y0213969D01*
X0276469Y0213969D01*
X0271000Y0208500D01*
X0264189Y0201689D01*
X0258500Y0201689D01*
X0257811Y0201000D01*
X0248500Y0201000D01*
X0247654Y0200154D01*
X0247654Y0193500D01*
X0244500Y0193500D01*
X0242000Y0196000D01*
X0244088Y0195653D02*
X0244088Y0193900D01*
X0247253Y0193900D01*
X0247253Y0193100D01*
X0244088Y0193100D01*
X0244088Y0191347D01*
X0244184Y0190991D01*
X0244368Y0190672D01*
X0244629Y0190411D01*
X0244948Y0190227D01*
X0245304Y0190131D01*
X0247254Y0190131D01*
X0247254Y0193100D01*
X0248054Y0193100D01*
X0248054Y0190131D01*
X0250003Y0190131D01*
X0250359Y0190227D01*
X0250679Y0190411D01*
X0250939Y0190672D01*
X0251123Y0190991D01*
X0251181Y0191206D01*
X0251181Y0191117D01*
X0251767Y0190531D01*
X0252946Y0190531D01*
X0252946Y0186468D01*
X0251767Y0186468D01*
X0251181Y0185883D01*
X0251181Y0181117D01*
X0251767Y0180531D01*
X0256926Y0180531D01*
X0257512Y0181117D01*
X0257512Y0185883D01*
X0256926Y0186468D01*
X0255746Y0186468D01*
X0255746Y0190531D01*
X0256926Y0190531D01*
X0257512Y0191117D01*
X0257512Y0194685D01*
X0260153Y0197327D01*
X0260390Y0197090D01*
X0261305Y0196711D01*
X0262295Y0196711D01*
X0263210Y0197090D01*
X0263910Y0197790D01*
X0264289Y0198705D01*
X0264289Y0199695D01*
X0263910Y0200610D01*
X0263210Y0201310D01*
X0262295Y0201689D01*
X0261305Y0201689D01*
X0260390Y0201310D01*
X0259690Y0200610D01*
X0259686Y0200600D01*
X0259467Y0200600D01*
X0258646Y0199780D01*
X0255335Y0196468D01*
X0251767Y0196468D01*
X0251181Y0195883D01*
X0251181Y0195794D01*
X0251123Y0196009D01*
X0250939Y0196328D01*
X0250679Y0196589D01*
X0250359Y0196773D01*
X0250003Y0196868D01*
X0248054Y0196868D01*
X0248054Y0193900D01*
X0247254Y0193900D01*
X0247254Y0196868D01*
X0245304Y0196868D01*
X0244948Y0196773D01*
X0244629Y0196589D01*
X0244368Y0196328D01*
X0244184Y0196009D01*
X0244088Y0195653D01*
X0244137Y0195837D02*
X0233189Y0195837D01*
X0233089Y0196635D02*
X0244709Y0196635D01*
X0244088Y0195038D02*
X0233037Y0195038D01*
X0232560Y0194240D02*
X0244088Y0194240D01*
X0244088Y0192643D02*
X0228037Y0192643D01*
X0228612Y0193441D02*
X0230132Y0193441D01*
X0231268Y0193441D02*
X0247253Y0193441D01*
X0247254Y0192643D02*
X0248054Y0192643D01*
X0248054Y0191844D02*
X0247254Y0191844D01*
X0247254Y0191046D02*
X0248054Y0191046D01*
X0248054Y0190247D02*
X0247254Y0190247D01*
X0244913Y0190247D02*
X0223641Y0190247D01*
X0223789Y0191046D02*
X0244169Y0191046D01*
X0244088Y0191844D02*
X0223686Y0191844D01*
X0222281Y0193441D02*
X0222152Y0193441D01*
X0222281Y0194240D02*
X0221919Y0194240D01*
X0221919Y0195038D02*
X0222281Y0195038D01*
X0222281Y0195837D02*
X0221919Y0195837D01*
X0221919Y0196635D02*
X0222281Y0196635D01*
X0222281Y0197434D02*
X0221919Y0197434D01*
X0221669Y0198232D02*
X0222531Y0198232D01*
X0225446Y0195600D02*
X0230400Y0195600D01*
X0230700Y0195900D01*
X0231573Y0198232D02*
X0257099Y0198232D01*
X0256300Y0197434D02*
X0232686Y0197434D01*
X0229827Y0198232D02*
X0228362Y0198232D01*
X0228612Y0197434D02*
X0228714Y0197434D01*
X0221300Y0191100D02*
X0221300Y0188346D01*
X0218754Y0185800D01*
X0221919Y0185456D02*
X0222281Y0185456D01*
X0222281Y0184658D02*
X0221919Y0184658D01*
X0221919Y0183859D02*
X0222281Y0183859D01*
X0222638Y0183061D02*
X0221562Y0183061D01*
X0221919Y0186255D02*
X0222281Y0186255D01*
X0222281Y0187053D02*
X0221987Y0187053D01*
X0222700Y0188650D02*
X0222749Y0188650D01*
X0223169Y0189449D02*
X0252946Y0189449D01*
X0252946Y0190247D02*
X0250394Y0190247D01*
X0251138Y0191046D02*
X0251253Y0191046D01*
X0252946Y0188650D02*
X0228144Y0188650D01*
X0228612Y0187852D02*
X0229332Y0187852D01*
X0231100Y0186100D02*
X0225746Y0186100D01*
X0225446Y0185800D01*
X0228612Y0184658D02*
X0229022Y0184658D01*
X0228612Y0183859D02*
X0230006Y0183859D01*
X0228255Y0183061D02*
X0244488Y0183061D01*
X0244488Y0183859D02*
X0232194Y0183859D01*
X0233178Y0184658D02*
X0244488Y0184658D01*
X0244488Y0185456D02*
X0233527Y0185456D01*
X0233589Y0186255D02*
X0244860Y0186255D01*
X0247654Y0183500D02*
X0247654Y0176146D01*
X0236146Y0176146D01*
X0233500Y0173500D01*
X0228800Y0178200D01*
X0219386Y0178200D01*
X0216497Y0175311D01*
X0213489Y0175311D01*
X0213489Y0170789D01*
X0205440Y0162740D01*
X0207929Y0163098D02*
X0218800Y0163098D01*
X0218800Y0163896D02*
X0208576Y0163896D01*
X0209375Y0164695D02*
X0218800Y0164695D01*
X0218800Y0165447D02*
X0218800Y0161553D01*
X0221553Y0158800D01*
X0225447Y0158800D01*
X0228200Y0161553D01*
X0228200Y0165447D01*
X0225447Y0168200D01*
X0221553Y0168200D01*
X0218800Y0165447D01*
X0218847Y0165493D02*
X0210173Y0165493D01*
X0210972Y0166292D02*
X0219645Y0166292D01*
X0220444Y0167090D02*
X0211770Y0167090D01*
X0212569Y0167889D02*
X0221242Y0167889D01*
X0218800Y0169486D02*
X0214166Y0169486D01*
X0214889Y0170284D02*
X0218800Y0170284D01*
X0218800Y0171083D02*
X0214889Y0171083D01*
X0214889Y0171881D02*
X0218800Y0171881D01*
X0218800Y0172680D02*
X0214889Y0172680D01*
X0215176Y0173478D02*
X0218800Y0173478D01*
X0218800Y0174277D02*
X0217443Y0174277D01*
X0218241Y0175075D02*
X0218800Y0175075D01*
X0216677Y0177471D02*
X0214779Y0177471D01*
X0212400Y0178270D02*
X0217475Y0178270D01*
X0218274Y0179068D02*
X0212400Y0179068D01*
X0212400Y0179867D02*
X0246254Y0179867D01*
X0246254Y0179068D02*
X0229912Y0179068D01*
X0230710Y0178270D02*
X0246254Y0178270D01*
X0247654Y0176146D02*
X0247700Y0176100D01*
X0249970Y0175075D02*
X0264600Y0175075D01*
X0264600Y0174277D02*
X0249397Y0174277D01*
X0250189Y0175874D02*
X0264600Y0175874D01*
X0264600Y0176672D02*
X0250157Y0176672D01*
X0249826Y0177471D02*
X0264600Y0177471D01*
X0264600Y0178270D02*
X0249054Y0178270D01*
X0249054Y0179068D02*
X0264600Y0179068D01*
X0264600Y0179867D02*
X0249054Y0179867D01*
X0250367Y0180665D02*
X0251633Y0180665D01*
X0251181Y0181464D02*
X0250819Y0181464D01*
X0250819Y0182262D02*
X0251181Y0182262D01*
X0251181Y0183061D02*
X0250819Y0183061D01*
X0250819Y0183859D02*
X0251181Y0183859D01*
X0251181Y0184658D02*
X0250819Y0184658D01*
X0250819Y0185456D02*
X0251181Y0185456D01*
X0251553Y0186255D02*
X0250447Y0186255D01*
X0252946Y0187053D02*
X0233399Y0187053D01*
X0232868Y0187852D02*
X0252946Y0187852D01*
X0255746Y0187852D02*
X0263080Y0187852D01*
X0262281Y0188650D02*
X0255746Y0188650D01*
X0255746Y0189449D02*
X0261894Y0189449D01*
X0261563Y0190247D02*
X0255746Y0190247D01*
X0257440Y0191046D02*
X0261500Y0191046D01*
X0261500Y0191844D02*
X0257512Y0191844D01*
X0257512Y0192643D02*
X0261687Y0192643D01*
X0262018Y0193441D02*
X0257512Y0193441D01*
X0257512Y0194240D02*
X0262580Y0194240D01*
X0263379Y0195038D02*
X0257865Y0195038D01*
X0258663Y0195837D02*
X0266257Y0195837D01*
X0267055Y0196635D02*
X0259462Y0196635D01*
X0260046Y0199200D02*
X0254346Y0193500D01*
X0254346Y0183500D01*
X0257512Y0183859D02*
X0264600Y0183859D01*
X0264600Y0183061D02*
X0257512Y0183061D01*
X0257512Y0182262D02*
X0264600Y0182262D01*
X0264600Y0181464D02*
X0257512Y0181464D01*
X0257060Y0180665D02*
X0264600Y0180665D01*
X0267400Y0180665D02*
X0267611Y0180665D01*
X0267627Y0179867D02*
X0267400Y0179867D01*
X0267400Y0179068D02*
X0267958Y0179068D01*
X0267400Y0178270D02*
X0268739Y0178270D01*
X0267400Y0177471D02*
X0276155Y0177471D01*
X0275866Y0176672D02*
X0267400Y0176672D01*
X0267400Y0175874D02*
X0275866Y0175874D01*
X0275866Y0175075D02*
X0267400Y0175075D01*
X0267400Y0174277D02*
X0275270Y0174277D01*
X0274471Y0173478D02*
X0267400Y0173478D01*
X0267400Y0172680D02*
X0273672Y0172680D01*
X0272874Y0171881D02*
X0267400Y0171881D01*
X0266994Y0171083D02*
X0272075Y0171083D01*
X0271277Y0170284D02*
X0266196Y0170284D01*
X0266000Y0172069D02*
X0261500Y0167569D01*
X0261500Y0163841D01*
X0264136Y0161205D01*
X0267864Y0161205D01*
X0273132Y0166472D01*
X0278500Y0166472D01*
X0288672Y0156300D01*
X0311812Y0156300D01*
X0316000Y0160488D01*
X0319564Y0164244D02*
X0309244Y0164244D01*
X0306888Y0161888D01*
X0299388Y0161888D01*
X0298500Y0161000D01*
X0295153Y0157700D02*
X0289252Y0157700D01*
X0281134Y0165818D01*
X0281134Y0168127D01*
X0280548Y0168713D01*
X0276452Y0168713D01*
X0275866Y0168127D01*
X0275866Y0167872D01*
X0272825Y0167872D01*
X0278240Y0173287D01*
X0280548Y0173287D01*
X0281134Y0173873D01*
X0281134Y0174128D01*
X0292539Y0174128D01*
X0293071Y0173596D01*
X0292306Y0173474D01*
X0291542Y0173226D01*
X0290827Y0172862D01*
X0290178Y0172390D01*
X0289610Y0171822D01*
X0289138Y0171173D01*
X0288774Y0170458D01*
X0288526Y0169694D01*
X0288400Y0168901D01*
X0288400Y0168900D01*
X0293100Y0168900D01*
X0293100Y0168100D01*
X0293900Y0168100D01*
X0293900Y0163400D01*
X0293901Y0163400D01*
X0294442Y0163486D01*
X0293800Y0161935D01*
X0293800Y0160065D01*
X0294516Y0158338D01*
X0295153Y0157700D01*
X0294546Y0158307D02*
X0288646Y0158307D01*
X0287847Y0159105D02*
X0294198Y0159105D01*
X0293867Y0159904D02*
X0287049Y0159904D01*
X0286250Y0160702D02*
X0293800Y0160702D01*
X0293800Y0161501D02*
X0285452Y0161501D01*
X0284653Y0162299D02*
X0293951Y0162299D01*
X0294282Y0163098D02*
X0283855Y0163098D01*
X0283056Y0163896D02*
X0291302Y0163896D01*
X0291542Y0163774D02*
X0292306Y0163526D01*
X0293099Y0163400D01*
X0293100Y0163400D01*
X0293100Y0168100D01*
X0288400Y0168100D01*
X0288400Y0168099D01*
X0288526Y0167306D01*
X0288774Y0166542D01*
X0289138Y0165827D01*
X0289610Y0165178D01*
X0290178Y0164610D01*
X0290827Y0164138D01*
X0291542Y0163774D01*
X0293100Y0163896D02*
X0293900Y0163896D01*
X0293900Y0164695D02*
X0293100Y0164695D01*
X0293100Y0165493D02*
X0293900Y0165493D01*
X0293900Y0166292D02*
X0293100Y0166292D01*
X0293100Y0167090D02*
X0293900Y0167090D01*
X0293900Y0167889D02*
X0293100Y0167889D01*
X0293100Y0168687D02*
X0280573Y0168687D01*
X0281134Y0167889D02*
X0288433Y0167889D01*
X0288596Y0167090D02*
X0281134Y0167090D01*
X0281134Y0166292D02*
X0288901Y0166292D01*
X0289381Y0165493D02*
X0281459Y0165493D01*
X0282258Y0164695D02*
X0290093Y0164695D01*
X0288493Y0169486D02*
X0274438Y0169486D01*
X0273640Y0168687D02*
X0276427Y0168687D01*
X0275866Y0167889D02*
X0272841Y0167889D01*
X0270478Y0169486D02*
X0268583Y0169486D01*
X0269381Y0168687D02*
X0269680Y0168687D01*
X0268677Y0165705D02*
X0266000Y0165705D01*
X0268677Y0165705D02*
X0278500Y0175528D01*
X0293119Y0175528D01*
X0300147Y0168500D01*
X0303500Y0168500D01*
X0307848Y0170284D02*
X0311450Y0170284D01*
X0311450Y0169486D02*
X0308179Y0169486D01*
X0308200Y0168687D02*
X0311450Y0168687D01*
X0311450Y0168572D02*
X0311546Y0168216D01*
X0311730Y0167896D01*
X0311991Y0167636D01*
X0312310Y0167451D01*
X0312666Y0167356D01*
X0315600Y0167356D01*
X0315600Y0171112D01*
X0311450Y0171112D01*
X0311450Y0168572D01*
X0311738Y0167889D02*
X0308200Y0167889D01*
X0308003Y0167090D02*
X0321096Y0167090D01*
X0321026Y0167306D02*
X0321274Y0166542D01*
X0321638Y0165827D01*
X0322110Y0165178D01*
X0322678Y0164610D01*
X0323327Y0164138D01*
X0324042Y0163774D01*
X0324806Y0163526D01*
X0325599Y0163400D01*
X0325600Y0163400D01*
X0325600Y0168100D01*
X0326400Y0168100D01*
X0326400Y0168900D01*
X0331100Y0168900D01*
X0331100Y0168901D01*
X0330974Y0169694D01*
X0330726Y0170458D01*
X0330362Y0171173D01*
X0329890Y0171822D01*
X0329322Y0172390D01*
X0328673Y0172862D01*
X0327958Y0173226D01*
X0327194Y0173474D01*
X0326401Y0173600D01*
X0326400Y0173600D01*
X0326400Y0168900D01*
X0325600Y0168900D01*
X0325600Y0173600D01*
X0325599Y0173600D01*
X0324806Y0173474D01*
X0324042Y0173226D01*
X0323327Y0172862D01*
X0322678Y0172390D01*
X0322110Y0171822D01*
X0321638Y0171173D01*
X0321274Y0170458D01*
X0321026Y0169694D01*
X0320900Y0168901D01*
X0320900Y0168900D01*
X0325600Y0168900D01*
X0325600Y0168100D01*
X0320900Y0168100D01*
X0320900Y0168099D01*
X0321026Y0167306D01*
X0320933Y0167889D02*
X0320262Y0167889D01*
X0320270Y0167896D02*
X0320454Y0168216D01*
X0320550Y0168572D01*
X0320550Y0171112D01*
X0316400Y0171112D01*
X0316400Y0171912D01*
X0315600Y0171912D01*
X0315600Y0175668D01*
X0312666Y0175668D01*
X0312310Y0175572D01*
X0311991Y0175388D01*
X0311730Y0175127D01*
X0311546Y0174808D01*
X0311450Y0174452D01*
X0311450Y0171912D01*
X0315600Y0171912D01*
X0315600Y0171112D01*
X0316400Y0171112D01*
X0316400Y0167356D01*
X0319334Y0167356D01*
X0319690Y0167451D01*
X0320009Y0167636D01*
X0320270Y0167896D01*
X0320550Y0168687D02*
X0325600Y0168687D01*
X0326000Y0168500D02*
X0319012Y0168500D01*
X0316000Y0171512D01*
X0316400Y0171881D02*
X0322169Y0171881D01*
X0321592Y0171083D02*
X0320550Y0171083D01*
X0320550Y0170284D02*
X0321217Y0170284D01*
X0320993Y0169486D02*
X0320550Y0169486D01*
X0320550Y0171912D02*
X0320550Y0174452D01*
X0320454Y0174808D01*
X0320270Y0175127D01*
X0320009Y0175388D01*
X0319690Y0175572D01*
X0319334Y0175668D01*
X0316400Y0175668D01*
X0316400Y0171912D01*
X0320550Y0171912D01*
X0320550Y0172680D02*
X0323077Y0172680D01*
X0324831Y0173478D02*
X0320550Y0173478D01*
X0320550Y0174277D02*
X0343500Y0174277D01*
X0343500Y0175075D02*
X0320300Y0175075D01*
X0316400Y0175075D02*
X0315600Y0175075D01*
X0315600Y0174277D02*
X0316400Y0174277D01*
X0316400Y0173478D02*
X0315600Y0173478D01*
X0315600Y0172680D02*
X0316400Y0172680D01*
X0315600Y0171881D02*
X0306765Y0171881D01*
X0307517Y0171083D02*
X0311450Y0171083D01*
X0311450Y0172680D02*
X0305690Y0172680D01*
X0301310Y0172680D02*
X0297947Y0172680D01*
X0298745Y0171881D02*
X0300235Y0171881D01*
X0297148Y0173478D02*
X0311450Y0173478D01*
X0311450Y0174277D02*
X0296350Y0174277D01*
X0295551Y0175075D02*
X0311700Y0175075D01*
X0315600Y0171083D02*
X0316400Y0171083D01*
X0316400Y0170284D02*
X0315600Y0170284D01*
X0315600Y0169486D02*
X0316400Y0169486D01*
X0316400Y0168687D02*
X0315600Y0168687D01*
X0315600Y0167889D02*
X0316400Y0167889D01*
X0320294Y0165493D02*
X0321881Y0165493D01*
X0321401Y0166292D02*
X0307673Y0166292D01*
X0307140Y0165493D02*
X0308513Y0165493D01*
X0307715Y0164695D02*
X0306342Y0164695D01*
X0306916Y0163896D02*
X0304667Y0163896D01*
X0302333Y0163896D02*
X0302250Y0163896D01*
X0292331Y0173478D02*
X0280739Y0173478D01*
X0277632Y0172680D02*
X0290577Y0172680D01*
X0289669Y0171881D02*
X0276834Y0171881D01*
X0276035Y0171083D02*
X0289092Y0171083D01*
X0288717Y0170284D02*
X0275237Y0170284D01*
X0280845Y0177471D02*
X0343500Y0177471D01*
X0343500Y0176672D02*
X0293954Y0176672D01*
X0294753Y0175874D02*
X0343500Y0175874D01*
X0343500Y0178270D02*
X0271461Y0178270D01*
X0272242Y0179068D02*
X0343500Y0179068D01*
X0343500Y0179867D02*
X0272573Y0179867D01*
X0272589Y0180665D02*
X0343500Y0180665D01*
X0343500Y0181464D02*
X0289078Y0181464D01*
X0289200Y0182262D02*
X0343500Y0182262D01*
X0343500Y0183061D02*
X0289200Y0183061D01*
X0289200Y0183859D02*
X0343500Y0183859D01*
X0343500Y0184658D02*
X0339001Y0184658D01*
X0339496Y0184862D02*
X0341232Y0186599D01*
X0342172Y0188867D01*
X0342172Y0191322D01*
X0341232Y0193590D01*
X0339496Y0195327D01*
X0337870Y0196000D01*
X0339496Y0196673D01*
X0341232Y0198410D01*
X0342172Y0200678D01*
X0342172Y0203133D01*
X0341232Y0205401D01*
X0339496Y0207138D01*
X0337228Y0208077D01*
X0334772Y0208077D01*
X0332504Y0207138D01*
X0330768Y0205401D01*
X0329828Y0203133D01*
X0329828Y0200678D01*
X0330768Y0198410D01*
X0332504Y0196673D01*
X0334130Y0196000D01*
X0332504Y0195327D01*
X0330768Y0193590D01*
X0329828Y0191322D01*
X0329828Y0188867D01*
X0330768Y0186599D01*
X0332504Y0184862D01*
X0334772Y0183923D01*
X0337228Y0183923D01*
X0339496Y0184862D01*
X0340090Y0185456D02*
X0343500Y0185456D01*
X0343500Y0186255D02*
X0340888Y0186255D01*
X0341420Y0187053D02*
X0343500Y0187053D01*
X0343500Y0187852D02*
X0341751Y0187852D01*
X0342082Y0188650D02*
X0343500Y0188650D01*
X0343500Y0189449D02*
X0342172Y0189449D01*
X0342172Y0190247D02*
X0343500Y0190247D01*
X0343500Y0191046D02*
X0342172Y0191046D01*
X0341955Y0191844D02*
X0343500Y0191844D01*
X0343500Y0192643D02*
X0341625Y0192643D01*
X0341294Y0193441D02*
X0343500Y0193441D01*
X0343500Y0194240D02*
X0340583Y0194240D01*
X0339784Y0195038D02*
X0343500Y0195038D01*
X0343500Y0195837D02*
X0338264Y0195837D01*
X0339404Y0196635D02*
X0343500Y0196635D01*
X0343500Y0197434D02*
X0340256Y0197434D01*
X0341055Y0198232D02*
X0343500Y0198232D01*
X0343500Y0199031D02*
X0341489Y0199031D01*
X0341820Y0199829D02*
X0343500Y0199829D01*
X0343500Y0200628D02*
X0342151Y0200628D01*
X0342172Y0201426D02*
X0343500Y0201426D01*
X0343500Y0202225D02*
X0342172Y0202225D01*
X0342172Y0203023D02*
X0343500Y0203023D01*
X0343500Y0203822D02*
X0341886Y0203822D01*
X0341556Y0204620D02*
X0343500Y0204620D01*
X0343500Y0205419D02*
X0341215Y0205419D01*
X0340416Y0206217D02*
X0343500Y0206217D01*
X0343500Y0207016D02*
X0339618Y0207016D01*
X0337862Y0207814D02*
X0343500Y0207814D01*
X0343500Y0208613D02*
X0328002Y0208613D01*
X0328289Y0209411D02*
X0343500Y0209411D01*
X0343500Y0210210D02*
X0328289Y0210210D01*
X0327993Y0211008D02*
X0343500Y0211008D01*
X0343500Y0211807D02*
X0327313Y0211807D01*
X0325800Y0209800D02*
X0318600Y0202600D01*
X0283800Y0202600D01*
X0283800Y0209854D01*
X0282654Y0211000D01*
X0283500Y0213969D02*
X0285233Y0213969D01*
X0285702Y0213500D01*
X0285798Y0213404D02*
X0285848Y0213404D01*
X0286519Y0214203D02*
X0258682Y0214203D01*
X0257884Y0213404D02*
X0269589Y0213404D01*
X0269806Y0213474D02*
X0269042Y0213226D01*
X0268327Y0212862D01*
X0267678Y0212390D01*
X0267110Y0211822D01*
X0266638Y0211173D01*
X0266274Y0210458D01*
X0266026Y0209694D01*
X0265900Y0208901D01*
X0265900Y0208900D01*
X0270600Y0208900D01*
X0270600Y0213600D01*
X0270599Y0213600D01*
X0269806Y0213474D01*
X0270600Y0213404D02*
X0271400Y0213404D01*
X0271400Y0213600D02*
X0271400Y0208900D01*
X0270600Y0208900D01*
X0270600Y0208100D01*
X0265900Y0208100D01*
X0265900Y0208099D01*
X0266026Y0207306D01*
X0266274Y0206542D01*
X0266638Y0205827D01*
X0267110Y0205178D01*
X0267678Y0204610D01*
X0268327Y0204138D01*
X0269042Y0203774D01*
X0269806Y0203526D01*
X0270599Y0203400D01*
X0270600Y0203400D01*
X0270600Y0208100D01*
X0271400Y0208100D01*
X0271400Y0208900D01*
X0276100Y0208900D01*
X0276100Y0208901D01*
X0275974Y0209694D01*
X0275726Y0210458D01*
X0275362Y0211173D01*
X0274890Y0211822D01*
X0274322Y0212390D01*
X0273673Y0212862D01*
X0272958Y0213226D01*
X0272194Y0213474D01*
X0271401Y0213600D01*
X0271400Y0213600D01*
X0271400Y0212605D02*
X0270600Y0212605D01*
X0270600Y0211807D02*
X0271400Y0211807D01*
X0271400Y0211008D02*
X0270600Y0211008D01*
X0270600Y0210210D02*
X0271400Y0210210D01*
X0271400Y0209411D02*
X0270600Y0209411D01*
X0270600Y0208613D02*
X0265700Y0208613D01*
X0265700Y0209411D02*
X0265981Y0209411D01*
X0265700Y0209435D02*
X0264984Y0211162D01*
X0263662Y0212484D01*
X0261935Y0213200D01*
X0260065Y0213200D01*
X0258338Y0212484D01*
X0257016Y0211162D01*
X0256300Y0209435D01*
X0256300Y0207565D01*
X0257016Y0205838D01*
X0258338Y0204516D01*
X0260065Y0203800D01*
X0261935Y0203800D01*
X0263662Y0204516D01*
X0264984Y0205838D01*
X0265700Y0207565D01*
X0265700Y0209435D01*
X0265379Y0210210D02*
X0266193Y0210210D01*
X0266554Y0211008D02*
X0265048Y0211008D01*
X0264340Y0211807D02*
X0267099Y0211807D01*
X0267974Y0212605D02*
X0263370Y0212605D01*
X0258630Y0212605D02*
X0257085Y0212605D01*
X0257660Y0211807D02*
X0256287Y0211807D01*
X0256952Y0211008D02*
X0255488Y0211008D01*
X0255379Y0210210D02*
X0256621Y0210210D01*
X0256300Y0209411D02*
X0255700Y0209411D01*
X0255700Y0208613D02*
X0256300Y0208613D01*
X0256300Y0207814D02*
X0255700Y0207814D01*
X0255473Y0207016D02*
X0256527Y0207016D01*
X0256858Y0206217D02*
X0255142Y0206217D01*
X0254566Y0205419D02*
X0257434Y0205419D01*
X0258233Y0204620D02*
X0253767Y0204620D01*
X0251988Y0203822D02*
X0260012Y0203822D01*
X0261988Y0203822D02*
X0268948Y0203822D01*
X0267667Y0204620D02*
X0263767Y0204620D01*
X0264566Y0205419D02*
X0266935Y0205419D01*
X0266439Y0206217D02*
X0265142Y0206217D01*
X0265473Y0207016D02*
X0266120Y0207016D01*
X0265945Y0207814D02*
X0265700Y0207814D01*
X0270600Y0207814D02*
X0271400Y0207814D01*
X0271400Y0208100D02*
X0271400Y0203400D01*
X0271401Y0203400D01*
X0272194Y0203526D01*
X0272958Y0203774D01*
X0273673Y0204138D01*
X0274322Y0204610D01*
X0274890Y0205178D01*
X0275362Y0205827D01*
X0275726Y0206542D01*
X0275974Y0207306D01*
X0276100Y0208099D01*
X0276100Y0208100D01*
X0271400Y0208100D01*
X0271400Y0208613D02*
X0279493Y0208613D01*
X0279488Y0209411D02*
X0276019Y0209411D01*
X0275807Y0210210D02*
X0279488Y0210210D01*
X0279488Y0211008D02*
X0275446Y0211008D01*
X0274901Y0211807D02*
X0279488Y0211807D01*
X0279488Y0212605D02*
X0274026Y0212605D01*
X0272411Y0213404D02*
X0279509Y0213404D01*
X0282400Y0207814D02*
X0276055Y0207814D01*
X0275880Y0207016D02*
X0282400Y0207016D01*
X0282400Y0206217D02*
X0275561Y0206217D01*
X0275065Y0205419D02*
X0278405Y0205419D01*
X0278400Y0204620D02*
X0274333Y0204620D01*
X0273052Y0203822D02*
X0278400Y0203822D01*
X0278400Y0203023D02*
X0247503Y0203023D01*
X0246705Y0202225D02*
X0278400Y0202225D01*
X0278400Y0201426D02*
X0262929Y0201426D01*
X0263892Y0200628D02*
X0278400Y0200628D01*
X0278400Y0199829D02*
X0264233Y0199829D01*
X0264289Y0199031D02*
X0269451Y0199031D01*
X0268652Y0198232D02*
X0264093Y0198232D01*
X0263554Y0197434D02*
X0267854Y0197434D01*
X0270300Y0197900D02*
X0266000Y0193600D01*
X0266000Y0191295D01*
X0266000Y0172069D01*
X0264600Y0172680D02*
X0238200Y0172680D01*
X0238200Y0173478D02*
X0264600Y0173478D01*
X0263833Y0171881D02*
X0238200Y0171881D01*
X0237730Y0171083D02*
X0263034Y0171083D01*
X0262236Y0170284D02*
X0236931Y0170284D01*
X0236133Y0169486D02*
X0261437Y0169486D01*
X0260920Y0168969D02*
X0260920Y0168969D01*
X0260639Y0168687D02*
X0213367Y0168687D01*
X0211000Y0171820D02*
X0202951Y0163771D01*
X0202951Y0161709D01*
X0204409Y0160251D01*
X0210095Y0160251D01*
X0211000Y0159346D01*
X0213968Y0159105D02*
X0221248Y0159105D01*
X0220449Y0159904D02*
X0213968Y0159904D01*
X0213968Y0160702D02*
X0219651Y0160702D01*
X0218852Y0161501D02*
X0213968Y0161501D01*
X0213595Y0162299D02*
X0218800Y0162299D01*
X0213968Y0158307D02*
X0231094Y0158307D01*
X0231553Y0158800D02*
X0235447Y0158800D01*
X0238200Y0161553D01*
X0238200Y0165447D01*
X0235447Y0168200D01*
X0231553Y0168200D01*
X0228800Y0165447D01*
X0228800Y0161553D01*
X0231553Y0158800D01*
X0231248Y0159105D02*
X0225752Y0159105D01*
X0226551Y0159904D02*
X0230449Y0159904D01*
X0229651Y0160702D02*
X0227349Y0160702D01*
X0228148Y0161501D02*
X0228852Y0161501D01*
X0228800Y0162299D02*
X0228200Y0162299D01*
X0228200Y0163098D02*
X0228800Y0163098D01*
X0228800Y0163896D02*
X0228200Y0163896D01*
X0228200Y0164695D02*
X0228800Y0164695D01*
X0228847Y0165493D02*
X0228153Y0165493D01*
X0227355Y0166292D02*
X0229645Y0166292D01*
X0230444Y0167090D02*
X0226556Y0167090D01*
X0225758Y0167889D02*
X0231242Y0167889D01*
X0230867Y0169486D02*
X0228200Y0169486D01*
X0228200Y0170284D02*
X0230069Y0170284D01*
X0229270Y0171083D02*
X0228200Y0171083D01*
X0228200Y0171881D02*
X0228800Y0171881D01*
X0228800Y0172680D02*
X0228200Y0172680D01*
X0228200Y0173478D02*
X0228800Y0173478D01*
X0228800Y0174277D02*
X0228200Y0174277D01*
X0228200Y0175075D02*
X0228800Y0175075D01*
X0229146Y0175874D02*
X0228200Y0175874D01*
X0228200Y0176672D02*
X0228348Y0176672D01*
X0238200Y0174277D02*
X0246003Y0174277D01*
X0244940Y0180665D02*
X0212400Y0180665D01*
X0212400Y0181464D02*
X0244488Y0181464D01*
X0244488Y0182262D02*
X0212400Y0182262D01*
X0212400Y0183061D02*
X0215945Y0183061D01*
X0215588Y0183859D02*
X0212400Y0183859D01*
X0212400Y0184658D02*
X0215588Y0184658D01*
X0215588Y0185456D02*
X0212400Y0185456D01*
X0212400Y0186255D02*
X0215588Y0186255D01*
X0215588Y0187053D02*
X0212400Y0187053D01*
X0212400Y0187852D02*
X0215588Y0187852D01*
X0216056Y0188650D02*
X0212400Y0188650D01*
X0212400Y0189449D02*
X0219431Y0189449D01*
X0218959Y0190247D02*
X0212400Y0190247D01*
X0212400Y0191046D02*
X0218811Y0191046D01*
X0218914Y0191844D02*
X0212400Y0191844D01*
X0212400Y0192643D02*
X0216163Y0192643D01*
X0215588Y0193441D02*
X0212400Y0193441D01*
X0212400Y0194240D02*
X0215588Y0194240D01*
X0215558Y0195038D02*
X0215588Y0195038D01*
X0213900Y0196900D02*
X0217454Y0196900D01*
X0218754Y0195600D01*
X0215260Y0199031D02*
X0240616Y0199031D01*
X0239451Y0199829D02*
X0214309Y0199829D01*
X0215108Y0200628D02*
X0239026Y0200628D01*
X0238911Y0201426D02*
X0215906Y0201426D01*
X0216705Y0202225D02*
X0239048Y0202225D01*
X0239503Y0203023D02*
X0217503Y0203023D01*
X0218302Y0203822D02*
X0220012Y0203822D01*
X0221988Y0203822D02*
X0230012Y0203822D01*
X0228233Y0204620D02*
X0223767Y0204620D01*
X0224566Y0205419D02*
X0227434Y0205419D01*
X0226858Y0206217D02*
X0225142Y0206217D01*
X0225473Y0207016D02*
X0226527Y0207016D01*
X0226300Y0207814D02*
X0225700Y0207814D01*
X0225700Y0208613D02*
X0226300Y0208613D01*
X0226300Y0209411D02*
X0225700Y0209411D01*
X0225379Y0210210D02*
X0226621Y0210210D01*
X0226952Y0211008D02*
X0225048Y0211008D01*
X0224340Y0211807D02*
X0227660Y0211807D01*
X0234340Y0211807D02*
X0237660Y0211807D01*
X0236952Y0211008D02*
X0235048Y0211008D01*
X0235379Y0210210D02*
X0236621Y0210210D01*
X0236300Y0209411D02*
X0235700Y0209411D01*
X0235700Y0208613D02*
X0236300Y0208613D01*
X0236300Y0207814D02*
X0235700Y0207814D01*
X0235473Y0207016D02*
X0236527Y0207016D01*
X0236858Y0206217D02*
X0235142Y0206217D01*
X0234566Y0205419D02*
X0237434Y0205419D01*
X0238233Y0204620D02*
X0233767Y0204620D01*
X0231988Y0203822D02*
X0240012Y0203822D01*
X0241400Y0201400D02*
X0243900Y0201400D01*
X0251000Y0208500D01*
X0250012Y0203822D02*
X0248302Y0203822D01*
X0245906Y0201426D02*
X0260671Y0201426D01*
X0259708Y0200628D02*
X0245108Y0200628D01*
X0243349Y0199829D02*
X0258696Y0199829D01*
X0257897Y0199031D02*
X0242184Y0199031D01*
X0247254Y0196635D02*
X0248054Y0196635D01*
X0248054Y0195837D02*
X0247254Y0195837D01*
X0247254Y0195038D02*
X0248054Y0195038D01*
X0248054Y0194240D02*
X0247254Y0194240D01*
X0250598Y0196635D02*
X0255502Y0196635D01*
X0251181Y0195837D02*
X0251170Y0195837D01*
X0260046Y0199200D02*
X0261800Y0199200D01*
X0270300Y0197900D02*
X0279100Y0197900D01*
X0283800Y0202600D01*
X0285200Y0206217D02*
X0320238Y0206217D01*
X0321036Y0207016D02*
X0285200Y0207016D01*
X0285200Y0207814D02*
X0286489Y0207814D01*
X0285844Y0208613D02*
X0285815Y0208613D01*
X0288946Y0208613D02*
X0289746Y0208613D01*
X0289746Y0209411D02*
X0288946Y0209411D01*
X0288946Y0210210D02*
X0289746Y0210210D01*
X0289346Y0211000D02*
X0288500Y0211846D01*
X0288946Y0212605D02*
X0289746Y0212605D01*
X0289746Y0213404D02*
X0288946Y0213404D01*
X0288946Y0214203D02*
X0289746Y0214203D01*
X0292174Y0214203D02*
X0296218Y0214203D01*
X0297016Y0213404D02*
X0292845Y0213404D01*
X0292912Y0212605D02*
X0297815Y0212605D01*
X0298211Y0211807D02*
X0292912Y0211807D01*
X0292849Y0208613D02*
X0322633Y0208613D01*
X0323311Y0209411D02*
X0301679Y0209411D01*
X0301731Y0209211D02*
X0304920Y0212400D01*
X0306700Y0212400D01*
X0303189Y0211807D02*
X0324287Y0211807D01*
X0323607Y0211008D02*
X0303108Y0211008D01*
X0302730Y0210210D02*
X0323311Y0210210D01*
X0321835Y0207814D02*
X0292204Y0207814D01*
X0289746Y0207814D02*
X0288946Y0207814D01*
X0289195Y0205419D02*
X0319439Y0205419D01*
X0318640Y0204620D02*
X0289200Y0204620D01*
X0289200Y0200628D02*
X0289708Y0200628D01*
X0291200Y0198600D02*
X0286100Y0193500D01*
X0283800Y0193500D01*
X0280789Y0190489D01*
X0274069Y0190489D01*
X0272611Y0189031D01*
X0272611Y0182911D01*
X0270100Y0180400D01*
X0267847Y0181464D02*
X0267400Y0181464D01*
X0267400Y0182262D02*
X0268442Y0182262D01*
X0267400Y0183061D02*
X0270781Y0183061D01*
X0271211Y0183859D02*
X0267400Y0183859D01*
X0267400Y0184658D02*
X0271211Y0184658D01*
X0271211Y0185456D02*
X0267400Y0185456D01*
X0267400Y0186255D02*
X0271211Y0186255D01*
X0271211Y0187053D02*
X0267518Y0187053D01*
X0268920Y0187852D02*
X0271211Y0187852D01*
X0271211Y0188650D02*
X0269719Y0188650D01*
X0270106Y0189449D02*
X0271211Y0189449D01*
X0271847Y0190247D02*
X0270437Y0190247D01*
X0270500Y0191046D02*
X0272646Y0191046D01*
X0273444Y0191844D02*
X0270500Y0191844D01*
X0270313Y0192643D02*
X0278400Y0192643D01*
X0278400Y0193441D02*
X0269982Y0193441D01*
X0269419Y0194240D02*
X0278400Y0194240D01*
X0278400Y0195038D02*
X0269418Y0195038D01*
X0270217Y0195837D02*
X0278400Y0195837D01*
X0289200Y0194240D02*
X0302870Y0194240D01*
X0302870Y0195038D02*
X0289618Y0195038D01*
X0290417Y0195837D02*
X0302870Y0195837D01*
X0302870Y0196635D02*
X0292755Y0196635D01*
X0293411Y0197434D02*
X0302870Y0197434D01*
X0302870Y0198232D02*
X0293689Y0198232D01*
X0293689Y0199031D02*
X0302870Y0199031D01*
X0302870Y0199829D02*
X0293385Y0199829D01*
X0292692Y0200628D02*
X0302870Y0200628D01*
X0302870Y0193441D02*
X0289200Y0193441D01*
X0289200Y0192643D02*
X0302870Y0192643D01*
X0302870Y0191844D02*
X0289200Y0191844D01*
X0289200Y0191046D02*
X0302870Y0191046D01*
X0302870Y0190247D02*
X0288761Y0190247D01*
X0289200Y0187053D02*
X0302870Y0187053D01*
X0302870Y0186255D02*
X0289200Y0186255D01*
X0289200Y0185456D02*
X0303413Y0185456D01*
X0302870Y0187852D02*
X0282328Y0187852D01*
X0281530Y0188650D02*
X0302870Y0188650D01*
X0302870Y0189449D02*
X0281729Y0189449D01*
X0280200Y0188000D02*
X0283800Y0184400D01*
X0280200Y0188000D02*
X0275100Y0188000D01*
X0276875Y0186255D02*
X0278400Y0186255D01*
X0278400Y0185456D02*
X0274011Y0185456D01*
X0274011Y0184658D02*
X0278400Y0184658D01*
X0278400Y0183859D02*
X0274011Y0183859D01*
X0274011Y0183061D02*
X0278400Y0183061D01*
X0278400Y0182262D02*
X0273942Y0182262D01*
X0273143Y0181464D02*
X0278522Y0181464D01*
X0289200Y0184658D02*
X0332998Y0184658D01*
X0331910Y0185456D02*
X0312988Y0185456D01*
X0313531Y0186255D02*
X0331112Y0186255D01*
X0330580Y0187053D02*
X0313531Y0187053D01*
X0313531Y0187852D02*
X0330249Y0187852D01*
X0329918Y0188650D02*
X0313531Y0188650D01*
X0313531Y0189449D02*
X0329828Y0189449D01*
X0329828Y0190247D02*
X0313531Y0190247D01*
X0313531Y0191046D02*
X0329828Y0191046D01*
X0330045Y0191844D02*
X0313531Y0191844D01*
X0313531Y0192643D02*
X0330375Y0192643D01*
X0330706Y0193441D02*
X0313531Y0193441D01*
X0313531Y0194240D02*
X0331417Y0194240D01*
X0332216Y0195038D02*
X0313531Y0195038D01*
X0313531Y0195837D02*
X0333736Y0195837D01*
X0332596Y0196635D02*
X0313531Y0196635D01*
X0313531Y0197434D02*
X0331744Y0197434D01*
X0330945Y0198232D02*
X0313531Y0198232D01*
X0313531Y0199031D02*
X0330511Y0199031D01*
X0330180Y0199829D02*
X0313531Y0199829D01*
X0313531Y0200628D02*
X0329849Y0200628D01*
X0329828Y0201426D02*
X0319406Y0201426D01*
X0320205Y0202225D02*
X0329828Y0202225D01*
X0329828Y0203023D02*
X0321003Y0203023D01*
X0321802Y0203822D02*
X0330114Y0203822D01*
X0330444Y0204620D02*
X0322600Y0204620D01*
X0323399Y0205419D02*
X0330785Y0205419D01*
X0331584Y0206217D02*
X0324197Y0206217D01*
X0324996Y0207016D02*
X0332382Y0207016D01*
X0334138Y0207814D02*
X0327334Y0207814D01*
X0329024Y0218007D02*
X0327627Y0218586D01*
X0326558Y0219655D01*
X0325980Y0221051D01*
X0325980Y0222563D01*
X0326558Y0223960D01*
X0327627Y0225029D01*
X0329024Y0225607D01*
X0330535Y0225607D01*
X0331932Y0225029D01*
X0333001Y0223960D01*
X0333580Y0222563D01*
X0333580Y0221051D01*
X0333001Y0219655D01*
X0331932Y0218586D01*
X0330535Y0218007D01*
X0329024Y0218007D01*
X0328570Y0218195D02*
X0323115Y0218195D01*
X0322661Y0218007D02*
X0324058Y0218586D01*
X0325127Y0219655D01*
X0325705Y0221051D01*
X0325705Y0222563D01*
X0325127Y0223960D01*
X0324058Y0225029D01*
X0322661Y0225607D01*
X0321150Y0225607D01*
X0319753Y0225029D01*
X0318684Y0223960D01*
X0318106Y0222563D01*
X0318106Y0221051D01*
X0318684Y0219655D01*
X0319753Y0218586D01*
X0321150Y0218007D01*
X0322661Y0218007D01*
X0320696Y0218195D02*
X0315241Y0218195D01*
X0314787Y0218007D02*
X0316184Y0218586D01*
X0317253Y0219655D01*
X0317831Y0221051D01*
X0317831Y0222563D01*
X0317253Y0223960D01*
X0316184Y0225029D01*
X0314787Y0225607D01*
X0313276Y0225607D01*
X0311879Y0225029D01*
X0310810Y0223960D01*
X0310231Y0222563D01*
X0310231Y0221051D01*
X0310810Y0219655D01*
X0311879Y0218586D01*
X0313276Y0218007D01*
X0314787Y0218007D01*
X0312822Y0218195D02*
X0307367Y0218195D01*
X0306913Y0218007D02*
X0308310Y0218586D01*
X0309379Y0219655D01*
X0309957Y0221051D01*
X0309957Y0222563D01*
X0309379Y0223960D01*
X0308310Y0225029D01*
X0306913Y0225607D01*
X0305402Y0225607D01*
X0304005Y0225029D01*
X0302936Y0223960D01*
X0302357Y0222563D01*
X0302357Y0221051D01*
X0302936Y0219655D01*
X0304005Y0218586D01*
X0305402Y0218007D01*
X0306913Y0218007D01*
X0304948Y0218195D02*
X0299493Y0218195D01*
X0299039Y0218007D02*
X0300436Y0218586D01*
X0301505Y0219655D01*
X0302083Y0221051D01*
X0302083Y0222563D01*
X0301505Y0223960D01*
X0300436Y0225029D01*
X0299039Y0225607D01*
X0297528Y0225607D01*
X0296131Y0225029D01*
X0295062Y0223960D01*
X0294483Y0222563D01*
X0294483Y0221051D01*
X0295062Y0219655D01*
X0296131Y0218586D01*
X0297528Y0218007D01*
X0299039Y0218007D01*
X0297782Y0216598D02*
X0343500Y0216598D01*
X0343500Y0215800D02*
X0298580Y0215800D01*
X0299379Y0215001D02*
X0343500Y0215001D01*
X0343500Y0214203D02*
X0300177Y0214203D01*
X0302516Y0213404D02*
X0343500Y0213404D01*
X0343500Y0212605D02*
X0303019Y0212605D01*
X0301731Y0209211D02*
X0299669Y0209211D01*
X0297880Y0211000D01*
X0289346Y0211000D01*
X0289654Y0218007D02*
X0291165Y0218007D01*
X0292562Y0218586D01*
X0293631Y0219655D01*
X0294209Y0221051D01*
X0294209Y0222563D01*
X0293631Y0223960D01*
X0292562Y0225029D01*
X0291165Y0225607D01*
X0289654Y0225607D01*
X0288257Y0225029D01*
X0287188Y0223960D01*
X0286609Y0222563D01*
X0286609Y0221051D01*
X0287188Y0219655D01*
X0288257Y0218586D01*
X0289654Y0218007D01*
X0289200Y0218195D02*
X0283745Y0218195D01*
X0283291Y0218007D02*
X0284688Y0218586D01*
X0285757Y0219655D01*
X0286335Y0221051D01*
X0286335Y0222563D01*
X0285757Y0223960D01*
X0284688Y0225029D01*
X0283291Y0225607D01*
X0281780Y0225607D01*
X0280383Y0225029D01*
X0279314Y0223960D01*
X0278735Y0222563D01*
X0278735Y0221051D01*
X0279314Y0219655D01*
X0280383Y0218586D01*
X0281780Y0218007D01*
X0283291Y0218007D01*
X0281326Y0218195D02*
X0275871Y0218195D01*
X0275417Y0218007D02*
X0276814Y0218586D01*
X0277883Y0219655D01*
X0278461Y0221051D01*
X0278461Y0222563D01*
X0277883Y0223960D01*
X0276814Y0225029D01*
X0275417Y0225607D01*
X0273906Y0225607D01*
X0272509Y0225029D01*
X0271440Y0223960D01*
X0270861Y0222563D01*
X0270861Y0221051D01*
X0271440Y0219655D01*
X0272509Y0218586D01*
X0273906Y0218007D01*
X0275417Y0218007D01*
X0273452Y0218195D02*
X0267997Y0218195D01*
X0267543Y0218007D02*
X0268940Y0218586D01*
X0270009Y0219655D01*
X0270587Y0221051D01*
X0270587Y0222563D01*
X0270009Y0223960D01*
X0268940Y0225029D01*
X0267543Y0225607D01*
X0266032Y0225607D01*
X0264635Y0225029D01*
X0263566Y0223960D01*
X0262987Y0222563D01*
X0262987Y0221051D01*
X0263566Y0219655D01*
X0264635Y0218586D01*
X0266032Y0218007D01*
X0267543Y0218007D01*
X0265578Y0218195D02*
X0224242Y0218195D01*
X0224884Y0218838D02*
X0225600Y0220565D01*
X0225600Y0222435D01*
X0224884Y0224162D01*
X0223562Y0225484D01*
X0221835Y0226200D01*
X0219965Y0226200D01*
X0218238Y0225484D01*
X0216916Y0224162D01*
X0216200Y0222435D01*
X0216200Y0220565D01*
X0216916Y0218838D01*
X0218238Y0217516D01*
X0219965Y0216800D01*
X0221835Y0216800D01*
X0223562Y0217516D01*
X0224884Y0218838D01*
X0224949Y0218994D02*
X0264227Y0218994D01*
X0263509Y0219792D02*
X0225280Y0219792D01*
X0225600Y0220591D02*
X0263178Y0220591D01*
X0262987Y0221389D02*
X0225600Y0221389D01*
X0225600Y0222188D02*
X0262987Y0222188D01*
X0263163Y0222986D02*
X0225372Y0222986D01*
X0225041Y0223785D02*
X0263493Y0223785D01*
X0264189Y0224583D02*
X0224464Y0224583D01*
X0223665Y0225382D02*
X0265487Y0225382D01*
X0268087Y0225382D02*
X0273361Y0225382D01*
X0272063Y0224583D02*
X0269385Y0224583D01*
X0270081Y0223785D02*
X0271367Y0223785D01*
X0271037Y0222986D02*
X0270412Y0222986D01*
X0270587Y0222188D02*
X0270861Y0222188D01*
X0270861Y0221389D02*
X0270587Y0221389D01*
X0270397Y0220591D02*
X0271052Y0220591D01*
X0271383Y0219792D02*
X0270066Y0219792D01*
X0269348Y0218994D02*
X0272101Y0218994D01*
X0277222Y0218994D02*
X0279975Y0218994D01*
X0279257Y0219792D02*
X0277940Y0219792D01*
X0278271Y0220591D02*
X0278926Y0220591D01*
X0278735Y0221389D02*
X0278461Y0221389D01*
X0278461Y0222188D02*
X0278735Y0222188D01*
X0278911Y0222986D02*
X0278286Y0222986D01*
X0277955Y0223785D02*
X0279241Y0223785D01*
X0279938Y0224583D02*
X0277259Y0224583D01*
X0275961Y0225382D02*
X0281235Y0225382D01*
X0283835Y0225382D02*
X0289109Y0225382D01*
X0287812Y0224583D02*
X0285133Y0224583D01*
X0285829Y0223785D02*
X0287116Y0223785D01*
X0286785Y0222986D02*
X0286160Y0222986D01*
X0286335Y0222188D02*
X0286609Y0222188D01*
X0286609Y0221389D02*
X0286335Y0221389D01*
X0286145Y0220591D02*
X0286800Y0220591D01*
X0287131Y0219792D02*
X0285814Y0219792D01*
X0285096Y0218994D02*
X0287849Y0218994D01*
X0291619Y0218195D02*
X0297074Y0218195D01*
X0295723Y0218994D02*
X0292970Y0218994D01*
X0293688Y0219792D02*
X0295005Y0219792D01*
X0294674Y0220591D02*
X0294019Y0220591D01*
X0294209Y0221389D02*
X0294483Y0221389D01*
X0294483Y0222188D02*
X0294209Y0222188D01*
X0294034Y0222986D02*
X0294659Y0222986D01*
X0294990Y0223785D02*
X0293703Y0223785D01*
X0293007Y0224583D02*
X0295686Y0224583D01*
X0296983Y0225382D02*
X0291709Y0225382D01*
X0299583Y0225382D02*
X0304857Y0225382D01*
X0303560Y0224583D02*
X0300881Y0224583D01*
X0301577Y0223785D02*
X0302864Y0223785D01*
X0302533Y0222986D02*
X0301908Y0222986D01*
X0302083Y0222188D02*
X0302357Y0222188D01*
X0302357Y0221389D02*
X0302083Y0221389D01*
X0301893Y0220591D02*
X0302548Y0220591D01*
X0302879Y0219792D02*
X0301562Y0219792D01*
X0300844Y0218994D02*
X0303597Y0218994D01*
X0308718Y0218994D02*
X0311471Y0218994D01*
X0310753Y0219792D02*
X0309436Y0219792D01*
X0309767Y0220591D02*
X0310422Y0220591D01*
X0310231Y0221389D02*
X0309957Y0221389D01*
X0309957Y0222188D02*
X0310231Y0222188D01*
X0310407Y0222986D02*
X0309782Y0222986D01*
X0309451Y0223785D02*
X0310738Y0223785D01*
X0311434Y0224583D02*
X0308755Y0224583D01*
X0307457Y0225382D02*
X0312731Y0225382D01*
X0315332Y0225382D02*
X0320605Y0225382D01*
X0319308Y0224583D02*
X0316629Y0224583D01*
X0317325Y0223785D02*
X0318612Y0223785D01*
X0318281Y0222986D02*
X0317656Y0222986D01*
X0317831Y0222188D02*
X0318106Y0222188D01*
X0318106Y0221389D02*
X0317831Y0221389D01*
X0317641Y0220591D02*
X0318296Y0220591D01*
X0318627Y0219792D02*
X0317310Y0219792D01*
X0316592Y0218994D02*
X0319345Y0218994D01*
X0324466Y0218994D02*
X0327219Y0218994D01*
X0326501Y0219792D02*
X0325184Y0219792D01*
X0325515Y0220591D02*
X0326170Y0220591D01*
X0325980Y0221389D02*
X0325705Y0221389D01*
X0325705Y0222188D02*
X0325980Y0222188D01*
X0326155Y0222986D02*
X0325530Y0222986D01*
X0325199Y0223785D02*
X0326486Y0223785D01*
X0327182Y0224583D02*
X0324503Y0224583D01*
X0323206Y0225382D02*
X0328480Y0225382D01*
X0331080Y0225382D02*
X0336354Y0225382D01*
X0336898Y0225607D02*
X0335501Y0225029D01*
X0334432Y0223960D01*
X0333854Y0222563D01*
X0333854Y0221051D01*
X0334432Y0219655D01*
X0335501Y0218586D01*
X0336898Y0218007D01*
X0338409Y0218007D01*
X0339806Y0218586D01*
X0340875Y0219655D01*
X0341454Y0221051D01*
X0341454Y0222563D01*
X0340875Y0223960D01*
X0339806Y0225029D01*
X0338409Y0225607D01*
X0336898Y0225607D01*
X0338954Y0225382D02*
X0343500Y0225382D01*
X0343500Y0226180D02*
X0221883Y0226180D01*
X0219917Y0226180D02*
X0211883Y0226180D01*
X0211835Y0226200D02*
X0209965Y0226200D01*
X0208238Y0225484D01*
X0206916Y0224162D01*
X0206200Y0222435D01*
X0206200Y0220565D01*
X0206916Y0218838D01*
X0208238Y0217516D01*
X0209965Y0216800D01*
X0211835Y0216800D01*
X0213562Y0217516D01*
X0214884Y0218838D01*
X0215600Y0220565D01*
X0215600Y0222435D01*
X0214884Y0224162D01*
X0213562Y0225484D01*
X0211835Y0226200D01*
X0209917Y0226180D02*
X0201883Y0226180D01*
X0203665Y0225382D02*
X0208135Y0225382D01*
X0207336Y0224583D02*
X0204464Y0224583D01*
X0205041Y0223785D02*
X0206759Y0223785D01*
X0206428Y0222986D02*
X0205372Y0222986D01*
X0205600Y0222188D02*
X0206200Y0222188D01*
X0206200Y0221389D02*
X0205600Y0221389D01*
X0205600Y0220591D02*
X0206200Y0220591D01*
X0206520Y0219792D02*
X0205280Y0219792D01*
X0204949Y0218994D02*
X0206851Y0218994D01*
X0207558Y0218195D02*
X0204242Y0218195D01*
X0203275Y0217397D02*
X0208525Y0217397D01*
X0213275Y0217397D02*
X0218525Y0217397D01*
X0217558Y0218195D02*
X0214242Y0218195D01*
X0214949Y0218994D02*
X0216851Y0218994D01*
X0216520Y0219792D02*
X0215280Y0219792D01*
X0215600Y0220591D02*
X0216200Y0220591D01*
X0216200Y0221389D02*
X0215600Y0221389D01*
X0215600Y0222188D02*
X0216200Y0222188D01*
X0216428Y0222986D02*
X0215372Y0222986D01*
X0215041Y0223785D02*
X0216759Y0223785D01*
X0217336Y0224583D02*
X0214464Y0224583D01*
X0213665Y0225382D02*
X0218135Y0225382D01*
X0223275Y0217397D02*
X0343500Y0217397D01*
X0343500Y0218195D02*
X0338863Y0218195D01*
X0340214Y0218994D02*
X0343500Y0218994D01*
X0343500Y0219792D02*
X0340932Y0219792D01*
X0341263Y0220591D02*
X0343500Y0220591D01*
X0343500Y0221389D02*
X0341454Y0221389D01*
X0341454Y0222188D02*
X0343500Y0222188D01*
X0343500Y0222986D02*
X0341278Y0222986D01*
X0340947Y0223785D02*
X0343500Y0223785D01*
X0343500Y0224583D02*
X0340251Y0224583D01*
X0343233Y0226979D02*
X0185789Y0226979D01*
X0185989Y0226180D02*
X0186766Y0226180D01*
X0186200Y0225382D02*
X0185938Y0225382D01*
X0186200Y0224583D02*
X0185603Y0224583D01*
X0186200Y0223785D02*
X0184656Y0223785D01*
X0186200Y0222986D02*
X0180524Y0222986D01*
X0180524Y0223785D02*
X0182344Y0223785D01*
X0181397Y0224583D02*
X0180524Y0224583D01*
X0180524Y0225382D02*
X0181062Y0225382D01*
X0182631Y0226000D02*
X0179938Y0228693D01*
X0171629Y0228693D01*
X0168464Y0225528D01*
X0161217Y0225528D01*
X0156476Y0225382D02*
X0147703Y0225382D01*
X0146935Y0225700D02*
X0148662Y0224984D01*
X0149984Y0223662D01*
X0150700Y0221935D01*
X0150700Y0220065D01*
X0149984Y0218338D01*
X0148662Y0217016D01*
X0146935Y0216300D01*
X0145065Y0216300D01*
X0143338Y0217016D01*
X0142016Y0218338D01*
X0141300Y0220065D01*
X0141300Y0221935D01*
X0142016Y0223662D01*
X0143338Y0224984D01*
X0145065Y0225700D01*
X0146935Y0225700D01*
X0149064Y0224583D02*
X0156476Y0224583D01*
X0156476Y0223785D02*
X0149862Y0223785D01*
X0150265Y0222986D02*
X0151866Y0222986D01*
X0151198Y0222188D02*
X0150595Y0222188D01*
X0150700Y0221389D02*
X0150911Y0221389D01*
X0150911Y0220591D02*
X0150700Y0220591D01*
X0150587Y0219792D02*
X0151206Y0219792D01*
X0151886Y0218994D02*
X0150256Y0218994D01*
X0149842Y0218195D02*
X0152000Y0218195D01*
X0152000Y0217397D02*
X0149043Y0217397D01*
X0147654Y0216598D02*
X0152000Y0216598D01*
X0152000Y0215800D02*
X0129710Y0215800D01*
X0130658Y0215001D02*
X0152000Y0215001D01*
X0152000Y0214203D02*
X0131010Y0214203D01*
X0131087Y0213404D02*
X0152000Y0213404D01*
X0152000Y0212605D02*
X0131374Y0212605D01*
X0132173Y0211807D02*
X0152000Y0211807D01*
X0152000Y0211008D02*
X0132971Y0211008D01*
X0133770Y0210210D02*
X0152012Y0210210D01*
X0152810Y0209411D02*
X0134568Y0209411D01*
X0135367Y0208613D02*
X0153609Y0208613D01*
X0154407Y0207814D02*
X0136165Y0207814D01*
X0136964Y0207016D02*
X0155206Y0207016D01*
X0157569Y0208613D02*
X0216300Y0208613D01*
X0216300Y0209411D02*
X0156770Y0209411D01*
X0155972Y0210210D02*
X0216621Y0210210D01*
X0216952Y0211008D02*
X0155173Y0211008D01*
X0154800Y0211807D02*
X0199873Y0211807D01*
X0199201Y0212605D02*
X0195814Y0212605D01*
X0196318Y0213404D02*
X0198911Y0213404D01*
X0198911Y0214203D02*
X0196489Y0214203D01*
X0196408Y0215001D02*
X0198219Y0215001D01*
X0200582Y0216598D02*
X0257118Y0216598D01*
X0256320Y0215800D02*
X0202920Y0215800D01*
X0202927Y0211807D02*
X0217660Y0211807D01*
X0216300Y0207814D02*
X0158367Y0207814D01*
X0159166Y0207016D02*
X0216527Y0207016D01*
X0216738Y0206217D02*
X0165196Y0206217D01*
X0165132Y0206328D02*
X0164871Y0206589D01*
X0164552Y0206773D01*
X0164196Y0206868D01*
X0162246Y0206868D01*
X0162246Y0203900D01*
X0165412Y0203900D01*
X0165412Y0205653D01*
X0165316Y0206009D01*
X0165132Y0206328D01*
X0165412Y0205419D02*
X0215939Y0205419D01*
X0215141Y0204620D02*
X0165412Y0204620D01*
X0165412Y0203023D02*
X0213543Y0203023D01*
X0212745Y0202225D02*
X0165412Y0202225D01*
X0165412Y0201426D02*
X0211946Y0201426D01*
X0211148Y0200628D02*
X0165088Y0200628D01*
X0166808Y0200408D02*
X0163916Y0203300D01*
X0161846Y0203300D01*
X0161846Y0200147D01*
X0158319Y0196619D01*
X0158319Y0181117D01*
X0157867Y0180665D02*
X0159133Y0180665D01*
X0159572Y0179867D02*
X0153746Y0179867D01*
X0153089Y0179068D02*
X0159241Y0179068D01*
X0159211Y0178270D02*
X0153089Y0178270D01*
X0152785Y0177471D02*
X0159432Y0177471D01*
X0160008Y0176672D02*
X0152092Y0176672D01*
X0150600Y0178700D02*
X0155154Y0183254D01*
X0155154Y0183500D01*
X0151988Y0182262D02*
X0138682Y0182262D01*
X0139263Y0183061D02*
X0144849Y0183061D01*
X0141761Y0183859D02*
X0139831Y0183859D01*
X0140630Y0184658D02*
X0141609Y0184658D01*
X0141609Y0185456D02*
X0141428Y0185456D01*
X0139065Y0187053D02*
X0126000Y0187053D01*
X0126000Y0186255D02*
X0135698Y0186255D01*
X0134868Y0185456D02*
X0126000Y0185456D01*
X0126000Y0184658D02*
X0134537Y0184658D01*
X0134511Y0183859D02*
X0126000Y0183859D01*
X0126000Y0183061D02*
X0134736Y0183061D01*
X0135318Y0182262D02*
X0126000Y0182262D01*
X0126000Y0181464D02*
X0151384Y0181464D01*
X0149045Y0180665D02*
X0126000Y0180665D01*
X0126000Y0179867D02*
X0148389Y0179867D01*
X0148111Y0179068D02*
X0126000Y0179068D01*
X0126000Y0178270D02*
X0143534Y0178270D01*
X0142674Y0177471D02*
X0126000Y0177471D01*
X0126000Y0176672D02*
X0142343Y0176672D01*
X0142311Y0175874D02*
X0126000Y0175874D01*
X0126000Y0175075D02*
X0141796Y0175075D01*
X0140997Y0174277D02*
X0126000Y0174277D01*
X0126000Y0173478D02*
X0140199Y0173478D01*
X0139400Y0172680D02*
X0126000Y0172680D01*
X0126000Y0171881D02*
X0138602Y0171881D01*
X0137803Y0171083D02*
X0126000Y0171083D01*
X0126000Y0170284D02*
X0137005Y0170284D01*
X0136206Y0169486D02*
X0126000Y0169486D01*
X0126000Y0168687D02*
X0135407Y0168687D01*
X0134609Y0167889D02*
X0126000Y0167889D01*
X0126000Y0167090D02*
X0133810Y0167090D01*
X0133012Y0166292D02*
X0126000Y0166292D01*
X0126000Y0165493D02*
X0132213Y0165493D01*
X0131415Y0164695D02*
X0126000Y0164695D01*
X0125343Y0159157D02*
X0127857Y0159157D01*
X0128987Y0158307D02*
X0131327Y0158307D01*
X0132125Y0159105D02*
X0129785Y0159105D01*
X0130584Y0159904D02*
X0132924Y0159904D01*
X0133722Y0160702D02*
X0131382Y0160702D01*
X0132181Y0161501D02*
X0134521Y0161501D01*
X0135319Y0162299D02*
X0132979Y0162299D01*
X0133778Y0163098D02*
X0136118Y0163098D01*
X0136916Y0163896D02*
X0134576Y0163896D01*
X0135375Y0164695D02*
X0137715Y0164695D01*
X0138513Y0165493D02*
X0136173Y0165493D01*
X0136972Y0166292D02*
X0139312Y0166292D01*
X0140110Y0167090D02*
X0137770Y0167090D01*
X0138569Y0167889D02*
X0140909Y0167889D01*
X0141707Y0168687D02*
X0139367Y0168687D01*
X0140166Y0169486D02*
X0142506Y0169486D01*
X0143305Y0170284D02*
X0140964Y0170284D01*
X0141763Y0171083D02*
X0144103Y0171083D01*
X0144902Y0171881D02*
X0142561Y0171881D01*
X0143360Y0172680D02*
X0145700Y0172680D01*
X0146499Y0173478D02*
X0144158Y0173478D01*
X0146497Y0174277D02*
X0147297Y0174277D01*
X0148300Y0173300D02*
X0160020Y0173300D01*
X0165012Y0178292D01*
X0165012Y0181612D01*
X0166800Y0183400D01*
X0169023Y0182262D02*
X0170858Y0182262D01*
X0171600Y0181464D02*
X0168383Y0181464D01*
X0169289Y0183061D02*
X0170060Y0183061D01*
X0171600Y0180665D02*
X0166412Y0180665D01*
X0166412Y0179867D02*
X0171600Y0179867D01*
X0171600Y0179068D02*
X0166412Y0179068D01*
X0166412Y0178270D02*
X0171600Y0178270D01*
X0171600Y0177471D02*
X0166171Y0177471D01*
X0165372Y0176672D02*
X0171600Y0176672D01*
X0171600Y0175874D02*
X0164574Y0175874D01*
X0163775Y0175075D02*
X0171600Y0175075D01*
X0171600Y0174277D02*
X0162977Y0174277D01*
X0162178Y0173478D02*
X0171600Y0173478D01*
X0171600Y0172680D02*
X0161380Y0172680D01*
X0166590Y0169610D02*
X0166211Y0168695D01*
X0166211Y0167705D01*
X0166590Y0166790D01*
X0167290Y0166090D01*
X0168205Y0165711D01*
X0169195Y0165711D01*
X0169205Y0165715D01*
X0169600Y0165320D01*
X0169600Y0165012D01*
X0168617Y0165012D01*
X0168031Y0164426D01*
X0168031Y0159267D01*
X0168617Y0158681D01*
X0168706Y0158681D01*
X0168491Y0158623D01*
X0168172Y0158439D01*
X0167911Y0158179D01*
X0167727Y0157859D01*
X0167631Y0157503D01*
X0167631Y0155554D01*
X0170600Y0155554D01*
X0170600Y0154754D01*
X0167631Y0154754D01*
X0167631Y0152804D01*
X0167727Y0152448D01*
X0167911Y0152129D01*
X0168172Y0151868D01*
X0168491Y0151684D01*
X0168847Y0151588D01*
X0170600Y0151588D01*
X0170600Y0154753D01*
X0171400Y0154753D01*
X0171400Y0151588D01*
X0173153Y0151588D01*
X0173509Y0151684D01*
X0173828Y0151868D01*
X0174089Y0152129D01*
X0174273Y0152448D01*
X0174368Y0152804D01*
X0174368Y0154754D01*
X0171400Y0154754D01*
X0171400Y0155554D01*
X0174368Y0155554D01*
X0174368Y0157503D01*
X0174273Y0157859D01*
X0174089Y0158179D01*
X0173828Y0158439D01*
X0173509Y0158623D01*
X0173294Y0158681D01*
X0173383Y0158681D01*
X0173968Y0159267D01*
X0173968Y0164426D01*
X0173383Y0165012D01*
X0172400Y0165012D01*
X0172400Y0166480D01*
X0171580Y0167300D01*
X0171185Y0167695D01*
X0171189Y0167705D01*
X0171189Y0168695D01*
X0170810Y0169610D01*
X0170110Y0170310D01*
X0169195Y0170689D01*
X0168205Y0170689D01*
X0167290Y0170310D01*
X0166590Y0169610D01*
X0166539Y0169486D02*
X0146466Y0169486D01*
X0147264Y0170284D02*
X0167264Y0170284D01*
X0166211Y0168687D02*
X0145667Y0168687D01*
X0144869Y0167889D02*
X0166211Y0167889D01*
X0166466Y0167090D02*
X0144070Y0167090D01*
X0143272Y0166292D02*
X0167088Y0166292D01*
X0168300Y0164695D02*
X0141675Y0164695D01*
X0142473Y0165493D02*
X0169427Y0165493D01*
X0171000Y0165900D02*
X0168700Y0168200D01*
X0171189Y0167889D02*
X0175250Y0167889D01*
X0175211Y0167090D02*
X0171790Y0167090D01*
X0172400Y0166292D02*
X0175424Y0166292D01*
X0175987Y0165493D02*
X0172400Y0165493D01*
X0171000Y0165900D02*
X0171000Y0161846D01*
X0173968Y0161501D02*
X0178031Y0161501D01*
X0178031Y0162299D02*
X0173968Y0162299D01*
X0173968Y0163098D02*
X0178031Y0163098D01*
X0178031Y0163896D02*
X0173968Y0163896D01*
X0173700Y0164695D02*
X0178300Y0164695D01*
X0177700Y0167300D02*
X0181000Y0164000D01*
X0181000Y0161846D01*
X0183968Y0161501D02*
X0185531Y0161501D01*
X0185531Y0162299D02*
X0183968Y0162299D01*
X0183968Y0163098D02*
X0185531Y0163098D01*
X0185531Y0163896D02*
X0183968Y0163896D01*
X0183700Y0164695D02*
X0185125Y0164695D01*
X0187300Y0164500D02*
X0187300Y0164432D01*
X0188500Y0163232D01*
X0188500Y0161846D01*
X0187300Y0164500D02*
X0184400Y0167400D01*
X0182165Y0166292D02*
X0180688Y0166292D01*
X0180189Y0167090D02*
X0181911Y0167090D01*
X0181911Y0167889D02*
X0180150Y0167889D01*
X0179819Y0168687D02*
X0182239Y0168687D01*
X0182787Y0165493D02*
X0181487Y0165493D01*
X0183968Y0160702D02*
X0185531Y0160702D01*
X0185531Y0159904D02*
X0183968Y0159904D01*
X0183807Y0159105D02*
X0185693Y0159105D01*
X0186117Y0158319D02*
X0182952Y0155154D01*
X0181000Y0155154D01*
X0171000Y0155154D01*
X0169589Y0153743D01*
X0165900Y0153743D01*
X0167631Y0153516D02*
X0163200Y0153516D01*
X0163200Y0154314D02*
X0167631Y0154314D01*
X0167655Y0152717D02*
X0163200Y0152717D01*
X0163200Y0152565D02*
X0162484Y0150838D01*
X0161162Y0149516D01*
X0159435Y0148800D01*
X0157565Y0148800D01*
X0155838Y0149516D01*
X0154516Y0150838D01*
X0153800Y0152565D01*
X0153800Y0154435D01*
X0154516Y0156162D01*
X0155838Y0157484D01*
X0157565Y0158200D01*
X0159435Y0158200D01*
X0161162Y0157484D01*
X0162484Y0156162D01*
X0163200Y0154435D01*
X0163200Y0152565D01*
X0162932Y0151919D02*
X0168121Y0151919D01*
X0170600Y0151919D02*
X0171400Y0151919D01*
X0171400Y0152717D02*
X0170600Y0152717D01*
X0170600Y0153516D02*
X0171400Y0153516D01*
X0171400Y0154314D02*
X0170600Y0154314D01*
X0170600Y0155113D02*
X0162919Y0155113D01*
X0162588Y0155911D02*
X0167631Y0155911D01*
X0167631Y0156710D02*
X0161937Y0156710D01*
X0161105Y0157508D02*
X0167633Y0157508D01*
X0168039Y0158307D02*
X0135287Y0158307D01*
X0135838Y0157484D02*
X0134516Y0156162D01*
X0133800Y0154435D01*
X0133800Y0152565D01*
X0134516Y0150838D01*
X0135838Y0149516D01*
X0137565Y0148800D01*
X0139435Y0148800D01*
X0141162Y0149516D01*
X0142484Y0150838D01*
X0143200Y0152565D01*
X0143200Y0154435D01*
X0142484Y0156162D01*
X0141162Y0157484D01*
X0139435Y0158200D01*
X0137565Y0158200D01*
X0135838Y0157484D01*
X0135895Y0157508D02*
X0134488Y0157508D01*
X0135063Y0156710D02*
X0133690Y0156710D01*
X0133200Y0155911D02*
X0134412Y0155911D01*
X0134081Y0155113D02*
X0133200Y0155113D01*
X0133200Y0154314D02*
X0133800Y0154314D01*
X0133800Y0153516D02*
X0133200Y0153516D01*
X0133200Y0152717D02*
X0133800Y0152717D01*
X0134068Y0151919D02*
X0133200Y0151919D01*
X0133200Y0151120D02*
X0134399Y0151120D01*
X0135032Y0150322D02*
X0133200Y0150322D01*
X0133200Y0149523D02*
X0135830Y0149523D01*
X0141170Y0149523D02*
X0145830Y0149523D01*
X0145838Y0149516D02*
X0147565Y0148800D01*
X0149435Y0148800D01*
X0151162Y0149516D01*
X0152484Y0150838D01*
X0153200Y0152565D01*
X0153200Y0154435D01*
X0152484Y0156162D01*
X0151162Y0157484D01*
X0149435Y0158200D01*
X0147565Y0158200D01*
X0145838Y0157484D01*
X0144516Y0156162D01*
X0143800Y0154435D01*
X0143800Y0152565D01*
X0144516Y0150838D01*
X0145838Y0149516D01*
X0145032Y0150322D02*
X0141968Y0150322D01*
X0142601Y0151120D02*
X0144399Y0151120D01*
X0144068Y0151919D02*
X0142932Y0151919D01*
X0143200Y0152717D02*
X0143800Y0152717D01*
X0143800Y0153516D02*
X0143200Y0153516D01*
X0143200Y0154314D02*
X0143800Y0154314D01*
X0144081Y0155113D02*
X0142919Y0155113D01*
X0142588Y0155911D02*
X0144412Y0155911D01*
X0145063Y0156710D02*
X0141937Y0156710D01*
X0141105Y0157508D02*
X0145895Y0157508D01*
X0151105Y0157508D02*
X0155895Y0157508D01*
X0155063Y0156710D02*
X0151937Y0156710D01*
X0152588Y0155911D02*
X0154412Y0155911D01*
X0154081Y0155113D02*
X0152919Y0155113D01*
X0153200Y0154314D02*
X0153800Y0154314D01*
X0153800Y0153516D02*
X0153200Y0153516D01*
X0153200Y0152717D02*
X0153800Y0152717D01*
X0154068Y0151919D02*
X0152932Y0151919D01*
X0152601Y0151120D02*
X0154399Y0151120D01*
X0155032Y0150322D02*
X0151968Y0150322D01*
X0151170Y0149523D02*
X0155830Y0149523D01*
X0161170Y0149523D02*
X0170793Y0149523D01*
X0172775Y0149523D02*
X0173225Y0149523D01*
X0173225Y0148725D02*
X0172775Y0148725D01*
X0172775Y0147926D02*
X0173225Y0147926D01*
X0173000Y0146000D02*
X0181000Y0154000D01*
X0181000Y0155100D01*
X0171054Y0155100D01*
X0171000Y0155154D01*
X0171400Y0155113D02*
X0180600Y0155113D01*
X0181000Y0155100D02*
X0181000Y0155154D01*
X0181400Y0155113D02*
X0185531Y0155113D01*
X0185531Y0155911D02*
X0184368Y0155911D01*
X0184368Y0156710D02*
X0185531Y0156710D01*
X0185531Y0157508D02*
X0184367Y0157508D01*
X0183961Y0158307D02*
X0186105Y0158307D01*
X0186117Y0158319D02*
X0185531Y0157733D01*
X0185531Y0152574D01*
X0186117Y0151988D01*
X0189685Y0151988D01*
X0193454Y0148220D01*
X0192949Y0148725D02*
X0189920Y0148725D01*
X0189121Y0149523D02*
X0192151Y0149523D01*
X0191352Y0150322D02*
X0188322Y0150322D01*
X0189755Y0151919D02*
X0183879Y0151919D01*
X0184345Y0152717D02*
X0185531Y0152717D01*
X0185531Y0153516D02*
X0184368Y0153516D01*
X0184368Y0154314D02*
X0185531Y0154314D01*
X0188500Y0155154D02*
X0194854Y0148800D01*
X0244100Y0148800D01*
X0250200Y0154900D01*
X0317732Y0154900D01*
X0320150Y0157318D01*
X0320150Y0163658D01*
X0319564Y0164244D01*
X0321093Y0164695D02*
X0322593Y0164695D01*
X0321550Y0163896D02*
X0323802Y0163896D01*
X0324818Y0163098D02*
X0321550Y0163098D01*
X0321550Y0162299D02*
X0323152Y0162299D01*
X0322354Y0161501D02*
X0321550Y0161501D01*
X0321550Y0160702D02*
X0321825Y0160702D01*
X0321654Y0156710D02*
X0321521Y0156710D01*
X0321985Y0155911D02*
X0320723Y0155911D01*
X0319924Y0155113D02*
X0322741Y0155113D01*
X0323824Y0154314D02*
X0319126Y0154314D01*
X0318327Y0153516D02*
X0343500Y0153516D01*
X0343500Y0154314D02*
X0328176Y0154314D01*
X0329259Y0155113D02*
X0343500Y0155113D01*
X0343500Y0155911D02*
X0337244Y0155911D01*
X0336766Y0155713D02*
X0338181Y0156299D01*
X0339264Y0157382D01*
X0339850Y0158797D01*
X0339850Y0160329D01*
X0339264Y0161744D01*
X0338181Y0162827D01*
X0337031Y0163303D01*
X0337631Y0163498D01*
X0338227Y0163802D01*
X0338769Y0164195D01*
X0339242Y0164668D01*
X0339635Y0165210D01*
X0339939Y0165806D01*
X0340145Y0166442D01*
X0340250Y0167103D01*
X0340250Y0167148D01*
X0336289Y0167148D01*
X0336289Y0167726D01*
X0340250Y0167726D01*
X0340250Y0167771D01*
X0340145Y0168432D01*
X0339939Y0169068D01*
X0339635Y0169664D01*
X0339242Y0170206D01*
X0338769Y0170679D01*
X0338227Y0171072D01*
X0337631Y0171376D01*
X0336995Y0171582D01*
X0336334Y0171687D01*
X0336289Y0171687D01*
X0336289Y0167726D01*
X0335711Y0167726D01*
X0335711Y0167148D01*
X0331750Y0167148D01*
X0331750Y0167103D01*
X0331855Y0166442D01*
X0332061Y0165806D01*
X0332365Y0165210D01*
X0332758Y0164668D01*
X0333231Y0164195D01*
X0333773Y0163802D01*
X0334369Y0163498D01*
X0334969Y0163303D01*
X0333819Y0162827D01*
X0332736Y0161744D01*
X0332150Y0160329D01*
X0332150Y0158797D01*
X0332736Y0157382D01*
X0333819Y0156299D01*
X0335234Y0155713D01*
X0336766Y0155713D01*
X0334756Y0155911D02*
X0330015Y0155911D01*
X0330346Y0156710D02*
X0333409Y0156710D01*
X0332684Y0157508D02*
X0330676Y0157508D01*
X0330700Y0158307D02*
X0332353Y0158307D01*
X0332150Y0159105D02*
X0330700Y0159105D01*
X0330506Y0159904D02*
X0332150Y0159904D01*
X0332305Y0160702D02*
X0330175Y0160702D01*
X0329646Y0161501D02*
X0332635Y0161501D01*
X0333292Y0162299D02*
X0328848Y0162299D01*
X0327958Y0163774D02*
X0328673Y0164138D01*
X0329322Y0164610D01*
X0329890Y0165178D01*
X0330362Y0165827D01*
X0330726Y0166542D01*
X0330974Y0167306D01*
X0331100Y0168099D01*
X0331100Y0168100D01*
X0326400Y0168100D01*
X0326400Y0163400D01*
X0326401Y0163400D01*
X0327194Y0163526D01*
X0327958Y0163774D01*
X0328198Y0163896D02*
X0333643Y0163896D01*
X0334473Y0163098D02*
X0327182Y0163098D01*
X0326400Y0163896D02*
X0325600Y0163896D01*
X0325600Y0164695D02*
X0326400Y0164695D01*
X0326400Y0165493D02*
X0325600Y0165493D01*
X0325600Y0166292D02*
X0326400Y0166292D01*
X0326400Y0167090D02*
X0325600Y0167090D01*
X0325600Y0167889D02*
X0326400Y0167889D01*
X0326400Y0168687D02*
X0331938Y0168687D01*
X0331855Y0168432D02*
X0331750Y0167771D01*
X0331750Y0167726D01*
X0335711Y0167726D01*
X0335711Y0171687D01*
X0335666Y0171687D01*
X0335005Y0171582D01*
X0334369Y0171376D01*
X0333773Y0171072D01*
X0333231Y0170679D01*
X0332758Y0170206D01*
X0332365Y0169664D01*
X0332061Y0169068D01*
X0331855Y0168432D01*
X0331769Y0167889D02*
X0331067Y0167889D01*
X0330904Y0167090D02*
X0331752Y0167090D01*
X0331903Y0166292D02*
X0330599Y0166292D01*
X0330119Y0165493D02*
X0332220Y0165493D01*
X0332739Y0164695D02*
X0329407Y0164695D01*
X0330700Y0162137D02*
X0330700Y0156553D01*
X0313140Y0138993D01*
X0271000Y0138993D01*
X0267200Y0135193D01*
X0266787Y0135193D01*
X0248454Y0135193D01*
X0242947Y0140700D01*
X0237200Y0140700D01*
X0185500Y0140700D01*
X0184322Y0139890D02*
X0183673Y0140362D01*
X0182958Y0140726D01*
X0182194Y0140974D01*
X0181401Y0141100D01*
X0181400Y0141100D01*
X0181400Y0136400D01*
X0186100Y0136400D01*
X0186100Y0136401D01*
X0185974Y0137194D01*
X0185726Y0137958D01*
X0185362Y0138673D01*
X0184890Y0139322D01*
X0184322Y0139890D01*
X0184252Y0139941D02*
X0188294Y0139941D01*
X0187496Y0139142D02*
X0185021Y0139142D01*
X0185530Y0138344D02*
X0186884Y0138344D01*
X0186553Y0137545D02*
X0185860Y0137545D01*
X0186045Y0136747D02*
X0186300Y0136747D01*
X0181400Y0136747D02*
X0180600Y0136747D01*
X0180800Y0136000D02*
X0171000Y0136000D01*
X0171400Y0135948D02*
X0180600Y0135948D01*
X0180600Y0135600D02*
X0175900Y0135600D01*
X0171400Y0135600D01*
X0171400Y0130900D01*
X0171401Y0130900D01*
X0172194Y0131026D01*
X0172958Y0131274D01*
X0173673Y0131638D01*
X0174322Y0132110D01*
X0174890Y0132678D01*
X0175362Y0133327D01*
X0175726Y0134042D01*
X0175974Y0134806D01*
X0176000Y0134967D01*
X0176026Y0134806D01*
X0176274Y0134042D01*
X0176638Y0133327D01*
X0177110Y0132678D01*
X0177678Y0132110D01*
X0178327Y0131638D01*
X0179042Y0131274D01*
X0179806Y0131026D01*
X0180599Y0130900D01*
X0180600Y0130900D01*
X0180600Y0135600D01*
X0180600Y0135150D02*
X0181400Y0135150D01*
X0181400Y0134351D02*
X0180600Y0134351D01*
X0180600Y0133553D02*
X0181400Y0133553D01*
X0181400Y0132754D02*
X0180600Y0132754D01*
X0180600Y0131956D02*
X0181400Y0131956D01*
X0181400Y0131157D02*
X0180600Y0131157D01*
X0179400Y0131157D02*
X0172600Y0131157D01*
X0171400Y0131157D02*
X0170600Y0131157D01*
X0170600Y0131956D02*
X0171400Y0131956D01*
X0171400Y0132754D02*
X0170600Y0132754D01*
X0170600Y0133553D02*
X0171400Y0133553D01*
X0171400Y0134351D02*
X0170600Y0134351D01*
X0170600Y0135150D02*
X0171400Y0135150D01*
X0170600Y0135948D02*
X0165700Y0135948D01*
X0165700Y0135150D02*
X0165971Y0135150D01*
X0165700Y0135065D02*
X0165700Y0136935D01*
X0164984Y0138662D01*
X0163662Y0139984D01*
X0161935Y0140700D01*
X0160065Y0140700D01*
X0158338Y0139984D01*
X0157016Y0138662D01*
X0156493Y0137400D01*
X0155700Y0137400D01*
X0155700Y0140114D01*
X0155114Y0140700D01*
X0146886Y0140700D01*
X0146300Y0140114D01*
X0146300Y0131886D01*
X0146886Y0131300D01*
X0155114Y0131300D01*
X0155700Y0131886D01*
X0155700Y0134600D01*
X0156493Y0134600D01*
X0157016Y0133338D01*
X0158338Y0132016D01*
X0160065Y0131300D01*
X0161935Y0131300D01*
X0163662Y0132016D01*
X0164984Y0133338D01*
X0165700Y0135065D01*
X0165404Y0134351D02*
X0166173Y0134351D01*
X0166523Y0133553D02*
X0165074Y0133553D01*
X0164401Y0132754D02*
X0167054Y0132754D01*
X0167890Y0131956D02*
X0163518Y0131956D01*
X0161000Y0136000D02*
X0151000Y0136000D01*
X0146300Y0135948D02*
X0143200Y0135948D01*
X0143200Y0135150D02*
X0146300Y0135150D01*
X0146300Y0134351D02*
X0142904Y0134351D01*
X0142574Y0133553D02*
X0146300Y0133553D01*
X0146300Y0132754D02*
X0141901Y0132754D01*
X0141018Y0131956D02*
X0146300Y0131956D01*
X0146300Y0136747D02*
X0143200Y0136747D01*
X0142947Y0137545D02*
X0146300Y0137545D01*
X0146300Y0138344D02*
X0142824Y0138344D01*
X0143622Y0139142D02*
X0146300Y0139142D01*
X0146300Y0139941D02*
X0144421Y0139941D01*
X0145219Y0140739D02*
X0169083Y0140739D01*
X0170600Y0140739D02*
X0171400Y0140739D01*
X0171400Y0139941D02*
X0170600Y0139941D01*
X0170600Y0139142D02*
X0171400Y0139142D01*
X0171400Y0138344D02*
X0170600Y0138344D01*
X0170600Y0137545D02*
X0171400Y0137545D01*
X0171400Y0136747D02*
X0170600Y0136747D01*
X0167748Y0139941D02*
X0163706Y0139941D01*
X0164504Y0139142D02*
X0166979Y0139142D01*
X0166470Y0138344D02*
X0165116Y0138344D01*
X0165447Y0137545D02*
X0166140Y0137545D01*
X0165955Y0136747D02*
X0165700Y0136747D01*
X0169400Y0131157D02*
X0126000Y0131157D01*
X0131018Y0131956D02*
X0135982Y0131956D01*
X0135099Y0132754D02*
X0131901Y0132754D01*
X0132574Y0133553D02*
X0134426Y0133553D01*
X0134096Y0134351D02*
X0132904Y0134351D01*
X0133200Y0135150D02*
X0133800Y0135150D01*
X0133781Y0135948D02*
X0133800Y0135948D01*
X0131853Y0136000D02*
X0141953Y0146100D01*
X0168900Y0146100D01*
X0169000Y0146000D01*
X0169500Y0146000D02*
X0172500Y0146000D01*
X0175650Y0146329D02*
X0176513Y0146329D01*
X0175715Y0145531D02*
X0175650Y0145531D01*
X0175650Y0147128D02*
X0177312Y0147128D01*
X0178164Y0146000D02*
X0174664Y0142500D01*
X0145000Y0142500D01*
X0138500Y0136000D01*
X0133814Y0139941D02*
X0131206Y0139941D01*
X0132004Y0139142D02*
X0133016Y0139142D01*
X0134613Y0140739D02*
X0126000Y0140739D01*
X0126000Y0141538D02*
X0135411Y0141538D01*
X0136210Y0142337D02*
X0126000Y0142337D01*
X0126000Y0143135D02*
X0137008Y0143135D01*
X0137807Y0143934D02*
X0126000Y0143934D01*
X0126000Y0144732D02*
X0138605Y0144732D01*
X0139404Y0145531D02*
X0126000Y0145531D01*
X0126000Y0146329D02*
X0140202Y0146329D01*
X0141001Y0147128D02*
X0126000Y0147128D01*
X0126000Y0147926D02*
X0166750Y0147926D01*
X0166750Y0148725D02*
X0126000Y0148725D01*
X0128500Y0153500D02*
X0148300Y0173300D01*
X0148861Y0171881D02*
X0171639Y0171881D01*
X0172437Y0171083D02*
X0148063Y0171083D01*
X0140876Y0163896D02*
X0168031Y0163896D01*
X0168031Y0163098D02*
X0140078Y0163098D01*
X0139279Y0162299D02*
X0168031Y0162299D01*
X0168031Y0161501D02*
X0138481Y0161501D01*
X0137682Y0160702D02*
X0168031Y0160702D01*
X0168031Y0159904D02*
X0136884Y0159904D01*
X0136085Y0159105D02*
X0168193Y0159105D01*
X0173807Y0159105D02*
X0178193Y0159105D01*
X0178039Y0158307D02*
X0173961Y0158307D01*
X0174367Y0157508D02*
X0177633Y0157508D01*
X0177631Y0156710D02*
X0174368Y0156710D01*
X0174368Y0155911D02*
X0177631Y0155911D01*
X0177631Y0154314D02*
X0174368Y0154314D01*
X0174368Y0153516D02*
X0177631Y0153516D01*
X0177655Y0152717D02*
X0174345Y0152717D01*
X0173879Y0151919D02*
X0178121Y0151919D01*
X0180600Y0151919D02*
X0181400Y0151919D01*
X0181400Y0152717D02*
X0180600Y0152717D01*
X0180600Y0153516D02*
X0181400Y0153516D01*
X0181400Y0154314D02*
X0180600Y0154314D01*
X0182362Y0150322D02*
X0161968Y0150322D01*
X0162601Y0151120D02*
X0190554Y0151120D01*
X0192118Y0153516D02*
X0192631Y0153516D01*
X0192631Y0154314D02*
X0191468Y0154314D01*
X0191468Y0155113D02*
X0195600Y0155113D01*
X0195600Y0154314D02*
X0196400Y0154314D01*
X0196400Y0153516D02*
X0195600Y0153516D01*
X0195600Y0152717D02*
X0196400Y0152717D01*
X0196400Y0151919D02*
X0195600Y0151919D01*
X0194513Y0151120D02*
X0208031Y0151120D01*
X0208031Y0150322D02*
X0195312Y0150322D01*
X0198879Y0151919D02*
X0208031Y0151919D01*
X0207983Y0152717D02*
X0199345Y0152717D01*
X0199368Y0153516D02*
X0207185Y0153516D01*
X0208749Y0155911D02*
X0219264Y0155911D01*
X0218800Y0155113D02*
X0213968Y0155113D01*
X0213968Y0154314D02*
X0218800Y0154314D01*
X0220063Y0156710D02*
X0213911Y0156710D01*
X0213968Y0157508D02*
X0220861Y0157508D01*
X0223500Y0153500D02*
X0222654Y0152654D01*
X0211000Y0152654D01*
X0210027Y0152654D01*
X0201551Y0161129D01*
X0201551Y0161844D01*
X0201551Y0163896D02*
X0201478Y0163896D01*
X0201895Y0164695D02*
X0200680Y0164695D01*
X0199881Y0165493D02*
X0202693Y0165493D01*
X0203492Y0166292D02*
X0199083Y0166292D01*
X0198284Y0167090D02*
X0204290Y0167090D01*
X0205089Y0167889D02*
X0197486Y0167889D01*
X0196687Y0168687D02*
X0205887Y0168687D01*
X0206686Y0169486D02*
X0195889Y0169486D01*
X0195090Y0170284D02*
X0207485Y0170284D01*
X0208283Y0171083D02*
X0194292Y0171083D01*
X0188700Y0167600D02*
X0194454Y0161846D01*
X0196000Y0161846D01*
X0193031Y0160702D02*
X0191468Y0160702D01*
X0191468Y0159904D02*
X0193031Y0159904D01*
X0193193Y0159105D02*
X0191307Y0159105D01*
X0190883Y0158319D02*
X0186117Y0158319D01*
X0190883Y0158319D01*
X0190895Y0158307D02*
X0193039Y0158307D01*
X0192633Y0157508D02*
X0191468Y0157508D01*
X0191468Y0156710D02*
X0192631Y0156710D01*
X0192631Y0155911D02*
X0191468Y0155911D01*
X0191468Y0161501D02*
X0192819Y0161501D01*
X0192021Y0162299D02*
X0191468Y0162299D01*
X0178031Y0160702D02*
X0173968Y0160702D01*
X0173968Y0159904D02*
X0178031Y0159904D01*
X0175581Y0168687D02*
X0171189Y0168687D01*
X0170861Y0169486D02*
X0174034Y0169486D01*
X0173236Y0170284D02*
X0170136Y0170284D01*
X0174800Y0172680D02*
X0209600Y0172680D01*
X0209600Y0173478D02*
X0174400Y0173478D01*
X0174400Y0174277D02*
X0209600Y0174277D01*
X0209600Y0175075D02*
X0174400Y0175075D01*
X0174400Y0175874D02*
X0209600Y0175874D01*
X0209600Y0176672D02*
X0174400Y0176672D01*
X0174400Y0177471D02*
X0209600Y0177471D01*
X0209600Y0178270D02*
X0174400Y0178270D01*
X0174400Y0179068D02*
X0209600Y0179068D01*
X0209600Y0179867D02*
X0174400Y0179867D01*
X0174400Y0180665D02*
X0209600Y0180665D01*
X0209600Y0181464D02*
X0174400Y0181464D01*
X0174400Y0182262D02*
X0209600Y0182262D01*
X0209600Y0183061D02*
X0174019Y0183061D01*
X0173221Y0183859D02*
X0209600Y0183859D01*
X0209600Y0184658D02*
X0172422Y0184658D01*
X0171624Y0185456D02*
X0209600Y0185456D01*
X0209600Y0186255D02*
X0170825Y0186255D01*
X0170027Y0187053D02*
X0209600Y0187053D01*
X0209600Y0187852D02*
X0169228Y0187852D01*
X0168789Y0188650D02*
X0209600Y0188650D01*
X0209600Y0189449D02*
X0168725Y0189449D01*
X0168373Y0190247D02*
X0209600Y0190247D01*
X0209600Y0191046D02*
X0167382Y0191046D01*
X0165482Y0191844D02*
X0209600Y0191844D01*
X0209600Y0192643D02*
X0165012Y0192643D01*
X0165012Y0193441D02*
X0209600Y0193441D01*
X0209600Y0194240D02*
X0165012Y0194240D01*
X0165012Y0195038D02*
X0209600Y0195038D01*
X0209600Y0195837D02*
X0165012Y0195837D01*
X0162246Y0200628D02*
X0161446Y0200628D01*
X0161446Y0201426D02*
X0162246Y0201426D01*
X0162246Y0202225D02*
X0161446Y0202225D01*
X0161446Y0203023D02*
X0162246Y0203023D01*
X0161846Y0203300D02*
X0161846Y0203500D01*
X0162246Y0203822D02*
X0214342Y0203822D01*
X0210349Y0199829D02*
X0159719Y0199829D01*
X0159719Y0199031D02*
X0209600Y0199031D01*
X0209600Y0198232D02*
X0159719Y0198232D01*
X0159134Y0197434D02*
X0209600Y0197434D01*
X0209600Y0196635D02*
X0158335Y0196635D01*
X0158319Y0195837D02*
X0158681Y0195837D01*
X0158681Y0195038D02*
X0158319Y0195038D01*
X0158319Y0194240D02*
X0158681Y0194240D01*
X0158681Y0193441D02*
X0158319Y0193441D01*
X0158319Y0192643D02*
X0158681Y0192643D01*
X0158681Y0191844D02*
X0158319Y0191844D01*
X0158247Y0191046D02*
X0158753Y0191046D01*
X0155154Y0193500D02*
X0155154Y0195434D01*
X0150529Y0199829D02*
X0136651Y0199829D01*
X0137449Y0199031D02*
X0149731Y0199031D01*
X0148932Y0198232D02*
X0138248Y0198232D01*
X0139046Y0197434D02*
X0148134Y0197434D01*
X0147335Y0196635D02*
X0139845Y0196635D01*
X0140643Y0195837D02*
X0146537Y0195837D01*
X0145738Y0195038D02*
X0142215Y0195038D01*
X0142854Y0194240D02*
X0144940Y0194240D01*
X0144300Y0193441D02*
X0143135Y0193441D01*
X0143135Y0192643D02*
X0144300Y0192643D01*
X0144300Y0191844D02*
X0142849Y0191844D01*
X0142205Y0191046D02*
X0144300Y0191046D01*
X0143141Y0189149D02*
X0138092Y0184100D01*
X0137000Y0184100D01*
X0139864Y0187852D02*
X0126000Y0187852D01*
X0126000Y0188650D02*
X0140662Y0188650D01*
X0141461Y0189449D02*
X0126000Y0189449D01*
X0126000Y0190247D02*
X0141609Y0190247D01*
X0138890Y0191046D02*
X0126000Y0191046D01*
X0126000Y0191844D02*
X0138245Y0191844D01*
X0137960Y0192643D02*
X0126000Y0192643D01*
X0126000Y0193441D02*
X0137960Y0193441D01*
X0138241Y0194240D02*
X0126000Y0194240D01*
X0126000Y0195038D02*
X0137482Y0195038D01*
X0136683Y0195837D02*
X0126000Y0195837D01*
X0126000Y0196635D02*
X0135885Y0196635D01*
X0135086Y0197434D02*
X0126000Y0197434D01*
X0126000Y0198232D02*
X0134288Y0198232D01*
X0133489Y0199031D02*
X0126000Y0199031D01*
X0126000Y0199829D02*
X0132691Y0199829D01*
X0131892Y0200628D02*
X0126000Y0200628D01*
X0126000Y0201426D02*
X0131094Y0201426D01*
X0130295Y0202225D02*
X0126000Y0202225D01*
X0126000Y0203023D02*
X0129497Y0203023D01*
X0127019Y0203822D02*
X0126000Y0203822D01*
X0126000Y0204620D02*
X0126271Y0204620D01*
X0126120Y0207016D02*
X0126000Y0207016D01*
X0126000Y0207814D02*
X0126655Y0207814D01*
X0126000Y0208613D02*
X0131407Y0208613D01*
X0130609Y0209411D02*
X0126000Y0209411D01*
X0126000Y0210210D02*
X0129810Y0210210D01*
X0127754Y0211008D02*
X0126000Y0211008D01*
X0126000Y0211807D02*
X0126534Y0211807D01*
X0126070Y0212605D02*
X0126000Y0212605D01*
X0126000Y0215001D02*
X0126342Y0215001D01*
X0126000Y0215800D02*
X0127290Y0215800D01*
X0126000Y0216598D02*
X0134346Y0216598D01*
X0135065Y0216300D02*
X0136935Y0216300D01*
X0138662Y0217016D01*
X0139984Y0218338D01*
X0140700Y0220065D01*
X0140700Y0221935D01*
X0139984Y0223662D01*
X0138662Y0224984D01*
X0136935Y0225700D01*
X0135065Y0225700D01*
X0133338Y0224984D01*
X0132016Y0223662D01*
X0131300Y0221935D01*
X0131300Y0220065D01*
X0132016Y0218338D01*
X0133338Y0217016D01*
X0135065Y0216300D01*
X0132957Y0217397D02*
X0126000Y0217397D01*
X0126000Y0218195D02*
X0132158Y0218195D01*
X0131744Y0218994D02*
X0126000Y0218994D01*
X0126000Y0219792D02*
X0131413Y0219792D01*
X0131300Y0220591D02*
X0126000Y0220591D01*
X0126000Y0221389D02*
X0131300Y0221389D01*
X0131405Y0222188D02*
X0126000Y0222188D01*
X0126000Y0222986D02*
X0131735Y0222986D01*
X0132138Y0223785D02*
X0126000Y0223785D01*
X0126000Y0224583D02*
X0132936Y0224583D01*
X0134297Y0225382D02*
X0126782Y0225382D01*
X0127647Y0226180D02*
X0156476Y0226180D01*
X0156476Y0226979D02*
X0128512Y0226979D01*
X0129377Y0227777D02*
X0156476Y0227777D01*
X0156945Y0228576D02*
X0130242Y0228576D01*
X0137703Y0225382D02*
X0144297Y0225382D01*
X0142936Y0224583D02*
X0139064Y0224583D01*
X0139862Y0223785D02*
X0142138Y0223785D01*
X0141735Y0222986D02*
X0140265Y0222986D01*
X0140595Y0222188D02*
X0141405Y0222188D01*
X0141300Y0221389D02*
X0140700Y0221389D01*
X0140700Y0220591D02*
X0141300Y0220591D01*
X0141413Y0219792D02*
X0140587Y0219792D01*
X0140256Y0218994D02*
X0141744Y0218994D01*
X0142158Y0218195D02*
X0139842Y0218195D01*
X0139043Y0217397D02*
X0142957Y0217397D01*
X0144346Y0216598D02*
X0137654Y0216598D01*
X0128500Y0213500D02*
X0138500Y0203500D01*
X0146000Y0203500D01*
X0147740Y0205419D02*
X0151988Y0205419D01*
X0151988Y0204620D02*
X0148336Y0204620D01*
X0148587Y0203822D02*
X0151988Y0203822D01*
X0151988Y0203023D02*
X0148587Y0203023D01*
X0148272Y0202225D02*
X0151988Y0202225D01*
X0151988Y0201426D02*
X0147585Y0201426D01*
X0144415Y0201426D02*
X0135054Y0201426D01*
X0135852Y0200628D02*
X0151328Y0200628D01*
X0155154Y0202473D02*
X0145700Y0193020D01*
X0145700Y0189149D01*
X0140547Y0193047D02*
X0140547Y0193953D01*
X0128500Y0206000D01*
X0130345Y0207814D02*
X0132206Y0207814D01*
X0133004Y0207016D02*
X0130880Y0207016D01*
X0131087Y0206217D02*
X0133803Y0206217D01*
X0134601Y0205419D02*
X0131061Y0205419D01*
X0131859Y0204620D02*
X0135400Y0204620D01*
X0136198Y0203822D02*
X0132658Y0203822D01*
X0133457Y0203023D02*
X0136997Y0203023D01*
X0137795Y0202225D02*
X0134255Y0202225D01*
X0137762Y0206217D02*
X0152323Y0206217D01*
X0155154Y0203500D02*
X0155154Y0202473D01*
X0161446Y0204620D02*
X0162246Y0204620D01*
X0162246Y0205419D02*
X0161446Y0205419D01*
X0161446Y0206217D02*
X0162246Y0206217D01*
X0165468Y0213404D02*
X0171532Y0213404D01*
X0171043Y0214203D02*
X0165957Y0214203D01*
X0165957Y0215001D02*
X0171043Y0215001D01*
X0171043Y0215800D02*
X0165957Y0215800D01*
X0165957Y0216598D02*
X0171043Y0216598D01*
X0171043Y0217397D02*
X0165957Y0217397D01*
X0165957Y0218195D02*
X0171043Y0218195D01*
X0171043Y0218994D02*
X0165957Y0218994D01*
X0175783Y0216472D02*
X0177945Y0214311D01*
X0194000Y0214311D01*
X0192186Y0212605D02*
X0154800Y0212605D01*
X0154800Y0213404D02*
X0156965Y0213404D01*
X0156476Y0214203D02*
X0154800Y0214203D01*
X0154800Y0215001D02*
X0156476Y0215001D01*
X0156476Y0215800D02*
X0154800Y0215800D01*
X0154800Y0216598D02*
X0156476Y0216598D01*
X0156476Y0217397D02*
X0154800Y0217397D01*
X0154800Y0218195D02*
X0156476Y0218195D01*
X0156476Y0218994D02*
X0154914Y0218994D01*
X0154934Y0222986D02*
X0156476Y0222986D01*
X0165957Y0226979D02*
X0167935Y0226979D01*
X0168734Y0227777D02*
X0165957Y0227777D01*
X0165488Y0228576D02*
X0169532Y0228576D01*
X0182035Y0228576D02*
X0341636Y0228576D01*
X0342435Y0227777D02*
X0185243Y0227777D01*
X0183500Y0226000D02*
X0182631Y0226000D01*
X0183378Y0222188D02*
X0186200Y0222188D01*
X0186200Y0221389D02*
X0184177Y0221389D01*
X0183986Y0221580D02*
X0183986Y0221580D01*
X0184975Y0220591D02*
X0186200Y0220591D01*
X0186200Y0219792D02*
X0185774Y0219792D01*
X0195600Y0219792D02*
X0196520Y0219792D01*
X0196200Y0220591D02*
X0195600Y0220591D01*
X0195600Y0221389D02*
X0196200Y0221389D01*
X0196200Y0222188D02*
X0195600Y0222188D01*
X0195600Y0222986D02*
X0196428Y0222986D01*
X0196759Y0223785D02*
X0195600Y0223785D01*
X0195600Y0224583D02*
X0197336Y0224583D01*
X0198135Y0225382D02*
X0195600Y0225382D01*
X0195034Y0226180D02*
X0199917Y0226180D01*
X0196851Y0218994D02*
X0195600Y0218994D01*
X0211000Y0198500D02*
X0221000Y0208500D01*
X0211000Y0198500D02*
X0211000Y0171820D01*
X0209082Y0171881D02*
X0175598Y0171881D01*
X0161700Y0178500D02*
X0161700Y0183354D01*
X0161846Y0183500D01*
X0165012Y0185456D02*
X0165336Y0185456D01*
X0164640Y0186255D02*
X0166865Y0186255D01*
X0144260Y0205419D02*
X0138561Y0205419D01*
X0125343Y0159157D02*
X0123800Y0157614D01*
X0123800Y0140700D01*
X0128500Y0136000D01*
X0131853Y0136000D01*
X0155700Y0137545D02*
X0156553Y0137545D01*
X0156884Y0138344D02*
X0155700Y0138344D01*
X0155700Y0139142D02*
X0157496Y0139142D01*
X0158294Y0139941D02*
X0155700Y0139941D01*
X0155700Y0134351D02*
X0156596Y0134351D01*
X0156926Y0133553D02*
X0155700Y0133553D01*
X0155700Y0132754D02*
X0157599Y0132754D01*
X0158482Y0131956D02*
X0155700Y0131956D01*
X0174110Y0131956D02*
X0177890Y0131956D01*
X0177054Y0132754D02*
X0174946Y0132754D01*
X0175477Y0133553D02*
X0176523Y0133553D01*
X0176173Y0134351D02*
X0175827Y0134351D01*
X0175860Y0137545D02*
X0176140Y0137545D01*
X0176470Y0138344D02*
X0175530Y0138344D01*
X0175021Y0139142D02*
X0176979Y0139142D01*
X0177748Y0139941D02*
X0174252Y0139941D01*
X0172917Y0140739D02*
X0179083Y0140739D01*
X0180600Y0140739D02*
X0181400Y0140739D01*
X0181400Y0139941D02*
X0180600Y0139941D01*
X0180600Y0139142D02*
X0181400Y0139142D01*
X0181400Y0138344D02*
X0180600Y0138344D01*
X0180600Y0137545D02*
X0181400Y0137545D01*
X0182917Y0140739D02*
X0343500Y0140739D01*
X0343500Y0139941D02*
X0243706Y0139941D01*
X0244504Y0139142D02*
X0265351Y0139142D01*
X0265175Y0139085D02*
X0264586Y0138785D01*
X0264051Y0138396D01*
X0263584Y0137929D01*
X0263195Y0137394D01*
X0262895Y0136805D01*
X0262691Y0136176D01*
X0262587Y0135523D01*
X0262587Y0135482D01*
X0266498Y0135482D01*
X0266498Y0139393D01*
X0266457Y0139393D01*
X0265804Y0139289D01*
X0265175Y0139085D01*
X0266498Y0139142D02*
X0267076Y0139142D01*
X0267076Y0138344D02*
X0266498Y0138344D01*
X0266498Y0137545D02*
X0267076Y0137545D01*
X0267076Y0136747D02*
X0266498Y0136747D01*
X0266498Y0135948D02*
X0267076Y0135948D01*
X0267076Y0135482D02*
X0270861Y0135482D01*
X0270861Y0134904D01*
X0267076Y0134904D01*
X0267076Y0135482D01*
X0267076Y0135150D02*
X0270861Y0135150D01*
X0270699Y0136747D02*
X0271192Y0136747D01*
X0271640Y0137545D02*
X0270270Y0137545D01*
X0269576Y0138344D02*
X0272438Y0138344D01*
X0268223Y0139142D02*
X0343500Y0139142D01*
X0343500Y0138344D02*
X0341454Y0138344D01*
X0341454Y0138407D02*
X0340868Y0138993D01*
X0334439Y0138993D01*
X0333854Y0138407D01*
X0333854Y0131979D01*
X0334439Y0131393D01*
X0340868Y0131393D01*
X0341454Y0131979D01*
X0341454Y0138407D01*
X0341454Y0137545D02*
X0343500Y0137545D01*
X0343500Y0136747D02*
X0341454Y0136747D01*
X0341454Y0135948D02*
X0343500Y0135948D01*
X0343500Y0135150D02*
X0341454Y0135150D01*
X0341454Y0134351D02*
X0343500Y0134351D01*
X0343500Y0133553D02*
X0341454Y0133553D01*
X0341454Y0132754D02*
X0343500Y0132754D01*
X0343500Y0131956D02*
X0341431Y0131956D01*
X0343500Y0131157D02*
X0319708Y0131157D01*
X0318910Y0130359D02*
X0343500Y0130359D01*
X0333876Y0131956D02*
X0331894Y0131956D01*
X0331932Y0131971D02*
X0333001Y0133040D01*
X0333580Y0134437D01*
X0333580Y0135949D01*
X0333001Y0137345D01*
X0331932Y0138414D01*
X0330535Y0138993D01*
X0329024Y0138993D01*
X0327627Y0138414D01*
X0326558Y0137345D01*
X0325980Y0135949D01*
X0325980Y0134437D01*
X0326558Y0133040D01*
X0327627Y0131971D01*
X0329024Y0131393D01*
X0330535Y0131393D01*
X0331932Y0131971D01*
X0332715Y0132754D02*
X0333854Y0132754D01*
X0333854Y0133553D02*
X0333213Y0133553D01*
X0333544Y0134351D02*
X0333854Y0134351D01*
X0333854Y0135150D02*
X0333580Y0135150D01*
X0333580Y0135948D02*
X0333854Y0135948D01*
X0333854Y0136747D02*
X0333249Y0136747D01*
X0332801Y0137545D02*
X0333854Y0137545D01*
X0333854Y0138344D02*
X0332002Y0138344D01*
X0327557Y0138344D02*
X0324128Y0138344D01*
X0324927Y0137545D02*
X0326758Y0137545D01*
X0326310Y0136747D02*
X0325375Y0136747D01*
X0325705Y0135948D02*
X0325980Y0135948D01*
X0325980Y0135150D02*
X0325705Y0135150D01*
X0325670Y0134351D02*
X0326015Y0134351D01*
X0326346Y0133553D02*
X0325339Y0133553D01*
X0324841Y0132754D02*
X0326844Y0132754D01*
X0327665Y0131956D02*
X0324020Y0131956D01*
X0318427Y0133553D02*
X0317465Y0133553D01*
X0317629Y0132754D02*
X0316967Y0132754D01*
X0317796Y0134351D02*
X0318141Y0134351D01*
X0318106Y0135150D02*
X0317831Y0135150D01*
X0317831Y0135948D02*
X0318106Y0135948D01*
X0318436Y0136747D02*
X0317501Y0136747D01*
X0317053Y0137545D02*
X0318884Y0137545D01*
X0319683Y0138344D02*
X0316254Y0138344D01*
X0311809Y0138344D02*
X0308380Y0138344D01*
X0309179Y0137545D02*
X0311010Y0137545D01*
X0310562Y0136747D02*
X0309627Y0136747D01*
X0309957Y0135948D02*
X0310231Y0135948D01*
X0310231Y0135150D02*
X0309957Y0135150D01*
X0309922Y0134351D02*
X0310267Y0134351D01*
X0310598Y0133553D02*
X0309591Y0133553D01*
X0309093Y0132754D02*
X0311096Y0132754D01*
X0313500Y0131300D02*
X0225700Y0131300D01*
X0221000Y0136000D01*
X0225700Y0135948D02*
X0226300Y0135948D01*
X0226300Y0135150D02*
X0225700Y0135150D01*
X0225404Y0134351D02*
X0226596Y0134351D01*
X0226926Y0133553D02*
X0225427Y0133553D01*
X0226226Y0132754D02*
X0227599Y0132754D01*
X0226300Y0136747D02*
X0225700Y0136747D01*
X0225447Y0137545D02*
X0226553Y0137545D01*
X0226884Y0138344D02*
X0225116Y0138344D01*
X0224504Y0139142D02*
X0227496Y0139142D01*
X0228294Y0139941D02*
X0223706Y0139941D01*
X0218294Y0139941D02*
X0213706Y0139941D01*
X0213662Y0139984D02*
X0211935Y0140700D01*
X0210065Y0140700D01*
X0208338Y0139984D01*
X0207016Y0138662D01*
X0206300Y0136935D01*
X0206300Y0135065D01*
X0207016Y0133338D01*
X0208338Y0132016D01*
X0210065Y0131300D01*
X0211935Y0131300D01*
X0213662Y0132016D01*
X0214984Y0133338D01*
X0215700Y0135065D01*
X0215700Y0136935D01*
X0214984Y0138662D01*
X0213662Y0139984D01*
X0214504Y0139142D02*
X0217496Y0139142D01*
X0216884Y0138344D02*
X0215116Y0138344D01*
X0215447Y0137545D02*
X0216553Y0137545D01*
X0216300Y0136747D02*
X0215700Y0136747D01*
X0215700Y0135948D02*
X0216300Y0135948D01*
X0216300Y0135150D02*
X0215700Y0135150D01*
X0215404Y0134351D02*
X0216596Y0134351D01*
X0216926Y0133553D02*
X0215074Y0133553D01*
X0214401Y0132754D02*
X0217599Y0132754D01*
X0218482Y0131956D02*
X0213518Y0131956D01*
X0208482Y0131956D02*
X0203518Y0131956D01*
X0203662Y0132016D02*
X0204984Y0133338D01*
X0205700Y0135065D01*
X0205700Y0136935D01*
X0204984Y0138662D01*
X0203662Y0139984D01*
X0201935Y0140700D01*
X0200065Y0140700D01*
X0198338Y0139984D01*
X0197016Y0138662D01*
X0196300Y0136935D01*
X0196300Y0135065D01*
X0197016Y0133338D01*
X0198338Y0132016D01*
X0200065Y0131300D01*
X0201935Y0131300D01*
X0203662Y0132016D01*
X0204401Y0132754D02*
X0207599Y0132754D01*
X0206926Y0133553D02*
X0205074Y0133553D01*
X0205404Y0134351D02*
X0206596Y0134351D01*
X0206300Y0135150D02*
X0205700Y0135150D01*
X0205700Y0135948D02*
X0206300Y0135948D01*
X0206300Y0136747D02*
X0205700Y0136747D01*
X0205447Y0137545D02*
X0206553Y0137545D01*
X0206884Y0138344D02*
X0205116Y0138344D01*
X0204504Y0139142D02*
X0207496Y0139142D01*
X0208294Y0139941D02*
X0203706Y0139941D01*
X0198294Y0139941D02*
X0193706Y0139941D01*
X0194504Y0139142D02*
X0197496Y0139142D01*
X0196884Y0138344D02*
X0195116Y0138344D01*
X0195447Y0137545D02*
X0196553Y0137545D01*
X0196300Y0136747D02*
X0195700Y0136747D01*
X0195700Y0135948D02*
X0196300Y0135948D01*
X0196300Y0135150D02*
X0195700Y0135150D01*
X0195404Y0134351D02*
X0196596Y0134351D01*
X0196926Y0133553D02*
X0195074Y0133553D01*
X0194401Y0132754D02*
X0197599Y0132754D01*
X0198482Y0131956D02*
X0193518Y0131956D01*
X0185725Y0142337D02*
X0185275Y0142337D01*
X0185275Y0143135D02*
X0185725Y0143135D01*
X0185725Y0143934D02*
X0185275Y0143934D01*
X0185712Y0144732D02*
X0185725Y0144732D01*
X0183465Y0142337D02*
X0176481Y0142337D01*
X0176064Y0141920D02*
X0176064Y0141920D01*
X0175682Y0141538D02*
X0343500Y0141538D01*
X0343500Y0147128D02*
X0230492Y0147128D01*
X0229466Y0150322D02*
X0226968Y0150322D01*
X0227767Y0151120D02*
X0228667Y0151120D01*
X0228400Y0151919D02*
X0228200Y0151919D01*
X0228200Y0152717D02*
X0228400Y0152717D01*
X0228200Y0153516D02*
X0233100Y0153516D01*
X0233100Y0154314D02*
X0233900Y0154314D01*
X0233900Y0153900D02*
X0233900Y0158600D01*
X0235612Y0158600D01*
X0238600Y0155612D01*
X0238600Y0153900D01*
X0233900Y0153900D01*
X0233900Y0153516D02*
X0246836Y0153516D01*
X0247634Y0154314D02*
X0238600Y0154314D01*
X0238600Y0155113D02*
X0248433Y0155113D01*
X0249231Y0155911D02*
X0238301Y0155911D01*
X0237503Y0156710D02*
X0286283Y0156710D01*
X0285484Y0157508D02*
X0236704Y0157508D01*
X0235906Y0158307D02*
X0284686Y0158307D01*
X0283887Y0159105D02*
X0235752Y0159105D01*
X0236551Y0159904D02*
X0263457Y0159904D01*
X0262659Y0160702D02*
X0237349Y0160702D01*
X0238148Y0161501D02*
X0261860Y0161501D01*
X0261062Y0162299D02*
X0238200Y0162299D01*
X0238200Y0163098D02*
X0260263Y0163098D01*
X0260100Y0163896D02*
X0238200Y0163896D01*
X0238200Y0164695D02*
X0260100Y0164695D01*
X0260100Y0165493D02*
X0238153Y0165493D01*
X0237355Y0166292D02*
X0260100Y0166292D01*
X0260100Y0167090D02*
X0236556Y0167090D01*
X0235758Y0167889D02*
X0260100Y0167889D01*
X0270938Y0162299D02*
X0280693Y0162299D01*
X0281492Y0161501D02*
X0270140Y0161501D01*
X0269341Y0160702D02*
X0282290Y0160702D01*
X0283089Y0159904D02*
X0268543Y0159904D01*
X0271737Y0163098D02*
X0279895Y0163098D01*
X0279096Y0163896D02*
X0272535Y0163896D01*
X0273334Y0164695D02*
X0275989Y0164695D01*
X0249997Y0152717D02*
X0343500Y0152717D01*
X0343500Y0151919D02*
X0249199Y0151919D01*
X0248400Y0151120D02*
X0343500Y0151120D01*
X0343500Y0150322D02*
X0247602Y0150322D01*
X0246803Y0149523D02*
X0343500Y0149523D01*
X0343500Y0148725D02*
X0246004Y0148725D01*
X0245206Y0147926D02*
X0343500Y0147926D01*
X0343500Y0156710D02*
X0338591Y0156710D01*
X0339316Y0157508D02*
X0343500Y0157508D01*
X0343500Y0158307D02*
X0339647Y0158307D01*
X0339850Y0159105D02*
X0343500Y0159105D01*
X0343500Y0159904D02*
X0339850Y0159904D01*
X0339695Y0160702D02*
X0343500Y0160702D01*
X0343500Y0161501D02*
X0339365Y0161501D01*
X0338708Y0162299D02*
X0343500Y0162299D01*
X0343500Y0163098D02*
X0337527Y0163098D01*
X0338357Y0163896D02*
X0343500Y0163896D01*
X0343500Y0164695D02*
X0339261Y0164695D01*
X0339780Y0165493D02*
X0343500Y0165493D01*
X0343500Y0166292D02*
X0340097Y0166292D01*
X0340248Y0167090D02*
X0343500Y0167090D01*
X0343500Y0167889D02*
X0340231Y0167889D01*
X0340062Y0168687D02*
X0343500Y0168687D01*
X0343500Y0169486D02*
X0339726Y0169486D01*
X0339163Y0170284D02*
X0343500Y0170284D01*
X0343500Y0171083D02*
X0338206Y0171083D01*
X0336289Y0171083D02*
X0335711Y0171083D01*
X0335711Y0170284D02*
X0336289Y0170284D01*
X0336289Y0169486D02*
X0335711Y0169486D01*
X0335711Y0168687D02*
X0336289Y0168687D01*
X0336289Y0167889D02*
X0335711Y0167889D01*
X0336000Y0167437D02*
X0330700Y0162137D01*
X0331007Y0169486D02*
X0332274Y0169486D01*
X0332837Y0170284D02*
X0330783Y0170284D01*
X0330408Y0171083D02*
X0333794Y0171083D01*
X0329831Y0171881D02*
X0343500Y0171881D01*
X0343500Y0172680D02*
X0328923Y0172680D01*
X0327169Y0173478D02*
X0343500Y0173478D01*
X0326400Y0173478D02*
X0325600Y0173478D01*
X0325600Y0172680D02*
X0326400Y0172680D01*
X0326400Y0171881D02*
X0325600Y0171881D01*
X0325600Y0171083D02*
X0326400Y0171083D01*
X0326400Y0170284D02*
X0325600Y0170284D01*
X0325600Y0169486D02*
X0326400Y0169486D01*
X0303935Y0138344D02*
X0300506Y0138344D01*
X0301305Y0137545D02*
X0303136Y0137545D01*
X0302688Y0136747D02*
X0301753Y0136747D01*
X0302083Y0135948D02*
X0302357Y0135948D01*
X0302357Y0135150D02*
X0302083Y0135150D01*
X0302048Y0134351D02*
X0302393Y0134351D01*
X0302724Y0133553D02*
X0301717Y0133553D01*
X0301219Y0132754D02*
X0303222Y0132754D01*
X0295348Y0132754D02*
X0293345Y0132754D01*
X0293843Y0133553D02*
X0294850Y0133553D01*
X0294519Y0134351D02*
X0294174Y0134351D01*
X0294209Y0135150D02*
X0294483Y0135150D01*
X0294483Y0135948D02*
X0294209Y0135948D01*
X0293879Y0136747D02*
X0294814Y0136747D01*
X0295262Y0137545D02*
X0293431Y0137545D01*
X0292632Y0138344D02*
X0296060Y0138344D01*
X0288186Y0138344D02*
X0284758Y0138344D01*
X0285557Y0137545D02*
X0287388Y0137545D01*
X0286940Y0136747D02*
X0286005Y0136747D01*
X0286335Y0135948D02*
X0286609Y0135948D01*
X0286609Y0135150D02*
X0286335Y0135150D01*
X0286300Y0134351D02*
X0286645Y0134351D01*
X0286976Y0133553D02*
X0285969Y0133553D01*
X0285471Y0132754D02*
X0287474Y0132754D01*
X0279600Y0132754D02*
X0277597Y0132754D01*
X0278095Y0133553D02*
X0279102Y0133553D01*
X0278771Y0134351D02*
X0278426Y0134351D01*
X0278461Y0135150D02*
X0278735Y0135150D01*
X0278735Y0135948D02*
X0278461Y0135948D01*
X0278131Y0136747D02*
X0279066Y0136747D01*
X0279514Y0137545D02*
X0277683Y0137545D01*
X0276884Y0138344D02*
X0280312Y0138344D01*
X0266498Y0135150D02*
X0245700Y0135150D01*
X0245700Y0135948D02*
X0262655Y0135948D01*
X0262876Y0136747D02*
X0245700Y0136747D01*
X0245447Y0137545D02*
X0263305Y0137545D01*
X0263999Y0138344D02*
X0245116Y0138344D01*
X0245404Y0134351D02*
X0262668Y0134351D01*
X0262909Y0133553D02*
X0245074Y0133553D01*
X0244401Y0132754D02*
X0263368Y0132754D01*
X0237599Y0132754D02*
X0234401Y0132754D01*
X0235074Y0133553D02*
X0236926Y0133553D01*
X0236596Y0134351D02*
X0235404Y0134351D01*
X0235700Y0135150D02*
X0236300Y0135150D01*
X0236300Y0135948D02*
X0235700Y0135948D01*
X0235700Y0136747D02*
X0236300Y0136747D01*
X0236553Y0137545D02*
X0235447Y0137545D01*
X0235116Y0138344D02*
X0236884Y0138344D01*
X0237496Y0139142D02*
X0234504Y0139142D01*
X0233706Y0139941D02*
X0238294Y0139941D01*
X0237200Y0140700D02*
X0233700Y0144200D01*
X0237534Y0150322D02*
X0243642Y0150322D01*
X0244440Y0151120D02*
X0238333Y0151120D01*
X0238600Y0151919D02*
X0245239Y0151919D01*
X0246037Y0152717D02*
X0238600Y0152717D01*
X0233900Y0155113D02*
X0233100Y0155113D01*
X0233100Y0155911D02*
X0233900Y0155911D01*
X0233900Y0156710D02*
X0233100Y0156710D01*
X0233100Y0157508D02*
X0233900Y0157508D01*
X0233900Y0158307D02*
X0233100Y0158307D01*
X0230296Y0157508D02*
X0226139Y0157508D01*
X0226937Y0156710D02*
X0229497Y0156710D01*
X0228699Y0155911D02*
X0227736Y0155911D01*
X0228200Y0155113D02*
X0228400Y0155113D01*
X0228400Y0154314D02*
X0228200Y0154314D01*
X0208089Y0156710D02*
X0207950Y0156710D01*
X0208031Y0157508D02*
X0207152Y0157508D01*
X0206353Y0158307D02*
X0208031Y0158307D01*
X0207929Y0162299D02*
X0208405Y0162299D01*
X0181563Y0149523D02*
X0175207Y0149523D01*
X0175639Y0148725D02*
X0179250Y0148725D01*
X0179250Y0147926D02*
X0175650Y0147926D01*
X0178164Y0146000D02*
X0178500Y0146000D01*
X0178078Y0143934D02*
X0179250Y0143934D01*
X0179250Y0143135D02*
X0177279Y0143135D01*
X0255746Y0187053D02*
X0264482Y0187053D01*
X0264600Y0186255D02*
X0257140Y0186255D01*
X0257512Y0185456D02*
X0264600Y0185456D01*
X0264600Y0184658D02*
X0257512Y0184658D01*
X0270600Y0203822D02*
X0271400Y0203822D01*
X0271400Y0204620D02*
X0270600Y0204620D01*
X0270600Y0205419D02*
X0271400Y0205419D01*
X0271400Y0206217D02*
X0270600Y0206217D01*
X0270600Y0207016D02*
X0271400Y0207016D01*
X0255521Y0215001D02*
X0246479Y0215001D01*
X0247277Y0214203D02*
X0254723Y0214203D01*
X0253924Y0213404D02*
X0248076Y0213404D01*
X0330989Y0218195D02*
X0336444Y0218195D01*
X0335093Y0218994D02*
X0332340Y0218994D01*
X0333058Y0219792D02*
X0334375Y0219792D01*
X0334044Y0220591D02*
X0333389Y0220591D01*
X0333580Y0221389D02*
X0333854Y0221389D01*
X0333854Y0222188D02*
X0333580Y0222188D01*
X0333404Y0222986D02*
X0334029Y0222986D01*
X0334360Y0223785D02*
X0333073Y0223785D01*
X0332377Y0224583D02*
X0335056Y0224583D01*
D18*
X0185500Y0146000D03*
X0181500Y0146000D03*
X0173000Y0146000D03*
X0169000Y0146000D03*
D19*
X0266787Y0135193D03*
X0274661Y0135193D03*
X0282535Y0135193D03*
X0290409Y0135193D03*
X0298283Y0135193D03*
X0306157Y0135193D03*
X0314031Y0135193D03*
X0321906Y0135193D03*
X0329780Y0135193D03*
X0329780Y0221807D03*
X0337654Y0221807D03*
X0321906Y0221807D03*
X0314031Y0221807D03*
X0306157Y0221807D03*
X0298283Y0221807D03*
X0290409Y0221807D03*
X0282535Y0221807D03*
X0274661Y0221807D03*
X0266787Y0221807D03*
D20*
X0337654Y0135193D03*
D21*
X0175783Y0216472D03*
X0175783Y0225528D03*
X0161217Y0225528D03*
X0161217Y0216472D03*
D22*
X0316000Y0171512D03*
X0316000Y0160488D03*
D23*
X0336000Y0159563D03*
X0336000Y0167437D03*
D24*
X0283800Y0184400D03*
X0283800Y0193500D03*
X0283800Y0202600D03*
D25*
X0308201Y0193500D03*
D26*
X0233500Y0173500D03*
X0233500Y0163500D03*
X0223500Y0163500D03*
X0223500Y0153500D03*
X0233500Y0153500D03*
D27*
X0233700Y0144200D03*
X0228800Y0145300D03*
X0205440Y0162740D03*
X0213489Y0175311D03*
X0231100Y0186100D03*
X0221300Y0191100D03*
X0230700Y0195900D03*
X0242000Y0196000D03*
X0241400Y0201400D03*
X0261800Y0199200D03*
X0275100Y0188000D03*
X0270100Y0180400D03*
X0247700Y0176100D03*
X0213900Y0196900D03*
X0201400Y0213800D03*
X0194000Y0214311D03*
X0183500Y0226000D03*
X0153400Y0221000D03*
X0154800Y0198600D03*
X0166808Y0200408D03*
X0166300Y0188800D03*
X0166800Y0183400D03*
X0161700Y0178500D03*
X0150600Y0178700D03*
X0144800Y0176100D03*
X0137000Y0184100D03*
X0154600Y0188700D03*
X0168700Y0168200D03*
X0177700Y0167300D03*
X0184400Y0167400D03*
X0188700Y0167600D03*
X0165900Y0153743D03*
X0126900Y0163500D03*
X0291200Y0198600D03*
X0300700Y0211700D03*
X0306700Y0212400D03*
X0325800Y0209800D03*
D28*
X0318500Y0213500D03*
X0261000Y0183500D03*
X0253500Y0166000D03*
X0253500Y0148500D03*
X0263500Y0146000D03*
X0283500Y0146000D03*
X0316000Y0151000D03*
X0336000Y0146000D03*
X0246000Y0223500D03*
X0233500Y0223500D03*
X0201000Y0201000D03*
X0196000Y0201000D03*
X0191000Y0201000D03*
X0186000Y0201000D03*
X0181000Y0201000D03*
X0183500Y0196000D03*
X0188500Y0196000D03*
X0193500Y0196000D03*
X0198500Y0196000D03*
X0201000Y0191000D03*
X0196000Y0191000D03*
X0191000Y0191000D03*
X0186000Y0191000D03*
X0181000Y0191000D03*
X0183500Y0186000D03*
X0188500Y0186000D03*
X0193500Y0186000D03*
X0198500Y0186000D03*
X0201000Y0181000D03*
X0196000Y0181000D03*
X0191000Y0181000D03*
X0186000Y0181000D03*
X0181000Y0181000D03*
X0146000Y0166000D03*
X0133500Y0143500D03*
X0133500Y0188500D03*
D29*
X0313500Y0131300D02*
X0318013Y0131300D01*
X0321906Y0135193D01*
D30*
X0146000Y0203500D03*
X0140547Y0193047D03*
X0128500Y0206000D03*
X0128500Y0213500D03*
M02*
