G75*
%MOIN*%
%OFA0B0*%
%FSLAX25Y25*%
%IPPOS*%
%LPD*%
%AMOC8*
5,1,8,0,0,1.08239X$1,22.5*
%
%ADD10C,0.00000*%
%ADD11C,0.00800*%
D10*
X0001000Y0001000D02*
X0001000Y0394701D01*
X0630921Y0394701D01*
X0630921Y0001000D01*
X0001000Y0001000D01*
X0334228Y0190094D02*
X0334230Y0190178D01*
X0334236Y0190261D01*
X0334246Y0190344D01*
X0334260Y0190427D01*
X0334277Y0190509D01*
X0334299Y0190590D01*
X0334324Y0190669D01*
X0334353Y0190748D01*
X0334386Y0190825D01*
X0334422Y0190900D01*
X0334462Y0190974D01*
X0334505Y0191046D01*
X0334552Y0191115D01*
X0334602Y0191182D01*
X0334655Y0191247D01*
X0334711Y0191309D01*
X0334769Y0191369D01*
X0334831Y0191426D01*
X0334895Y0191479D01*
X0334962Y0191530D01*
X0335031Y0191577D01*
X0335102Y0191622D01*
X0335175Y0191662D01*
X0335250Y0191699D01*
X0335327Y0191733D01*
X0335405Y0191763D01*
X0335484Y0191789D01*
X0335565Y0191812D01*
X0335647Y0191830D01*
X0335729Y0191845D01*
X0335812Y0191856D01*
X0335895Y0191863D01*
X0335979Y0191866D01*
X0336063Y0191865D01*
X0336146Y0191860D01*
X0336230Y0191851D01*
X0336312Y0191838D01*
X0336394Y0191822D01*
X0336475Y0191801D01*
X0336556Y0191777D01*
X0336634Y0191749D01*
X0336712Y0191717D01*
X0336788Y0191681D01*
X0336862Y0191642D01*
X0336934Y0191600D01*
X0337004Y0191554D01*
X0337072Y0191505D01*
X0337137Y0191453D01*
X0337200Y0191398D01*
X0337260Y0191340D01*
X0337318Y0191279D01*
X0337372Y0191215D01*
X0337424Y0191149D01*
X0337472Y0191081D01*
X0337517Y0191010D01*
X0337558Y0190937D01*
X0337597Y0190863D01*
X0337631Y0190787D01*
X0337662Y0190709D01*
X0337689Y0190630D01*
X0337713Y0190549D01*
X0337732Y0190468D01*
X0337748Y0190386D01*
X0337760Y0190303D01*
X0337768Y0190219D01*
X0337772Y0190136D01*
X0337772Y0190052D01*
X0337768Y0189969D01*
X0337760Y0189885D01*
X0337748Y0189802D01*
X0337732Y0189720D01*
X0337713Y0189639D01*
X0337689Y0189558D01*
X0337662Y0189479D01*
X0337631Y0189401D01*
X0337597Y0189325D01*
X0337558Y0189251D01*
X0337517Y0189178D01*
X0337472Y0189107D01*
X0337424Y0189039D01*
X0337372Y0188973D01*
X0337318Y0188909D01*
X0337260Y0188848D01*
X0337200Y0188790D01*
X0337137Y0188735D01*
X0337072Y0188683D01*
X0337004Y0188634D01*
X0336934Y0188588D01*
X0336862Y0188546D01*
X0336788Y0188507D01*
X0336712Y0188471D01*
X0336634Y0188439D01*
X0336556Y0188411D01*
X0336475Y0188387D01*
X0336394Y0188366D01*
X0336312Y0188350D01*
X0336230Y0188337D01*
X0336146Y0188328D01*
X0336063Y0188323D01*
X0335979Y0188322D01*
X0335895Y0188325D01*
X0335812Y0188332D01*
X0335729Y0188343D01*
X0335647Y0188358D01*
X0335565Y0188376D01*
X0335484Y0188399D01*
X0335405Y0188425D01*
X0335327Y0188455D01*
X0335250Y0188489D01*
X0335175Y0188526D01*
X0335102Y0188566D01*
X0335031Y0188611D01*
X0334962Y0188658D01*
X0334895Y0188709D01*
X0334831Y0188762D01*
X0334769Y0188819D01*
X0334711Y0188879D01*
X0334655Y0188941D01*
X0334602Y0189006D01*
X0334552Y0189073D01*
X0334505Y0189142D01*
X0334462Y0189214D01*
X0334422Y0189288D01*
X0334386Y0189363D01*
X0334353Y0189440D01*
X0334324Y0189519D01*
X0334299Y0189598D01*
X0334277Y0189679D01*
X0334260Y0189761D01*
X0334246Y0189844D01*
X0334236Y0189927D01*
X0334230Y0190010D01*
X0334228Y0190094D01*
X0334228Y0201906D02*
X0334230Y0201990D01*
X0334236Y0202073D01*
X0334246Y0202156D01*
X0334260Y0202239D01*
X0334277Y0202321D01*
X0334299Y0202402D01*
X0334324Y0202481D01*
X0334353Y0202560D01*
X0334386Y0202637D01*
X0334422Y0202712D01*
X0334462Y0202786D01*
X0334505Y0202858D01*
X0334552Y0202927D01*
X0334602Y0202994D01*
X0334655Y0203059D01*
X0334711Y0203121D01*
X0334769Y0203181D01*
X0334831Y0203238D01*
X0334895Y0203291D01*
X0334962Y0203342D01*
X0335031Y0203389D01*
X0335102Y0203434D01*
X0335175Y0203474D01*
X0335250Y0203511D01*
X0335327Y0203545D01*
X0335405Y0203575D01*
X0335484Y0203601D01*
X0335565Y0203624D01*
X0335647Y0203642D01*
X0335729Y0203657D01*
X0335812Y0203668D01*
X0335895Y0203675D01*
X0335979Y0203678D01*
X0336063Y0203677D01*
X0336146Y0203672D01*
X0336230Y0203663D01*
X0336312Y0203650D01*
X0336394Y0203634D01*
X0336475Y0203613D01*
X0336556Y0203589D01*
X0336634Y0203561D01*
X0336712Y0203529D01*
X0336788Y0203493D01*
X0336862Y0203454D01*
X0336934Y0203412D01*
X0337004Y0203366D01*
X0337072Y0203317D01*
X0337137Y0203265D01*
X0337200Y0203210D01*
X0337260Y0203152D01*
X0337318Y0203091D01*
X0337372Y0203027D01*
X0337424Y0202961D01*
X0337472Y0202893D01*
X0337517Y0202822D01*
X0337558Y0202749D01*
X0337597Y0202675D01*
X0337631Y0202599D01*
X0337662Y0202521D01*
X0337689Y0202442D01*
X0337713Y0202361D01*
X0337732Y0202280D01*
X0337748Y0202198D01*
X0337760Y0202115D01*
X0337768Y0202031D01*
X0337772Y0201948D01*
X0337772Y0201864D01*
X0337768Y0201781D01*
X0337760Y0201697D01*
X0337748Y0201614D01*
X0337732Y0201532D01*
X0337713Y0201451D01*
X0337689Y0201370D01*
X0337662Y0201291D01*
X0337631Y0201213D01*
X0337597Y0201137D01*
X0337558Y0201063D01*
X0337517Y0200990D01*
X0337472Y0200919D01*
X0337424Y0200851D01*
X0337372Y0200785D01*
X0337318Y0200721D01*
X0337260Y0200660D01*
X0337200Y0200602D01*
X0337137Y0200547D01*
X0337072Y0200495D01*
X0337004Y0200446D01*
X0336934Y0200400D01*
X0336862Y0200358D01*
X0336788Y0200319D01*
X0336712Y0200283D01*
X0336634Y0200251D01*
X0336556Y0200223D01*
X0336475Y0200199D01*
X0336394Y0200178D01*
X0336312Y0200162D01*
X0336230Y0200149D01*
X0336146Y0200140D01*
X0336063Y0200135D01*
X0335979Y0200134D01*
X0335895Y0200137D01*
X0335812Y0200144D01*
X0335729Y0200155D01*
X0335647Y0200170D01*
X0335565Y0200188D01*
X0335484Y0200211D01*
X0335405Y0200237D01*
X0335327Y0200267D01*
X0335250Y0200301D01*
X0335175Y0200338D01*
X0335102Y0200378D01*
X0335031Y0200423D01*
X0334962Y0200470D01*
X0334895Y0200521D01*
X0334831Y0200574D01*
X0334769Y0200631D01*
X0334711Y0200691D01*
X0334655Y0200753D01*
X0334602Y0200818D01*
X0334552Y0200885D01*
X0334505Y0200954D01*
X0334462Y0201026D01*
X0334422Y0201100D01*
X0334386Y0201175D01*
X0334353Y0201252D01*
X0334324Y0201331D01*
X0334299Y0201410D01*
X0334277Y0201491D01*
X0334260Y0201573D01*
X0334246Y0201656D01*
X0334236Y0201739D01*
X0334230Y0201822D01*
X0334228Y0201906D01*
D11*
X0343500Y0233500D02*
X0373500Y0203500D01*
X0373500Y0153500D01*
X0343500Y0123500D01*
X0126000Y0123500D01*
X0096000Y0153500D01*
X0096000Y0203500D01*
X0128500Y0233500D01*
X0343500Y0233500D01*
M02*
