G75*
%MOIN*%
%OFA0B0*%
%FSLAX25Y25*%
%IPPOS*%
%LPD*%
%AMOC8*
5,1,8,0,0,1.08239X$1,22.5*
%
%ADD10R,0.01863X0.02375*%
%ADD11R,0.05131X0.04737*%
%ADD12R,0.04068X0.03280*%
%ADD13C,0.07800*%
%ADD14C,0.08200*%
%ADD15R,0.04737X0.05131*%
%ADD16R,0.08200X0.08200*%
%ADD17R,0.03300X0.05800*%
%ADD18C,0.06400*%
%ADD19R,0.06400X0.06400*%
%ADD20R,0.08280X0.05131*%
%ADD21R,0.07099X0.06312*%
%ADD22C,0.06500*%
%ADD23C,0.04343*%
%ADD24R,0.09600X0.05600*%
%ADD25R,0.09461X0.14973*%
%ADD26OC8,0.08200*%
%ADD27C,0.03778*%
%ADD28C,0.04959*%
%ADD29C,0.03975*%
D10*
X0143141Y0185212D03*
X0145700Y0185212D03*
X0148259Y0185212D03*
X0148259Y0189149D03*
X0145700Y0189149D03*
X0143141Y0189149D03*
D11*
X0155154Y0193500D03*
X0161846Y0193500D03*
X0161846Y0183500D03*
X0155154Y0183500D03*
X0155154Y0203500D03*
X0161846Y0203500D03*
X0218754Y0195600D03*
X0225446Y0195600D03*
X0225446Y0185800D03*
X0218754Y0185800D03*
X0247654Y0183500D03*
X0254346Y0183500D03*
X0254346Y0193500D03*
X0247654Y0193500D03*
X0282654Y0211000D03*
X0289346Y0211000D03*
D12*
X0278500Y0175528D03*
X0278500Y0166472D03*
D13*
X0266000Y0165705D03*
X0266000Y0191295D03*
D14*
X0128500Y0136000D03*
X0138500Y0136000D03*
X0138500Y0153500D03*
X0148500Y0153500D03*
X0158500Y0153500D03*
X0161000Y0136000D03*
X0171000Y0136000D03*
X0181000Y0136000D03*
X0191000Y0136000D03*
X0201000Y0136000D03*
X0211000Y0136000D03*
X0221000Y0136000D03*
X0231000Y0136000D03*
X0241000Y0136000D03*
X0293500Y0168500D03*
X0298500Y0161000D03*
X0303500Y0168500D03*
X0326000Y0168500D03*
X0326000Y0158500D03*
X0356000Y0193500D03*
X0356000Y0203500D03*
X0271000Y0208500D03*
X0261000Y0208500D03*
X0251000Y0208500D03*
X0241000Y0208500D03*
X0231000Y0208500D03*
X0221000Y0208500D03*
X0220900Y0221500D03*
X0210900Y0221500D03*
X0200900Y0221500D03*
X0146000Y0221000D03*
X0136000Y0221000D03*
X0113500Y0203500D03*
X0113500Y0193500D03*
D15*
X0171000Y0161846D03*
X0171000Y0155154D03*
X0181000Y0155154D03*
X0181000Y0161846D03*
X0188500Y0161846D03*
X0188500Y0155154D03*
X0196000Y0155154D03*
X0196000Y0161846D03*
X0211000Y0159346D03*
X0211000Y0152654D03*
D16*
X0223500Y0173500D03*
X0190900Y0221500D03*
X0128500Y0153500D03*
X0151000Y0136000D03*
D17*
X0169000Y0146000D03*
X0173000Y0146000D03*
X0181500Y0146000D03*
X0185500Y0146000D03*
D18*
X0266787Y0135193D03*
X0274661Y0135193D03*
X0282535Y0135193D03*
X0290409Y0135193D03*
X0298283Y0135193D03*
X0306157Y0135193D03*
X0314031Y0135193D03*
X0321906Y0135193D03*
X0329780Y0135193D03*
X0329780Y0221807D03*
X0337654Y0221807D03*
X0321906Y0221807D03*
X0314031Y0221807D03*
X0306157Y0221807D03*
X0298283Y0221807D03*
X0290409Y0221807D03*
X0282535Y0221807D03*
X0274661Y0221807D03*
X0266787Y0221807D03*
D19*
X0337654Y0135193D03*
D20*
X0175783Y0216472D03*
X0175783Y0225528D03*
X0161217Y0225528D03*
X0161217Y0216472D03*
D21*
X0316000Y0171512D03*
X0316000Y0160488D03*
D22*
X0336000Y0159563D03*
X0336000Y0167437D03*
D23*
X0336000Y0190094D03*
X0336000Y0201906D03*
D24*
X0283800Y0202600D03*
X0283800Y0193500D03*
X0283800Y0184400D03*
D25*
X0308201Y0193500D03*
D26*
X0233500Y0173500D03*
X0233500Y0163500D03*
X0223500Y0163500D03*
X0223500Y0153500D03*
X0233500Y0153500D03*
D27*
X0233700Y0144200D03*
X0228800Y0145300D03*
X0205440Y0162740D03*
X0213489Y0175311D03*
X0231100Y0186100D03*
X0221300Y0191100D03*
X0230700Y0195900D03*
X0242000Y0196000D03*
X0241400Y0201400D03*
X0261800Y0199200D03*
X0275100Y0188000D03*
X0270100Y0180400D03*
X0247700Y0176100D03*
X0213900Y0196900D03*
X0201400Y0213800D03*
X0194000Y0214311D03*
X0183500Y0226000D03*
X0153400Y0221000D03*
X0154800Y0198600D03*
X0166808Y0200408D03*
X0166300Y0188800D03*
X0166800Y0183400D03*
X0161700Y0178500D03*
X0150600Y0178700D03*
X0144800Y0176100D03*
X0137000Y0184100D03*
X0154600Y0188700D03*
X0168700Y0168200D03*
X0177700Y0167300D03*
X0184400Y0167400D03*
X0188700Y0167600D03*
X0165900Y0153743D03*
X0126900Y0163500D03*
X0291200Y0198600D03*
X0300700Y0211700D03*
X0306700Y0212400D03*
X0325800Y0209800D03*
D28*
X0318500Y0213500D03*
X0261000Y0183500D03*
X0253500Y0166000D03*
X0253500Y0148500D03*
X0263500Y0146000D03*
X0283500Y0146000D03*
X0316000Y0151000D03*
X0336000Y0146000D03*
X0246000Y0223500D03*
X0233500Y0223500D03*
X0201000Y0201000D03*
X0196000Y0201000D03*
X0191000Y0201000D03*
X0186000Y0201000D03*
X0181000Y0201000D03*
X0183500Y0196000D03*
X0188500Y0196000D03*
X0193500Y0196000D03*
X0198500Y0196000D03*
X0201000Y0191000D03*
X0196000Y0191000D03*
X0191000Y0191000D03*
X0186000Y0191000D03*
X0181000Y0191000D03*
X0183500Y0186000D03*
X0188500Y0186000D03*
X0193500Y0186000D03*
X0198500Y0186000D03*
X0201000Y0181000D03*
X0196000Y0181000D03*
X0191000Y0181000D03*
X0186000Y0181000D03*
X0181000Y0181000D03*
X0146000Y0166000D03*
X0133500Y0143500D03*
X0133500Y0188500D03*
D29*
X0140547Y0193047D03*
X0146000Y0203500D03*
X0128500Y0206000D03*
X0128500Y0213500D03*
M02*
