G75*
%MOIN*%
%OFA0B0*%
%FSLAX25Y25*%
%IPPOS*%
%LPD*%
%AMOC8*
5,1,8,0,0,1.08239X$1,22.5*
%
%ADD10R,0.04800X0.10800*%
%ADD11R,0.05131X0.04737*%
%ADD12R,0.06312X0.05524*%
%ADD13C,0.07800*%
%ADD14C,0.08200*%
%ADD15R,0.08200X0.08200*%
%ADD16C,0.06400*%
%ADD17R,0.06400X0.06400*%
%ADD18R,0.05524X0.06312*%
%ADD19R,0.04737X0.05131*%
%ADD20R,0.01902X0.03950*%
%ADD21R,0.03950X0.01902*%
%ADD22R,0.30918X0.30918*%
%ADD23R,0.10643X0.04737*%
%ADD24R,0.24422X0.10643*%
%ADD25R,0.06312X0.07099*%
%ADD26C,0.06500*%
%ADD27R,0.06706X0.03556*%
%ADD28R,0.03162X0.04737*%
%ADD29R,0.03950X0.04737*%
%ADD30C,0.04343*%
%ADD31OC8,0.08200*%
%ADD32C,0.03778*%
%ADD33C,0.04959*%
%ADD34C,0.03975*%
D10*
X0102800Y0173600D03*
X0128800Y0173600D03*
D11*
X0155154Y0173500D03*
X0161846Y0173500D03*
X0161846Y0183500D03*
X0155154Y0183500D03*
X0155154Y0193500D03*
X0161846Y0193500D03*
X0161846Y0203500D03*
X0155154Y0203500D03*
X0295154Y0193500D03*
X0301846Y0193500D03*
X0301846Y0183500D03*
X0295154Y0183500D03*
X0310154Y0183500D03*
X0316846Y0183500D03*
D12*
X0318500Y0192594D03*
X0318500Y0204406D03*
X0146000Y0209406D03*
X0136000Y0209406D03*
X0136000Y0197594D03*
X0146000Y0197594D03*
D13*
X0266000Y0191295D03*
X0266000Y0165705D03*
D14*
X0128500Y0136000D03*
X0138500Y0136000D03*
X0138500Y0153500D03*
X0148500Y0153500D03*
X0158500Y0153500D03*
X0161000Y0136000D03*
X0171000Y0136000D03*
X0181000Y0136000D03*
X0191000Y0136000D03*
X0201000Y0136000D03*
X0211000Y0136000D03*
X0221000Y0136000D03*
X0231000Y0136000D03*
X0241000Y0136000D03*
X0293500Y0168500D03*
X0298500Y0161000D03*
X0303500Y0168500D03*
X0326000Y0168500D03*
X0326000Y0158500D03*
X0356000Y0193500D03*
X0356000Y0203500D03*
X0271000Y0208500D03*
X0261000Y0208500D03*
X0251000Y0208500D03*
X0241000Y0208500D03*
X0231000Y0208500D03*
X0221000Y0208500D03*
X0220900Y0221500D03*
X0210900Y0221500D03*
X0200900Y0221500D03*
X0146000Y0221000D03*
X0136000Y0221000D03*
X0113500Y0203500D03*
X0113500Y0193500D03*
D15*
X0128500Y0153500D03*
X0151000Y0136000D03*
X0223500Y0173500D03*
X0190900Y0221500D03*
D16*
X0266787Y0221807D03*
X0274661Y0221807D03*
X0282535Y0221807D03*
X0290409Y0221807D03*
X0298283Y0221807D03*
X0306157Y0221807D03*
X0314031Y0221807D03*
X0321906Y0221807D03*
X0329780Y0221807D03*
X0337654Y0221807D03*
X0329780Y0135193D03*
X0321906Y0135193D03*
X0314031Y0135193D03*
X0306157Y0135193D03*
X0298283Y0135193D03*
X0290409Y0135193D03*
X0282535Y0135193D03*
X0274661Y0135193D03*
X0266787Y0135193D03*
D17*
X0337654Y0135193D03*
D18*
X0236906Y0186000D03*
X0236906Y0196000D03*
X0225094Y0196000D03*
X0225094Y0186000D03*
D19*
X0178500Y0217654D03*
X0178500Y0224346D03*
X0168500Y0224346D03*
X0168500Y0217654D03*
X0158500Y0217654D03*
X0158500Y0224346D03*
D20*
X0176236Y0208717D03*
X0178205Y0208717D03*
X0180173Y0208717D03*
X0182142Y0208717D03*
X0184110Y0208717D03*
X0186079Y0208717D03*
X0188047Y0208717D03*
X0190016Y0208717D03*
X0191984Y0208717D03*
X0193953Y0208717D03*
X0195921Y0208717D03*
X0197890Y0208717D03*
X0199858Y0208717D03*
X0201827Y0208717D03*
X0203795Y0208717D03*
X0205764Y0208717D03*
X0205764Y0173283D03*
X0203795Y0173283D03*
X0201827Y0173283D03*
X0199858Y0173283D03*
X0197890Y0173283D03*
X0195921Y0173283D03*
X0193953Y0173283D03*
X0191984Y0173283D03*
X0190016Y0173283D03*
X0188047Y0173283D03*
X0186079Y0173283D03*
X0184110Y0173283D03*
X0182142Y0173283D03*
X0180173Y0173283D03*
X0178205Y0173283D03*
X0176236Y0173283D03*
D21*
X0173283Y0176236D03*
X0173283Y0178205D03*
X0173283Y0180173D03*
X0173283Y0182142D03*
X0173283Y0184110D03*
X0173283Y0186079D03*
X0173283Y0188047D03*
X0173283Y0190016D03*
X0173283Y0191984D03*
X0173283Y0193953D03*
X0173283Y0195921D03*
X0173283Y0197890D03*
X0173283Y0199858D03*
X0173283Y0201827D03*
X0173283Y0203795D03*
X0173283Y0205764D03*
X0208717Y0205764D03*
X0208717Y0203795D03*
X0208717Y0201827D03*
X0208717Y0199858D03*
X0208717Y0197890D03*
X0208717Y0195921D03*
X0208717Y0193953D03*
X0208717Y0191984D03*
X0208717Y0190016D03*
X0208717Y0188047D03*
X0208717Y0186079D03*
X0208717Y0184110D03*
X0208717Y0182142D03*
X0208717Y0180173D03*
X0208717Y0178205D03*
X0208717Y0176236D03*
D22*
X0191000Y0191000D03*
D23*
X0169600Y0159200D03*
X0169600Y0149200D03*
D24*
X0189600Y0154200D03*
D25*
X0295488Y0206000D03*
X0306512Y0206000D03*
D26*
X0336000Y0167437D03*
X0336000Y0159563D03*
D27*
X0329110Y0187142D03*
X0329110Y0198953D03*
X0329110Y0204858D03*
D28*
X0339937Y0210370D03*
X0339937Y0181630D03*
D29*
X0331669Y0181630D03*
X0331669Y0210370D03*
D30*
X0336000Y0201906D03*
X0336000Y0190094D03*
D31*
X0233500Y0173500D03*
X0233500Y0163500D03*
X0223500Y0163500D03*
X0223500Y0153500D03*
X0233500Y0153500D03*
D32*
X0233700Y0144200D03*
X0228800Y0145300D03*
X0205440Y0162740D03*
X0213489Y0175311D03*
X0231100Y0186100D03*
X0221300Y0191100D03*
X0230700Y0195900D03*
X0242000Y0196000D03*
X0241400Y0201400D03*
X0261800Y0199200D03*
X0275100Y0188000D03*
X0270100Y0180400D03*
X0247700Y0176100D03*
X0213900Y0196900D03*
X0201400Y0213800D03*
X0194000Y0214311D03*
X0183500Y0226000D03*
X0153400Y0221000D03*
X0154800Y0198600D03*
X0166808Y0200408D03*
X0166300Y0188800D03*
X0166800Y0183400D03*
X0161700Y0178500D03*
X0150600Y0178700D03*
X0144800Y0176100D03*
X0137000Y0184100D03*
X0154600Y0188700D03*
X0168700Y0168200D03*
X0177700Y0167300D03*
X0184400Y0167400D03*
X0188700Y0167600D03*
X0165900Y0153743D03*
X0126900Y0163500D03*
X0291200Y0198600D03*
X0300700Y0211700D03*
X0306700Y0212400D03*
X0325800Y0209800D03*
D33*
X0318500Y0213500D03*
X0261000Y0183500D03*
X0253500Y0166000D03*
X0253500Y0148500D03*
X0263500Y0146000D03*
X0283500Y0146000D03*
X0316000Y0151000D03*
X0336000Y0146000D03*
X0246000Y0223500D03*
X0233500Y0223500D03*
X0201000Y0201000D03*
X0196000Y0201000D03*
X0191000Y0201000D03*
X0186000Y0201000D03*
X0181000Y0201000D03*
X0183500Y0196000D03*
X0188500Y0196000D03*
X0193500Y0196000D03*
X0198500Y0196000D03*
X0201000Y0191000D03*
X0196000Y0191000D03*
X0191000Y0191000D03*
X0186000Y0191000D03*
X0181000Y0191000D03*
X0183500Y0186000D03*
X0188500Y0186000D03*
X0193500Y0186000D03*
X0198500Y0186000D03*
X0201000Y0181000D03*
X0196000Y0181000D03*
X0191000Y0181000D03*
X0186000Y0181000D03*
X0181000Y0181000D03*
X0146000Y0166000D03*
X0133500Y0143500D03*
X0133500Y0188500D03*
D34*
X0140547Y0193047D03*
X0146000Y0203500D03*
X0128500Y0206000D03*
X0128500Y0213500D03*
M02*
