G75*
%MOIN*%
%OFA0B0*%
%FSLAX25Y25*%
%IPPOS*%
%LPD*%
%AMOC8*
5,1,8,0,0,1.08239X$1,22.5*
%
%ADD10R,0.04000X0.10000*%
%ADD11R,0.04331X0.03937*%
%ADD12R,0.05512X0.04724*%
%ADD13R,0.04724X0.05512*%
%ADD14R,0.03937X0.04331*%
%ADD15R,0.01102X0.03150*%
%ADD16R,0.03150X0.01102*%
%ADD17R,0.07087X0.07087*%
%ADD18R,0.07087X0.07874*%
%ADD19R,0.07874X0.07087*%
%ADD20R,0.07874X0.07874*%
%ADD21R,0.09843X0.03937*%
%ADD22R,0.23622X0.09843*%
%ADD23R,0.05512X0.06299*%
%ADD24R,0.05906X0.02756*%
%ADD25R,0.02362X0.03937*%
%ADD26R,0.03150X0.03937*%
D10*
X0102800Y0173600D03*
X0128800Y0173600D03*
D11*
X0155154Y0173500D03*
X0161846Y0173500D03*
X0161846Y0183500D03*
X0155154Y0183500D03*
X0155154Y0193500D03*
X0161846Y0193500D03*
X0161846Y0203500D03*
X0155154Y0203500D03*
X0295154Y0193500D03*
X0301846Y0193500D03*
X0301846Y0183500D03*
X0295154Y0183500D03*
X0310154Y0183500D03*
X0316846Y0183500D03*
D12*
X0318500Y0192594D03*
X0318500Y0204406D03*
X0146000Y0209406D03*
X0136000Y0209406D03*
X0136000Y0197594D03*
X0146000Y0197594D03*
D13*
X0225094Y0196000D03*
X0225094Y0186000D03*
X0236906Y0186000D03*
X0236906Y0196000D03*
D14*
X0178500Y0217654D03*
X0178500Y0224346D03*
X0168500Y0224346D03*
X0168500Y0217654D03*
X0158500Y0217654D03*
X0158500Y0224346D03*
D15*
X0176236Y0208717D03*
X0178205Y0208717D03*
X0180173Y0208717D03*
X0182142Y0208717D03*
X0184110Y0208717D03*
X0186079Y0208717D03*
X0188047Y0208717D03*
X0190016Y0208717D03*
X0191984Y0208717D03*
X0193953Y0208717D03*
X0195921Y0208717D03*
X0197890Y0208717D03*
X0199858Y0208717D03*
X0201827Y0208717D03*
X0203795Y0208717D03*
X0205764Y0208717D03*
X0205764Y0173283D03*
X0203795Y0173283D03*
X0201827Y0173283D03*
X0199858Y0173283D03*
X0197890Y0173283D03*
X0195921Y0173283D03*
X0193953Y0173283D03*
X0191984Y0173283D03*
X0190016Y0173283D03*
X0188047Y0173283D03*
X0186079Y0173283D03*
X0184110Y0173283D03*
X0182142Y0173283D03*
X0180173Y0173283D03*
X0178205Y0173283D03*
X0176236Y0173283D03*
D16*
X0173283Y0176236D03*
X0173283Y0178205D03*
X0173283Y0180173D03*
X0173283Y0182142D03*
X0173283Y0184110D03*
X0173283Y0186079D03*
X0173283Y0188047D03*
X0173283Y0190016D03*
X0173283Y0191984D03*
X0173283Y0193953D03*
X0173283Y0195921D03*
X0173283Y0197890D03*
X0173283Y0199858D03*
X0173283Y0201827D03*
X0173283Y0203795D03*
X0173283Y0205764D03*
X0208717Y0205764D03*
X0208717Y0203795D03*
X0208717Y0201827D03*
X0208717Y0199858D03*
X0208717Y0197890D03*
X0208717Y0195921D03*
X0208717Y0193953D03*
X0208717Y0191984D03*
X0208717Y0190016D03*
X0208717Y0188047D03*
X0208717Y0186079D03*
X0208717Y0184110D03*
X0208717Y0182142D03*
X0208717Y0180173D03*
X0208717Y0178205D03*
X0208717Y0176236D03*
D17*
X0200449Y0181551D03*
X0181551Y0181551D03*
X0181551Y0200449D03*
X0200449Y0200449D03*
D18*
X0200449Y0191000D03*
X0181551Y0191000D03*
D19*
X0191000Y0200449D03*
X0191000Y0181551D03*
D20*
X0191000Y0191000D03*
D21*
X0169600Y0149200D03*
X0169600Y0159200D03*
D22*
X0189600Y0154200D03*
D23*
X0295488Y0206000D03*
X0306512Y0206000D03*
D24*
X0329110Y0204858D03*
X0329110Y0198953D03*
X0329110Y0187142D03*
D25*
X0339937Y0181630D03*
X0339937Y0210370D03*
D26*
X0331669Y0210370D03*
X0331669Y0181630D03*
M02*
