G75*
%MOIN*%
%OFA0B0*%
%FSLAX25Y25*%
%IPPOS*%
%LPD*%
%AMOC8*
5,1,8,0,0,1.08239X$1,22.5*
%
%ADD10C,0.00500*%
%ADD11C,0.00800*%
%ADD12C,0.02200*%
%ADD13R,0.01800X0.03000*%
D10*
X0260882Y0129287D02*
X0343559Y0129287D01*
X0369150Y0158815D01*
X0369150Y0196217D01*
X0343559Y0227713D01*
X0260882Y0227713D01*
X0260882Y0129287D01*
X0312000Y0164500D02*
X0320000Y0164500D01*
X0142374Y0187200D02*
X0142376Y0187226D01*
X0142382Y0187252D01*
X0142391Y0187276D01*
X0142405Y0187299D01*
X0142421Y0187320D01*
X0142440Y0187338D01*
X0142462Y0187352D01*
X0142486Y0187364D01*
X0142511Y0187372D01*
X0142537Y0187376D01*
X0142563Y0187376D01*
X0142589Y0187372D01*
X0142614Y0187364D01*
X0142638Y0187352D01*
X0142660Y0187338D01*
X0142679Y0187320D01*
X0142695Y0187299D01*
X0142709Y0187276D01*
X0142718Y0187252D01*
X0142724Y0187226D01*
X0142726Y0187200D01*
X0142724Y0187174D01*
X0142718Y0187148D01*
X0142709Y0187124D01*
X0142695Y0187101D01*
X0142679Y0187080D01*
X0142660Y0187062D01*
X0142638Y0187048D01*
X0142614Y0187036D01*
X0142589Y0187028D01*
X0142563Y0187024D01*
X0142537Y0187024D01*
X0142511Y0187028D01*
X0142486Y0187036D01*
X0142462Y0187048D01*
X0142440Y0187062D01*
X0142421Y0187080D01*
X0142405Y0187101D01*
X0142391Y0187124D01*
X0142382Y0187148D01*
X0142376Y0187174D01*
X0142374Y0187200D01*
X0140406Y0187200D02*
X0140408Y0187226D01*
X0140414Y0187252D01*
X0140423Y0187276D01*
X0140437Y0187299D01*
X0140453Y0187320D01*
X0140472Y0187338D01*
X0140494Y0187352D01*
X0140518Y0187364D01*
X0140543Y0187372D01*
X0140569Y0187376D01*
X0140595Y0187376D01*
X0140621Y0187372D01*
X0140646Y0187364D01*
X0140670Y0187352D01*
X0140692Y0187338D01*
X0140711Y0187320D01*
X0140727Y0187299D01*
X0140741Y0187276D01*
X0140750Y0187252D01*
X0140756Y0187226D01*
X0140758Y0187200D01*
X0140756Y0187174D01*
X0140750Y0187148D01*
X0140741Y0187124D01*
X0140727Y0187101D01*
X0140711Y0187080D01*
X0140692Y0187062D01*
X0140670Y0187048D01*
X0140646Y0187036D01*
X0140621Y0187028D01*
X0140595Y0187024D01*
X0140569Y0187024D01*
X0140543Y0187028D01*
X0140518Y0187036D01*
X0140494Y0187048D01*
X0140472Y0187062D01*
X0140453Y0187080D01*
X0140437Y0187101D01*
X0140423Y0187124D01*
X0140414Y0187148D01*
X0140408Y0187174D01*
X0140406Y0187200D01*
D11*
X0167750Y0142000D02*
X0174250Y0142000D01*
X0174310Y0142002D01*
X0174371Y0142007D01*
X0174430Y0142016D01*
X0174489Y0142029D01*
X0174548Y0142045D01*
X0174605Y0142065D01*
X0174660Y0142088D01*
X0174715Y0142115D01*
X0174767Y0142144D01*
X0174818Y0142177D01*
X0174867Y0142213D01*
X0174913Y0142251D01*
X0174957Y0142293D01*
X0174999Y0142337D01*
X0175037Y0142383D01*
X0175073Y0142432D01*
X0175106Y0142483D01*
X0175135Y0142535D01*
X0175162Y0142590D01*
X0175185Y0142645D01*
X0175205Y0142702D01*
X0175221Y0142761D01*
X0175234Y0142820D01*
X0175243Y0142879D01*
X0175248Y0142940D01*
X0175250Y0143000D01*
X0179250Y0143000D02*
X0179252Y0142940D01*
X0179257Y0142879D01*
X0179266Y0142820D01*
X0179279Y0142761D01*
X0179295Y0142702D01*
X0179315Y0142645D01*
X0179338Y0142590D01*
X0179365Y0142535D01*
X0179394Y0142483D01*
X0179427Y0142432D01*
X0179463Y0142383D01*
X0179501Y0142337D01*
X0179543Y0142293D01*
X0179587Y0142251D01*
X0179633Y0142213D01*
X0179682Y0142177D01*
X0179733Y0142144D01*
X0179785Y0142115D01*
X0179840Y0142088D01*
X0179895Y0142065D01*
X0179952Y0142045D01*
X0180011Y0142029D01*
X0180070Y0142016D01*
X0180129Y0142007D01*
X0180190Y0142002D01*
X0180250Y0142000D01*
X0186750Y0142000D01*
X0186810Y0142002D01*
X0186871Y0142007D01*
X0186930Y0142016D01*
X0186989Y0142029D01*
X0187048Y0142045D01*
X0187105Y0142065D01*
X0187160Y0142088D01*
X0187215Y0142115D01*
X0187267Y0142144D01*
X0187318Y0142177D01*
X0187367Y0142213D01*
X0187413Y0142251D01*
X0187457Y0142293D01*
X0187499Y0142337D01*
X0187537Y0142383D01*
X0187573Y0142432D01*
X0187606Y0142483D01*
X0187635Y0142535D01*
X0187662Y0142590D01*
X0187685Y0142645D01*
X0187705Y0142702D01*
X0187721Y0142761D01*
X0187734Y0142820D01*
X0187743Y0142879D01*
X0187748Y0142940D01*
X0187750Y0143000D01*
X0187750Y0149000D02*
X0187748Y0149060D01*
X0187743Y0149121D01*
X0187734Y0149180D01*
X0187721Y0149239D01*
X0187705Y0149298D01*
X0187685Y0149355D01*
X0187662Y0149410D01*
X0187635Y0149465D01*
X0187606Y0149517D01*
X0187573Y0149568D01*
X0187537Y0149617D01*
X0187499Y0149663D01*
X0187457Y0149707D01*
X0187413Y0149749D01*
X0187367Y0149787D01*
X0187318Y0149823D01*
X0187267Y0149856D01*
X0187215Y0149885D01*
X0187160Y0149912D01*
X0187105Y0149935D01*
X0187048Y0149955D01*
X0186989Y0149971D01*
X0186930Y0149984D01*
X0186871Y0149993D01*
X0186810Y0149998D01*
X0186750Y0150000D01*
X0180250Y0150000D01*
X0180190Y0149998D01*
X0180129Y0149993D01*
X0180070Y0149984D01*
X0180011Y0149971D01*
X0179952Y0149955D01*
X0179895Y0149935D01*
X0179840Y0149912D01*
X0179785Y0149885D01*
X0179733Y0149856D01*
X0179682Y0149823D01*
X0179633Y0149787D01*
X0179587Y0149749D01*
X0179543Y0149707D01*
X0179501Y0149663D01*
X0179463Y0149617D01*
X0179427Y0149568D01*
X0179394Y0149517D01*
X0179365Y0149465D01*
X0179338Y0149410D01*
X0179315Y0149355D01*
X0179295Y0149298D01*
X0179279Y0149239D01*
X0179266Y0149180D01*
X0179257Y0149121D01*
X0179252Y0149060D01*
X0179250Y0149000D01*
X0175250Y0149000D02*
X0175248Y0149060D01*
X0175243Y0149121D01*
X0175234Y0149180D01*
X0175221Y0149239D01*
X0175205Y0149298D01*
X0175185Y0149355D01*
X0175162Y0149410D01*
X0175135Y0149465D01*
X0175106Y0149517D01*
X0175073Y0149568D01*
X0175037Y0149617D01*
X0174999Y0149663D01*
X0174957Y0149707D01*
X0174913Y0149749D01*
X0174867Y0149787D01*
X0174818Y0149823D01*
X0174767Y0149856D01*
X0174715Y0149885D01*
X0174660Y0149912D01*
X0174605Y0149935D01*
X0174548Y0149955D01*
X0174489Y0149971D01*
X0174430Y0149984D01*
X0174371Y0149993D01*
X0174310Y0149998D01*
X0174250Y0150000D01*
X0167750Y0150000D01*
X0167690Y0149998D01*
X0167629Y0149993D01*
X0167570Y0149984D01*
X0167511Y0149971D01*
X0167452Y0149955D01*
X0167395Y0149935D01*
X0167340Y0149912D01*
X0167285Y0149885D01*
X0167233Y0149856D01*
X0167182Y0149823D01*
X0167133Y0149787D01*
X0167087Y0149749D01*
X0167043Y0149707D01*
X0167001Y0149663D01*
X0166963Y0149617D01*
X0166927Y0149568D01*
X0166894Y0149517D01*
X0166865Y0149465D01*
X0166838Y0149410D01*
X0166815Y0149355D01*
X0166795Y0149298D01*
X0166779Y0149239D01*
X0166766Y0149180D01*
X0166757Y0149121D01*
X0166752Y0149060D01*
X0166750Y0149000D01*
X0166750Y0143000D02*
X0166752Y0142940D01*
X0166757Y0142879D01*
X0166766Y0142820D01*
X0166779Y0142761D01*
X0166795Y0142702D01*
X0166815Y0142645D01*
X0166838Y0142590D01*
X0166865Y0142535D01*
X0166894Y0142483D01*
X0166927Y0142432D01*
X0166963Y0142383D01*
X0167001Y0142337D01*
X0167043Y0142293D01*
X0167087Y0142251D01*
X0167133Y0142213D01*
X0167182Y0142177D01*
X0167233Y0142144D01*
X0167285Y0142115D01*
X0167340Y0142088D01*
X0167395Y0142065D01*
X0167452Y0142045D01*
X0167511Y0142029D01*
X0167570Y0142016D01*
X0167629Y0142007D01*
X0167690Y0142002D01*
X0167750Y0142000D01*
X0150031Y0184346D02*
X0149637Y0184346D01*
X0150031Y0184346D02*
X0150031Y0190054D01*
X0149637Y0190054D01*
X0141763Y0190054D02*
X0141369Y0190054D01*
X0141369Y0184346D01*
X0141763Y0184346D01*
X0121000Y0188500D02*
X0106000Y0188500D01*
X0158657Y0219819D02*
X0158657Y0222181D01*
X0166138Y0227299D02*
X0170862Y0227299D01*
X0178343Y0222181D02*
X0178343Y0219819D01*
X0170862Y0214701D02*
X0166138Y0214701D01*
X0276039Y0174543D02*
X0276039Y0167457D01*
X0276039Y0164031D02*
X0280961Y0164031D01*
X0280961Y0167457D02*
X0280961Y0174543D01*
X0289500Y0180600D02*
X0302500Y0180600D01*
X0302500Y0206400D01*
X0289500Y0206400D01*
X0289500Y0180600D01*
X0311276Y0175843D02*
X0311276Y0169937D01*
X0320724Y0169937D02*
X0320724Y0175843D01*
X0311276Y0175843D01*
X0311276Y0162063D02*
X0311276Y0157732D01*
X0312850Y0156157D01*
X0319150Y0156157D01*
X0320724Y0157732D01*
X0320724Y0162063D01*
X0348500Y0188500D02*
X0363500Y0188500D01*
D12*
X0286000Y0210880D02*
X0286000Y0211120D01*
X0211120Y0156000D02*
X0210880Y0156000D01*
X0196120Y0158500D02*
X0195880Y0158500D01*
X0181120Y0158500D02*
X0180880Y0158500D01*
X0171120Y0158500D02*
X0170880Y0158500D01*
X0158500Y0203380D02*
X0158500Y0203620D01*
D13*
X0158500Y0193500D03*
X0158500Y0183500D03*
X0222100Y0185800D03*
X0222100Y0195600D03*
X0251000Y0193500D03*
X0251000Y0183500D03*
M02*
