G75*
%MOIN*%
%OFA0B0*%
%FSLAX25Y25*%
%IPPOS*%
%LPD*%
%AMOC8*
5,1,8,0,0,1.08239X$1,22.5*
%
%ADD10C,0.00000*%
%ADD11C,0.00800*%
%ADD12R,0.04000X0.10000*%
%ADD13R,0.04331X0.03937*%
%ADD14R,0.05512X0.04724*%
%ADD15C,0.07000*%
%ADD16C,0.07400*%
%ADD17R,0.07400X0.07400*%
%ADD18C,0.05600*%
%ADD19R,0.05600X0.05600*%
%ADD20R,0.04724X0.05512*%
%ADD21R,0.03937X0.04331*%
%ADD22R,0.01102X0.03150*%
%ADD23R,0.03150X0.01102*%
%ADD24R,0.30118X0.30118*%
%ADD25R,0.09843X0.03937*%
%ADD26R,0.23622X0.09843*%
%ADD27R,0.05512X0.06299*%
%ADD28C,0.05700*%
%ADD29R,0.05906X0.02756*%
%ADD30R,0.02362X0.03937*%
%ADD31R,0.03150X0.03937*%
%ADD32OC8,0.07400*%
%ADD33C,0.02978*%
%ADD34C,0.04159*%
%ADD35C,0.00600*%
%ADD36C,0.03175*%
D10*
X0001000Y0001000D02*
X0001000Y0394701D01*
X0630921Y0394701D01*
X0630921Y0001000D01*
X0001000Y0001000D01*
X0334228Y0190094D02*
X0334230Y0190178D01*
X0334236Y0190261D01*
X0334246Y0190344D01*
X0334260Y0190427D01*
X0334277Y0190509D01*
X0334299Y0190590D01*
X0334324Y0190669D01*
X0334353Y0190748D01*
X0334386Y0190825D01*
X0334422Y0190900D01*
X0334462Y0190974D01*
X0334505Y0191046D01*
X0334552Y0191115D01*
X0334602Y0191182D01*
X0334655Y0191247D01*
X0334711Y0191309D01*
X0334769Y0191369D01*
X0334831Y0191426D01*
X0334895Y0191479D01*
X0334962Y0191530D01*
X0335031Y0191577D01*
X0335102Y0191622D01*
X0335175Y0191662D01*
X0335250Y0191699D01*
X0335327Y0191733D01*
X0335405Y0191763D01*
X0335484Y0191789D01*
X0335565Y0191812D01*
X0335647Y0191830D01*
X0335729Y0191845D01*
X0335812Y0191856D01*
X0335895Y0191863D01*
X0335979Y0191866D01*
X0336063Y0191865D01*
X0336146Y0191860D01*
X0336230Y0191851D01*
X0336312Y0191838D01*
X0336394Y0191822D01*
X0336475Y0191801D01*
X0336556Y0191777D01*
X0336634Y0191749D01*
X0336712Y0191717D01*
X0336788Y0191681D01*
X0336862Y0191642D01*
X0336934Y0191600D01*
X0337004Y0191554D01*
X0337072Y0191505D01*
X0337137Y0191453D01*
X0337200Y0191398D01*
X0337260Y0191340D01*
X0337318Y0191279D01*
X0337372Y0191215D01*
X0337424Y0191149D01*
X0337472Y0191081D01*
X0337517Y0191010D01*
X0337558Y0190937D01*
X0337597Y0190863D01*
X0337631Y0190787D01*
X0337662Y0190709D01*
X0337689Y0190630D01*
X0337713Y0190549D01*
X0337732Y0190468D01*
X0337748Y0190386D01*
X0337760Y0190303D01*
X0337768Y0190219D01*
X0337772Y0190136D01*
X0337772Y0190052D01*
X0337768Y0189969D01*
X0337760Y0189885D01*
X0337748Y0189802D01*
X0337732Y0189720D01*
X0337713Y0189639D01*
X0337689Y0189558D01*
X0337662Y0189479D01*
X0337631Y0189401D01*
X0337597Y0189325D01*
X0337558Y0189251D01*
X0337517Y0189178D01*
X0337472Y0189107D01*
X0337424Y0189039D01*
X0337372Y0188973D01*
X0337318Y0188909D01*
X0337260Y0188848D01*
X0337200Y0188790D01*
X0337137Y0188735D01*
X0337072Y0188683D01*
X0337004Y0188634D01*
X0336934Y0188588D01*
X0336862Y0188546D01*
X0336788Y0188507D01*
X0336712Y0188471D01*
X0336634Y0188439D01*
X0336556Y0188411D01*
X0336475Y0188387D01*
X0336394Y0188366D01*
X0336312Y0188350D01*
X0336230Y0188337D01*
X0336146Y0188328D01*
X0336063Y0188323D01*
X0335979Y0188322D01*
X0335895Y0188325D01*
X0335812Y0188332D01*
X0335729Y0188343D01*
X0335647Y0188358D01*
X0335565Y0188376D01*
X0335484Y0188399D01*
X0335405Y0188425D01*
X0335327Y0188455D01*
X0335250Y0188489D01*
X0335175Y0188526D01*
X0335102Y0188566D01*
X0335031Y0188611D01*
X0334962Y0188658D01*
X0334895Y0188709D01*
X0334831Y0188762D01*
X0334769Y0188819D01*
X0334711Y0188879D01*
X0334655Y0188941D01*
X0334602Y0189006D01*
X0334552Y0189073D01*
X0334505Y0189142D01*
X0334462Y0189214D01*
X0334422Y0189288D01*
X0334386Y0189363D01*
X0334353Y0189440D01*
X0334324Y0189519D01*
X0334299Y0189598D01*
X0334277Y0189679D01*
X0334260Y0189761D01*
X0334246Y0189844D01*
X0334236Y0189927D01*
X0334230Y0190010D01*
X0334228Y0190094D01*
X0334228Y0201906D02*
X0334230Y0201990D01*
X0334236Y0202073D01*
X0334246Y0202156D01*
X0334260Y0202239D01*
X0334277Y0202321D01*
X0334299Y0202402D01*
X0334324Y0202481D01*
X0334353Y0202560D01*
X0334386Y0202637D01*
X0334422Y0202712D01*
X0334462Y0202786D01*
X0334505Y0202858D01*
X0334552Y0202927D01*
X0334602Y0202994D01*
X0334655Y0203059D01*
X0334711Y0203121D01*
X0334769Y0203181D01*
X0334831Y0203238D01*
X0334895Y0203291D01*
X0334962Y0203342D01*
X0335031Y0203389D01*
X0335102Y0203434D01*
X0335175Y0203474D01*
X0335250Y0203511D01*
X0335327Y0203545D01*
X0335405Y0203575D01*
X0335484Y0203601D01*
X0335565Y0203624D01*
X0335647Y0203642D01*
X0335729Y0203657D01*
X0335812Y0203668D01*
X0335895Y0203675D01*
X0335979Y0203678D01*
X0336063Y0203677D01*
X0336146Y0203672D01*
X0336230Y0203663D01*
X0336312Y0203650D01*
X0336394Y0203634D01*
X0336475Y0203613D01*
X0336556Y0203589D01*
X0336634Y0203561D01*
X0336712Y0203529D01*
X0336788Y0203493D01*
X0336862Y0203454D01*
X0336934Y0203412D01*
X0337004Y0203366D01*
X0337072Y0203317D01*
X0337137Y0203265D01*
X0337200Y0203210D01*
X0337260Y0203152D01*
X0337318Y0203091D01*
X0337372Y0203027D01*
X0337424Y0202961D01*
X0337472Y0202893D01*
X0337517Y0202822D01*
X0337558Y0202749D01*
X0337597Y0202675D01*
X0337631Y0202599D01*
X0337662Y0202521D01*
X0337689Y0202442D01*
X0337713Y0202361D01*
X0337732Y0202280D01*
X0337748Y0202198D01*
X0337760Y0202115D01*
X0337768Y0202031D01*
X0337772Y0201948D01*
X0337772Y0201864D01*
X0337768Y0201781D01*
X0337760Y0201697D01*
X0337748Y0201614D01*
X0337732Y0201532D01*
X0337713Y0201451D01*
X0337689Y0201370D01*
X0337662Y0201291D01*
X0337631Y0201213D01*
X0337597Y0201137D01*
X0337558Y0201063D01*
X0337517Y0200990D01*
X0337472Y0200919D01*
X0337424Y0200851D01*
X0337372Y0200785D01*
X0337318Y0200721D01*
X0337260Y0200660D01*
X0337200Y0200602D01*
X0337137Y0200547D01*
X0337072Y0200495D01*
X0337004Y0200446D01*
X0336934Y0200400D01*
X0336862Y0200358D01*
X0336788Y0200319D01*
X0336712Y0200283D01*
X0336634Y0200251D01*
X0336556Y0200223D01*
X0336475Y0200199D01*
X0336394Y0200178D01*
X0336312Y0200162D01*
X0336230Y0200149D01*
X0336146Y0200140D01*
X0336063Y0200135D01*
X0335979Y0200134D01*
X0335895Y0200137D01*
X0335812Y0200144D01*
X0335729Y0200155D01*
X0335647Y0200170D01*
X0335565Y0200188D01*
X0335484Y0200211D01*
X0335405Y0200237D01*
X0335327Y0200267D01*
X0335250Y0200301D01*
X0335175Y0200338D01*
X0335102Y0200378D01*
X0335031Y0200423D01*
X0334962Y0200470D01*
X0334895Y0200521D01*
X0334831Y0200574D01*
X0334769Y0200631D01*
X0334711Y0200691D01*
X0334655Y0200753D01*
X0334602Y0200818D01*
X0334552Y0200885D01*
X0334505Y0200954D01*
X0334462Y0201026D01*
X0334422Y0201100D01*
X0334386Y0201175D01*
X0334353Y0201252D01*
X0334324Y0201331D01*
X0334299Y0201410D01*
X0334277Y0201491D01*
X0334260Y0201573D01*
X0334246Y0201656D01*
X0334236Y0201739D01*
X0334230Y0201822D01*
X0334228Y0201906D01*
D11*
X0329828Y0202225D02*
X0322656Y0202225D01*
X0322656Y0201859D02*
X0322656Y0204006D01*
X0318900Y0204006D01*
X0318900Y0204805D01*
X0322656Y0204805D01*
X0322656Y0206952D01*
X0322560Y0207308D01*
X0322376Y0207627D01*
X0322116Y0207888D01*
X0321796Y0208072D01*
X0321440Y0208168D01*
X0318900Y0208168D01*
X0318900Y0204806D01*
X0318100Y0204806D01*
X0318100Y0208168D01*
X0315560Y0208168D01*
X0315204Y0208072D01*
X0314884Y0207888D01*
X0314624Y0207627D01*
X0314440Y0207308D01*
X0314344Y0206952D01*
X0314344Y0204805D01*
X0318100Y0204805D01*
X0318100Y0204006D01*
X0314344Y0204006D01*
X0314344Y0201859D01*
X0314440Y0201503D01*
X0314624Y0201184D01*
X0314884Y0200923D01*
X0315204Y0200739D01*
X0315560Y0200643D01*
X0318100Y0200643D01*
X0318100Y0204005D01*
X0318900Y0204005D01*
X0318900Y0200643D01*
X0321440Y0200643D01*
X0321796Y0200739D01*
X0322116Y0200923D01*
X0322376Y0201184D01*
X0322560Y0201503D01*
X0322656Y0201859D01*
X0322516Y0201426D02*
X0329828Y0201426D01*
X0329828Y0201331D02*
X0325743Y0201331D01*
X0325157Y0200745D01*
X0325157Y0197161D01*
X0325743Y0196575D01*
X0327710Y0196575D01*
X0327710Y0193467D01*
X0324578Y0190334D01*
X0323757Y0189514D01*
X0323757Y0174884D01*
X0320720Y0171847D01*
X0319900Y0171027D01*
X0319900Y0162620D01*
X0321823Y0160697D01*
X0321300Y0159435D01*
X0321300Y0157565D01*
X0322016Y0155838D01*
X0323338Y0154516D01*
X0325065Y0153800D01*
X0326935Y0153800D01*
X0328662Y0154516D01*
X0329984Y0155838D01*
X0330507Y0157100D01*
X0333018Y0157100D01*
X0333819Y0156299D01*
X0335234Y0155713D01*
X0336766Y0155713D01*
X0338181Y0156299D01*
X0339264Y0157382D01*
X0339850Y0158797D01*
X0339850Y0160329D01*
X0339264Y0161744D01*
X0338181Y0162827D01*
X0337031Y0163303D01*
X0337631Y0163498D01*
X0338227Y0163802D01*
X0338769Y0164195D01*
X0339242Y0164668D01*
X0339635Y0165210D01*
X0339939Y0165806D01*
X0340145Y0166442D01*
X0340250Y0167103D01*
X0340250Y0167148D01*
X0336289Y0167148D01*
X0336289Y0167726D01*
X0340250Y0167726D01*
X0340250Y0167771D01*
X0340145Y0168432D01*
X0339939Y0169068D01*
X0339635Y0169664D01*
X0339242Y0170206D01*
X0338769Y0170679D01*
X0338227Y0171072D01*
X0337631Y0171376D01*
X0336995Y0171582D01*
X0336334Y0171687D01*
X0336289Y0171687D01*
X0336289Y0167726D01*
X0335711Y0167726D01*
X0335711Y0167148D01*
X0335711Y0163413D01*
X0336289Y0163413D01*
X0336289Y0167148D01*
X0335711Y0167148D01*
X0331750Y0167148D01*
X0331750Y0167103D01*
X0331855Y0166442D01*
X0332061Y0165806D01*
X0332365Y0165210D01*
X0332758Y0164668D01*
X0333231Y0164195D01*
X0333773Y0163802D01*
X0334369Y0163498D01*
X0334969Y0163303D01*
X0333819Y0162827D01*
X0332736Y0161744D01*
X0332150Y0160329D01*
X0332150Y0159900D01*
X0330507Y0159900D01*
X0329984Y0161162D01*
X0328662Y0162484D01*
X0326935Y0163200D01*
X0325065Y0163200D01*
X0323803Y0162677D01*
X0322700Y0163780D01*
X0322700Y0164594D01*
X0323327Y0164138D01*
X0324042Y0163774D01*
X0324806Y0163526D01*
X0325599Y0163400D01*
X0325600Y0163400D01*
X0325600Y0168100D01*
X0326400Y0168100D01*
X0326400Y0168900D01*
X0331100Y0168900D01*
X0331100Y0168901D01*
X0330974Y0169694D01*
X0330726Y0170458D01*
X0330362Y0171173D01*
X0329890Y0171822D01*
X0329322Y0172390D01*
X0328673Y0172862D01*
X0327958Y0173226D01*
X0327194Y0173474D01*
X0326429Y0173596D01*
X0326557Y0173724D01*
X0326557Y0184764D01*
X0332477Y0184764D01*
X0332555Y0184841D01*
X0333141Y0184598D01*
X0329680Y0184598D01*
X0329094Y0184013D01*
X0329094Y0179247D01*
X0329680Y0178661D01*
X0333658Y0178661D01*
X0334244Y0179247D01*
X0334244Y0184013D01*
X0334024Y0184233D01*
X0334772Y0183923D01*
X0337228Y0183923D01*
X0337976Y0184233D01*
X0337756Y0184013D01*
X0337756Y0179247D01*
X0338342Y0178661D01*
X0341532Y0178661D01*
X0342118Y0179247D01*
X0342118Y0184013D01*
X0341532Y0184598D01*
X0338859Y0184598D01*
X0339496Y0184862D01*
X0341232Y0186599D01*
X0342172Y0188867D01*
X0342172Y0191322D01*
X0341232Y0193590D01*
X0339496Y0195327D01*
X0337870Y0196000D01*
X0339496Y0196673D01*
X0341232Y0198410D01*
X0342172Y0200678D01*
X0342172Y0203133D01*
X0341232Y0205401D01*
X0339496Y0207138D01*
X0338859Y0207402D01*
X0341532Y0207402D01*
X0342118Y0207987D01*
X0342118Y0212753D01*
X0341532Y0213339D01*
X0338342Y0213339D01*
X0337756Y0212753D01*
X0337756Y0207987D01*
X0337976Y0207767D01*
X0337228Y0208077D01*
X0334772Y0208077D01*
X0334024Y0207767D01*
X0334244Y0207987D01*
X0334244Y0212753D01*
X0333658Y0213339D01*
X0329680Y0213339D01*
X0329094Y0212753D01*
X0329094Y0207987D01*
X0329680Y0207402D01*
X0333141Y0207402D01*
X0332555Y0207159D01*
X0332477Y0207236D01*
X0328712Y0207236D01*
X0327734Y0208214D01*
X0327910Y0208390D01*
X0328289Y0209305D01*
X0328289Y0210295D01*
X0327910Y0211210D01*
X0327210Y0211910D01*
X0326295Y0212289D01*
X0325305Y0212289D01*
X0324390Y0211910D01*
X0323690Y0211210D01*
X0323311Y0210295D01*
X0323311Y0209305D01*
X0323690Y0208390D01*
X0324390Y0207690D01*
X0324400Y0207686D01*
X0324400Y0207589D01*
X0325248Y0206741D01*
X0325157Y0206650D01*
X0325157Y0203066D01*
X0325743Y0202480D01*
X0329828Y0202480D01*
X0329828Y0201331D01*
X0329110Y0198953D02*
X0329110Y0192887D01*
X0325157Y0188934D01*
X0325157Y0174304D01*
X0321300Y0170447D01*
X0321300Y0163200D01*
X0326000Y0158500D01*
X0334937Y0158500D01*
X0336000Y0159563D01*
X0338708Y0162299D02*
X0343500Y0162299D01*
X0343500Y0161501D02*
X0339365Y0161501D01*
X0339850Y0161158D02*
X0336000Y0165008D01*
X0336000Y0167437D01*
X0335469Y0167969D01*
X0335469Y0172598D01*
X0342118Y0179247D01*
X0342118Y0179618D01*
X0356000Y0193500D01*
X0343500Y0193441D02*
X0341294Y0193441D01*
X0341625Y0192643D02*
X0343500Y0192643D01*
X0343500Y0191844D02*
X0341955Y0191844D01*
X0342172Y0191046D02*
X0343500Y0191046D01*
X0343500Y0190247D02*
X0342172Y0190247D01*
X0342172Y0189449D02*
X0343500Y0189449D01*
X0343500Y0188650D02*
X0342082Y0188650D01*
X0341751Y0187852D02*
X0343500Y0187852D01*
X0343500Y0187053D02*
X0341420Y0187053D01*
X0340888Y0186255D02*
X0343500Y0186255D01*
X0343500Y0185456D02*
X0340090Y0185456D01*
X0339001Y0184658D02*
X0343500Y0184658D01*
X0343500Y0183859D02*
X0342118Y0183859D01*
X0342118Y0183061D02*
X0343500Y0183061D01*
X0343500Y0182262D02*
X0342118Y0182262D01*
X0342118Y0181464D02*
X0343500Y0181464D01*
X0343500Y0180665D02*
X0342118Y0180665D01*
X0342118Y0179867D02*
X0343500Y0179867D01*
X0343500Y0179068D02*
X0341939Y0179068D01*
X0343500Y0178270D02*
X0326557Y0178270D01*
X0326557Y0179068D02*
X0329274Y0179068D01*
X0329094Y0179867D02*
X0326557Y0179867D01*
X0326557Y0180665D02*
X0329094Y0180665D01*
X0329094Y0181464D02*
X0326557Y0181464D01*
X0326557Y0182262D02*
X0329094Y0182262D01*
X0329094Y0183061D02*
X0326557Y0183061D01*
X0326557Y0183859D02*
X0329094Y0183859D01*
X0326557Y0184658D02*
X0332998Y0184658D01*
X0334244Y0183859D02*
X0337756Y0183859D01*
X0337756Y0183061D02*
X0334244Y0183061D01*
X0334244Y0182262D02*
X0337756Y0182262D01*
X0337756Y0181464D02*
X0334244Y0181464D01*
X0334244Y0180665D02*
X0337756Y0180665D01*
X0337756Y0179867D02*
X0334244Y0179867D01*
X0334065Y0179068D02*
X0337935Y0179068D01*
X0343500Y0177471D02*
X0326557Y0177471D01*
X0326557Y0176672D02*
X0343500Y0176672D01*
X0343500Y0175874D02*
X0326557Y0175874D01*
X0326557Y0175075D02*
X0343500Y0175075D01*
X0343500Y0174277D02*
X0326557Y0174277D01*
X0327169Y0173478D02*
X0343500Y0173478D01*
X0343500Y0172680D02*
X0328923Y0172680D01*
X0329831Y0171881D02*
X0343500Y0171881D01*
X0343500Y0171083D02*
X0338206Y0171083D01*
X0339163Y0170284D02*
X0343500Y0170284D01*
X0343500Y0169486D02*
X0339726Y0169486D01*
X0340062Y0168687D02*
X0343500Y0168687D01*
X0343500Y0167889D02*
X0340231Y0167889D01*
X0340248Y0167090D02*
X0343500Y0167090D01*
X0343500Y0166292D02*
X0340097Y0166292D01*
X0339780Y0165493D02*
X0343500Y0165493D01*
X0343500Y0164695D02*
X0339261Y0164695D01*
X0338357Y0163896D02*
X0343500Y0163896D01*
X0343500Y0163098D02*
X0337527Y0163098D01*
X0336289Y0163896D02*
X0335711Y0163896D01*
X0335711Y0164695D02*
X0336289Y0164695D01*
X0336289Y0165493D02*
X0335711Y0165493D01*
X0335711Y0166292D02*
X0336289Y0166292D01*
X0336289Y0167090D02*
X0335711Y0167090D01*
X0335711Y0167726D02*
X0331750Y0167726D01*
X0331750Y0167771D01*
X0331855Y0168432D01*
X0332061Y0169068D01*
X0332365Y0169664D01*
X0332758Y0170206D01*
X0333231Y0170679D01*
X0333773Y0171072D01*
X0334369Y0171376D01*
X0335005Y0171582D01*
X0335666Y0171687D01*
X0335711Y0171687D01*
X0335711Y0167726D01*
X0335711Y0167889D02*
X0336289Y0167889D01*
X0336289Y0168687D02*
X0335711Y0168687D01*
X0335469Y0167969D02*
X0334937Y0168500D01*
X0326000Y0168500D01*
X0326400Y0168687D02*
X0331938Y0168687D01*
X0331769Y0167889D02*
X0331067Y0167889D01*
X0331100Y0168099D02*
X0331100Y0168100D01*
X0326400Y0168100D01*
X0326400Y0163400D01*
X0326401Y0163400D01*
X0327194Y0163526D01*
X0327958Y0163774D01*
X0328673Y0164138D01*
X0329322Y0164610D01*
X0329890Y0165178D01*
X0330362Y0165827D01*
X0330726Y0166542D01*
X0330974Y0167306D01*
X0331100Y0168099D01*
X0330904Y0167090D02*
X0331752Y0167090D01*
X0331903Y0166292D02*
X0330599Y0166292D01*
X0330119Y0165493D02*
X0332220Y0165493D01*
X0332739Y0164695D02*
X0329407Y0164695D01*
X0328198Y0163896D02*
X0333643Y0163896D01*
X0334473Y0163098D02*
X0327182Y0163098D01*
X0326400Y0163896D02*
X0325600Y0163896D01*
X0325600Y0164695D02*
X0326400Y0164695D01*
X0326400Y0165493D02*
X0325600Y0165493D01*
X0325600Y0166292D02*
X0326400Y0166292D01*
X0326400Y0167090D02*
X0325600Y0167090D01*
X0325600Y0167889D02*
X0326400Y0167889D01*
X0323802Y0163896D02*
X0322700Y0163896D01*
X0323382Y0163098D02*
X0324818Y0163098D01*
X0321818Y0160702D02*
X0303200Y0160702D01*
X0303200Y0160065D02*
X0303200Y0161935D01*
X0302484Y0163662D01*
X0302192Y0163954D01*
X0302565Y0163800D01*
X0304435Y0163800D01*
X0306162Y0164516D01*
X0307484Y0165838D01*
X0308200Y0167565D01*
X0308200Y0169435D01*
X0307484Y0171162D01*
X0306162Y0172484D01*
X0304435Y0173200D01*
X0302565Y0173200D01*
X0300838Y0172484D01*
X0299516Y0171162D01*
X0298800Y0169435D01*
X0298800Y0167565D01*
X0299516Y0165838D01*
X0299808Y0165546D01*
X0299435Y0165700D01*
X0297770Y0165700D01*
X0297862Y0165827D01*
X0298226Y0166542D01*
X0298474Y0167306D01*
X0298600Y0168099D01*
X0298600Y0168100D01*
X0293900Y0168100D01*
X0293900Y0168900D01*
X0298600Y0168900D01*
X0298600Y0168901D01*
X0298474Y0169694D01*
X0298226Y0170458D01*
X0297862Y0171173D01*
X0297390Y0171822D01*
X0296822Y0172390D01*
X0296173Y0172862D01*
X0295458Y0173226D01*
X0294694Y0173474D01*
X0293929Y0173596D01*
X0296554Y0176220D01*
X0296554Y0180531D01*
X0297287Y0180531D01*
X0298687Y0179131D01*
X0305006Y0179131D01*
X0306990Y0181116D01*
X0307574Y0180531D01*
X0312733Y0180531D01*
X0313319Y0181117D01*
X0313319Y0185883D01*
X0312733Y0186469D01*
X0312733Y0186468D02*
X0307574Y0186468D01*
X0306988Y0185883D01*
X0306988Y0184900D01*
X0306815Y0184900D01*
X0305015Y0183100D01*
X0302246Y0183100D01*
X0302246Y0183900D01*
X0301446Y0183900D01*
X0301446Y0186868D01*
X0299497Y0186868D01*
X0299141Y0186773D01*
X0298821Y0186589D01*
X0298561Y0186328D01*
X0298377Y0186009D01*
X0298319Y0185794D01*
X0298319Y0185883D01*
X0297733Y0186468D01*
X0296554Y0186468D01*
X0296554Y0190531D01*
X0297733Y0190531D01*
X0298319Y0191117D01*
X0298319Y0191206D01*
X0298377Y0190991D01*
X0298561Y0190672D01*
X0298821Y0190411D01*
X0299141Y0190227D01*
X0299497Y0190131D01*
X0301446Y0190131D01*
X0301446Y0193100D01*
X0302246Y0193100D01*
X0302246Y0190131D01*
X0304196Y0190131D01*
X0304552Y0190227D01*
X0304871Y0190411D01*
X0305132Y0190672D01*
X0305316Y0190991D01*
X0305412Y0191347D01*
X0305412Y0193100D01*
X0302246Y0193100D01*
X0302246Y0193900D01*
X0301446Y0193900D01*
X0301446Y0196868D01*
X0299497Y0196868D01*
X0299141Y0196773D01*
X0298821Y0196589D01*
X0298561Y0196328D01*
X0298377Y0196009D01*
X0298319Y0195794D01*
X0298319Y0195883D01*
X0297733Y0196468D01*
X0296888Y0196468D01*
X0296888Y0201850D01*
X0298658Y0201850D01*
X0299244Y0202436D01*
X0299244Y0207776D01*
X0300679Y0209211D01*
X0301195Y0209211D01*
X0302110Y0209590D01*
X0302810Y0210290D01*
X0303189Y0211205D01*
X0303189Y0212195D01*
X0302810Y0213110D01*
X0302110Y0213810D01*
X0301195Y0214189D01*
X0300205Y0214189D01*
X0299290Y0213810D01*
X0298590Y0213110D01*
X0298211Y0212195D01*
X0298211Y0211205D01*
X0298358Y0210850D01*
X0297658Y0210150D01*
X0292318Y0210150D01*
X0291732Y0209564D01*
X0291732Y0202436D01*
X0292318Y0201850D01*
X0294088Y0201850D01*
X0294088Y0196468D01*
X0293965Y0196468D01*
X0293277Y0197157D01*
X0293310Y0197190D01*
X0293689Y0198105D01*
X0293689Y0199095D01*
X0293310Y0200010D01*
X0292610Y0200710D01*
X0291695Y0201089D01*
X0290705Y0201089D01*
X0289790Y0200710D01*
X0289090Y0200010D01*
X0288711Y0199095D01*
X0288711Y0198105D01*
X0289090Y0197190D01*
X0289790Y0196490D01*
X0290121Y0196353D01*
X0291988Y0194485D01*
X0291988Y0191117D01*
X0292574Y0190531D01*
X0293754Y0190531D01*
X0293754Y0186468D01*
X0292574Y0186468D01*
X0291988Y0185883D01*
X0291988Y0181117D01*
X0292574Y0180531D01*
X0293754Y0180531D01*
X0293754Y0177380D01*
X0287400Y0171027D01*
X0287400Y0163473D01*
X0295973Y0154900D01*
X0303320Y0154900D01*
X0315300Y0142920D01*
X0316120Y0142100D01*
X0328767Y0142100D01*
X0333854Y0137013D01*
X0333854Y0131979D01*
X0334439Y0131393D01*
X0340868Y0131393D01*
X0341454Y0131979D01*
X0341454Y0138407D01*
X0340868Y0138993D01*
X0335833Y0138993D01*
X0330746Y0144080D01*
X0329926Y0144900D01*
X0317280Y0144900D01*
X0305300Y0156880D01*
X0304480Y0157700D01*
X0301847Y0157700D01*
X0302484Y0158338D01*
X0303200Y0160065D01*
X0303133Y0159904D02*
X0321494Y0159904D01*
X0321300Y0159105D02*
X0302802Y0159105D01*
X0302454Y0158307D02*
X0321300Y0158307D01*
X0321324Y0157508D02*
X0304672Y0157508D01*
X0305300Y0156880D02*
X0305300Y0156880D01*
X0305470Y0156710D02*
X0321654Y0156710D01*
X0321300Y0156553D02*
X0321300Y0157347D01*
X0310573Y0168073D01*
X0311333Y0168833D01*
X0311333Y0179131D01*
X0313319Y0181117D01*
X0313319Y0185883D01*
X0312733Y0186468D01*
X0312733Y0186469D02*
X0307574Y0186469D01*
X0304782Y0183677D01*
X0302023Y0183677D01*
X0302273Y0183927D01*
X0302273Y0193927D01*
X0306512Y0198165D01*
X0306512Y0206000D01*
X0306512Y0212212D01*
X0306700Y0212400D01*
X0306912Y0210550D02*
X0306912Y0206400D01*
X0310668Y0206400D01*
X0310668Y0209334D01*
X0310572Y0209690D01*
X0310388Y0210009D01*
X0310127Y0210270D01*
X0309808Y0210454D01*
X0309452Y0210550D01*
X0306912Y0210550D01*
X0306912Y0210210D02*
X0306112Y0210210D01*
X0306112Y0210550D02*
X0303572Y0210550D01*
X0303216Y0210454D01*
X0302896Y0210270D01*
X0302636Y0210009D01*
X0302451Y0209690D01*
X0302356Y0209334D01*
X0302356Y0206400D01*
X0306112Y0206400D01*
X0306112Y0210550D01*
X0306112Y0209411D02*
X0306912Y0209411D01*
X0306912Y0208613D02*
X0306112Y0208613D01*
X0306112Y0207814D02*
X0306912Y0207814D01*
X0306912Y0207016D02*
X0306112Y0207016D01*
X0306112Y0206400D02*
X0306912Y0206400D01*
X0306912Y0205600D01*
X0310668Y0205600D01*
X0310668Y0202666D01*
X0310572Y0202310D01*
X0310388Y0201991D01*
X0310127Y0201730D01*
X0309808Y0201546D01*
X0309452Y0201450D01*
X0306912Y0201450D01*
X0306912Y0205600D01*
X0306112Y0205600D01*
X0306112Y0201450D01*
X0303572Y0201450D01*
X0303216Y0201546D01*
X0302896Y0201730D01*
X0302636Y0201991D01*
X0302451Y0202310D01*
X0302356Y0202666D01*
X0302356Y0205600D01*
X0306112Y0205600D01*
X0306112Y0206400D01*
X0306112Y0206217D02*
X0299244Y0206217D01*
X0299244Y0205419D02*
X0302356Y0205419D01*
X0302356Y0204620D02*
X0299244Y0204620D01*
X0299244Y0203822D02*
X0302356Y0203822D01*
X0302356Y0203023D02*
X0299244Y0203023D01*
X0299033Y0202225D02*
X0302500Y0202225D01*
X0306112Y0202225D02*
X0306912Y0202225D01*
X0306912Y0203023D02*
X0306112Y0203023D01*
X0306112Y0203822D02*
X0306912Y0203822D01*
X0306912Y0204620D02*
X0306112Y0204620D01*
X0306112Y0205419D02*
X0306912Y0205419D01*
X0306512Y0206000D02*
X0308106Y0204406D01*
X0318500Y0204406D01*
X0318900Y0204620D02*
X0325157Y0204620D01*
X0325157Y0203822D02*
X0322656Y0203822D01*
X0322656Y0203023D02*
X0325200Y0203023D01*
X0325157Y0200628D02*
X0296888Y0200628D01*
X0296888Y0201426D02*
X0314484Y0201426D01*
X0314344Y0202225D02*
X0310523Y0202225D01*
X0310668Y0203023D02*
X0314344Y0203023D01*
X0314344Y0203822D02*
X0310668Y0203822D01*
X0310668Y0204620D02*
X0318100Y0204620D01*
X0318100Y0203822D02*
X0318900Y0203822D01*
X0318900Y0203023D02*
X0318100Y0203023D01*
X0318100Y0202225D02*
X0318900Y0202225D01*
X0318900Y0201426D02*
X0318100Y0201426D01*
X0318100Y0205419D02*
X0318900Y0205419D01*
X0318900Y0206217D02*
X0318100Y0206217D01*
X0318100Y0207016D02*
X0318900Y0207016D01*
X0318900Y0207814D02*
X0318100Y0207814D01*
X0314811Y0207814D02*
X0310668Y0207814D01*
X0310668Y0207016D02*
X0314361Y0207016D01*
X0314344Y0206217D02*
X0306912Y0206217D01*
X0306512Y0206000D02*
X0307800Y0206000D01*
X0310668Y0205419D02*
X0314344Y0205419D01*
X0310668Y0208613D02*
X0323598Y0208613D01*
X0323311Y0209411D02*
X0310647Y0209411D01*
X0310187Y0210210D02*
X0323311Y0210210D01*
X0323607Y0211008D02*
X0303108Y0211008D01*
X0303189Y0211807D02*
X0324287Y0211807D01*
X0325800Y0209800D02*
X0325800Y0208169D01*
X0329110Y0204858D01*
X0329267Y0207814D02*
X0328134Y0207814D01*
X0328002Y0208613D02*
X0329094Y0208613D01*
X0329094Y0209411D02*
X0328289Y0209411D01*
X0328289Y0210210D02*
X0329094Y0210210D01*
X0329094Y0211008D02*
X0327993Y0211008D01*
X0327313Y0211807D02*
X0329094Y0211807D01*
X0329094Y0212605D02*
X0303019Y0212605D01*
X0302516Y0213404D02*
X0343500Y0213404D01*
X0343500Y0214020D02*
X0342341Y0215180D01*
X0252947Y0215180D01*
X0256280Y0211847D01*
X0257001Y0211126D01*
X0257016Y0211162D01*
X0258338Y0212484D01*
X0260065Y0213200D01*
X0261935Y0213200D01*
X0263662Y0212484D01*
X0264984Y0211162D01*
X0265700Y0209435D01*
X0265700Y0207565D01*
X0264984Y0205838D01*
X0263662Y0204516D01*
X0261935Y0203800D01*
X0260065Y0203800D01*
X0258338Y0204516D01*
X0257100Y0205753D01*
X0257100Y0193220D01*
X0242509Y0178629D01*
X0245211Y0175927D01*
X0245211Y0176595D01*
X0245590Y0177510D01*
X0246290Y0178210D01*
X0247205Y0178589D01*
X0248195Y0178589D01*
X0249110Y0178210D01*
X0249810Y0177510D01*
X0249814Y0177500D01*
X0265220Y0177500D01*
X0267615Y0179895D01*
X0267611Y0179905D01*
X0267611Y0180895D01*
X0267990Y0181810D01*
X0268690Y0182510D01*
X0269605Y0182889D01*
X0270595Y0182889D01*
X0271510Y0182510D01*
X0272210Y0181810D01*
X0272589Y0180895D01*
X0272589Y0179905D01*
X0272210Y0178990D01*
X0271510Y0178290D01*
X0270595Y0177911D01*
X0269605Y0177911D01*
X0269595Y0177915D01*
X0267200Y0175520D01*
X0266380Y0174700D01*
X0249814Y0174700D01*
X0249810Y0174690D01*
X0249110Y0173990D01*
X0248195Y0173611D01*
X0247527Y0173611D01*
X0251059Y0170080D01*
X0251820Y0169318D01*
X0251820Y0165304D01*
X0276932Y0140193D01*
X0292481Y0140193D01*
X0293242Y0139431D01*
X0295195Y0137478D01*
X0296131Y0138414D01*
X0297528Y0138993D01*
X0299039Y0138993D01*
X0300436Y0138414D01*
X0301505Y0137345D01*
X0302083Y0135949D01*
X0302083Y0134437D01*
X0301505Y0133040D01*
X0301165Y0132700D01*
X0303276Y0132700D01*
X0302936Y0133040D01*
X0302357Y0134437D01*
X0302357Y0135949D01*
X0302936Y0137345D01*
X0304005Y0138414D01*
X0305402Y0138993D01*
X0306913Y0138993D01*
X0308310Y0138414D01*
X0309379Y0137345D01*
X0309957Y0135949D01*
X0309957Y0134437D01*
X0309379Y0133040D01*
X0309039Y0132700D01*
X0311150Y0132700D01*
X0310810Y0133040D01*
X0310231Y0134437D01*
X0310231Y0135949D01*
X0310810Y0137345D01*
X0311879Y0138414D01*
X0313276Y0138993D01*
X0314787Y0138993D01*
X0316184Y0138414D01*
X0317253Y0137345D01*
X0317831Y0135949D01*
X0317831Y0134437D01*
X0317253Y0133040D01*
X0316913Y0132700D01*
X0318592Y0132700D01*
X0318692Y0132600D01*
X0319124Y0132600D01*
X0318684Y0133040D01*
X0318106Y0134437D01*
X0318106Y0135949D01*
X0318684Y0137345D01*
X0319753Y0138414D01*
X0321150Y0138993D01*
X0322661Y0138993D01*
X0324058Y0138414D01*
X0325127Y0137345D01*
X0325705Y0135949D01*
X0325705Y0134437D01*
X0325127Y0133040D01*
X0324687Y0132600D01*
X0325348Y0132600D01*
X0326333Y0133585D01*
X0325980Y0134437D01*
X0325980Y0135949D01*
X0326558Y0137345D01*
X0327627Y0138414D01*
X0329024Y0138993D01*
X0330535Y0138993D01*
X0331932Y0138414D01*
X0333001Y0137345D01*
X0333580Y0135949D01*
X0333580Y0134437D01*
X0333001Y0133040D01*
X0331932Y0131971D01*
X0330535Y0131393D01*
X0329024Y0131393D01*
X0328171Y0131746D01*
X0326425Y0130000D01*
X0318692Y0130000D01*
X0318592Y0129900D01*
X0215120Y0129900D01*
X0214300Y0130720D01*
X0213197Y0131823D01*
X0211935Y0131300D01*
X0210065Y0131300D01*
X0208338Y0132016D01*
X0207016Y0133338D01*
X0206300Y0135065D01*
X0206300Y0136935D01*
X0207016Y0138662D01*
X0208338Y0139984D01*
X0210065Y0140700D01*
X0210610Y0140700D01*
X0210610Y0143630D01*
X0205177Y0138197D01*
X0205700Y0136935D01*
X0205700Y0135065D01*
X0204984Y0133338D01*
X0203662Y0132016D01*
X0201935Y0131300D01*
X0200065Y0131300D01*
X0198338Y0132016D01*
X0197016Y0133338D01*
X0196300Y0135065D01*
X0196300Y0135967D01*
X0195700Y0135367D01*
X0195700Y0135065D01*
X0194984Y0133338D01*
X0193662Y0132016D01*
X0191935Y0131300D01*
X0190065Y0131300D01*
X0188338Y0132016D01*
X0187016Y0133338D01*
X0186300Y0135065D01*
X0186300Y0136935D01*
X0187016Y0138662D01*
X0188338Y0139984D01*
X0190065Y0140700D01*
X0191935Y0140700D01*
X0193662Y0139984D01*
X0194984Y0138662D01*
X0194999Y0138626D01*
X0197173Y0140800D01*
X0182731Y0140800D01*
X0182958Y0140726D01*
X0183673Y0140362D01*
X0184322Y0139890D01*
X0184890Y0139322D01*
X0185362Y0138673D01*
X0185726Y0137958D01*
X0185974Y0137194D01*
X0186100Y0136401D01*
X0186100Y0136400D01*
X0181400Y0136400D01*
X0181400Y0135600D01*
X0186100Y0135600D01*
X0186100Y0135599D01*
X0185974Y0134806D01*
X0185726Y0134042D01*
X0185362Y0133327D01*
X0184890Y0132678D01*
X0184322Y0132110D01*
X0183673Y0131638D01*
X0182958Y0131274D01*
X0182194Y0131026D01*
X0181401Y0130900D01*
X0181400Y0130900D01*
X0181400Y0135600D01*
X0180600Y0135600D01*
X0180600Y0130900D01*
X0180599Y0130900D01*
X0179806Y0131026D01*
X0179042Y0131274D01*
X0178327Y0131638D01*
X0177678Y0132110D01*
X0177110Y0132678D01*
X0176638Y0133327D01*
X0176274Y0134042D01*
X0176026Y0134806D01*
X0176000Y0134967D01*
X0175974Y0134806D01*
X0175726Y0134042D01*
X0175362Y0133327D01*
X0174890Y0132678D01*
X0174322Y0132110D01*
X0173673Y0131638D01*
X0172958Y0131274D01*
X0172194Y0131026D01*
X0171401Y0130900D01*
X0171400Y0130900D01*
X0171400Y0135600D01*
X0171400Y0136400D01*
X0180600Y0136400D01*
X0180600Y0135600D01*
X0175900Y0135600D01*
X0171400Y0135600D01*
X0170600Y0135600D01*
X0170600Y0130900D01*
X0170599Y0130900D01*
X0169806Y0131026D01*
X0169042Y0131274D01*
X0168327Y0131638D01*
X0167678Y0132110D01*
X0167110Y0132678D01*
X0166638Y0133327D01*
X0166274Y0134042D01*
X0166026Y0134806D01*
X0165900Y0135599D01*
X0165900Y0135600D01*
X0170600Y0135600D01*
X0170600Y0136400D01*
X0165900Y0136400D01*
X0165900Y0136401D01*
X0166026Y0137194D01*
X0166050Y0137270D01*
X0165700Y0136920D01*
X0165700Y0135065D01*
X0164984Y0133338D01*
X0163662Y0132016D01*
X0161935Y0131300D01*
X0160065Y0131300D01*
X0158338Y0132016D01*
X0157016Y0133338D01*
X0156300Y0135065D01*
X0156300Y0136935D01*
X0157016Y0138662D01*
X0158338Y0139984D01*
X0160065Y0140700D01*
X0161935Y0140700D01*
X0163662Y0139984D01*
X0164233Y0139413D01*
X0168420Y0143600D01*
X0199320Y0143600D01*
X0205400Y0149680D01*
X0205400Y0160251D01*
X0204945Y0160251D01*
X0204030Y0160630D01*
X0203330Y0161330D01*
X0202951Y0162245D01*
X0202951Y0162666D01*
X0196358Y0162666D01*
X0191189Y0167835D01*
X0191189Y0167105D01*
X0190810Y0166190D01*
X0190110Y0165490D01*
X0189195Y0165111D01*
X0188205Y0165111D01*
X0187290Y0165490D01*
X0186592Y0166188D01*
X0186510Y0165990D01*
X0185810Y0165290D01*
X0184895Y0164911D01*
X0183905Y0164911D01*
X0183895Y0164915D01*
X0179101Y0160121D01*
X0201825Y0160121D01*
X0202411Y0159535D01*
X0202411Y0148865D01*
X0201825Y0148279D01*
X0177375Y0148279D01*
X0176789Y0148865D01*
X0176789Y0156105D01*
X0176101Y0155417D01*
X0175515Y0154831D01*
X0163036Y0154831D01*
X0163200Y0154435D01*
X0163200Y0152565D01*
X0162484Y0150838D01*
X0161847Y0150200D01*
X0163679Y0150200D01*
X0163679Y0151583D01*
X0164265Y0152168D01*
X0168893Y0152168D01*
X0169020Y0152296D01*
X0170180Y0152296D01*
X0170307Y0152168D01*
X0174935Y0152168D01*
X0175521Y0151583D01*
X0175521Y0146817D01*
X0174935Y0146231D01*
X0164265Y0146231D01*
X0163679Y0146817D01*
X0163679Y0147400D01*
X0155973Y0147400D01*
X0155153Y0148220D01*
X0155153Y0148220D01*
X0153220Y0150153D01*
X0153220Y0150153D01*
X0152499Y0150874D01*
X0152484Y0150838D01*
X0151162Y0149516D01*
X0149435Y0148800D01*
X0147565Y0148800D01*
X0145838Y0149516D01*
X0144516Y0150838D01*
X0143800Y0152565D01*
X0143800Y0154435D01*
X0144516Y0156162D01*
X0145838Y0157484D01*
X0147565Y0158200D01*
X0149435Y0158200D01*
X0150697Y0157677D01*
X0163152Y0170131D01*
X0162246Y0170131D01*
X0162246Y0173100D01*
X0161446Y0173100D01*
X0161446Y0170131D01*
X0159497Y0170131D01*
X0159352Y0170170D01*
X0159261Y0170079D01*
X0158313Y0169131D01*
X0156111Y0169131D01*
X0142677Y0155697D01*
X0143200Y0154435D01*
X0143200Y0152565D01*
X0142484Y0150838D01*
X0141162Y0149516D01*
X0139435Y0148800D01*
X0137565Y0148800D01*
X0135838Y0149516D01*
X0134516Y0150838D01*
X0133800Y0152565D01*
X0133800Y0154435D01*
X0134516Y0156162D01*
X0135838Y0157484D01*
X0137565Y0158200D01*
X0139435Y0158200D01*
X0140697Y0157677D01*
X0153552Y0170531D01*
X0152574Y0170531D01*
X0151988Y0171117D01*
X0151988Y0172112D01*
X0131800Y0172189D01*
X0131800Y0168186D01*
X0131214Y0167600D01*
X0126386Y0167600D01*
X0126000Y0167986D01*
X0126000Y0158200D01*
X0132614Y0158200D01*
X0133200Y0157614D01*
X0133200Y0149386D01*
X0132614Y0148800D01*
X0126000Y0148800D01*
X0126000Y0140052D01*
X0127565Y0140700D01*
X0129435Y0140700D01*
X0131162Y0139984D01*
X0132484Y0138662D01*
X0133200Y0136935D01*
X0133200Y0135065D01*
X0132484Y0133338D01*
X0131162Y0132016D01*
X0129435Y0131300D01*
X0127565Y0131300D01*
X0126000Y0131948D01*
X0126000Y0130288D01*
X0127988Y0128300D01*
X0341512Y0128300D01*
X0343500Y0130288D01*
X0343500Y0214020D01*
X0343318Y0214203D02*
X0253924Y0214203D01*
X0253126Y0215001D02*
X0342519Y0215001D01*
X0342920Y0216580D02*
X0232467Y0216580D01*
X0220558Y0228489D01*
X0134862Y0228489D01*
X0128500Y0222127D01*
X0128500Y0213500D01*
X0131087Y0213404D02*
X0141616Y0213404D01*
X0142258Y0212762D02*
X0142124Y0212627D01*
X0141940Y0212308D01*
X0141844Y0211952D01*
X0141844Y0209805D01*
X0145600Y0209805D01*
X0145600Y0209006D01*
X0141844Y0209006D01*
X0141844Y0206859D01*
X0141940Y0206503D01*
X0142124Y0206184D01*
X0142384Y0205923D01*
X0142704Y0205739D01*
X0143060Y0205643D01*
X0144484Y0205643D01*
X0143807Y0204966D01*
X0143413Y0204015D01*
X0143413Y0202985D01*
X0143807Y0202034D01*
X0144534Y0201307D01*
X0144600Y0201279D01*
X0144600Y0200957D01*
X0142830Y0200957D01*
X0142244Y0200371D01*
X0142244Y0195009D01*
X0142013Y0195241D01*
X0141062Y0195635D01*
X0140033Y0195635D01*
X0139967Y0195607D01*
X0139756Y0195818D01*
X0139756Y0200371D01*
X0139170Y0200957D01*
X0132830Y0200957D01*
X0125800Y0193927D01*
X0125373Y0193500D01*
X0113500Y0193500D01*
X0125800Y0193927D02*
X0125800Y0168186D01*
X0126900Y0167086D01*
X0126900Y0163500D01*
X0131853Y0163500D01*
X0133800Y0161553D01*
X0133800Y0151553D01*
X0138006Y0147347D01*
X0148006Y0147347D01*
X0151053Y0147347D01*
X0156300Y0142100D01*
X0156300Y0137947D01*
X0164585Y0146231D01*
X0174935Y0146231D01*
X0175521Y0146817D01*
X0175521Y0151583D01*
X0174808Y0152296D01*
X0167347Y0152296D01*
X0165900Y0153743D01*
X0164015Y0151919D02*
X0162932Y0151919D01*
X0163200Y0152717D02*
X0176789Y0152717D01*
X0176789Y0151919D02*
X0175185Y0151919D01*
X0175521Y0151120D02*
X0176789Y0151120D01*
X0176789Y0150322D02*
X0175521Y0150322D01*
X0175521Y0149523D02*
X0176789Y0149523D01*
X0176929Y0148725D02*
X0175521Y0148725D01*
X0175521Y0147926D02*
X0203646Y0147926D01*
X0202848Y0147128D02*
X0175521Y0147128D01*
X0175033Y0146329D02*
X0202049Y0146329D01*
X0201251Y0145531D02*
X0126000Y0145531D01*
X0126000Y0146329D02*
X0164167Y0146329D01*
X0163679Y0147128D02*
X0126000Y0147128D01*
X0126000Y0147926D02*
X0155447Y0147926D01*
X0154649Y0148725D02*
X0126000Y0148725D01*
X0126000Y0144732D02*
X0200452Y0144732D01*
X0199654Y0143934D02*
X0126000Y0143934D01*
X0126000Y0143135D02*
X0167955Y0143135D01*
X0167157Y0142337D02*
X0126000Y0142337D01*
X0126000Y0141538D02*
X0166358Y0141538D01*
X0165560Y0140739D02*
X0126000Y0140739D01*
X0131206Y0139941D02*
X0135794Y0139941D01*
X0135838Y0139984D02*
X0134516Y0138662D01*
X0133800Y0136935D01*
X0133800Y0135065D01*
X0134516Y0133338D01*
X0135838Y0132016D01*
X0137565Y0131300D01*
X0139435Y0131300D01*
X0141162Y0132016D01*
X0142484Y0133338D01*
X0143200Y0135065D01*
X0143200Y0136935D01*
X0142484Y0138662D01*
X0141162Y0139984D01*
X0139435Y0140700D01*
X0137565Y0140700D01*
X0135838Y0139984D01*
X0134996Y0139142D02*
X0132004Y0139142D01*
X0132616Y0138344D02*
X0134384Y0138344D01*
X0134053Y0137545D02*
X0132947Y0137545D01*
X0133200Y0136747D02*
X0133800Y0136747D01*
X0133800Y0135948D02*
X0133200Y0135948D01*
X0133200Y0135150D02*
X0133800Y0135150D01*
X0134096Y0134351D02*
X0132904Y0134351D01*
X0132574Y0133553D02*
X0134426Y0133553D01*
X0135099Y0132754D02*
X0131901Y0132754D01*
X0131018Y0131956D02*
X0135982Y0131956D01*
X0141018Y0131956D02*
X0146300Y0131956D01*
X0146300Y0131886D02*
X0146886Y0131300D01*
X0155114Y0131300D01*
X0155700Y0131886D01*
X0155700Y0140114D01*
X0155114Y0140700D01*
X0146886Y0140700D01*
X0146300Y0140114D01*
X0146300Y0131886D01*
X0146300Y0132754D02*
X0141901Y0132754D01*
X0142574Y0133553D02*
X0146300Y0133553D01*
X0146300Y0134351D02*
X0142904Y0134351D01*
X0143200Y0135150D02*
X0146300Y0135150D01*
X0146300Y0135948D02*
X0143200Y0135948D01*
X0143200Y0136747D02*
X0146300Y0136747D01*
X0146300Y0137545D02*
X0142947Y0137545D01*
X0142616Y0138344D02*
X0146300Y0138344D01*
X0146300Y0139142D02*
X0142004Y0139142D01*
X0141206Y0139941D02*
X0146300Y0139941D01*
X0155700Y0139941D02*
X0158294Y0139941D01*
X0157496Y0139142D02*
X0155700Y0139142D01*
X0155700Y0138344D02*
X0156884Y0138344D01*
X0156300Y0137947D02*
X0156300Y0134053D01*
X0159053Y0131300D01*
X0162947Y0131300D01*
X0167647Y0136000D01*
X0171000Y0136000D01*
X0171400Y0135948D02*
X0180600Y0135948D01*
X0181000Y0136000D02*
X0179700Y0136000D01*
X0178900Y0135200D01*
X0180600Y0135150D02*
X0181400Y0135150D01*
X0181400Y0135948D02*
X0186300Y0135948D01*
X0186300Y0135150D02*
X0186029Y0135150D01*
X0185827Y0134351D02*
X0186596Y0134351D01*
X0186926Y0133553D02*
X0185477Y0133553D01*
X0184946Y0132754D02*
X0187599Y0132754D01*
X0188482Y0131956D02*
X0184110Y0131956D01*
X0182600Y0131157D02*
X0213863Y0131157D01*
X0214661Y0130359D02*
X0126000Y0130359D01*
X0126000Y0131157D02*
X0169400Y0131157D01*
X0170600Y0131157D02*
X0171400Y0131157D01*
X0171400Y0131956D02*
X0170600Y0131956D01*
X0170600Y0132754D02*
X0171400Y0132754D01*
X0171400Y0133553D02*
X0170600Y0133553D01*
X0170600Y0134351D02*
X0171400Y0134351D01*
X0171400Y0135150D02*
X0170600Y0135150D01*
X0170600Y0135948D02*
X0165700Y0135948D01*
X0165700Y0135150D02*
X0165971Y0135150D01*
X0166173Y0134351D02*
X0165404Y0134351D01*
X0165074Y0133553D02*
X0166523Y0133553D01*
X0167054Y0132754D02*
X0164401Y0132754D01*
X0163518Y0131956D02*
X0167890Y0131956D01*
X0172600Y0131157D02*
X0179400Y0131157D01*
X0180600Y0131157D02*
X0181400Y0131157D01*
X0181400Y0131956D02*
X0180600Y0131956D01*
X0180600Y0132754D02*
X0181400Y0132754D01*
X0181400Y0133553D02*
X0180600Y0133553D01*
X0180600Y0134351D02*
X0181400Y0134351D01*
X0177890Y0131956D02*
X0174110Y0131956D01*
X0174946Y0132754D02*
X0177054Y0132754D01*
X0176523Y0133553D02*
X0175477Y0133553D01*
X0175827Y0134351D02*
X0176173Y0134351D01*
X0165955Y0136747D02*
X0165700Y0136747D01*
X0162800Y0136000D02*
X0169000Y0142200D01*
X0199900Y0142200D01*
X0206800Y0149100D01*
X0206800Y0161380D01*
X0205440Y0162740D01*
X0204114Y0164066D01*
X0196938Y0164066D01*
X0190296Y0170709D01*
X0189050Y0170709D01*
X0188047Y0171712D01*
X0188047Y0173283D01*
X0190000Y0173299D02*
X0190000Y0177200D01*
X0189700Y0177500D01*
X0182142Y0177500D01*
X0182142Y0179642D01*
X0189350Y0186850D01*
X0190600Y0187053D02*
X0191400Y0187053D01*
X0191400Y0186255D02*
X0190600Y0186255D01*
X0190600Y0185456D02*
X0191400Y0185456D01*
X0191400Y0184658D02*
X0190600Y0184658D01*
X0190600Y0183859D02*
X0191400Y0183859D01*
X0191400Y0183061D02*
X0190600Y0183061D01*
X0190600Y0182262D02*
X0191400Y0182262D01*
X0191400Y0181464D02*
X0190600Y0181464D01*
X0190600Y0180665D02*
X0191400Y0180665D01*
X0191400Y0179867D02*
X0190600Y0179867D01*
X0190600Y0179068D02*
X0191400Y0179068D01*
X0191400Y0178270D02*
X0190600Y0178270D01*
X0190600Y0177471D02*
X0191400Y0177471D01*
X0191400Y0176672D02*
X0190600Y0176672D01*
X0190600Y0176258D02*
X0190600Y0190600D01*
X0175858Y0190600D01*
X0175858Y0190981D01*
X0175839Y0191000D01*
X0175858Y0191019D01*
X0175858Y0191400D01*
X0190600Y0191400D01*
X0190600Y0206142D01*
X0190981Y0206142D01*
X0191000Y0206161D01*
X0191019Y0206142D01*
X0191400Y0206142D01*
X0191400Y0191400D01*
X0206142Y0191400D01*
X0206142Y0191019D01*
X0206161Y0191000D01*
X0206142Y0190981D01*
X0206142Y0190600D01*
X0191400Y0190600D01*
X0191400Y0191400D01*
X0190600Y0191400D01*
X0190600Y0190600D01*
X0191400Y0190600D01*
X0191400Y0175994D01*
X0191107Y0176163D01*
X0190751Y0176258D01*
X0190600Y0176258D01*
X0190000Y0173299D02*
X0190016Y0173283D01*
X0191984Y0173283D02*
X0191984Y0171000D01*
X0197518Y0165466D01*
X0206234Y0165466D01*
X0208200Y0163500D01*
X0208200Y0146900D01*
X0202000Y0140700D01*
X0199053Y0140700D01*
X0194353Y0136000D01*
X0191000Y0136000D01*
X0194401Y0132754D02*
X0197599Y0132754D01*
X0196926Y0133553D02*
X0195074Y0133553D01*
X0195404Y0134351D02*
X0196596Y0134351D01*
X0196300Y0135150D02*
X0195700Y0135150D01*
X0196281Y0135948D02*
X0196300Y0135948D01*
X0195516Y0139142D02*
X0194504Y0139142D01*
X0193706Y0139941D02*
X0196314Y0139941D01*
X0197113Y0140739D02*
X0182917Y0140739D01*
X0184252Y0139941D02*
X0188294Y0139941D01*
X0187496Y0139142D02*
X0185021Y0139142D01*
X0185530Y0138344D02*
X0186884Y0138344D01*
X0186553Y0137545D02*
X0185860Y0137545D01*
X0186045Y0136747D02*
X0186300Y0136747D01*
X0193518Y0131956D02*
X0198482Y0131956D01*
X0201000Y0136000D02*
X0209600Y0144600D01*
X0209600Y0165640D01*
X0208374Y0166866D01*
X0198786Y0166866D01*
X0197744Y0167909D01*
X0197733Y0167909D01*
X0193953Y0171689D01*
X0193953Y0173283D01*
X0195921Y0173283D02*
X0195921Y0171700D01*
X0198313Y0169309D01*
X0198324Y0169309D01*
X0199366Y0168266D01*
X0208954Y0168266D01*
X0212010Y0165210D01*
X0212010Y0137010D01*
X0211000Y0136000D01*
X0215700Y0131300D01*
X0318013Y0131300D01*
X0318970Y0132754D02*
X0316967Y0132754D01*
X0317465Y0133553D02*
X0318472Y0133553D01*
X0318141Y0134351D02*
X0317796Y0134351D01*
X0317831Y0135150D02*
X0318106Y0135150D01*
X0318106Y0135948D02*
X0317831Y0135948D01*
X0317501Y0136747D02*
X0318436Y0136747D01*
X0318884Y0137545D02*
X0317053Y0137545D01*
X0316254Y0138344D02*
X0319683Y0138344D01*
X0324128Y0138344D02*
X0327557Y0138344D01*
X0326758Y0137545D02*
X0324927Y0137545D01*
X0325375Y0136747D02*
X0326310Y0136747D01*
X0325980Y0135948D02*
X0325705Y0135948D01*
X0325705Y0135150D02*
X0325980Y0135150D01*
X0326015Y0134351D02*
X0325670Y0134351D01*
X0325339Y0133553D02*
X0326301Y0133553D01*
X0325503Y0132754D02*
X0324841Y0132754D01*
X0326784Y0130359D02*
X0343500Y0130359D01*
X0343500Y0131157D02*
X0327582Y0131157D01*
X0331894Y0131956D02*
X0333876Y0131956D01*
X0333854Y0132754D02*
X0332715Y0132754D01*
X0333213Y0133553D02*
X0333854Y0133553D01*
X0333854Y0134351D02*
X0333544Y0134351D01*
X0333580Y0135150D02*
X0333854Y0135150D01*
X0333854Y0135948D02*
X0333580Y0135948D01*
X0333854Y0136747D02*
X0333249Y0136747D01*
X0333321Y0137545D02*
X0332801Y0137545D01*
X0332523Y0138344D02*
X0332002Y0138344D01*
X0331724Y0139142D02*
X0293531Y0139142D01*
X0294329Y0138344D02*
X0296061Y0138344D01*
X0295262Y0137545D02*
X0295128Y0137545D01*
X0292732Y0139941D02*
X0330926Y0139941D01*
X0330127Y0140739D02*
X0276385Y0140739D01*
X0275587Y0141538D02*
X0329329Y0141538D01*
X0329346Y0143500D02*
X0316700Y0143500D01*
X0303900Y0156300D01*
X0296553Y0156300D01*
X0288800Y0164053D01*
X0288800Y0170447D01*
X0295154Y0176800D01*
X0295154Y0183500D01*
X0296298Y0183500D01*
X0299267Y0180531D01*
X0304426Y0180531D01*
X0307395Y0183500D01*
X0310154Y0183500D01*
X0313319Y0183859D02*
X0313681Y0183859D01*
X0313681Y0183061D02*
X0313319Y0183061D01*
X0313319Y0182262D02*
X0313681Y0182262D01*
X0313681Y0181464D02*
X0313319Y0181464D01*
X0313681Y0181117D02*
X0314267Y0180531D01*
X0319426Y0180531D01*
X0320012Y0181117D01*
X0320012Y0185883D01*
X0319900Y0185995D01*
X0319900Y0189232D01*
X0321670Y0189232D01*
X0322256Y0189818D01*
X0322256Y0195371D01*
X0321670Y0195957D01*
X0315330Y0195957D01*
X0314744Y0195371D01*
X0314744Y0189818D01*
X0315330Y0189232D01*
X0317100Y0189232D01*
X0317100Y0186468D01*
X0314267Y0186468D01*
X0313681Y0185883D01*
X0313681Y0181117D01*
X0314133Y0180665D02*
X0312867Y0180665D01*
X0313319Y0184658D02*
X0313681Y0184658D01*
X0313681Y0185456D02*
X0313319Y0185456D01*
X0312947Y0186255D02*
X0314053Y0186255D01*
X0317100Y0187053D02*
X0296554Y0187053D01*
X0296554Y0187852D02*
X0317100Y0187852D01*
X0317100Y0188650D02*
X0296554Y0188650D01*
X0296554Y0189449D02*
X0315113Y0189449D01*
X0314744Y0190247D02*
X0304587Y0190247D01*
X0305331Y0191046D02*
X0314744Y0191046D01*
X0314744Y0191844D02*
X0305412Y0191844D01*
X0305412Y0192643D02*
X0314744Y0192643D01*
X0314744Y0193441D02*
X0302246Y0193441D01*
X0301846Y0193500D02*
X0302273Y0193927D01*
X0302246Y0193900D02*
X0302246Y0196868D01*
X0304196Y0196868D01*
X0304552Y0196773D01*
X0304871Y0196589D01*
X0305132Y0196328D01*
X0305316Y0196009D01*
X0305412Y0195653D01*
X0305412Y0193900D01*
X0302246Y0193900D01*
X0302246Y0194240D02*
X0301446Y0194240D01*
X0301446Y0195038D02*
X0302246Y0195038D01*
X0302246Y0195837D02*
X0301446Y0195837D01*
X0301446Y0196635D02*
X0302246Y0196635D01*
X0304791Y0196635D02*
X0325683Y0196635D01*
X0325157Y0197434D02*
X0296888Y0197434D01*
X0296888Y0198232D02*
X0325157Y0198232D01*
X0325157Y0199031D02*
X0296888Y0199031D01*
X0296888Y0199829D02*
X0325157Y0199829D01*
X0327710Y0195837D02*
X0321790Y0195837D01*
X0322256Y0195038D02*
X0327710Y0195038D01*
X0327710Y0194240D02*
X0322256Y0194240D01*
X0322256Y0193441D02*
X0327685Y0193441D01*
X0326886Y0192643D02*
X0322256Y0192643D01*
X0322256Y0191844D02*
X0326088Y0191844D01*
X0325289Y0191046D02*
X0322256Y0191046D01*
X0322256Y0190247D02*
X0324491Y0190247D01*
X0323757Y0189449D02*
X0321887Y0189449D01*
X0323757Y0188650D02*
X0319900Y0188650D01*
X0319900Y0187852D02*
X0323757Y0187852D01*
X0323757Y0187053D02*
X0319900Y0187053D01*
X0319900Y0186255D02*
X0323757Y0186255D01*
X0323757Y0185456D02*
X0320012Y0185456D01*
X0320012Y0184658D02*
X0323757Y0184658D01*
X0323757Y0183859D02*
X0320012Y0183859D01*
X0320012Y0183061D02*
X0323757Y0183061D01*
X0323757Y0182262D02*
X0320012Y0182262D01*
X0320012Y0181464D02*
X0323757Y0181464D01*
X0323757Y0180665D02*
X0319560Y0180665D01*
X0316846Y0183500D02*
X0318500Y0185154D01*
X0318500Y0192594D01*
X0314744Y0194240D02*
X0305412Y0194240D01*
X0305412Y0195038D02*
X0314744Y0195038D01*
X0315210Y0195837D02*
X0305363Y0195837D01*
X0302246Y0192643D02*
X0301446Y0192643D01*
X0301446Y0191844D02*
X0302246Y0191844D01*
X0302246Y0191046D02*
X0301446Y0191046D01*
X0301446Y0190247D02*
X0302246Y0190247D01*
X0299106Y0190247D02*
X0296554Y0190247D01*
X0298247Y0191046D02*
X0298362Y0191046D01*
X0295154Y0193300D02*
X0291200Y0197254D01*
X0291200Y0198600D01*
X0293411Y0197434D02*
X0294088Y0197434D01*
X0294088Y0198232D02*
X0293689Y0198232D01*
X0293689Y0199031D02*
X0294088Y0199031D01*
X0294088Y0199829D02*
X0293385Y0199829D01*
X0292692Y0200628D02*
X0294088Y0200628D01*
X0294088Y0201426D02*
X0262929Y0201426D01*
X0263210Y0201310D02*
X0262295Y0201689D01*
X0261305Y0201689D01*
X0260390Y0201310D01*
X0259690Y0200610D01*
X0259311Y0199695D01*
X0259311Y0198705D01*
X0259690Y0197790D01*
X0260390Y0197090D01*
X0261305Y0196711D01*
X0262295Y0196711D01*
X0263210Y0197090D01*
X0263900Y0197780D01*
X0265884Y0195795D01*
X0265105Y0195795D01*
X0263451Y0195110D01*
X0262185Y0193844D01*
X0261500Y0192190D01*
X0261500Y0190400D01*
X0262185Y0188746D01*
X0263451Y0187480D01*
X0265105Y0186795D01*
X0266895Y0186795D01*
X0268549Y0187480D01*
X0269815Y0188746D01*
X0270500Y0190400D01*
X0270500Y0191179D01*
X0272779Y0188900D01*
X0272611Y0188495D01*
X0272611Y0187505D01*
X0272990Y0186590D01*
X0273690Y0185890D01*
X0274605Y0185511D01*
X0275595Y0185511D01*
X0276510Y0185890D01*
X0277210Y0186590D01*
X0277589Y0187505D01*
X0277589Y0188495D01*
X0277210Y0189410D01*
X0276510Y0190110D01*
X0275595Y0190489D01*
X0275150Y0190489D01*
X0265039Y0200600D01*
X0263914Y0200600D01*
X0263910Y0200610D01*
X0263210Y0201310D01*
X0263892Y0200628D02*
X0289708Y0200628D01*
X0289015Y0199829D02*
X0265810Y0199829D01*
X0266608Y0199031D02*
X0288711Y0199031D01*
X0288711Y0198232D02*
X0267407Y0198232D01*
X0268205Y0197434D02*
X0288989Y0197434D01*
X0289645Y0196635D02*
X0269004Y0196635D01*
X0269802Y0195837D02*
X0290637Y0195837D01*
X0291435Y0195038D02*
X0270601Y0195038D01*
X0271399Y0194240D02*
X0291988Y0194240D01*
X0291988Y0193441D02*
X0272198Y0193441D01*
X0272996Y0192643D02*
X0291988Y0192643D01*
X0291988Y0191844D02*
X0273795Y0191844D01*
X0274593Y0191046D02*
X0292060Y0191046D01*
X0293754Y0190247D02*
X0276179Y0190247D01*
X0277171Y0189449D02*
X0293754Y0189449D01*
X0293754Y0188650D02*
X0277525Y0188650D01*
X0277589Y0187852D02*
X0293754Y0187852D01*
X0293754Y0187053D02*
X0277402Y0187053D01*
X0276875Y0186255D02*
X0292360Y0186255D01*
X0291988Y0185456D02*
X0249336Y0185456D01*
X0248537Y0184658D02*
X0291988Y0184658D01*
X0291988Y0183859D02*
X0247739Y0183859D01*
X0246940Y0183061D02*
X0291988Y0183061D01*
X0291988Y0182262D02*
X0271758Y0182262D01*
X0272353Y0181464D02*
X0291988Y0181464D01*
X0292440Y0180665D02*
X0272589Y0180665D01*
X0272573Y0179867D02*
X0293754Y0179867D01*
X0293754Y0179068D02*
X0272242Y0179068D01*
X0271461Y0178270D02*
X0293754Y0178270D01*
X0293754Y0177471D02*
X0269151Y0177471D01*
X0268352Y0176672D02*
X0293046Y0176672D01*
X0292247Y0175874D02*
X0267554Y0175874D01*
X0266755Y0175075D02*
X0291449Y0175075D01*
X0290650Y0174277D02*
X0249397Y0174277D01*
X0248459Y0172680D02*
X0289053Y0172680D01*
X0288255Y0171881D02*
X0249257Y0171881D01*
X0250056Y0171083D02*
X0287456Y0171083D01*
X0287400Y0170284D02*
X0250854Y0170284D01*
X0251653Y0169486D02*
X0263417Y0169486D01*
X0263451Y0169520D02*
X0262185Y0168254D01*
X0261500Y0166600D01*
X0261500Y0164810D01*
X0262185Y0163156D01*
X0263451Y0161890D01*
X0265105Y0161205D01*
X0266895Y0161205D01*
X0268549Y0161890D01*
X0269815Y0163156D01*
X0270500Y0164810D01*
X0270500Y0166600D01*
X0269815Y0168254D01*
X0268549Y0169520D01*
X0266895Y0170205D01*
X0265105Y0170205D01*
X0263451Y0169520D01*
X0262619Y0168687D02*
X0251820Y0168687D01*
X0251820Y0167889D02*
X0262034Y0167889D01*
X0261703Y0167090D02*
X0251820Y0167090D01*
X0251820Y0166292D02*
X0261500Y0166292D01*
X0261500Y0165493D02*
X0251820Y0165493D01*
X0252430Y0164695D02*
X0261548Y0164695D01*
X0261878Y0163896D02*
X0253228Y0163896D01*
X0254027Y0163098D02*
X0262243Y0163098D01*
X0263041Y0162299D02*
X0254825Y0162299D01*
X0255624Y0161501D02*
X0264390Y0161501D01*
X0267610Y0161501D02*
X0289372Y0161501D01*
X0288574Y0162299D02*
X0268959Y0162299D01*
X0269757Y0163098D02*
X0287775Y0163098D01*
X0287400Y0163896D02*
X0270122Y0163896D01*
X0270452Y0164695D02*
X0287400Y0164695D01*
X0287400Y0165493D02*
X0270500Y0165493D01*
X0270500Y0166292D02*
X0287400Y0166292D01*
X0287400Y0167090D02*
X0270297Y0167090D01*
X0269966Y0167889D02*
X0287400Y0167889D01*
X0287400Y0168687D02*
X0269381Y0168687D01*
X0268583Y0169486D02*
X0287400Y0169486D01*
X0289852Y0173478D02*
X0247660Y0173478D01*
X0245580Y0171881D02*
X0238200Y0171881D01*
X0238200Y0171553D02*
X0238200Y0175447D01*
X0236347Y0177300D01*
X0240162Y0177300D01*
X0249220Y0168241D01*
X0249220Y0164227D01*
X0274455Y0138993D01*
X0273906Y0138993D01*
X0272509Y0138414D01*
X0271440Y0137345D01*
X0270904Y0136051D01*
X0270884Y0136176D01*
X0270680Y0136805D01*
X0270380Y0137394D01*
X0269991Y0137929D01*
X0269524Y0138396D01*
X0268989Y0138785D01*
X0268400Y0139085D01*
X0267771Y0139289D01*
X0267118Y0139393D01*
X0267076Y0139393D01*
X0267076Y0135482D01*
X0266498Y0135482D01*
X0266498Y0134904D01*
X0262587Y0134904D01*
X0262587Y0134862D01*
X0262691Y0134209D01*
X0262895Y0133581D01*
X0263195Y0132992D01*
X0263407Y0132700D01*
X0244347Y0132700D01*
X0244984Y0133338D01*
X0245700Y0135065D01*
X0245700Y0136935D01*
X0244984Y0138662D01*
X0243662Y0139984D01*
X0242400Y0140507D01*
X0242400Y0163227D01*
X0241580Y0164047D01*
X0236137Y0169490D01*
X0238200Y0171553D01*
X0237730Y0171083D02*
X0246379Y0171083D01*
X0247177Y0170284D02*
X0236931Y0170284D01*
X0236141Y0169486D02*
X0247976Y0169486D01*
X0248774Y0168687D02*
X0236939Y0168687D01*
X0237738Y0167889D02*
X0249220Y0167889D01*
X0249220Y0167090D02*
X0238536Y0167090D01*
X0239335Y0166292D02*
X0249220Y0166292D01*
X0249220Y0165493D02*
X0240133Y0165493D01*
X0240932Y0164695D02*
X0249220Y0164695D01*
X0249552Y0163896D02*
X0241730Y0163896D01*
X0242400Y0163098D02*
X0250350Y0163098D01*
X0251149Y0162299D02*
X0242400Y0162299D01*
X0242400Y0161501D02*
X0251947Y0161501D01*
X0252746Y0160702D02*
X0242400Y0160702D01*
X0242400Y0159904D02*
X0253544Y0159904D01*
X0254343Y0159105D02*
X0242400Y0159105D01*
X0242400Y0158307D02*
X0255141Y0158307D01*
X0255940Y0157508D02*
X0242400Y0157508D01*
X0242400Y0156710D02*
X0256738Y0156710D01*
X0257537Y0155911D02*
X0242400Y0155911D01*
X0242400Y0155113D02*
X0258335Y0155113D01*
X0259134Y0154314D02*
X0242400Y0154314D01*
X0242400Y0153516D02*
X0259932Y0153516D01*
X0260731Y0152717D02*
X0242400Y0152717D01*
X0242400Y0151919D02*
X0261529Y0151919D01*
X0262328Y0151120D02*
X0242400Y0151120D01*
X0242400Y0150322D02*
X0263126Y0150322D01*
X0263925Y0149523D02*
X0242400Y0149523D01*
X0242400Y0148725D02*
X0264723Y0148725D01*
X0265522Y0147926D02*
X0242400Y0147926D01*
X0242400Y0147128D02*
X0266320Y0147128D01*
X0267119Y0146329D02*
X0242400Y0146329D01*
X0242400Y0145531D02*
X0267917Y0145531D01*
X0268716Y0144732D02*
X0242400Y0144732D01*
X0242400Y0143934D02*
X0269514Y0143934D01*
X0270313Y0143135D02*
X0242400Y0143135D01*
X0242400Y0142337D02*
X0271111Y0142337D01*
X0271910Y0141538D02*
X0242400Y0141538D01*
X0242400Y0140739D02*
X0272708Y0140739D01*
X0273507Y0139941D02*
X0243706Y0139941D01*
X0244504Y0139142D02*
X0265351Y0139142D01*
X0265175Y0139085D02*
X0264586Y0138785D01*
X0264051Y0138396D01*
X0263584Y0137929D01*
X0263195Y0137394D01*
X0262895Y0136805D01*
X0262691Y0136176D01*
X0262587Y0135523D01*
X0262587Y0135482D01*
X0266498Y0135482D01*
X0266498Y0139393D01*
X0266457Y0139393D01*
X0265804Y0139289D01*
X0265175Y0139085D01*
X0266498Y0139142D02*
X0267076Y0139142D01*
X0267076Y0138344D02*
X0266498Y0138344D01*
X0266498Y0137545D02*
X0267076Y0137545D01*
X0267076Y0136747D02*
X0266498Y0136747D01*
X0266498Y0135948D02*
X0267076Y0135948D01*
X0266498Y0135150D02*
X0245700Y0135150D01*
X0245700Y0135948D02*
X0262655Y0135948D01*
X0262876Y0136747D02*
X0245700Y0136747D01*
X0245447Y0137545D02*
X0263305Y0137545D01*
X0263999Y0138344D02*
X0245116Y0138344D01*
X0245404Y0134351D02*
X0262668Y0134351D01*
X0262909Y0133553D02*
X0245074Y0133553D01*
X0244401Y0132754D02*
X0263368Y0132754D01*
X0270699Y0136747D02*
X0271192Y0136747D01*
X0271640Y0137545D02*
X0270270Y0137545D01*
X0269576Y0138344D02*
X0272438Y0138344D01*
X0274305Y0139142D02*
X0268223Y0139142D01*
X0273191Y0143934D02*
X0314287Y0143934D01*
X0313488Y0144732D02*
X0272393Y0144732D01*
X0271594Y0145531D02*
X0312690Y0145531D01*
X0311891Y0146329D02*
X0270796Y0146329D01*
X0269997Y0147128D02*
X0311093Y0147128D01*
X0310294Y0147926D02*
X0269199Y0147926D01*
X0268400Y0148725D02*
X0309495Y0148725D01*
X0308697Y0149523D02*
X0267602Y0149523D01*
X0266803Y0150322D02*
X0307898Y0150322D01*
X0307100Y0151120D02*
X0266005Y0151120D01*
X0265206Y0151919D02*
X0306301Y0151919D01*
X0305503Y0152717D02*
X0264408Y0152717D01*
X0263609Y0153516D02*
X0304704Y0153516D01*
X0303906Y0154314D02*
X0262811Y0154314D01*
X0262012Y0155113D02*
X0295761Y0155113D01*
X0294962Y0155911D02*
X0261214Y0155911D01*
X0260415Y0156710D02*
X0294164Y0156710D01*
X0293365Y0157508D02*
X0259617Y0157508D01*
X0258818Y0158307D02*
X0292567Y0158307D01*
X0291768Y0159105D02*
X0258020Y0159105D01*
X0257221Y0159904D02*
X0290970Y0159904D01*
X0290171Y0160702D02*
X0256422Y0160702D01*
X0241000Y0162647D02*
X0241000Y0136000D01*
X0235357Y0142337D02*
X0216643Y0142337D01*
X0215845Y0143135D02*
X0227523Y0143135D01*
X0227390Y0143190D02*
X0228305Y0142811D01*
X0229295Y0142811D01*
X0230210Y0143190D01*
X0230910Y0143890D01*
X0231289Y0144805D01*
X0231289Y0145795D01*
X0230910Y0146710D01*
X0230210Y0147410D01*
X0230200Y0147414D01*
X0230200Y0149588D01*
X0231388Y0148400D01*
X0233100Y0148400D01*
X0233100Y0153100D01*
X0233900Y0153100D01*
X0233900Y0148400D01*
X0235612Y0148400D01*
X0236800Y0149588D01*
X0236800Y0143780D01*
X0233197Y0140177D01*
X0231935Y0140700D01*
X0230065Y0140700D01*
X0228338Y0139984D01*
X0227016Y0138662D01*
X0226300Y0136935D01*
X0226300Y0135065D01*
X0227016Y0133338D01*
X0227653Y0132700D01*
X0224347Y0132700D01*
X0224984Y0133338D01*
X0225700Y0135065D01*
X0225700Y0136935D01*
X0224984Y0138662D01*
X0223662Y0139984D01*
X0221935Y0140700D01*
X0220065Y0140700D01*
X0218803Y0140177D01*
X0214810Y0144170D01*
X0214810Y0163563D01*
X0220863Y0157510D01*
X0218800Y0155447D01*
X0218800Y0151553D01*
X0221553Y0148800D01*
X0225447Y0148800D01*
X0227400Y0150753D01*
X0227400Y0147414D01*
X0227390Y0147410D01*
X0226690Y0146710D01*
X0226311Y0145795D01*
X0226311Y0144805D01*
X0226690Y0143890D01*
X0227390Y0143190D01*
X0226672Y0143934D02*
X0215046Y0143934D01*
X0214810Y0144732D02*
X0226341Y0144732D01*
X0226311Y0145531D02*
X0214810Y0145531D01*
X0214810Y0146329D02*
X0226532Y0146329D01*
X0227108Y0147128D02*
X0214810Y0147128D01*
X0214810Y0147926D02*
X0227400Y0147926D01*
X0227400Y0148725D02*
X0214810Y0148725D01*
X0214810Y0149523D02*
X0220830Y0149523D01*
X0220032Y0150322D02*
X0214810Y0150322D01*
X0214810Y0151120D02*
X0219233Y0151120D01*
X0218800Y0151919D02*
X0214810Y0151919D01*
X0214810Y0152717D02*
X0218800Y0152717D01*
X0218800Y0153516D02*
X0214810Y0153516D01*
X0214810Y0154314D02*
X0218800Y0154314D01*
X0218800Y0155113D02*
X0214810Y0155113D01*
X0214810Y0155911D02*
X0219264Y0155911D01*
X0220063Y0156710D02*
X0214810Y0156710D01*
X0214810Y0157508D02*
X0220861Y0157508D01*
X0220067Y0158307D02*
X0214810Y0158307D01*
X0214810Y0159105D02*
X0219268Y0159105D01*
X0218470Y0159904D02*
X0214810Y0159904D01*
X0214810Y0160702D02*
X0217671Y0160702D01*
X0216873Y0161501D02*
X0214810Y0161501D01*
X0214810Y0162299D02*
X0216074Y0162299D01*
X0215275Y0163098D02*
X0214810Y0163098D01*
X0215553Y0164800D02*
X0215553Y0169400D01*
X0208717Y0176236D01*
X0208717Y0178205D02*
X0210288Y0178205D01*
X0213182Y0175311D01*
X0213489Y0175311D01*
X0216953Y0175367D02*
X0213000Y0179320D01*
X0213000Y0182310D01*
X0211200Y0184110D01*
X0208717Y0184110D01*
X0208717Y0186079D02*
X0211600Y0186079D01*
X0214400Y0183279D01*
X0214400Y0179900D01*
X0218500Y0175800D01*
X0218500Y0169686D01*
X0219386Y0168800D01*
X0225995Y0168800D01*
X0231295Y0163500D01*
X0233500Y0163500D01*
X0233500Y0160147D01*
X0238200Y0155447D01*
X0238200Y0143200D01*
X0231000Y0136000D01*
X0226300Y0135948D02*
X0225700Y0135948D01*
X0225700Y0135150D02*
X0226300Y0135150D01*
X0226596Y0134351D02*
X0225404Y0134351D01*
X0225074Y0133553D02*
X0226926Y0133553D01*
X0227599Y0132754D02*
X0224401Y0132754D01*
X0225700Y0136747D02*
X0226300Y0136747D01*
X0226553Y0137545D02*
X0225447Y0137545D01*
X0225116Y0138344D02*
X0226884Y0138344D01*
X0227496Y0139142D02*
X0224504Y0139142D01*
X0223706Y0139941D02*
X0228294Y0139941D01*
X0230077Y0143135D02*
X0236155Y0143135D01*
X0236800Y0143934D02*
X0230928Y0143934D01*
X0231259Y0144732D02*
X0236800Y0144732D01*
X0236800Y0145531D02*
X0231289Y0145531D01*
X0231068Y0146329D02*
X0236800Y0146329D01*
X0236800Y0147128D02*
X0230492Y0147128D01*
X0230200Y0147926D02*
X0236800Y0147926D01*
X0236800Y0148725D02*
X0235937Y0148725D01*
X0236736Y0149523D02*
X0236800Y0149523D01*
X0233900Y0149523D02*
X0233100Y0149523D01*
X0233100Y0148725D02*
X0233900Y0148725D01*
X0233900Y0150322D02*
X0233100Y0150322D01*
X0233100Y0151120D02*
X0233900Y0151120D01*
X0233900Y0151919D02*
X0233100Y0151919D01*
X0233100Y0152717D02*
X0233900Y0152717D01*
X0233500Y0153500D02*
X0233500Y0144400D01*
X0233700Y0144200D01*
X0234558Y0141538D02*
X0217442Y0141538D01*
X0218240Y0140739D02*
X0233760Y0140739D01*
X0228800Y0145300D02*
X0228800Y0156153D01*
X0226153Y0158800D01*
X0221553Y0158800D01*
X0215553Y0164800D01*
X0213410Y0165790D02*
X0209244Y0169956D01*
X0199656Y0169956D01*
X0198904Y0170709D01*
X0198893Y0170709D01*
X0197890Y0171712D01*
X0197890Y0173283D01*
X0191934Y0167090D02*
X0191183Y0167090D01*
X0190852Y0166292D02*
X0192733Y0166292D01*
X0193531Y0165493D02*
X0190113Y0165493D01*
X0188700Y0167600D02*
X0186079Y0170221D01*
X0186079Y0173283D01*
X0184110Y0173283D01*
X0182142Y0173283D02*
X0182142Y0177500D01*
X0182142Y0179642D02*
X0182142Y0182142D01*
X0189350Y0189350D01*
X0189350Y0204400D01*
X0191000Y0202750D01*
X0191000Y0191000D01*
X0191000Y0192142D01*
X0182142Y0201000D01*
X0182142Y0208717D01*
X0184110Y0208717D02*
X0184110Y0210288D01*
X0183107Y0211291D01*
X0161909Y0211291D01*
X0158500Y0214700D01*
X0158500Y0217654D01*
X0155531Y0217397D02*
X0151583Y0217397D01*
X0150785Y0218195D02*
X0155531Y0218195D01*
X0155531Y0218994D02*
X0154914Y0218994D01*
X0154810Y0218890D02*
X0155510Y0219590D01*
X0155514Y0219600D01*
X0155531Y0219600D01*
X0155531Y0215074D01*
X0156117Y0214488D01*
X0157100Y0214488D01*
X0157100Y0214120D01*
X0161329Y0209891D01*
X0174685Y0209891D01*
X0174685Y0207315D01*
X0171294Y0207315D01*
X0170709Y0206729D01*
X0170709Y0204798D01*
X0170728Y0204780D01*
X0170709Y0204761D01*
X0170709Y0204146D01*
X0165586Y0209268D01*
X0159711Y0209268D01*
X0150177Y0218803D01*
X0150700Y0220065D01*
X0150700Y0221935D01*
X0149984Y0223662D01*
X0148662Y0224984D01*
X0146935Y0225700D01*
X0145065Y0225700D01*
X0143338Y0224984D01*
X0142016Y0223662D01*
X0141300Y0221935D01*
X0141300Y0220065D01*
X0142016Y0218338D01*
X0143338Y0217016D01*
X0145065Y0216300D01*
X0146935Y0216300D01*
X0148197Y0216823D01*
X0156920Y0208100D01*
X0155818Y0208100D01*
X0150570Y0213348D01*
X0149750Y0214168D01*
X0144812Y0214168D01*
X0140177Y0218803D01*
X0140700Y0220065D01*
X0140700Y0221935D01*
X0139984Y0223662D01*
X0138662Y0224984D01*
X0136935Y0225700D01*
X0135065Y0225700D01*
X0133338Y0224984D01*
X0132016Y0223662D01*
X0131300Y0221935D01*
X0131300Y0220065D01*
X0132016Y0218338D01*
X0133338Y0217016D01*
X0135065Y0216300D01*
X0136935Y0216300D01*
X0138197Y0216823D01*
X0142258Y0212762D01*
X0142111Y0212605D02*
X0139889Y0212605D01*
X0139876Y0212627D02*
X0139616Y0212888D01*
X0139296Y0213072D01*
X0138940Y0213168D01*
X0136400Y0213168D01*
X0136400Y0209806D01*
X0135600Y0209806D01*
X0135600Y0213168D01*
X0133060Y0213168D01*
X0132704Y0213072D01*
X0132384Y0212888D01*
X0132124Y0212627D01*
X0131940Y0212308D01*
X0131844Y0211952D01*
X0131844Y0209805D01*
X0135600Y0209805D01*
X0135600Y0209006D01*
X0131844Y0209006D01*
X0131844Y0206859D01*
X0131940Y0206503D01*
X0132124Y0206184D01*
X0132384Y0205923D01*
X0132704Y0205739D01*
X0133060Y0205643D01*
X0135600Y0205643D01*
X0135600Y0209005D01*
X0136400Y0209005D01*
X0136400Y0205643D01*
X0138940Y0205643D01*
X0139296Y0205739D01*
X0139616Y0205923D01*
X0139876Y0206184D01*
X0140060Y0206503D01*
X0140156Y0206859D01*
X0140156Y0209006D01*
X0136400Y0209006D01*
X0136400Y0209805D01*
X0140156Y0209805D01*
X0140156Y0211952D01*
X0140060Y0212308D01*
X0139876Y0212627D01*
X0140156Y0211807D02*
X0141844Y0211807D01*
X0141844Y0211008D02*
X0140156Y0211008D01*
X0140156Y0210210D02*
X0141844Y0210210D01*
X0141844Y0208613D02*
X0140156Y0208613D01*
X0140156Y0207814D02*
X0141844Y0207814D01*
X0141844Y0207016D02*
X0140156Y0207016D01*
X0139896Y0206217D02*
X0142104Y0206217D01*
X0143664Y0204620D02*
X0130729Y0204620D01*
X0130693Y0204534D02*
X0131087Y0205485D01*
X0131087Y0206515D01*
X0130693Y0207466D01*
X0129966Y0208193D01*
X0129015Y0208587D01*
X0127985Y0208587D01*
X0127034Y0208193D01*
X0126307Y0207466D01*
X0126279Y0207400D01*
X0126000Y0207400D01*
X0126000Y0212774D01*
X0126307Y0212034D01*
X0127034Y0211307D01*
X0127985Y0210913D01*
X0129015Y0210913D01*
X0129966Y0211307D01*
X0130693Y0212034D01*
X0131087Y0212985D01*
X0131087Y0214015D01*
X0130693Y0214966D01*
X0129966Y0215693D01*
X0129900Y0215721D01*
X0129900Y0221547D01*
X0135442Y0227089D01*
X0155248Y0227089D01*
X0155227Y0227052D01*
X0155131Y0226696D01*
X0155131Y0224746D01*
X0158100Y0224746D01*
X0158100Y0223946D01*
X0155131Y0223946D01*
X0155131Y0222788D01*
X0154810Y0223110D01*
X0153895Y0223489D01*
X0152905Y0223489D01*
X0151990Y0223110D01*
X0151290Y0222410D01*
X0150911Y0221495D01*
X0150911Y0220505D01*
X0151290Y0219590D01*
X0151990Y0218890D01*
X0152905Y0218511D01*
X0153895Y0218511D01*
X0154810Y0218890D01*
X0155531Y0216598D02*
X0152382Y0216598D01*
X0153180Y0215800D02*
X0155531Y0215800D01*
X0155604Y0215001D02*
X0153979Y0215001D01*
X0154777Y0214203D02*
X0157100Y0214203D01*
X0157816Y0213404D02*
X0155576Y0213404D01*
X0156374Y0212605D02*
X0158615Y0212605D01*
X0159413Y0211807D02*
X0157173Y0211807D01*
X0157971Y0211008D02*
X0160212Y0211008D01*
X0161010Y0210210D02*
X0158770Y0210210D01*
X0159568Y0209411D02*
X0174685Y0209411D01*
X0174685Y0208613D02*
X0166241Y0208613D01*
X0167040Y0207814D02*
X0174685Y0207814D01*
X0170995Y0207016D02*
X0167838Y0207016D01*
X0168637Y0206217D02*
X0170709Y0206217D01*
X0170709Y0205419D02*
X0169435Y0205419D01*
X0170234Y0204620D02*
X0170709Y0204620D01*
X0171048Y0201827D02*
X0165006Y0207869D01*
X0159131Y0207869D01*
X0146000Y0221000D01*
X0149300Y0224346D02*
X0147947Y0225700D01*
X0134053Y0225700D01*
X0131300Y0222947D01*
X0131300Y0219053D01*
X0136000Y0214353D01*
X0136000Y0209406D01*
X0146000Y0209406D01*
X0137551Y0200957D01*
X0132830Y0200957D01*
X0132244Y0200371D01*
X0132244Y0194818D01*
X0132830Y0194232D01*
X0137382Y0194232D01*
X0137987Y0193628D01*
X0137960Y0193562D01*
X0137960Y0192533D01*
X0138354Y0191582D01*
X0139082Y0190854D01*
X0140033Y0190460D01*
X0141062Y0190460D01*
X0141128Y0190487D01*
X0149200Y0182415D01*
X0149200Y0180814D01*
X0149190Y0180810D01*
X0148490Y0180110D01*
X0148111Y0179195D01*
X0148111Y0178205D01*
X0148357Y0177611D01*
X0146809Y0177611D01*
X0146210Y0178210D01*
X0145295Y0178589D01*
X0144305Y0178589D01*
X0143390Y0178210D01*
X0142690Y0177510D01*
X0142311Y0176595D01*
X0142311Y0175605D01*
X0142583Y0174948D01*
X0132167Y0174987D01*
X0137580Y0180400D01*
X0138400Y0181220D01*
X0138400Y0181986D01*
X0138410Y0181990D01*
X0139110Y0182690D01*
X0139489Y0183605D01*
X0139489Y0184595D01*
X0139110Y0185510D01*
X0138410Y0186210D01*
X0137495Y0186589D01*
X0136505Y0186589D01*
X0135590Y0186210D01*
X0134890Y0185510D01*
X0134511Y0184595D01*
X0134511Y0183605D01*
X0134890Y0182690D01*
X0135400Y0182180D01*
X0131800Y0178580D01*
X0131800Y0179014D01*
X0131214Y0179600D01*
X0126386Y0179600D01*
X0126000Y0179214D01*
X0126000Y0204600D01*
X0126279Y0204600D01*
X0126307Y0204534D01*
X0127034Y0203807D01*
X0127985Y0203413D01*
X0129015Y0203413D01*
X0129966Y0203807D01*
X0130693Y0204534D01*
X0131060Y0205419D02*
X0144260Y0205419D01*
X0143413Y0203822D02*
X0129981Y0203822D01*
X0128500Y0206000D02*
X0116000Y0206000D01*
X0113500Y0203500D01*
X0126000Y0203822D02*
X0127019Y0203822D01*
X0126000Y0203023D02*
X0143413Y0203023D01*
X0143728Y0202225D02*
X0126000Y0202225D01*
X0126000Y0201426D02*
X0144415Y0201426D01*
X0142501Y0200628D02*
X0139499Y0200628D01*
X0139756Y0199829D02*
X0142244Y0199829D01*
X0142244Y0199031D02*
X0139756Y0199031D01*
X0139756Y0198232D02*
X0142244Y0198232D01*
X0142244Y0197434D02*
X0139756Y0197434D01*
X0139756Y0196635D02*
X0142244Y0196635D01*
X0142244Y0195837D02*
X0139756Y0195837D01*
X0142215Y0195038D02*
X0142244Y0195038D01*
X0140547Y0193047D02*
X0150600Y0182994D01*
X0150600Y0178700D01*
X0148389Y0179867D02*
X0137046Y0179867D01*
X0137845Y0180665D02*
X0149045Y0180665D01*
X0149200Y0181464D02*
X0138400Y0181464D01*
X0138682Y0182262D02*
X0149200Y0182262D01*
X0148554Y0183061D02*
X0139263Y0183061D01*
X0139489Y0183859D02*
X0147755Y0183859D01*
X0146957Y0184658D02*
X0139463Y0184658D01*
X0139132Y0185456D02*
X0146158Y0185456D01*
X0145360Y0186255D02*
X0138302Y0186255D01*
X0137000Y0184100D02*
X0137000Y0181800D01*
X0128800Y0173600D01*
X0155154Y0173500D01*
X0155531Y0170531D02*
X0157733Y0170531D01*
X0158681Y0171479D01*
X0158681Y0179001D01*
X0161846Y0182166D01*
X0161846Y0183500D01*
X0167142Y0178205D01*
X0173283Y0178205D01*
X0173283Y0180173D02*
X0172866Y0180591D01*
X0171294Y0180591D01*
X0168485Y0183400D01*
X0166800Y0183400D01*
X0170990Y0184110D02*
X0166300Y0188800D01*
X0168789Y0188291D02*
X0168789Y0189831D01*
X0167331Y0191289D01*
X0165269Y0191289D01*
X0160449Y0186469D01*
X0159267Y0186469D01*
X0158649Y0185851D01*
X0158649Y0181448D01*
X0157733Y0180531D01*
X0155951Y0180531D01*
X0151631Y0176211D01*
X0144911Y0176211D01*
X0144800Y0176100D01*
X0142530Y0175075D02*
X0132255Y0175075D01*
X0133054Y0175874D02*
X0142311Y0175874D01*
X0142343Y0176672D02*
X0133852Y0176672D01*
X0134651Y0177471D02*
X0142674Y0177471D01*
X0143534Y0178270D02*
X0135449Y0178270D01*
X0136248Y0179068D02*
X0148111Y0179068D01*
X0148111Y0178270D02*
X0146066Y0178270D01*
X0155154Y0183500D02*
X0155154Y0184627D01*
X0151988Y0187792D01*
X0151988Y0191606D01*
X0146000Y0197594D01*
X0146000Y0203500D01*
X0147740Y0205419D02*
X0151988Y0205419D01*
X0151988Y0205883D02*
X0151988Y0201117D01*
X0152574Y0200531D01*
X0153212Y0200531D01*
X0152690Y0200010D01*
X0152311Y0199095D01*
X0152311Y0198105D01*
X0152690Y0197190D01*
X0153390Y0196490D01*
X0153442Y0196468D01*
X0152574Y0196468D01*
X0151988Y0195883D01*
X0151988Y0193586D01*
X0149756Y0195818D01*
X0149756Y0200371D01*
X0149170Y0200957D01*
X0147400Y0200957D01*
X0147400Y0201279D01*
X0147466Y0201307D01*
X0148193Y0202034D01*
X0148587Y0202985D01*
X0148587Y0204015D01*
X0148193Y0204966D01*
X0147516Y0205643D01*
X0148940Y0205643D01*
X0149296Y0205739D01*
X0149616Y0205923D01*
X0149876Y0206184D01*
X0150060Y0206503D01*
X0150156Y0206859D01*
X0150156Y0209006D01*
X0146400Y0209006D01*
X0146400Y0209805D01*
X0150152Y0209805D01*
X0153489Y0206468D01*
X0152574Y0206468D01*
X0151988Y0205883D01*
X0152323Y0206217D02*
X0149896Y0206217D01*
X0150156Y0207016D02*
X0152942Y0207016D01*
X0152144Y0207814D02*
X0150156Y0207814D01*
X0150156Y0208613D02*
X0151345Y0208613D01*
X0150546Y0209411D02*
X0146400Y0209411D01*
X0145600Y0209411D02*
X0136400Y0209411D01*
X0136400Y0208613D02*
X0135600Y0208613D01*
X0135600Y0209411D02*
X0126000Y0209411D01*
X0126000Y0208613D02*
X0131844Y0208613D01*
X0131844Y0207814D02*
X0130345Y0207814D01*
X0130880Y0207016D02*
X0131844Y0207016D01*
X0132104Y0206217D02*
X0131087Y0206217D01*
X0131844Y0210210D02*
X0126000Y0210210D01*
X0126000Y0211008D02*
X0127754Y0211008D01*
X0126534Y0211807D02*
X0126000Y0211807D01*
X0126000Y0212605D02*
X0126070Y0212605D01*
X0129246Y0211008D02*
X0131844Y0211008D01*
X0131844Y0211807D02*
X0130466Y0211807D01*
X0130930Y0212605D02*
X0132111Y0212605D01*
X0131010Y0214203D02*
X0140818Y0214203D01*
X0140019Y0215001D02*
X0130658Y0215001D01*
X0129900Y0215800D02*
X0139221Y0215800D01*
X0138422Y0216598D02*
X0137654Y0216598D01*
X0134346Y0216598D02*
X0129900Y0216598D01*
X0129900Y0217397D02*
X0132957Y0217397D01*
X0132158Y0218195D02*
X0129900Y0218195D01*
X0129900Y0218994D02*
X0131744Y0218994D01*
X0131413Y0219792D02*
X0129900Y0219792D01*
X0129900Y0220591D02*
X0131300Y0220591D01*
X0131300Y0221389D02*
X0129900Y0221389D01*
X0130541Y0222188D02*
X0131405Y0222188D01*
X0131339Y0222986D02*
X0131735Y0222986D01*
X0132138Y0223785D02*
X0132138Y0223785D01*
X0132936Y0224583D02*
X0132936Y0224583D01*
X0133735Y0225382D02*
X0134297Y0225382D01*
X0134533Y0226180D02*
X0155131Y0226180D01*
X0155131Y0225382D02*
X0147703Y0225382D01*
X0149064Y0224583D02*
X0158100Y0224583D01*
X0158500Y0224346D02*
X0149300Y0224346D01*
X0149862Y0223785D02*
X0155131Y0223785D01*
X0155131Y0222986D02*
X0154934Y0222986D01*
X0153400Y0221000D02*
X0161000Y0221000D01*
X0162250Y0219750D01*
X0162250Y0218355D01*
X0167517Y0213088D01*
X0183290Y0213088D01*
X0186079Y0210300D01*
X0186079Y0208717D01*
X0188047Y0208717D02*
X0188047Y0207145D01*
X0189350Y0205842D01*
X0189350Y0204400D01*
X0190600Y0204620D02*
X0191400Y0204620D01*
X0191400Y0203822D02*
X0190600Y0203822D01*
X0190600Y0203023D02*
X0191400Y0203023D01*
X0191400Y0202225D02*
X0190600Y0202225D01*
X0190600Y0201426D02*
X0191400Y0201426D01*
X0191400Y0200628D02*
X0190600Y0200628D01*
X0190600Y0199829D02*
X0191400Y0199829D01*
X0191400Y0199031D02*
X0190600Y0199031D01*
X0190600Y0198232D02*
X0191400Y0198232D01*
X0191400Y0197434D02*
X0190600Y0197434D01*
X0191000Y0197400D02*
X0193700Y0200100D01*
X0193953Y0200353D01*
X0193953Y0203500D01*
X0197594Y0199858D01*
X0208717Y0199858D01*
X0183006Y0199858D01*
X0182142Y0198994D01*
X0177100Y0193953D01*
X0178953Y0193953D01*
X0179400Y0194400D01*
X0179400Y0190700D01*
X0190700Y0190700D01*
X0191000Y0191000D01*
X0191000Y0197400D01*
X0190600Y0196635D02*
X0191400Y0196635D01*
X0191400Y0195837D02*
X0190600Y0195837D01*
X0190600Y0195038D02*
X0191400Y0195038D01*
X0191400Y0194240D02*
X0190600Y0194240D01*
X0190600Y0193441D02*
X0191400Y0193441D01*
X0191400Y0192643D02*
X0190600Y0192643D01*
X0190600Y0191844D02*
X0191400Y0191844D01*
X0191400Y0191046D02*
X0206142Y0191046D01*
X0208717Y0191984D02*
X0215600Y0191984D01*
X0219900Y0187684D01*
X0219900Y0182800D01*
X0221800Y0180900D01*
X0239800Y0180900D01*
X0245700Y0186800D01*
X0245700Y0210447D01*
X0242947Y0213200D01*
X0219200Y0213200D01*
X0210900Y0221500D01*
X0215280Y0219792D02*
X0216520Y0219792D01*
X0216200Y0220565D02*
X0216916Y0218838D01*
X0218238Y0217516D01*
X0219965Y0216800D01*
X0221835Y0216800D01*
X0223097Y0217323D01*
X0225820Y0214600D01*
X0219780Y0214600D01*
X0215077Y0219303D01*
X0215600Y0220565D01*
X0215600Y0222435D01*
X0214884Y0224162D01*
X0213562Y0225484D01*
X0211835Y0226200D01*
X0209965Y0226200D01*
X0208238Y0225484D01*
X0206916Y0224162D01*
X0206200Y0222435D01*
X0206200Y0220565D01*
X0206260Y0220420D01*
X0205600Y0221080D01*
X0205600Y0222435D01*
X0204884Y0224162D01*
X0203562Y0225484D01*
X0201835Y0226200D01*
X0199965Y0226200D01*
X0198238Y0225484D01*
X0196916Y0224162D01*
X0196200Y0222435D01*
X0196200Y0221533D01*
X0195653Y0222080D01*
X0195600Y0222133D01*
X0195600Y0225614D01*
X0195014Y0226200D01*
X0186786Y0226200D01*
X0186200Y0225614D01*
X0186200Y0217386D01*
X0186786Y0216800D01*
X0195014Y0216800D01*
X0195600Y0217386D01*
X0195600Y0218173D01*
X0197553Y0216220D01*
X0198373Y0215400D01*
X0199480Y0215400D01*
X0199290Y0215210D01*
X0199286Y0215200D01*
X0198853Y0215200D01*
X0198033Y0214380D01*
X0195174Y0211521D01*
X0195044Y0211596D01*
X0194688Y0211691D01*
X0193953Y0211691D01*
X0193953Y0208717D01*
X0193953Y0208717D01*
X0193953Y0211691D01*
X0193384Y0211691D01*
X0193384Y0211872D01*
X0193505Y0211822D01*
X0194495Y0211822D01*
X0195410Y0212201D01*
X0196110Y0212901D01*
X0196489Y0213816D01*
X0196489Y0214806D01*
X0196110Y0215721D01*
X0195410Y0216421D01*
X0194495Y0216800D01*
X0193505Y0216800D01*
X0192590Y0216421D01*
X0191890Y0215721D01*
X0191511Y0214806D01*
X0191511Y0214769D01*
X0191080Y0215200D01*
X0187466Y0215200D01*
X0183612Y0219054D01*
X0181468Y0219054D01*
X0181468Y0219787D01*
X0182283Y0220601D01*
X0182868Y0221187D01*
X0182868Y0223389D01*
X0182995Y0223515D01*
X0183005Y0223511D01*
X0183995Y0223511D01*
X0184910Y0223890D01*
X0185610Y0224590D01*
X0185989Y0225505D01*
X0185989Y0226495D01*
X0185743Y0227089D01*
X0219978Y0227089D01*
X0220867Y0226200D01*
X0219965Y0226200D01*
X0218238Y0225484D01*
X0216916Y0224162D01*
X0216200Y0222435D01*
X0216200Y0220565D01*
X0216200Y0220591D02*
X0215600Y0220591D01*
X0215600Y0221389D02*
X0216200Y0221389D01*
X0216200Y0222188D02*
X0215600Y0222188D01*
X0215372Y0222986D02*
X0216428Y0222986D01*
X0216759Y0223785D02*
X0215041Y0223785D01*
X0214464Y0224583D02*
X0217336Y0224583D01*
X0218135Y0225382D02*
X0213665Y0225382D01*
X0211883Y0226180D02*
X0219917Y0226180D01*
X0220088Y0226979D02*
X0185789Y0226979D01*
X0185989Y0226180D02*
X0186766Y0226180D01*
X0186200Y0225382D02*
X0185938Y0225382D01*
X0186200Y0224583D02*
X0185603Y0224583D01*
X0186200Y0223785D02*
X0184656Y0223785D01*
X0186200Y0222986D02*
X0182868Y0222986D01*
X0182868Y0222188D02*
X0186200Y0222188D01*
X0186200Y0221389D02*
X0182868Y0221389D01*
X0182283Y0220601D02*
X0182283Y0220601D01*
X0182272Y0220591D02*
X0186200Y0220591D01*
X0186200Y0219792D02*
X0181474Y0219792D01*
X0180883Y0221181D02*
X0172028Y0221181D01*
X0168500Y0217654D01*
X0172952Y0217654D01*
X0176117Y0214488D01*
X0184218Y0214488D01*
X0186306Y0212400D01*
X0189500Y0212400D01*
X0190016Y0211884D01*
X0190016Y0208717D01*
X0191984Y0208717D02*
X0191984Y0212316D01*
X0191600Y0212700D01*
X0193211Y0214311D01*
X0194000Y0214311D01*
X0194983Y0216598D02*
X0197175Y0216598D01*
X0197553Y0216220D02*
X0197553Y0216220D01*
X0197974Y0215800D02*
X0196031Y0215800D01*
X0196408Y0215001D02*
X0198654Y0215001D01*
X0197856Y0214203D02*
X0196489Y0214203D01*
X0196318Y0213404D02*
X0197057Y0213404D01*
X0196259Y0212605D02*
X0195814Y0212605D01*
X0195460Y0211807D02*
X0193384Y0211807D01*
X0193953Y0211008D02*
X0193953Y0211008D01*
X0193953Y0210210D02*
X0193953Y0210210D01*
X0193953Y0209411D02*
X0193953Y0209411D01*
X0193953Y0208717D02*
X0193953Y0203500D01*
X0191400Y0205419D02*
X0190600Y0205419D01*
X0193700Y0200100D02*
X0208475Y0200100D01*
X0208717Y0199858D01*
X0208717Y0197890D02*
X0211370Y0197890D01*
X0213236Y0199756D01*
X0239756Y0199756D01*
X0241400Y0201400D01*
X0243889Y0201426D02*
X0244300Y0201426D01*
X0243889Y0201895D02*
X0243889Y0200905D01*
X0243510Y0199990D01*
X0242810Y0199290D01*
X0241895Y0198911D01*
X0240905Y0198911D01*
X0240895Y0198915D01*
X0240668Y0198688D01*
X0240668Y0196400D01*
X0237306Y0196400D01*
X0237306Y0195600D01*
X0240668Y0195600D01*
X0240668Y0193060D01*
X0240572Y0192704D01*
X0240388Y0192384D01*
X0240127Y0192124D01*
X0239808Y0191940D01*
X0239452Y0191844D01*
X0237305Y0191844D01*
X0237305Y0195600D01*
X0236506Y0195600D01*
X0236506Y0191844D01*
X0234359Y0191844D01*
X0234003Y0191940D01*
X0233684Y0192124D01*
X0233423Y0192384D01*
X0233239Y0192704D01*
X0233143Y0193060D01*
X0233143Y0195295D01*
X0232810Y0194490D01*
X0232110Y0193790D01*
X0231195Y0193411D01*
X0230205Y0193411D01*
X0229290Y0193790D01*
X0228590Y0194490D01*
X0228544Y0194600D01*
X0228457Y0194600D01*
X0228457Y0192830D01*
X0227871Y0192244D01*
X0223520Y0192244D01*
X0223789Y0191595D01*
X0223789Y0190605D01*
X0223437Y0189756D01*
X0227871Y0189756D01*
X0228457Y0189170D01*
X0228457Y0187500D01*
X0228986Y0187500D01*
X0228990Y0187510D01*
X0229690Y0188210D01*
X0230605Y0188589D01*
X0231595Y0188589D01*
X0232510Y0188210D01*
X0233143Y0187577D01*
X0233143Y0188940D01*
X0233239Y0189296D01*
X0233423Y0189616D01*
X0233684Y0189876D01*
X0234003Y0190060D01*
X0234359Y0190156D01*
X0236506Y0190156D01*
X0236506Y0186400D01*
X0237305Y0186400D01*
X0237305Y0190156D01*
X0239452Y0190156D01*
X0239808Y0190060D01*
X0240127Y0189876D01*
X0240388Y0189616D01*
X0240572Y0189296D01*
X0240668Y0188940D01*
X0240668Y0186400D01*
X0237306Y0186400D01*
X0237306Y0185600D01*
X0240668Y0185600D01*
X0240668Y0183748D01*
X0244300Y0187380D01*
X0244300Y0205153D01*
X0243662Y0204516D01*
X0242022Y0203836D01*
X0242810Y0203510D01*
X0243510Y0202810D01*
X0243889Y0201895D01*
X0243752Y0202225D02*
X0244300Y0202225D01*
X0244300Y0203023D02*
X0243297Y0203023D01*
X0244300Y0203822D02*
X0242057Y0203822D01*
X0243767Y0204620D02*
X0244300Y0204620D01*
X0244300Y0200628D02*
X0243774Y0200628D01*
X0243349Y0199829D02*
X0244300Y0199829D01*
X0244300Y0199031D02*
X0242184Y0199031D01*
X0240668Y0198232D02*
X0244300Y0198232D01*
X0244300Y0197434D02*
X0240668Y0197434D01*
X0240668Y0196635D02*
X0244300Y0196635D01*
X0244300Y0195837D02*
X0237306Y0195837D01*
X0237106Y0196000D02*
X0236906Y0196000D01*
X0236906Y0195800D01*
X0237106Y0196000D01*
X0242000Y0196000D01*
X0240668Y0195038D02*
X0244300Y0195038D01*
X0244300Y0194240D02*
X0240668Y0194240D01*
X0240668Y0193441D02*
X0244300Y0193441D01*
X0244300Y0192643D02*
X0240537Y0192643D01*
X0239452Y0191844D02*
X0244300Y0191844D01*
X0244300Y0191046D02*
X0223789Y0191046D01*
X0223686Y0191844D02*
X0234359Y0191844D01*
X0233274Y0192643D02*
X0228270Y0192643D01*
X0228457Y0193441D02*
X0230132Y0193441D01*
X0231268Y0193441D02*
X0233143Y0193441D01*
X0233143Y0194240D02*
X0232560Y0194240D01*
X0233037Y0195038D02*
X0233143Y0195038D01*
X0230700Y0195900D02*
X0230600Y0196000D01*
X0225094Y0196000D01*
X0228457Y0194240D02*
X0228840Y0194240D01*
X0223641Y0190247D02*
X0244300Y0190247D01*
X0244300Y0189449D02*
X0240484Y0189449D01*
X0240668Y0188650D02*
X0244300Y0188650D01*
X0244300Y0187852D02*
X0240668Y0187852D01*
X0240668Y0187053D02*
X0243973Y0187053D01*
X0243175Y0186255D02*
X0237306Y0186255D01*
X0236906Y0186000D02*
X0236906Y0195800D01*
X0236506Y0195038D02*
X0237305Y0195038D01*
X0237305Y0194240D02*
X0236506Y0194240D01*
X0236506Y0193441D02*
X0237305Y0193441D01*
X0237305Y0192643D02*
X0236506Y0192643D01*
X0236506Y0191844D02*
X0237305Y0191844D01*
X0237305Y0189449D02*
X0236506Y0189449D01*
X0236506Y0188650D02*
X0237305Y0188650D01*
X0237305Y0187852D02*
X0236506Y0187852D01*
X0236506Y0187053D02*
X0237305Y0187053D01*
X0240668Y0185456D02*
X0242376Y0185456D01*
X0241578Y0184658D02*
X0240668Y0184658D01*
X0240668Y0183859D02*
X0240779Y0183859D01*
X0244545Y0180665D02*
X0267611Y0180665D01*
X0267587Y0179867D02*
X0243746Y0179867D01*
X0242948Y0179068D02*
X0266788Y0179068D01*
X0265990Y0178270D02*
X0248966Y0178270D01*
X0247700Y0176100D02*
X0265800Y0176100D01*
X0270100Y0180400D01*
X0267847Y0181464D02*
X0245343Y0181464D01*
X0246142Y0182262D02*
X0268442Y0182262D01*
X0267518Y0187053D02*
X0272798Y0187053D01*
X0272611Y0187852D02*
X0268920Y0187852D01*
X0269719Y0188650D02*
X0272675Y0188650D01*
X0272231Y0189449D02*
X0270106Y0189449D01*
X0270437Y0190247D02*
X0271432Y0190247D01*
X0270634Y0191046D02*
X0270500Y0191046D01*
X0274900Y0188759D02*
X0264459Y0199200D01*
X0261800Y0199200D01*
X0263554Y0197434D02*
X0264246Y0197434D01*
X0265044Y0196635D02*
X0257100Y0196635D01*
X0257100Y0195837D02*
X0265843Y0195837D01*
X0263379Y0195038D02*
X0257100Y0195038D01*
X0257100Y0194240D02*
X0262580Y0194240D01*
X0262018Y0193441D02*
X0257100Y0193441D01*
X0256523Y0192643D02*
X0261687Y0192643D01*
X0261500Y0191844D02*
X0255724Y0191844D01*
X0254926Y0191046D02*
X0261500Y0191046D01*
X0261563Y0190247D02*
X0254127Y0190247D01*
X0253329Y0189449D02*
X0261894Y0189449D01*
X0262281Y0188650D02*
X0252530Y0188650D01*
X0251732Y0187852D02*
X0263080Y0187852D01*
X0264482Y0187053D02*
X0250933Y0187053D01*
X0250135Y0186255D02*
X0273325Y0186255D01*
X0275100Y0188000D02*
X0274900Y0188200D01*
X0274900Y0188759D01*
X0260046Y0197434D02*
X0257100Y0197434D01*
X0257100Y0198232D02*
X0259507Y0198232D01*
X0259311Y0199031D02*
X0257100Y0199031D01*
X0257100Y0199829D02*
X0259367Y0199829D01*
X0259708Y0200628D02*
X0257100Y0200628D01*
X0257100Y0201426D02*
X0260671Y0201426D01*
X0260012Y0203822D02*
X0257100Y0203822D01*
X0257100Y0204620D02*
X0258233Y0204620D01*
X0257434Y0205419D02*
X0257100Y0205419D01*
X0257100Y0203023D02*
X0291732Y0203023D01*
X0291732Y0203822D02*
X0273052Y0203822D01*
X0272958Y0203774D02*
X0273673Y0204138D01*
X0274322Y0204610D01*
X0274890Y0205178D01*
X0275362Y0205827D01*
X0275726Y0206542D01*
X0275974Y0207306D01*
X0276100Y0208099D01*
X0276100Y0208100D01*
X0271400Y0208100D01*
X0271400Y0208900D01*
X0270600Y0208900D01*
X0270600Y0213600D01*
X0270599Y0213600D01*
X0269806Y0213474D01*
X0269042Y0213226D01*
X0268327Y0212862D01*
X0267678Y0212390D01*
X0267110Y0211822D01*
X0266638Y0211173D01*
X0266274Y0210458D01*
X0266026Y0209694D01*
X0265900Y0208901D01*
X0265900Y0208900D01*
X0270600Y0208900D01*
X0270600Y0208100D01*
X0265900Y0208100D01*
X0265900Y0208099D01*
X0266026Y0207306D01*
X0266274Y0206542D01*
X0266638Y0205827D01*
X0267110Y0205178D01*
X0267678Y0204610D01*
X0268327Y0204138D01*
X0269042Y0203774D01*
X0269806Y0203526D01*
X0270599Y0203400D01*
X0270600Y0203400D01*
X0270600Y0208100D01*
X0271400Y0208100D01*
X0271400Y0203400D01*
X0271401Y0203400D01*
X0272194Y0203526D01*
X0272958Y0203774D01*
X0271400Y0203822D02*
X0270600Y0203822D01*
X0270600Y0204620D02*
X0271400Y0204620D01*
X0271400Y0205419D02*
X0270600Y0205419D01*
X0270600Y0206217D02*
X0271400Y0206217D01*
X0271400Y0207016D02*
X0270600Y0207016D01*
X0270600Y0207814D02*
X0271400Y0207814D01*
X0271500Y0208000D02*
X0271000Y0208500D01*
X0273300Y0208500D01*
X0273800Y0208000D01*
X0271500Y0208000D01*
X0271400Y0208613D02*
X0291732Y0208613D01*
X0291732Y0209411D02*
X0276019Y0209411D01*
X0275974Y0209694D02*
X0275726Y0210458D01*
X0275362Y0211173D01*
X0274890Y0211822D01*
X0274322Y0212390D01*
X0273673Y0212862D01*
X0272958Y0213226D01*
X0272194Y0213474D01*
X0271401Y0213600D01*
X0271400Y0213600D01*
X0271400Y0208900D01*
X0276100Y0208900D01*
X0276100Y0208901D01*
X0275974Y0209694D01*
X0275807Y0210210D02*
X0297718Y0210210D01*
X0298292Y0211008D02*
X0275446Y0211008D01*
X0274901Y0211807D02*
X0298211Y0211807D01*
X0298381Y0212605D02*
X0274026Y0212605D01*
X0272411Y0213404D02*
X0298884Y0213404D01*
X0300700Y0211700D02*
X0300700Y0211212D01*
X0295488Y0206000D01*
X0295488Y0193835D01*
X0295154Y0193500D01*
X0295154Y0193300D01*
X0295154Y0183500D01*
X0296554Y0179867D02*
X0297952Y0179867D01*
X0296554Y0179068D02*
X0323757Y0179068D01*
X0323757Y0178270D02*
X0296554Y0178270D01*
X0296554Y0177471D02*
X0323757Y0177471D01*
X0323757Y0176672D02*
X0296554Y0176672D01*
X0296207Y0175874D02*
X0323757Y0175874D01*
X0323757Y0175075D02*
X0295409Y0175075D01*
X0294610Y0174277D02*
X0323150Y0174277D01*
X0322352Y0173478D02*
X0294669Y0173478D01*
X0296423Y0172680D02*
X0301310Y0172680D01*
X0301553Y0173200D02*
X0296853Y0168500D01*
X0293500Y0168500D01*
X0293900Y0168687D02*
X0298800Y0168687D01*
X0298800Y0167889D02*
X0298567Y0167889D01*
X0298404Y0167090D02*
X0298997Y0167090D01*
X0299327Y0166292D02*
X0298099Y0166292D01*
X0298507Y0169486D02*
X0298821Y0169486D01*
X0299152Y0170284D02*
X0298283Y0170284D01*
X0297908Y0171083D02*
X0299483Y0171083D01*
X0300235Y0171881D02*
X0297331Y0171881D01*
X0301553Y0173200D02*
X0305447Y0173200D01*
X0310573Y0168073D01*
X0308200Y0167889D02*
X0319900Y0167889D01*
X0319900Y0168687D02*
X0308200Y0168687D01*
X0308179Y0169486D02*
X0319900Y0169486D01*
X0319900Y0170284D02*
X0307848Y0170284D01*
X0307517Y0171083D02*
X0319956Y0171083D01*
X0320755Y0171881D02*
X0306765Y0171881D01*
X0305690Y0172680D02*
X0321553Y0172680D01*
X0319900Y0167090D02*
X0308003Y0167090D01*
X0307673Y0166292D02*
X0319900Y0166292D01*
X0319900Y0165493D02*
X0307140Y0165493D01*
X0306342Y0164695D02*
X0319900Y0164695D01*
X0319900Y0163896D02*
X0304667Y0163896D01*
X0302718Y0163098D02*
X0319900Y0163098D01*
X0320221Y0162299D02*
X0303049Y0162299D01*
X0303200Y0161501D02*
X0321019Y0161501D01*
X0321300Y0156553D02*
X0324053Y0153800D01*
X0335682Y0153800D01*
X0339850Y0157968D01*
X0339850Y0161158D01*
X0339695Y0160702D02*
X0343500Y0160702D01*
X0343500Y0159904D02*
X0339850Y0159904D01*
X0339850Y0159105D02*
X0343500Y0159105D01*
X0343500Y0158307D02*
X0339647Y0158307D01*
X0339316Y0157508D02*
X0343500Y0157508D01*
X0343500Y0156710D02*
X0338591Y0156710D01*
X0337244Y0155911D02*
X0343500Y0155911D01*
X0343500Y0155113D02*
X0329259Y0155113D01*
X0330015Y0155911D02*
X0334756Y0155911D01*
X0333409Y0156710D02*
X0330346Y0156710D01*
X0330506Y0159904D02*
X0332150Y0159904D01*
X0332305Y0160702D02*
X0330175Y0160702D01*
X0329646Y0161501D02*
X0332635Y0161501D01*
X0333292Y0162299D02*
X0328848Y0162299D01*
X0331007Y0169486D02*
X0332274Y0169486D01*
X0332837Y0170284D02*
X0330783Y0170284D01*
X0330408Y0171083D02*
X0333794Y0171083D01*
X0335711Y0171083D02*
X0336289Y0171083D01*
X0336289Y0170284D02*
X0335711Y0170284D01*
X0335711Y0169486D02*
X0336289Y0169486D01*
X0323757Y0179867D02*
X0305741Y0179867D01*
X0306539Y0180665D02*
X0307440Y0180665D01*
X0305774Y0183859D02*
X0302246Y0183859D01*
X0302246Y0183900D02*
X0305412Y0183900D01*
X0305412Y0185653D01*
X0305316Y0186009D01*
X0305132Y0186328D01*
X0304871Y0186589D01*
X0304552Y0186773D01*
X0304196Y0186868D01*
X0302246Y0186868D01*
X0302246Y0183900D01*
X0302023Y0183677D02*
X0301846Y0183500D01*
X0301446Y0184658D02*
X0302246Y0184658D01*
X0302246Y0185456D02*
X0301446Y0185456D01*
X0301446Y0186255D02*
X0302246Y0186255D01*
X0305175Y0186255D02*
X0307360Y0186255D01*
X0306988Y0185456D02*
X0305412Y0185456D01*
X0305412Y0184658D02*
X0306572Y0184658D01*
X0298518Y0186255D02*
X0297947Y0186255D01*
X0298319Y0195837D02*
X0298330Y0195837D01*
X0298902Y0196635D02*
X0296888Y0196635D01*
X0294088Y0196635D02*
X0293798Y0196635D01*
X0291944Y0202225D02*
X0257100Y0202225D01*
X0261988Y0203822D02*
X0268948Y0203822D01*
X0267667Y0204620D02*
X0263767Y0204620D01*
X0264566Y0205419D02*
X0266935Y0205419D01*
X0266439Y0206217D02*
X0265142Y0206217D01*
X0265473Y0207016D02*
X0266120Y0207016D01*
X0265945Y0207814D02*
X0265700Y0207814D01*
X0265700Y0208613D02*
X0270600Y0208613D01*
X0270600Y0209411D02*
X0271400Y0209411D01*
X0271400Y0210210D02*
X0270600Y0210210D01*
X0270600Y0211008D02*
X0271400Y0211008D01*
X0271400Y0211807D02*
X0270600Y0211807D01*
X0270600Y0212605D02*
X0271400Y0212605D01*
X0271400Y0213404D02*
X0270600Y0213404D01*
X0269589Y0213404D02*
X0254723Y0213404D01*
X0255521Y0212605D02*
X0258630Y0212605D01*
X0257660Y0211807D02*
X0256320Y0211807D01*
X0255700Y0210447D02*
X0255700Y0193800D01*
X0240600Y0178700D01*
X0221100Y0178700D01*
X0217700Y0182100D01*
X0217700Y0185816D01*
X0213500Y0190016D01*
X0208717Y0190016D01*
X0208717Y0188047D02*
X0212600Y0188047D01*
X0215800Y0184847D01*
X0215800Y0180480D01*
X0222780Y0173500D01*
X0223500Y0173500D01*
X0228800Y0168200D01*
X0235447Y0168200D01*
X0241000Y0162647D01*
X0238200Y0172680D02*
X0244782Y0172680D01*
X0243983Y0173478D02*
X0238200Y0173478D01*
X0238200Y0174277D02*
X0243185Y0174277D01*
X0242386Y0175075D02*
X0238200Y0175075D01*
X0237773Y0175874D02*
X0241588Y0175874D01*
X0240789Y0176672D02*
X0236974Y0176672D01*
X0242869Y0178270D02*
X0246434Y0178270D01*
X0245574Y0177471D02*
X0243667Y0177471D01*
X0244466Y0176672D02*
X0245243Y0176672D01*
X0233143Y0187852D02*
X0232868Y0187852D01*
X0233143Y0188650D02*
X0228457Y0188650D01*
X0228457Y0187852D02*
X0229332Y0187852D01*
X0228178Y0189449D02*
X0233327Y0189449D01*
X0231100Y0186100D02*
X0225194Y0186100D01*
X0225094Y0186000D01*
X0221300Y0191100D02*
X0218447Y0193953D01*
X0208717Y0193953D01*
X0208717Y0195921D02*
X0212921Y0195921D01*
X0213900Y0196900D01*
X0208717Y0201827D02*
X0234327Y0201827D01*
X0241000Y0208500D01*
X0231000Y0208500D02*
X0227647Y0208500D01*
X0222947Y0203800D01*
X0208721Y0203800D01*
X0208717Y0203795D01*
X0208717Y0205764D02*
X0209300Y0206347D01*
X0209300Y0215400D01*
X0203200Y0221500D01*
X0200900Y0221500D01*
X0205600Y0221389D02*
X0206200Y0221389D01*
X0206200Y0220591D02*
X0206089Y0220591D01*
X0206200Y0222188D02*
X0205600Y0222188D01*
X0205372Y0222986D02*
X0206428Y0222986D01*
X0206759Y0223785D02*
X0205041Y0223785D01*
X0204464Y0224583D02*
X0207336Y0224583D01*
X0208135Y0225382D02*
X0203665Y0225382D01*
X0201883Y0226180D02*
X0209917Y0226180D01*
X0215386Y0218994D02*
X0216851Y0218994D01*
X0216185Y0218195D02*
X0217558Y0218195D01*
X0216983Y0217397D02*
X0218525Y0217397D01*
X0217782Y0216598D02*
X0223822Y0216598D01*
X0224621Y0215800D02*
X0218580Y0215800D01*
X0219379Y0215001D02*
X0225419Y0215001D01*
X0227427Y0214973D02*
X0220900Y0221500D01*
X0225645Y0225382D02*
X0265487Y0225382D01*
X0266032Y0225607D02*
X0264635Y0225029D01*
X0263566Y0223960D01*
X0262987Y0222563D01*
X0262987Y0221051D01*
X0263566Y0219655D01*
X0264635Y0218586D01*
X0266032Y0218007D01*
X0267543Y0218007D01*
X0268940Y0218586D01*
X0270009Y0219655D01*
X0270587Y0221051D01*
X0270587Y0222563D01*
X0270009Y0223960D01*
X0268940Y0225029D01*
X0267543Y0225607D01*
X0266032Y0225607D01*
X0268087Y0225382D02*
X0273361Y0225382D01*
X0273906Y0225607D02*
X0272509Y0225029D01*
X0271440Y0223960D01*
X0270861Y0222563D01*
X0270861Y0221051D01*
X0271440Y0219655D01*
X0272509Y0218586D01*
X0273906Y0218007D01*
X0275417Y0218007D01*
X0276814Y0218586D01*
X0277883Y0219655D01*
X0278461Y0221051D01*
X0278461Y0222563D01*
X0277883Y0223960D01*
X0276814Y0225029D01*
X0275417Y0225607D01*
X0273906Y0225607D01*
X0275961Y0225382D02*
X0281235Y0225382D01*
X0281780Y0225607D02*
X0280383Y0225029D01*
X0279314Y0223960D01*
X0278735Y0222563D01*
X0278735Y0221051D01*
X0279314Y0219655D01*
X0280383Y0218586D01*
X0281780Y0218007D01*
X0283291Y0218007D01*
X0284688Y0218586D01*
X0285757Y0219655D01*
X0286335Y0221051D01*
X0286335Y0222563D01*
X0285757Y0223960D01*
X0284688Y0225029D01*
X0283291Y0225607D01*
X0281780Y0225607D01*
X0283835Y0225382D02*
X0289109Y0225382D01*
X0289654Y0225607D02*
X0288257Y0225029D01*
X0287188Y0223960D01*
X0286609Y0222563D01*
X0286609Y0221051D01*
X0287188Y0219655D01*
X0288257Y0218586D01*
X0289654Y0218007D01*
X0291165Y0218007D01*
X0292562Y0218586D01*
X0293631Y0219655D01*
X0294209Y0221051D01*
X0294209Y0222563D01*
X0293631Y0223960D01*
X0292562Y0225029D01*
X0291165Y0225607D01*
X0289654Y0225607D01*
X0291709Y0225382D02*
X0296983Y0225382D01*
X0297528Y0225607D02*
X0296131Y0225029D01*
X0295062Y0223960D01*
X0294483Y0222563D01*
X0294483Y0221051D01*
X0295062Y0219655D01*
X0296131Y0218586D01*
X0297528Y0218007D01*
X0299039Y0218007D01*
X0300436Y0218586D01*
X0301505Y0219655D01*
X0302083Y0221051D01*
X0302083Y0222563D01*
X0301505Y0223960D01*
X0300436Y0225029D01*
X0299039Y0225607D01*
X0297528Y0225607D01*
X0299583Y0225382D02*
X0304857Y0225382D01*
X0305402Y0225607D02*
X0304005Y0225029D01*
X0302936Y0223960D01*
X0302357Y0222563D01*
X0302357Y0221051D01*
X0302936Y0219655D01*
X0304005Y0218586D01*
X0305402Y0218007D01*
X0306913Y0218007D01*
X0308310Y0218586D01*
X0309379Y0219655D01*
X0309957Y0221051D01*
X0309957Y0222563D01*
X0309379Y0223960D01*
X0308310Y0225029D01*
X0306913Y0225607D01*
X0305402Y0225607D01*
X0307457Y0225382D02*
X0312731Y0225382D01*
X0313276Y0225607D02*
X0311879Y0225029D01*
X0310810Y0223960D01*
X0310231Y0222563D01*
X0310231Y0221051D01*
X0310810Y0219655D01*
X0311879Y0218586D01*
X0313276Y0218007D01*
X0314787Y0218007D01*
X0316184Y0218586D01*
X0317253Y0219655D01*
X0317831Y0221051D01*
X0317831Y0222563D01*
X0317253Y0223960D01*
X0316184Y0225029D01*
X0314787Y0225607D01*
X0313276Y0225607D01*
X0315332Y0225382D02*
X0320605Y0225382D01*
X0321150Y0225607D02*
X0319753Y0225029D01*
X0318684Y0223960D01*
X0318106Y0222563D01*
X0318106Y0221051D01*
X0318684Y0219655D01*
X0319753Y0218586D01*
X0321150Y0218007D01*
X0322661Y0218007D01*
X0324058Y0218586D01*
X0325127Y0219655D01*
X0325705Y0221051D01*
X0325705Y0222563D01*
X0325127Y0223960D01*
X0324058Y0225029D01*
X0322661Y0225607D01*
X0321150Y0225607D01*
X0323206Y0225382D02*
X0328480Y0225382D01*
X0329024Y0225607D02*
X0327627Y0225029D01*
X0326558Y0223960D01*
X0325980Y0222563D01*
X0325980Y0221051D01*
X0326558Y0219655D01*
X0327627Y0218586D01*
X0329024Y0218007D01*
X0330535Y0218007D01*
X0331932Y0218586D01*
X0333001Y0219655D01*
X0333580Y0221051D01*
X0333580Y0222563D01*
X0333001Y0223960D01*
X0331932Y0225029D01*
X0330535Y0225607D01*
X0329024Y0225607D01*
X0331080Y0225382D02*
X0336354Y0225382D01*
X0336898Y0225607D02*
X0335501Y0225029D01*
X0334432Y0223960D01*
X0333854Y0222563D01*
X0333854Y0221051D01*
X0334432Y0219655D01*
X0335501Y0218586D01*
X0336898Y0218007D01*
X0338409Y0218007D01*
X0339806Y0218586D01*
X0340875Y0219655D01*
X0341454Y0221051D01*
X0341454Y0222563D01*
X0340875Y0223960D01*
X0339806Y0225029D01*
X0338409Y0225607D01*
X0336898Y0225607D01*
X0338954Y0225382D02*
X0343500Y0225382D01*
X0343500Y0226180D02*
X0224847Y0226180D01*
X0224048Y0226979D02*
X0343233Y0226979D01*
X0343500Y0226712D02*
X0343500Y0217980D01*
X0233047Y0217980D01*
X0222327Y0228700D01*
X0341512Y0228700D01*
X0343500Y0226712D01*
X0342435Y0227777D02*
X0223249Y0227777D01*
X0222451Y0228576D02*
X0341636Y0228576D01*
X0340251Y0224583D02*
X0343500Y0224583D01*
X0343500Y0223785D02*
X0340947Y0223785D01*
X0341278Y0222986D02*
X0343500Y0222986D01*
X0343500Y0222188D02*
X0341454Y0222188D01*
X0341454Y0221389D02*
X0343500Y0221389D01*
X0343500Y0220591D02*
X0341263Y0220591D01*
X0340932Y0219792D02*
X0343500Y0219792D01*
X0343500Y0218994D02*
X0340214Y0218994D01*
X0338863Y0218195D02*
X0343500Y0218195D01*
X0342920Y0216580D02*
X0356000Y0203500D01*
X0343500Y0203822D02*
X0341886Y0203822D01*
X0342172Y0203023D02*
X0343500Y0203023D01*
X0343500Y0202225D02*
X0342172Y0202225D01*
X0342172Y0201426D02*
X0343500Y0201426D01*
X0343500Y0200628D02*
X0342151Y0200628D01*
X0341820Y0199829D02*
X0343500Y0199829D01*
X0343500Y0199031D02*
X0341489Y0199031D01*
X0341055Y0198232D02*
X0343500Y0198232D01*
X0343500Y0197434D02*
X0340256Y0197434D01*
X0339404Y0196635D02*
X0343500Y0196635D01*
X0343500Y0195837D02*
X0338264Y0195837D01*
X0339784Y0195038D02*
X0343500Y0195038D01*
X0343500Y0194240D02*
X0340583Y0194240D01*
X0341556Y0204620D02*
X0343500Y0204620D01*
X0343500Y0205419D02*
X0341215Y0205419D01*
X0340416Y0206217D02*
X0343500Y0206217D01*
X0343500Y0207016D02*
X0339618Y0207016D01*
X0337929Y0207814D02*
X0337862Y0207814D01*
X0337756Y0208613D02*
X0334244Y0208613D01*
X0334244Y0209411D02*
X0337756Y0209411D01*
X0337756Y0210210D02*
X0334244Y0210210D01*
X0334244Y0211008D02*
X0337756Y0211008D01*
X0337756Y0211807D02*
X0334244Y0211807D01*
X0334244Y0212605D02*
X0337756Y0212605D01*
X0342118Y0212605D02*
X0343500Y0212605D01*
X0343500Y0211807D02*
X0342118Y0211807D01*
X0342118Y0211008D02*
X0343500Y0211008D01*
X0343500Y0210210D02*
X0342118Y0210210D01*
X0342118Y0209411D02*
X0343500Y0209411D01*
X0343500Y0208613D02*
X0342118Y0208613D01*
X0341945Y0207814D02*
X0343500Y0207814D01*
X0334138Y0207814D02*
X0334071Y0207814D01*
X0325157Y0206217D02*
X0322656Y0206217D01*
X0322656Y0205419D02*
X0325157Y0205419D01*
X0324973Y0207016D02*
X0322639Y0207016D01*
X0322189Y0207814D02*
X0324266Y0207814D01*
X0323115Y0218195D02*
X0328570Y0218195D01*
X0327219Y0218994D02*
X0324466Y0218994D01*
X0325184Y0219792D02*
X0326501Y0219792D01*
X0326170Y0220591D02*
X0325515Y0220591D01*
X0325705Y0221389D02*
X0325980Y0221389D01*
X0325980Y0222188D02*
X0325705Y0222188D01*
X0325530Y0222986D02*
X0326155Y0222986D01*
X0326486Y0223785D02*
X0325199Y0223785D01*
X0324503Y0224583D02*
X0327182Y0224583D01*
X0332377Y0224583D02*
X0335056Y0224583D01*
X0334360Y0223785D02*
X0333073Y0223785D01*
X0333404Y0222986D02*
X0334029Y0222986D01*
X0333854Y0222188D02*
X0333580Y0222188D01*
X0333580Y0221389D02*
X0333854Y0221389D01*
X0334044Y0220591D02*
X0333389Y0220591D01*
X0333058Y0219792D02*
X0334375Y0219792D01*
X0335093Y0218994D02*
X0332340Y0218994D01*
X0330989Y0218195D02*
X0336444Y0218195D01*
X0320696Y0218195D02*
X0315241Y0218195D01*
X0316592Y0218994D02*
X0319345Y0218994D01*
X0318627Y0219792D02*
X0317310Y0219792D01*
X0317641Y0220591D02*
X0318296Y0220591D01*
X0318106Y0221389D02*
X0317831Y0221389D01*
X0317831Y0222188D02*
X0318106Y0222188D01*
X0318281Y0222986D02*
X0317656Y0222986D01*
X0317325Y0223785D02*
X0318612Y0223785D01*
X0319308Y0224583D02*
X0316629Y0224583D01*
X0311434Y0224583D02*
X0308755Y0224583D01*
X0309451Y0223785D02*
X0310738Y0223785D01*
X0310407Y0222986D02*
X0309782Y0222986D01*
X0309957Y0222188D02*
X0310231Y0222188D01*
X0310231Y0221389D02*
X0309957Y0221389D01*
X0309767Y0220591D02*
X0310422Y0220591D01*
X0310753Y0219792D02*
X0309436Y0219792D01*
X0308718Y0218994D02*
X0311471Y0218994D01*
X0312822Y0218195D02*
X0307367Y0218195D01*
X0304948Y0218195D02*
X0299493Y0218195D01*
X0300844Y0218994D02*
X0303597Y0218994D01*
X0302879Y0219792D02*
X0301562Y0219792D01*
X0301893Y0220591D02*
X0302548Y0220591D01*
X0302357Y0221389D02*
X0302083Y0221389D01*
X0302083Y0222188D02*
X0302357Y0222188D01*
X0302533Y0222986D02*
X0301908Y0222986D01*
X0301577Y0223785D02*
X0302864Y0223785D01*
X0303560Y0224583D02*
X0300881Y0224583D01*
X0295686Y0224583D02*
X0293007Y0224583D01*
X0293703Y0223785D02*
X0294990Y0223785D01*
X0294659Y0222986D02*
X0294034Y0222986D01*
X0294209Y0222188D02*
X0294483Y0222188D01*
X0294483Y0221389D02*
X0294209Y0221389D01*
X0294019Y0220591D02*
X0294674Y0220591D01*
X0295005Y0219792D02*
X0293688Y0219792D01*
X0292970Y0218994D02*
X0295723Y0218994D01*
X0297074Y0218195D02*
X0291619Y0218195D01*
X0289200Y0218195D02*
X0283745Y0218195D01*
X0285096Y0218994D02*
X0287849Y0218994D01*
X0287131Y0219792D02*
X0285814Y0219792D01*
X0286145Y0220591D02*
X0286800Y0220591D01*
X0286609Y0221389D02*
X0286335Y0221389D01*
X0286335Y0222188D02*
X0286609Y0222188D01*
X0286785Y0222986D02*
X0286160Y0222986D01*
X0285829Y0223785D02*
X0287116Y0223785D01*
X0287812Y0224583D02*
X0285133Y0224583D01*
X0279938Y0224583D02*
X0277259Y0224583D01*
X0277955Y0223785D02*
X0279241Y0223785D01*
X0278911Y0222986D02*
X0278286Y0222986D01*
X0278461Y0222188D02*
X0278735Y0222188D01*
X0278735Y0221389D02*
X0278461Y0221389D01*
X0278271Y0220591D02*
X0278926Y0220591D01*
X0279257Y0219792D02*
X0277940Y0219792D01*
X0277222Y0218994D02*
X0279975Y0218994D01*
X0281326Y0218195D02*
X0275871Y0218195D01*
X0273452Y0218195D02*
X0267997Y0218195D01*
X0269348Y0218994D02*
X0272101Y0218994D01*
X0271383Y0219792D02*
X0270066Y0219792D01*
X0270397Y0220591D02*
X0271052Y0220591D01*
X0270861Y0221389D02*
X0270587Y0221389D01*
X0270587Y0222188D02*
X0270861Y0222188D01*
X0271037Y0222986D02*
X0270412Y0222986D01*
X0270081Y0223785D02*
X0271367Y0223785D01*
X0272063Y0224583D02*
X0269385Y0224583D01*
X0264189Y0224583D02*
X0226444Y0224583D01*
X0227242Y0223785D02*
X0263493Y0223785D01*
X0263163Y0222986D02*
X0228041Y0222986D01*
X0228839Y0222188D02*
X0262987Y0222188D01*
X0262987Y0221389D02*
X0229638Y0221389D01*
X0230436Y0220591D02*
X0263178Y0220591D01*
X0263509Y0219792D02*
X0231235Y0219792D01*
X0232033Y0218994D02*
X0264227Y0218994D01*
X0265578Y0218195D02*
X0232832Y0218195D01*
X0227427Y0214973D02*
X0251173Y0214973D01*
X0255700Y0210447D01*
X0263370Y0212605D02*
X0267974Y0212605D01*
X0267099Y0211807D02*
X0264340Y0211807D01*
X0265048Y0211008D02*
X0266554Y0211008D01*
X0266193Y0210210D02*
X0265379Y0210210D01*
X0265700Y0209411D02*
X0265981Y0209411D01*
X0274333Y0204620D02*
X0291732Y0204620D01*
X0291732Y0205419D02*
X0275065Y0205419D01*
X0275561Y0206217D02*
X0291732Y0206217D01*
X0291732Y0207016D02*
X0275880Y0207016D01*
X0276055Y0207814D02*
X0291732Y0207814D01*
X0299283Y0207814D02*
X0302356Y0207814D01*
X0302356Y0207016D02*
X0299244Y0207016D01*
X0300081Y0208613D02*
X0302356Y0208613D01*
X0302377Y0209411D02*
X0301679Y0209411D01*
X0302730Y0210210D02*
X0302836Y0210210D01*
X0343500Y0233500D02*
X0373500Y0203500D01*
X0373500Y0153500D01*
X0343500Y0123500D01*
X0126000Y0123500D01*
X0096000Y0153500D01*
X0096000Y0203500D01*
X0128500Y0233500D01*
X0343500Y0233500D01*
X0293900Y0168100D02*
X0293900Y0163400D01*
X0293901Y0163400D01*
X0294442Y0163486D01*
X0293800Y0161935D01*
X0293800Y0161033D01*
X0290344Y0164489D01*
X0290827Y0164138D01*
X0291542Y0163774D01*
X0292306Y0163526D01*
X0293099Y0163400D01*
X0293100Y0163400D01*
X0293100Y0168100D01*
X0293900Y0168100D01*
X0293900Y0167889D02*
X0293100Y0167889D01*
X0293100Y0167090D02*
X0293900Y0167090D01*
X0293900Y0166292D02*
X0293100Y0166292D01*
X0293100Y0165493D02*
X0293900Y0165493D01*
X0293900Y0164695D02*
X0293100Y0164695D01*
X0293100Y0163896D02*
X0293900Y0163896D01*
X0294282Y0163098D02*
X0291735Y0163098D01*
X0291302Y0163896D02*
X0290937Y0163896D01*
X0292534Y0162299D02*
X0293951Y0162299D01*
X0293800Y0161501D02*
X0293332Y0161501D01*
X0302250Y0163896D02*
X0302333Y0163896D01*
X0306269Y0155911D02*
X0321985Y0155911D01*
X0322741Y0155113D02*
X0307067Y0155113D01*
X0307866Y0154314D02*
X0323824Y0154314D01*
X0328176Y0154314D02*
X0343500Y0154314D01*
X0343500Y0153516D02*
X0308664Y0153516D01*
X0309463Y0152717D02*
X0343500Y0152717D01*
X0343500Y0151919D02*
X0310261Y0151919D01*
X0311060Y0151120D02*
X0343500Y0151120D01*
X0343500Y0150322D02*
X0311858Y0150322D01*
X0312657Y0149523D02*
X0343500Y0149523D01*
X0343500Y0148725D02*
X0313455Y0148725D01*
X0314254Y0147926D02*
X0343500Y0147926D01*
X0343500Y0147128D02*
X0315052Y0147128D01*
X0315851Y0146329D02*
X0343500Y0146329D01*
X0343500Y0145531D02*
X0316649Y0145531D01*
X0315085Y0143135D02*
X0273990Y0143135D01*
X0274788Y0142337D02*
X0315884Y0142337D01*
X0311809Y0138344D02*
X0308380Y0138344D01*
X0309179Y0137545D02*
X0311010Y0137545D01*
X0310562Y0136747D02*
X0309627Y0136747D01*
X0309957Y0135948D02*
X0310231Y0135948D01*
X0310231Y0135150D02*
X0309957Y0135150D01*
X0309922Y0134351D02*
X0310267Y0134351D01*
X0310598Y0133553D02*
X0309591Y0133553D01*
X0309093Y0132754D02*
X0311096Y0132754D01*
X0303935Y0138344D02*
X0300506Y0138344D01*
X0301305Y0137545D02*
X0303136Y0137545D01*
X0302688Y0136747D02*
X0301753Y0136747D01*
X0302083Y0135948D02*
X0302357Y0135948D01*
X0302357Y0135150D02*
X0302083Y0135150D01*
X0302048Y0134351D02*
X0302393Y0134351D01*
X0302724Y0133553D02*
X0301717Y0133553D01*
X0301219Y0132754D02*
X0303222Y0132754D01*
X0329346Y0143500D02*
X0337654Y0135193D01*
X0341454Y0135150D02*
X0343500Y0135150D01*
X0343500Y0135948D02*
X0341454Y0135948D01*
X0341454Y0136747D02*
X0343500Y0136747D01*
X0343500Y0137545D02*
X0341454Y0137545D01*
X0341454Y0138344D02*
X0343500Y0138344D01*
X0343500Y0139142D02*
X0335684Y0139142D01*
X0334885Y0139941D02*
X0343500Y0139941D01*
X0343500Y0140739D02*
X0334087Y0140739D01*
X0333288Y0141538D02*
X0343500Y0141538D01*
X0343500Y0142337D02*
X0332490Y0142337D01*
X0331691Y0143135D02*
X0343500Y0143135D01*
X0343500Y0143934D02*
X0330893Y0143934D01*
X0330094Y0144732D02*
X0343500Y0144732D01*
X0343500Y0134351D02*
X0341454Y0134351D01*
X0341454Y0133553D02*
X0343500Y0133553D01*
X0343500Y0132754D02*
X0341454Y0132754D01*
X0341431Y0131956D02*
X0343500Y0131956D01*
X0342772Y0129560D02*
X0126728Y0129560D01*
X0127526Y0128762D02*
X0341974Y0128762D01*
X0231063Y0148725D02*
X0230200Y0148725D01*
X0230200Y0149523D02*
X0230264Y0149523D01*
X0227400Y0149523D02*
X0226170Y0149523D01*
X0226968Y0150322D02*
X0227400Y0150322D01*
X0213410Y0143590D02*
X0221000Y0136000D01*
X0210610Y0140739D02*
X0207719Y0140739D01*
X0208294Y0139941D02*
X0206921Y0139941D01*
X0207496Y0139142D02*
X0206122Y0139142D01*
X0206884Y0138344D02*
X0205324Y0138344D01*
X0205447Y0137545D02*
X0206553Y0137545D01*
X0206300Y0136747D02*
X0205700Y0136747D01*
X0205700Y0135948D02*
X0206300Y0135948D01*
X0206300Y0135150D02*
X0205700Y0135150D01*
X0205404Y0134351D02*
X0206596Y0134351D01*
X0206926Y0133553D02*
X0205074Y0133553D01*
X0204401Y0132754D02*
X0207599Y0132754D01*
X0208482Y0131956D02*
X0203518Y0131956D01*
X0208518Y0141538D02*
X0210610Y0141538D01*
X0210610Y0142337D02*
X0209316Y0142337D01*
X0210115Y0143135D02*
X0210610Y0143135D01*
X0213410Y0143590D02*
X0213410Y0165790D01*
X0216953Y0169253D02*
X0216953Y0175367D01*
X0208717Y0180173D02*
X0201827Y0180173D01*
X0191000Y0191000D01*
X0189350Y0189350D01*
X0190600Y0189449D02*
X0191400Y0189449D01*
X0191400Y0190247D02*
X0190600Y0190247D01*
X0190600Y0191046D02*
X0175858Y0191046D01*
X0173283Y0191984D02*
X0170596Y0191984D01*
X0161846Y0200733D01*
X0161846Y0203500D01*
X0165012Y0203822D02*
X0165093Y0203822D01*
X0165012Y0203903D02*
X0170456Y0198458D01*
X0170709Y0198458D01*
X0170709Y0196924D01*
X0170728Y0196905D01*
X0170709Y0196887D01*
X0170709Y0195484D01*
X0170588Y0195364D01*
X0170404Y0195044D01*
X0170309Y0194688D01*
X0170309Y0194251D01*
X0164028Y0200531D01*
X0164426Y0200531D01*
X0165012Y0201117D01*
X0165012Y0203903D01*
X0165012Y0203023D02*
X0165891Y0203023D01*
X0166690Y0202225D02*
X0165012Y0202225D01*
X0165012Y0201426D02*
X0167488Y0201426D01*
X0168287Y0200628D02*
X0164522Y0200628D01*
X0164730Y0199829D02*
X0169085Y0199829D01*
X0169884Y0199031D02*
X0165529Y0199031D01*
X0166327Y0198232D02*
X0170709Y0198232D01*
X0170709Y0197434D02*
X0167126Y0197434D01*
X0167900Y0196660D02*
X0167900Y0199316D01*
X0166808Y0200408D01*
X0167900Y0196660D02*
X0170607Y0193953D01*
X0173283Y0193953D01*
X0173283Y0193953D01*
X0170607Y0193953D01*
X0170607Y0193953D01*
X0173283Y0193953D01*
X0177100Y0193953D01*
X0179400Y0190700D02*
X0179400Y0188900D01*
X0180400Y0187900D01*
X0173431Y0187900D01*
X0173283Y0188047D01*
X0173283Y0186079D02*
X0171001Y0186079D01*
X0168789Y0188291D01*
X0170584Y0190016D02*
X0167911Y0192689D01*
X0162657Y0192689D01*
X0161846Y0193500D01*
X0155154Y0193500D02*
X0155154Y0189254D01*
X0154600Y0188700D01*
X0151988Y0194240D02*
X0151335Y0194240D01*
X0151988Y0195038D02*
X0150536Y0195038D01*
X0149756Y0195837D02*
X0151988Y0195837D01*
X0153245Y0196635D02*
X0149756Y0196635D01*
X0149756Y0197434D02*
X0152589Y0197434D01*
X0152311Y0198232D02*
X0149756Y0198232D01*
X0149756Y0199031D02*
X0152311Y0199031D01*
X0152615Y0199829D02*
X0149756Y0199829D01*
X0149499Y0200628D02*
X0152478Y0200628D01*
X0151988Y0201426D02*
X0147585Y0201426D01*
X0148272Y0202225D02*
X0151988Y0202225D01*
X0151988Y0203023D02*
X0148587Y0203023D01*
X0148587Y0203822D02*
X0151988Y0203822D01*
X0151988Y0204620D02*
X0148336Y0204620D01*
X0155154Y0203500D02*
X0155154Y0198954D01*
X0154800Y0198600D01*
X0155238Y0206700D02*
X0149170Y0212768D01*
X0144232Y0212768D01*
X0136000Y0221000D01*
X0137703Y0225382D02*
X0144297Y0225382D01*
X0142936Y0224583D02*
X0139064Y0224583D01*
X0139862Y0223785D02*
X0142138Y0223785D01*
X0141735Y0222986D02*
X0140265Y0222986D01*
X0140595Y0222188D02*
X0141405Y0222188D01*
X0141300Y0221389D02*
X0140700Y0221389D01*
X0140700Y0220591D02*
X0141300Y0220591D01*
X0141413Y0219792D02*
X0140587Y0219792D01*
X0140256Y0218994D02*
X0141744Y0218994D01*
X0142158Y0218195D02*
X0140785Y0218195D01*
X0141583Y0217397D02*
X0142957Y0217397D01*
X0142382Y0216598D02*
X0144346Y0216598D01*
X0143180Y0215800D02*
X0149221Y0215800D01*
X0148422Y0216598D02*
X0147654Y0216598D01*
X0150019Y0215001D02*
X0143979Y0215001D01*
X0144777Y0214203D02*
X0150818Y0214203D01*
X0150514Y0213404D02*
X0151616Y0213404D01*
X0151312Y0212605D02*
X0152415Y0212605D01*
X0152111Y0211807D02*
X0153213Y0211807D01*
X0152909Y0211008D02*
X0154012Y0211008D01*
X0153708Y0210210D02*
X0154810Y0210210D01*
X0154506Y0209411D02*
X0155609Y0209411D01*
X0155305Y0208613D02*
X0156407Y0208613D01*
X0155238Y0206700D02*
X0158100Y0206700D01*
X0158331Y0206469D01*
X0164426Y0206469D01*
X0171036Y0199858D01*
X0173283Y0199858D01*
X0173283Y0201827D02*
X0171048Y0201827D01*
X0182142Y0201000D02*
X0182142Y0200258D01*
X0182142Y0198994D01*
X0182500Y0199900D02*
X0182142Y0200258D01*
X0170709Y0196635D02*
X0167924Y0196635D01*
X0168723Y0195837D02*
X0170709Y0195837D01*
X0170402Y0195038D02*
X0169521Y0195038D01*
X0170584Y0190016D02*
X0173283Y0190016D01*
X0173283Y0184110D02*
X0170990Y0184110D01*
X0171236Y0176236D02*
X0173283Y0176236D01*
X0166500Y0176236D01*
X0164236Y0178500D01*
X0161700Y0178500D01*
X0165412Y0175345D02*
X0165920Y0174836D01*
X0167856Y0174836D01*
X0165412Y0172392D01*
X0165412Y0173100D01*
X0162246Y0173100D01*
X0162246Y0173900D01*
X0165412Y0173900D01*
X0165412Y0175345D01*
X0165412Y0175075D02*
X0165681Y0175075D01*
X0165412Y0174277D02*
X0167297Y0174277D01*
X0166499Y0173478D02*
X0162246Y0173478D01*
X0161846Y0173500D02*
X0161846Y0168826D01*
X0157180Y0168826D01*
X0143800Y0155447D01*
X0143800Y0151553D01*
X0148006Y0147347D01*
X0145830Y0149523D02*
X0141170Y0149523D01*
X0141968Y0150322D02*
X0145032Y0150322D01*
X0144399Y0151120D02*
X0142601Y0151120D01*
X0142932Y0151919D02*
X0144068Y0151919D01*
X0143800Y0152717D02*
X0143200Y0152717D01*
X0143200Y0153516D02*
X0143800Y0153516D01*
X0143800Y0154314D02*
X0143200Y0154314D01*
X0142919Y0155113D02*
X0144081Y0155113D01*
X0144412Y0155911D02*
X0142891Y0155911D01*
X0143690Y0156710D02*
X0145063Y0156710D01*
X0144488Y0157508D02*
X0145895Y0157508D01*
X0145287Y0158307D02*
X0151327Y0158307D01*
X0152125Y0159105D02*
X0146085Y0159105D01*
X0146884Y0159904D02*
X0152924Y0159904D01*
X0153722Y0160702D02*
X0147682Y0160702D01*
X0148481Y0161501D02*
X0154521Y0161501D01*
X0155319Y0162299D02*
X0149279Y0162299D01*
X0150078Y0163098D02*
X0156118Y0163098D01*
X0156916Y0163896D02*
X0150876Y0163896D01*
X0151675Y0164695D02*
X0157715Y0164695D01*
X0158513Y0165493D02*
X0152473Y0165493D01*
X0153272Y0166292D02*
X0159312Y0166292D01*
X0160110Y0167090D02*
X0154070Y0167090D01*
X0154869Y0167889D02*
X0160909Y0167889D01*
X0161707Y0168687D02*
X0155667Y0168687D01*
X0155531Y0170531D02*
X0138500Y0153500D01*
X0133800Y0153516D02*
X0133200Y0153516D01*
X0133200Y0154314D02*
X0133800Y0154314D01*
X0134081Y0155113D02*
X0133200Y0155113D01*
X0133200Y0155911D02*
X0134412Y0155911D01*
X0135063Y0156710D02*
X0133200Y0156710D01*
X0133200Y0157508D02*
X0135895Y0157508D01*
X0133800Y0152717D02*
X0133200Y0152717D01*
X0133200Y0151919D02*
X0134068Y0151919D01*
X0134399Y0151120D02*
X0133200Y0151120D01*
X0133200Y0150322D02*
X0135032Y0150322D01*
X0135830Y0149523D02*
X0133200Y0149523D01*
X0148500Y0153500D02*
X0171236Y0176236D01*
X0176236Y0173283D02*
X0171153Y0168200D01*
X0168700Y0168200D01*
X0158700Y0158200D01*
X0156553Y0158200D01*
X0153800Y0155447D01*
X0153800Y0151553D01*
X0156553Y0148800D01*
X0169200Y0148800D01*
X0169600Y0149200D01*
X0169600Y0150896D01*
X0163679Y0151120D02*
X0162601Y0151120D01*
X0161968Y0150322D02*
X0163679Y0150322D01*
X0163200Y0153516D02*
X0176789Y0153516D01*
X0176789Y0154314D02*
X0163200Y0154314D01*
X0161231Y0156231D02*
X0158500Y0153500D01*
X0161231Y0156231D02*
X0174935Y0156231D01*
X0175521Y0156817D01*
X0175521Y0158521D01*
X0184400Y0167400D01*
X0184400Y0167485D01*
X0180591Y0171294D01*
X0180591Y0172866D01*
X0180173Y0173283D01*
X0178205Y0173283D02*
X0178205Y0167805D01*
X0177700Y0167300D01*
X0169600Y0159200D01*
X0175797Y0155113D02*
X0176789Y0155113D01*
X0176789Y0155911D02*
X0176595Y0155911D01*
X0179682Y0160702D02*
X0203958Y0160702D01*
X0203259Y0161501D02*
X0180481Y0161501D01*
X0181279Y0162299D02*
X0202951Y0162299D01*
X0202043Y0159904D02*
X0205400Y0159904D01*
X0205400Y0159105D02*
X0202411Y0159105D01*
X0202411Y0158307D02*
X0205400Y0158307D01*
X0205400Y0157508D02*
X0202411Y0157508D01*
X0202411Y0156710D02*
X0205400Y0156710D01*
X0205400Y0155911D02*
X0202411Y0155911D01*
X0202411Y0155113D02*
X0205400Y0155113D01*
X0205400Y0154314D02*
X0202411Y0154314D01*
X0202411Y0153516D02*
X0205400Y0153516D01*
X0205400Y0152717D02*
X0202411Y0152717D01*
X0202411Y0151919D02*
X0205400Y0151919D01*
X0205400Y0151120D02*
X0202411Y0151120D01*
X0202411Y0150322D02*
X0205400Y0150322D01*
X0205243Y0149523D02*
X0202411Y0149523D01*
X0202271Y0148725D02*
X0204445Y0148725D01*
X0195927Y0163098D02*
X0182078Y0163098D01*
X0182876Y0163896D02*
X0195128Y0163896D01*
X0194330Y0164695D02*
X0183675Y0164695D01*
X0186013Y0165493D02*
X0187287Y0165493D01*
X0165700Y0172680D02*
X0165412Y0172680D01*
X0162246Y0172680D02*
X0161446Y0172680D01*
X0161446Y0171881D02*
X0162246Y0171881D01*
X0162246Y0171083D02*
X0161446Y0171083D01*
X0161446Y0170284D02*
X0162246Y0170284D01*
X0162506Y0169486D02*
X0158667Y0169486D01*
X0153305Y0170284D02*
X0131800Y0170284D01*
X0131800Y0169486D02*
X0152506Y0169486D01*
X0151707Y0168687D02*
X0131800Y0168687D01*
X0131503Y0167889D02*
X0150909Y0167889D01*
X0150110Y0167090D02*
X0126000Y0167090D01*
X0126000Y0166292D02*
X0149312Y0166292D01*
X0148513Y0165493D02*
X0126000Y0165493D01*
X0126000Y0164695D02*
X0147715Y0164695D01*
X0146916Y0163896D02*
X0126000Y0163896D01*
X0126000Y0163098D02*
X0146118Y0163098D01*
X0145319Y0162299D02*
X0126000Y0162299D01*
X0126000Y0161501D02*
X0144521Y0161501D01*
X0143722Y0160702D02*
X0126000Y0160702D01*
X0126000Y0159904D02*
X0142924Y0159904D01*
X0142125Y0159105D02*
X0126000Y0159105D01*
X0126000Y0158307D02*
X0141327Y0158307D01*
X0151170Y0149523D02*
X0153850Y0149523D01*
X0153052Y0150322D02*
X0151968Y0150322D01*
X0163706Y0139941D02*
X0164761Y0139941D01*
X0162800Y0136000D02*
X0161000Y0136000D01*
X0156300Y0135948D02*
X0155700Y0135948D01*
X0155700Y0135150D02*
X0156300Y0135150D01*
X0156596Y0134351D02*
X0155700Y0134351D01*
X0155700Y0133553D02*
X0156926Y0133553D01*
X0157599Y0132754D02*
X0155700Y0132754D01*
X0155700Y0131956D02*
X0158482Y0131956D01*
X0156300Y0136747D02*
X0155700Y0136747D01*
X0155700Y0137545D02*
X0156553Y0137545D01*
X0126097Y0167889D02*
X0126000Y0167889D01*
X0131800Y0171083D02*
X0152023Y0171083D01*
X0151988Y0171881D02*
X0131800Y0171881D01*
X0131746Y0179068D02*
X0132288Y0179068D01*
X0133087Y0179867D02*
X0126000Y0179867D01*
X0126000Y0180665D02*
X0133885Y0180665D01*
X0134684Y0181464D02*
X0126000Y0181464D01*
X0126000Y0182262D02*
X0135318Y0182262D01*
X0134736Y0183061D02*
X0126000Y0183061D01*
X0126000Y0183859D02*
X0134511Y0183859D01*
X0134537Y0184658D02*
X0126000Y0184658D01*
X0126000Y0185456D02*
X0134868Y0185456D01*
X0135698Y0186255D02*
X0126000Y0186255D01*
X0126000Y0187053D02*
X0144561Y0187053D01*
X0143763Y0187852D02*
X0126000Y0187852D01*
X0126000Y0188650D02*
X0142964Y0188650D01*
X0142166Y0189449D02*
X0126000Y0189449D01*
X0126000Y0190247D02*
X0141367Y0190247D01*
X0138890Y0191046D02*
X0126000Y0191046D01*
X0126000Y0191844D02*
X0138245Y0191844D01*
X0137960Y0192643D02*
X0126000Y0192643D01*
X0126000Y0193441D02*
X0137960Y0193441D01*
X0140547Y0193047D02*
X0136000Y0197594D01*
X0132244Y0197434D02*
X0126000Y0197434D01*
X0126000Y0198232D02*
X0132244Y0198232D01*
X0132244Y0199031D02*
X0126000Y0199031D01*
X0126000Y0199829D02*
X0132244Y0199829D01*
X0132501Y0200628D02*
X0126000Y0200628D01*
X0126000Y0196635D02*
X0132244Y0196635D01*
X0132244Y0195837D02*
X0126000Y0195837D01*
X0126000Y0195038D02*
X0132244Y0195038D01*
X0132822Y0194240D02*
X0126000Y0194240D01*
X0126000Y0207814D02*
X0126655Y0207814D01*
X0135600Y0207814D02*
X0136400Y0207814D01*
X0136400Y0207016D02*
X0135600Y0207016D01*
X0135600Y0206217D02*
X0136400Y0206217D01*
X0136400Y0210210D02*
X0135600Y0210210D01*
X0135600Y0211008D02*
X0136400Y0211008D01*
X0136400Y0211807D02*
X0135600Y0211807D01*
X0135600Y0212605D02*
X0136400Y0212605D01*
X0150570Y0213348D02*
X0150570Y0213348D01*
X0150256Y0218994D02*
X0151886Y0218994D01*
X0151206Y0219792D02*
X0150587Y0219792D01*
X0150700Y0220591D02*
X0150911Y0220591D01*
X0150911Y0221389D02*
X0150700Y0221389D01*
X0150595Y0222188D02*
X0151198Y0222188D01*
X0151866Y0222986D02*
X0150265Y0222986D01*
X0155207Y0226979D02*
X0135332Y0226979D01*
X0158500Y0224346D02*
X0168500Y0224346D01*
X0178500Y0224346D01*
X0178100Y0224583D02*
X0168900Y0224583D01*
X0168900Y0224746D02*
X0171868Y0224746D01*
X0171868Y0226696D01*
X0171773Y0227052D01*
X0171752Y0227089D01*
X0175248Y0227089D01*
X0175227Y0227052D01*
X0175131Y0226696D01*
X0175131Y0224746D01*
X0178100Y0224746D01*
X0178100Y0223946D01*
X0175131Y0223946D01*
X0175131Y0222581D01*
X0171868Y0222581D01*
X0171868Y0223946D01*
X0168900Y0223946D01*
X0168900Y0224746D01*
X0168100Y0224746D02*
X0168100Y0223946D01*
X0165131Y0223946D01*
X0165131Y0221997D01*
X0165227Y0221641D01*
X0165411Y0221321D01*
X0165672Y0221061D01*
X0165991Y0220877D01*
X0166206Y0220819D01*
X0166117Y0220819D01*
X0165531Y0220233D01*
X0165531Y0217054D01*
X0163650Y0218935D01*
X0163650Y0220330D01*
X0162830Y0221150D01*
X0162400Y0221580D01*
X0161868Y0222111D01*
X0161868Y0223946D01*
X0158900Y0223946D01*
X0158900Y0224746D01*
X0161868Y0224746D01*
X0161868Y0226696D01*
X0161773Y0227052D01*
X0161752Y0227089D01*
X0165248Y0227089D01*
X0165227Y0227052D01*
X0165131Y0226696D01*
X0165131Y0224746D01*
X0168100Y0224746D01*
X0168100Y0224583D02*
X0158900Y0224583D01*
X0161868Y0223785D02*
X0165131Y0223785D01*
X0165131Y0222986D02*
X0161868Y0222986D01*
X0161868Y0222188D02*
X0165131Y0222188D01*
X0165372Y0221389D02*
X0162591Y0221389D01*
X0163389Y0220591D02*
X0165889Y0220591D01*
X0165531Y0219792D02*
X0163650Y0219792D01*
X0163650Y0218994D02*
X0165531Y0218994D01*
X0165531Y0218195D02*
X0164390Y0218195D01*
X0165189Y0217397D02*
X0165531Y0217397D01*
X0165131Y0225382D02*
X0161868Y0225382D01*
X0161868Y0226180D02*
X0165131Y0226180D01*
X0165207Y0226979D02*
X0161793Y0226979D01*
X0171793Y0226979D02*
X0175207Y0226979D01*
X0175131Y0226180D02*
X0171868Y0226180D01*
X0171868Y0225382D02*
X0175131Y0225382D01*
X0175131Y0223785D02*
X0171868Y0223785D01*
X0171868Y0222986D02*
X0175131Y0222986D01*
X0180883Y0221181D02*
X0181469Y0221767D01*
X0181469Y0223969D01*
X0183500Y0226000D01*
X0195034Y0226180D02*
X0199917Y0226180D01*
X0198135Y0225382D02*
X0195600Y0225382D01*
X0195600Y0224583D02*
X0197336Y0224583D01*
X0196759Y0223785D02*
X0195600Y0223785D01*
X0195600Y0222986D02*
X0196428Y0222986D01*
X0196200Y0222188D02*
X0195600Y0222188D01*
X0195653Y0222080D02*
X0195653Y0222080D01*
X0194253Y0221500D02*
X0198953Y0216800D01*
X0203700Y0216800D01*
X0206200Y0214300D01*
X0206200Y0209153D01*
X0205764Y0208717D01*
X0199433Y0213800D02*
X0195921Y0210288D01*
X0195921Y0208717D01*
X0191600Y0212700D02*
X0190500Y0213800D01*
X0186886Y0213800D01*
X0183032Y0217654D01*
X0178500Y0217654D01*
X0183672Y0218994D02*
X0186200Y0218994D01*
X0186200Y0218195D02*
X0184471Y0218195D01*
X0185269Y0217397D02*
X0186200Y0217397D01*
X0186068Y0216598D02*
X0193017Y0216598D01*
X0191969Y0215800D02*
X0186866Y0215800D01*
X0191279Y0215001D02*
X0191592Y0215001D01*
X0195600Y0217397D02*
X0196377Y0217397D01*
X0194253Y0221500D02*
X0190900Y0221500D01*
X0199433Y0213800D02*
X0201400Y0213800D01*
X0191400Y0188650D02*
X0190600Y0188650D01*
X0190600Y0187852D02*
X0191400Y0187852D01*
X0216953Y0169253D02*
X0218806Y0167400D01*
X0219600Y0167400D01*
X0223500Y0163500D01*
X0137000Y0184100D02*
X0136500Y0183600D01*
D12*
X0128800Y0173600D03*
X0102800Y0173600D03*
D13*
X0155154Y0173500D03*
X0161846Y0173500D03*
X0161846Y0183500D03*
X0155154Y0183500D03*
X0155154Y0193500D03*
X0161846Y0193500D03*
X0161846Y0203500D03*
X0155154Y0203500D03*
X0295154Y0193500D03*
X0301846Y0193500D03*
X0301846Y0183500D03*
X0295154Y0183500D03*
X0310154Y0183500D03*
X0316846Y0183500D03*
D14*
X0318500Y0192594D03*
X0318500Y0204406D03*
X0146000Y0209406D03*
X0136000Y0209406D03*
X0136000Y0197594D03*
X0146000Y0197594D03*
D15*
X0266000Y0191295D03*
X0266000Y0165705D03*
D16*
X0293500Y0168500D03*
X0298500Y0161000D03*
X0303500Y0168500D03*
X0326000Y0168500D03*
X0326000Y0158500D03*
X0356000Y0193500D03*
X0356000Y0203500D03*
X0271000Y0208500D03*
X0261000Y0208500D03*
X0251000Y0208500D03*
X0241000Y0208500D03*
X0231000Y0208500D03*
X0221000Y0208500D03*
X0220900Y0221500D03*
X0210900Y0221500D03*
X0200900Y0221500D03*
X0146000Y0221000D03*
X0136000Y0221000D03*
X0113500Y0203500D03*
X0113500Y0193500D03*
X0138500Y0153500D03*
X0148500Y0153500D03*
X0158500Y0153500D03*
X0161000Y0136000D03*
X0171000Y0136000D03*
X0181000Y0136000D03*
X0191000Y0136000D03*
X0201000Y0136000D03*
X0211000Y0136000D03*
X0221000Y0136000D03*
X0231000Y0136000D03*
X0241000Y0136000D03*
X0138500Y0136000D03*
X0128500Y0136000D03*
D17*
X0151000Y0136000D03*
X0128500Y0153500D03*
X0223500Y0173500D03*
X0190900Y0221500D03*
D18*
X0266787Y0221807D03*
X0274661Y0221807D03*
X0282535Y0221807D03*
X0290409Y0221807D03*
X0298283Y0221807D03*
X0306157Y0221807D03*
X0314031Y0221807D03*
X0321906Y0221807D03*
X0329780Y0221807D03*
X0337654Y0221807D03*
X0329780Y0135193D03*
X0321906Y0135193D03*
X0314031Y0135193D03*
X0306157Y0135193D03*
X0298283Y0135193D03*
X0290409Y0135193D03*
X0282535Y0135193D03*
X0274661Y0135193D03*
X0266787Y0135193D03*
D19*
X0337654Y0135193D03*
D20*
X0236906Y0186000D03*
X0236906Y0196000D03*
X0225094Y0196000D03*
X0225094Y0186000D03*
D21*
X0178500Y0217654D03*
X0178500Y0224346D03*
X0168500Y0224346D03*
X0168500Y0217654D03*
X0158500Y0217654D03*
X0158500Y0224346D03*
D22*
X0176236Y0208717D03*
X0178205Y0208717D03*
X0180173Y0208717D03*
X0182142Y0208717D03*
X0184110Y0208717D03*
X0186079Y0208717D03*
X0188047Y0208717D03*
X0190016Y0208717D03*
X0191984Y0208717D03*
X0193953Y0208717D03*
X0195921Y0208717D03*
X0197890Y0208717D03*
X0199858Y0208717D03*
X0201827Y0208717D03*
X0203795Y0208717D03*
X0205764Y0208717D03*
X0205764Y0173283D03*
X0203795Y0173283D03*
X0201827Y0173283D03*
X0199858Y0173283D03*
X0197890Y0173283D03*
X0195921Y0173283D03*
X0193953Y0173283D03*
X0191984Y0173283D03*
X0190016Y0173283D03*
X0188047Y0173283D03*
X0186079Y0173283D03*
X0184110Y0173283D03*
X0182142Y0173283D03*
X0180173Y0173283D03*
X0178205Y0173283D03*
X0176236Y0173283D03*
D23*
X0173283Y0176236D03*
X0173283Y0178205D03*
X0173283Y0180173D03*
X0173283Y0182142D03*
X0173283Y0184110D03*
X0173283Y0186079D03*
X0173283Y0188047D03*
X0173283Y0190016D03*
X0173283Y0191984D03*
X0173283Y0193953D03*
X0173283Y0195921D03*
X0173283Y0197890D03*
X0173283Y0199858D03*
X0173283Y0201827D03*
X0173283Y0203795D03*
X0173283Y0205764D03*
X0208717Y0205764D03*
X0208717Y0203795D03*
X0208717Y0201827D03*
X0208717Y0199858D03*
X0208717Y0197890D03*
X0208717Y0195921D03*
X0208717Y0193953D03*
X0208717Y0191984D03*
X0208717Y0190016D03*
X0208717Y0188047D03*
X0208717Y0186079D03*
X0208717Y0184110D03*
X0208717Y0182142D03*
X0208717Y0180173D03*
X0208717Y0178205D03*
X0208717Y0176236D03*
D24*
X0191000Y0191000D03*
D25*
X0169600Y0159200D03*
X0169600Y0149200D03*
D26*
X0189600Y0154200D03*
D27*
X0295488Y0206000D03*
X0306512Y0206000D03*
D28*
X0336000Y0167437D03*
X0336000Y0159563D03*
D29*
X0329110Y0187142D03*
X0329110Y0198953D03*
X0329110Y0204858D03*
D30*
X0339937Y0210370D03*
X0339937Y0181630D03*
D31*
X0331669Y0181630D03*
X0331669Y0210370D03*
D32*
X0233500Y0173500D03*
X0233500Y0163500D03*
X0223500Y0163500D03*
X0223500Y0153500D03*
X0233500Y0153500D03*
D33*
X0233700Y0144200D03*
X0228800Y0145300D03*
X0205440Y0162740D03*
X0213489Y0175311D03*
X0231100Y0186100D03*
X0221300Y0191100D03*
X0230700Y0195900D03*
X0242000Y0196000D03*
X0241400Y0201400D03*
X0261800Y0199200D03*
X0275100Y0188000D03*
X0270100Y0180400D03*
X0247700Y0176100D03*
X0213900Y0196900D03*
X0201400Y0213800D03*
X0194000Y0214311D03*
X0183500Y0226000D03*
X0153400Y0221000D03*
X0154800Y0198600D03*
X0166808Y0200408D03*
X0166300Y0188800D03*
X0166800Y0183400D03*
X0161700Y0178500D03*
X0150600Y0178700D03*
X0144800Y0176100D03*
X0137000Y0184100D03*
X0154600Y0188700D03*
X0168700Y0168200D03*
X0177700Y0167300D03*
X0184400Y0167400D03*
X0188700Y0167600D03*
X0165900Y0153743D03*
X0126900Y0163500D03*
X0291200Y0198600D03*
X0300700Y0211700D03*
X0306700Y0212400D03*
X0325800Y0209800D03*
D34*
X0318500Y0213500D03*
X0261000Y0183500D03*
X0253500Y0166000D03*
X0253500Y0148500D03*
X0263500Y0146000D03*
X0283500Y0146000D03*
X0316000Y0151000D03*
X0336000Y0146000D03*
X0246000Y0223500D03*
X0233500Y0223500D03*
X0201000Y0201000D03*
X0196000Y0201000D03*
X0191000Y0201000D03*
X0186000Y0201000D03*
X0181000Y0201000D03*
X0183500Y0196000D03*
X0188500Y0196000D03*
X0193500Y0196000D03*
X0198500Y0196000D03*
X0201000Y0191000D03*
X0196000Y0191000D03*
X0191000Y0191000D03*
X0186000Y0191000D03*
X0181000Y0191000D03*
X0183500Y0186000D03*
X0188500Y0186000D03*
X0193500Y0186000D03*
X0198500Y0186000D03*
X0201000Y0181000D03*
X0196000Y0181000D03*
X0191000Y0181000D03*
X0186000Y0181000D03*
X0181000Y0181000D03*
X0146000Y0166000D03*
X0133500Y0143500D03*
X0133500Y0188500D03*
D35*
X0240600Y0178700D02*
X0250520Y0168780D01*
X0250520Y0164766D01*
X0276393Y0138893D01*
X0291942Y0138893D01*
X0295642Y0135193D01*
X0298283Y0135193D01*
X0318013Y0131300D02*
X0325887Y0131300D01*
X0329780Y0135193D01*
D36*
X0146000Y0203500D03*
X0140547Y0193047D03*
X0128500Y0206000D03*
X0128500Y0213500D03*
M02*
